<?xml version="1.0" encoding="utf-8" standalone="no"?>
<!DOCTYPE svg PUBLIC "-//W3C//DTD SVG 1.1//EN"
  "http://www.w3.org/Graphics/SVG/1.1/DTD/svg11.dtd">
<svg xmlns:xlink="http://www.w3.org/1999/xlink" width="864pt" height="360pt" viewBox="0 0 864 360" xmlns="http://www.w3.org/2000/svg" version="1.1">
 <metadata>
  <rdf:RDF xmlns:dc="http://purl.org/dc/elements/1.1/" xmlns:cc="http://creativecommons.org/ns#" xmlns:rdf="http://www.w3.org/1999/02/22-rdf-syntax-ns#">
   <cc:Work>
    <dc:type rdf:resource="http://purl.org/dc/dcmitype/StillImage"/>
    <dc:date>2024-04-15T20:05:31.876327</dc:date>
    <dc:format>image/svg+xml</dc:format>
    <dc:creator>
     <cc:Agent>
      <dc:title>Matplotlib v3.8.4, https://matplotlib.org/</dc:title>
     </cc:Agent>
    </dc:creator>
   </cc:Work>
  </rdf:RDF>
 </metadata>
 <defs>
  <style type="text/css">*{stroke-linejoin: round; stroke-linecap: butt}</style>
 </defs>
 <g id="figure_1">
  <g id="patch_1">
   <path d="M 0 360 
L 864 360 
L 864 0 
L 0 0 
L 0 360 
z
" style="fill: none; opacity: 0"/>
  </g>
  <g id="axes_1">
   <g id="patch_2">
    <path d="M 108 320.4 
L 777.6 320.4 
L 777.6 43.2 
L 108 43.2 
L 108 320.4 
z
" style="fill: none; opacity: 0"/>
   </g>
   <g id="matplotlib.axis_1">
    <g id="xtick_1">
     <g id="line2d_1">
      <path d="M 162.27207 320.4 
L 162.27207 43.2 
" clip-path="url(#pa599f5396f)" style="fill: none; stroke-dasharray: 5.12,1.28,0.8,1.28; stroke-dashoffset: 0; stroke: #b0b0b0; stroke-width: 0.8"/>
     </g>
     <g id="line2d_2">
      <defs>
       <path id="mb69bcb5489" d="M 0 0 
L 0 3.5 
" style="stroke: #a9a9a9; stroke-width: 0.8"/>
      </defs>
      <g>
       <use xlink:href="#mb69bcb5489" x="162.27207" y="320.4" style="fill: #a9a9a9; stroke: #a9a9a9; stroke-width: 0.8"/>
      </g>
     </g>
     <g id="text_1">
      <!-- 2021-09 -->
      <g style="fill: #a9a9a9" transform="translate(141.380664 334.998438) scale(0.1 -0.1)">
       <defs>
        <path id="DejaVuSans-32" d="M 1228 531 
L 3431 531 
L 3431 0 
L 469 0 
L 469 531 
Q 828 903 1448 1529 
Q 2069 2156 2228 2338 
Q 2531 2678 2651 2914 
Q 2772 3150 2772 3378 
Q 2772 3750 2511 3984 
Q 2250 4219 1831 4219 
Q 1534 4219 1204 4116 
Q 875 4013 500 3803 
L 500 4441 
Q 881 4594 1212 4672 
Q 1544 4750 1819 4750 
Q 2544 4750 2975 4387 
Q 3406 4025 3406 3419 
Q 3406 3131 3298 2873 
Q 3191 2616 2906 2266 
Q 2828 2175 2409 1742 
Q 1991 1309 1228 531 
z
" transform="scale(0.015625)"/>
        <path id="DejaVuSans-30" d="M 2034 4250 
Q 1547 4250 1301 3770 
Q 1056 3291 1056 2328 
Q 1056 1369 1301 889 
Q 1547 409 2034 409 
Q 2525 409 2770 889 
Q 3016 1369 3016 2328 
Q 3016 3291 2770 3770 
Q 2525 4250 2034 4250 
z
M 2034 4750 
Q 2819 4750 3233 4129 
Q 3647 3509 3647 2328 
Q 3647 1150 3233 529 
Q 2819 -91 2034 -91 
Q 1250 -91 836 529 
Q 422 1150 422 2328 
Q 422 3509 836 4129 
Q 1250 4750 2034 4750 
z
" transform="scale(0.015625)"/>
        <path id="DejaVuSans-31" d="M 794 531 
L 1825 531 
L 1825 4091 
L 703 3866 
L 703 4441 
L 1819 4666 
L 2450 4666 
L 2450 531 
L 3481 531 
L 3481 0 
L 794 0 
L 794 531 
z
" transform="scale(0.015625)"/>
        <path id="DejaVuSans-2d" d="M 313 2009 
L 1997 2009 
L 1997 1497 
L 313 1497 
L 313 2009 
z
" transform="scale(0.015625)"/>
        <path id="DejaVuSans-39" d="M 703 97 
L 703 672 
Q 941 559 1184 500 
Q 1428 441 1663 441 
Q 2288 441 2617 861 
Q 2947 1281 2994 2138 
Q 2813 1869 2534 1725 
Q 2256 1581 1919 1581 
Q 1219 1581 811 2004 
Q 403 2428 403 3163 
Q 403 3881 828 4315 
Q 1253 4750 1959 4750 
Q 2769 4750 3195 4129 
Q 3622 3509 3622 2328 
Q 3622 1225 3098 567 
Q 2575 -91 1691 -91 
Q 1453 -91 1209 -44 
Q 966 3 703 97 
z
M 1959 2075 
Q 2384 2075 2632 2365 
Q 2881 2656 2881 3163 
Q 2881 3666 2632 3958 
Q 2384 4250 1959 4250 
Q 1534 4250 1286 3958 
Q 1038 3666 1038 3163 
Q 1038 2656 1286 2365 
Q 1534 2075 1959 2075 
z
" transform="scale(0.015625)"/>
       </defs>
       <use xlink:href="#DejaVuSans-32"/>
       <use xlink:href="#DejaVuSans-30" x="63.623047"/>
       <use xlink:href="#DejaVuSans-32" x="127.246094"/>
       <use xlink:href="#DejaVuSans-31" x="190.869141"/>
       <use xlink:href="#DejaVuSans-2d" x="254.492188"/>
       <use xlink:href="#DejaVuSans-30" x="290.576172"/>
       <use xlink:href="#DejaVuSans-39" x="354.199219"/>
      </g>
     </g>
    </g>
    <g id="xtick_2">
     <g id="line2d_3">
      <path d="M 236.835049 320.4 
L 236.835049 43.2 
" clip-path="url(#pa599f5396f)" style="fill: none; stroke-dasharray: 5.12,1.28,0.8,1.28; stroke-dashoffset: 0; stroke: #b0b0b0; stroke-width: 0.8"/>
     </g>
     <g id="line2d_4">
      <g>
       <use xlink:href="#mb69bcb5489" x="236.835049" y="320.4" style="fill: #a9a9a9; stroke: #a9a9a9; stroke-width: 0.8"/>
      </g>
     </g>
     <g id="text_2">
      <!-- 2022-01 -->
      <g style="fill: #a9a9a9" transform="translate(215.943643 334.998438) scale(0.1 -0.1)">
       <use xlink:href="#DejaVuSans-32"/>
       <use xlink:href="#DejaVuSans-30" x="63.623047"/>
       <use xlink:href="#DejaVuSans-32" x="127.246094"/>
       <use xlink:href="#DejaVuSans-32" x="190.869141"/>
       <use xlink:href="#DejaVuSans-2d" x="254.492188"/>
       <use xlink:href="#DejaVuSans-30" x="290.576172"/>
       <use xlink:href="#DejaVuSans-31" x="354.199219"/>
      </g>
     </g>
    </g>
    <g id="xtick_3">
     <g id="line2d_5">
      <path d="M 310.175685 320.4 
L 310.175685 43.2 
" clip-path="url(#pa599f5396f)" style="fill: none; stroke-dasharray: 5.12,1.28,0.8,1.28; stroke-dashoffset: 0; stroke: #b0b0b0; stroke-width: 0.8"/>
     </g>
     <g id="line2d_6">
      <g>
       <use xlink:href="#mb69bcb5489" x="310.175685" y="320.4" style="fill: #a9a9a9; stroke: #a9a9a9; stroke-width: 0.8"/>
      </g>
     </g>
     <g id="text_3">
      <!-- 2022-05 -->
      <g style="fill: #a9a9a9" transform="translate(289.284278 334.998438) scale(0.1 -0.1)">
       <defs>
        <path id="DejaVuSans-35" d="M 691 4666 
L 3169 4666 
L 3169 4134 
L 1269 4134 
L 1269 2991 
Q 1406 3038 1543 3061 
Q 1681 3084 1819 3084 
Q 2600 3084 3056 2656 
Q 3513 2228 3513 1497 
Q 3513 744 3044 326 
Q 2575 -91 1722 -91 
Q 1428 -91 1123 -41 
Q 819 9 494 109 
L 494 744 
Q 775 591 1075 516 
Q 1375 441 1709 441 
Q 2250 441 2565 725 
Q 2881 1009 2881 1497 
Q 2881 1984 2565 2268 
Q 2250 2553 1709 2553 
Q 1456 2553 1204 2497 
Q 953 2441 691 2322 
L 691 4666 
z
" transform="scale(0.015625)"/>
       </defs>
       <use xlink:href="#DejaVuSans-32"/>
       <use xlink:href="#DejaVuSans-30" x="63.623047"/>
       <use xlink:href="#DejaVuSans-32" x="127.246094"/>
       <use xlink:href="#DejaVuSans-32" x="190.869141"/>
       <use xlink:href="#DejaVuSans-2d" x="254.492188"/>
       <use xlink:href="#DejaVuSans-30" x="290.576172"/>
       <use xlink:href="#DejaVuSans-35" x="354.199219"/>
      </g>
     </g>
    </g>
    <g id="xtick_4">
     <g id="line2d_7">
      <path d="M 385.349836 320.4 
L 385.349836 43.2 
" clip-path="url(#pa599f5396f)" style="fill: none; stroke-dasharray: 5.12,1.28,0.8,1.28; stroke-dashoffset: 0; stroke: #b0b0b0; stroke-width: 0.8"/>
     </g>
     <g id="line2d_8">
      <g>
       <use xlink:href="#mb69bcb5489" x="385.349836" y="320.4" style="fill: #a9a9a9; stroke: #a9a9a9; stroke-width: 0.8"/>
      </g>
     </g>
     <g id="text_4">
      <!-- 2022-09 -->
      <g style="fill: #a9a9a9" transform="translate(364.458429 334.998438) scale(0.1 -0.1)">
       <use xlink:href="#DejaVuSans-32"/>
       <use xlink:href="#DejaVuSans-30" x="63.623047"/>
       <use xlink:href="#DejaVuSans-32" x="127.246094"/>
       <use xlink:href="#DejaVuSans-32" x="190.869141"/>
       <use xlink:href="#DejaVuSans-2d" x="254.492188"/>
       <use xlink:href="#DejaVuSans-30" x="290.576172"/>
       <use xlink:href="#DejaVuSans-39" x="354.199219"/>
      </g>
     </g>
    </g>
    <g id="xtick_5">
     <g id="line2d_9">
      <path d="M 459.912815 320.4 
L 459.912815 43.2 
" clip-path="url(#pa599f5396f)" style="fill: none; stroke-dasharray: 5.12,1.28,0.8,1.28; stroke-dashoffset: 0; stroke: #b0b0b0; stroke-width: 0.8"/>
     </g>
     <g id="line2d_10">
      <g>
       <use xlink:href="#mb69bcb5489" x="459.912815" y="320.4" style="fill: #a9a9a9; stroke: #a9a9a9; stroke-width: 0.8"/>
      </g>
     </g>
     <g id="text_5">
      <!-- 2023-01 -->
      <g style="fill: #a9a9a9" transform="translate(439.021409 334.998438) scale(0.1 -0.1)">
       <defs>
        <path id="DejaVuSans-33" d="M 2597 2516 
Q 3050 2419 3304 2112 
Q 3559 1806 3559 1356 
Q 3559 666 3084 287 
Q 2609 -91 1734 -91 
Q 1441 -91 1130 -33 
Q 819 25 488 141 
L 488 750 
Q 750 597 1062 519 
Q 1375 441 1716 441 
Q 2309 441 2620 675 
Q 2931 909 2931 1356 
Q 2931 1769 2642 2001 
Q 2353 2234 1838 2234 
L 1294 2234 
L 1294 2753 
L 1863 2753 
Q 2328 2753 2575 2939 
Q 2822 3125 2822 3475 
Q 2822 3834 2567 4026 
Q 2313 4219 1838 4219 
Q 1578 4219 1281 4162 
Q 984 4106 628 3988 
L 628 4550 
Q 988 4650 1302 4700 
Q 1616 4750 1894 4750 
Q 2613 4750 3031 4423 
Q 3450 4097 3450 3541 
Q 3450 3153 3228 2886 
Q 3006 2619 2597 2516 
z
" transform="scale(0.015625)"/>
       </defs>
       <use xlink:href="#DejaVuSans-32"/>
       <use xlink:href="#DejaVuSans-30" x="63.623047"/>
       <use xlink:href="#DejaVuSans-32" x="127.246094"/>
       <use xlink:href="#DejaVuSans-33" x="190.869141"/>
       <use xlink:href="#DejaVuSans-2d" x="254.492188"/>
       <use xlink:href="#DejaVuSans-30" x="290.576172"/>
       <use xlink:href="#DejaVuSans-31" x="354.199219"/>
      </g>
     </g>
    </g>
    <g id="xtick_6">
     <g id="line2d_11">
      <path d="M 533.25345 320.4 
L 533.25345 43.2 
" clip-path="url(#pa599f5396f)" style="fill: none; stroke-dasharray: 5.12,1.28,0.8,1.28; stroke-dashoffset: 0; stroke: #b0b0b0; stroke-width: 0.8"/>
     </g>
     <g id="line2d_12">
      <g>
       <use xlink:href="#mb69bcb5489" x="533.25345" y="320.4" style="fill: #a9a9a9; stroke: #a9a9a9; stroke-width: 0.8"/>
      </g>
     </g>
     <g id="text_6">
      <!-- 2023-05 -->
      <g style="fill: #a9a9a9" transform="translate(512.362044 334.998438) scale(0.1 -0.1)">
       <use xlink:href="#DejaVuSans-32"/>
       <use xlink:href="#DejaVuSans-30" x="63.623047"/>
       <use xlink:href="#DejaVuSans-32" x="127.246094"/>
       <use xlink:href="#DejaVuSans-33" x="190.869141"/>
       <use xlink:href="#DejaVuSans-2d" x="254.492188"/>
       <use xlink:href="#DejaVuSans-30" x="290.576172"/>
       <use xlink:href="#DejaVuSans-35" x="354.199219"/>
      </g>
     </g>
    </g>
    <g id="xtick_7">
     <g id="line2d_13">
      <path d="M 608.427601 320.4 
L 608.427601 43.2 
" clip-path="url(#pa599f5396f)" style="fill: none; stroke-dasharray: 5.12,1.28,0.8,1.28; stroke-dashoffset: 0; stroke: #b0b0b0; stroke-width: 0.8"/>
     </g>
     <g id="line2d_14">
      <g>
       <use xlink:href="#mb69bcb5489" x="608.427601" y="320.4" style="fill: #a9a9a9; stroke: #a9a9a9; stroke-width: 0.8"/>
      </g>
     </g>
     <g id="text_7">
      <!-- 2023-09 -->
      <g style="fill: #a9a9a9" transform="translate(587.536195 334.998438) scale(0.1 -0.1)">
       <use xlink:href="#DejaVuSans-32"/>
       <use xlink:href="#DejaVuSans-30" x="63.623047"/>
       <use xlink:href="#DejaVuSans-32" x="127.246094"/>
       <use xlink:href="#DejaVuSans-33" x="190.869141"/>
       <use xlink:href="#DejaVuSans-2d" x="254.492188"/>
       <use xlink:href="#DejaVuSans-30" x="290.576172"/>
       <use xlink:href="#DejaVuSans-39" x="354.199219"/>
      </g>
     </g>
    </g>
    <g id="xtick_8">
     <g id="line2d_15">
      <path d="M 682.990581 320.4 
L 682.990581 43.2 
" clip-path="url(#pa599f5396f)" style="fill: none; stroke-dasharray: 5.12,1.28,0.8,1.28; stroke-dashoffset: 0; stroke: #b0b0b0; stroke-width: 0.8"/>
     </g>
     <g id="line2d_16">
      <g>
       <use xlink:href="#mb69bcb5489" x="682.990581" y="320.4" style="fill: #a9a9a9; stroke: #a9a9a9; stroke-width: 0.8"/>
      </g>
     </g>
     <g id="text_8">
      <!-- 2024-01 -->
      <g style="fill: #a9a9a9" transform="translate(662.099174 334.998438) scale(0.1 -0.1)">
       <defs>
        <path id="DejaVuSans-34" d="M 2419 4116 
L 825 1625 
L 2419 1625 
L 2419 4116 
z
M 2253 4666 
L 3047 4666 
L 3047 1625 
L 3713 1625 
L 3713 1100 
L 3047 1100 
L 3047 0 
L 2419 0 
L 2419 1100 
L 313 1100 
L 313 1709 
L 2253 4666 
z
" transform="scale(0.015625)"/>
       </defs>
       <use xlink:href="#DejaVuSans-32"/>
       <use xlink:href="#DejaVuSans-30" x="63.623047"/>
       <use xlink:href="#DejaVuSans-32" x="127.246094"/>
       <use xlink:href="#DejaVuSans-34" x="190.869141"/>
       <use xlink:href="#DejaVuSans-2d" x="254.492188"/>
       <use xlink:href="#DejaVuSans-30" x="290.576172"/>
       <use xlink:href="#DejaVuSans-31" x="354.199219"/>
      </g>
     </g>
    </g>
    <g id="xtick_9">
     <g id="line2d_17">
      <path d="M 756.942388 320.4 
L 756.942388 43.2 
" clip-path="url(#pa599f5396f)" style="fill: none; stroke-dasharray: 5.12,1.28,0.8,1.28; stroke-dashoffset: 0; stroke: #b0b0b0; stroke-width: 0.8"/>
     </g>
     <g id="line2d_18">
      <g>
       <use xlink:href="#mb69bcb5489" x="756.942388" y="320.4" style="fill: #a9a9a9; stroke: #a9a9a9; stroke-width: 0.8"/>
      </g>
     </g>
     <g id="text_9">
      <!-- 2024-05 -->
      <g style="fill: #a9a9a9" transform="translate(736.050981 334.998438) scale(0.1 -0.1)">
       <use xlink:href="#DejaVuSans-32"/>
       <use xlink:href="#DejaVuSans-30" x="63.623047"/>
       <use xlink:href="#DejaVuSans-32" x="127.246094"/>
       <use xlink:href="#DejaVuSans-34" x="190.869141"/>
       <use xlink:href="#DejaVuSans-2d" x="254.492188"/>
       <use xlink:href="#DejaVuSans-30" x="290.576172"/>
       <use xlink:href="#DejaVuSans-35" x="354.199219"/>
      </g>
     </g>
    </g>
   </g>
   <g id="matplotlib.axis_2">
    <g id="ytick_1">
     <g id="line2d_19">
      <path d="M 108 307.842654 
L 777.6 307.842654 
" clip-path="url(#pa599f5396f)" style="fill: none; stroke-dasharray: 5.12,1.28,0.8,1.28; stroke-dashoffset: 0; stroke: #b0b0b0; stroke-width: 0.8"/>
     </g>
     <g id="line2d_20">
      <defs>
       <path id="m5a7e1a90e1" d="M 0 0 
L -3.5 0 
" style="stroke: #a9a9a9; stroke-width: 0.8"/>
      </defs>
      <g>
       <use xlink:href="#m5a7e1a90e1" x="108" y="307.842654" style="fill: #a9a9a9; stroke: #a9a9a9; stroke-width: 0.8"/>
      </g>
     </g>
     <g id="text_10">
      <!-- 0 -->
      <g style="fill: #a9a9a9" transform="translate(94.6375 311.641873) scale(0.1 -0.1)">
       <use xlink:href="#DejaVuSans-30"/>
      </g>
     </g>
    </g>
    <g id="ytick_2">
     <g id="line2d_21">
      <path d="M 108 273.719431 
L 777.6 273.719431 
" clip-path="url(#pa599f5396f)" style="fill: none; stroke-dasharray: 5.12,1.28,0.8,1.28; stroke-dashoffset: 0; stroke: #b0b0b0; stroke-width: 0.8"/>
     </g>
     <g id="line2d_22">
      <g>
       <use xlink:href="#m5a7e1a90e1" x="108" y="273.719431" style="fill: #a9a9a9; stroke: #a9a9a9; stroke-width: 0.8"/>
      </g>
     </g>
     <g id="text_11">
      <!-- 800 -->
      <g style="fill: #a9a9a9" transform="translate(81.9125 277.51865) scale(0.1 -0.1)">
       <defs>
        <path id="DejaVuSans-38" d="M 2034 2216 
Q 1584 2216 1326 1975 
Q 1069 1734 1069 1313 
Q 1069 891 1326 650 
Q 1584 409 2034 409 
Q 2484 409 2743 651 
Q 3003 894 3003 1313 
Q 3003 1734 2745 1975 
Q 2488 2216 2034 2216 
z
M 1403 2484 
Q 997 2584 770 2862 
Q 544 3141 544 3541 
Q 544 4100 942 4425 
Q 1341 4750 2034 4750 
Q 2731 4750 3128 4425 
Q 3525 4100 3525 3541 
Q 3525 3141 3298 2862 
Q 3072 2584 2669 2484 
Q 3125 2378 3379 2068 
Q 3634 1759 3634 1313 
Q 3634 634 3220 271 
Q 2806 -91 2034 -91 
Q 1263 -91 848 271 
Q 434 634 434 1313 
Q 434 1759 690 2068 
Q 947 2378 1403 2484 
z
M 1172 3481 
Q 1172 3119 1398 2916 
Q 1625 2713 2034 2713 
Q 2441 2713 2670 2916 
Q 2900 3119 2900 3481 
Q 2900 3844 2670 4047 
Q 2441 4250 2034 4250 
Q 1625 4250 1398 4047 
Q 1172 3844 1172 3481 
z
" transform="scale(0.015625)"/>
       </defs>
       <use xlink:href="#DejaVuSans-38"/>
       <use xlink:href="#DejaVuSans-30" x="63.623047"/>
       <use xlink:href="#DejaVuSans-30" x="127.246094"/>
      </g>
     </g>
    </g>
    <g id="ytick_3">
     <g id="line2d_23">
      <path d="M 108 239.596209 
L 777.6 239.596209 
" clip-path="url(#pa599f5396f)" style="fill: none; stroke-dasharray: 5.12,1.28,0.8,1.28; stroke-dashoffset: 0; stroke: #b0b0b0; stroke-width: 0.8"/>
     </g>
     <g id="line2d_24">
      <g>
       <use xlink:href="#m5a7e1a90e1" x="108" y="239.596209" style="fill: #a9a9a9; stroke: #a9a9a9; stroke-width: 0.8"/>
      </g>
     </g>
     <g id="text_12">
      <!-- 1600 -->
      <g style="fill: #a9a9a9" transform="translate(75.55 243.395427) scale(0.1 -0.1)">
       <defs>
        <path id="DejaVuSans-36" d="M 2113 2584 
Q 1688 2584 1439 2293 
Q 1191 2003 1191 1497 
Q 1191 994 1439 701 
Q 1688 409 2113 409 
Q 2538 409 2786 701 
Q 3034 994 3034 1497 
Q 3034 2003 2786 2293 
Q 2538 2584 2113 2584 
z
M 3366 4563 
L 3366 3988 
Q 3128 4100 2886 4159 
Q 2644 4219 2406 4219 
Q 1781 4219 1451 3797 
Q 1122 3375 1075 2522 
Q 1259 2794 1537 2939 
Q 1816 3084 2150 3084 
Q 2853 3084 3261 2657 
Q 3669 2231 3669 1497 
Q 3669 778 3244 343 
Q 2819 -91 2113 -91 
Q 1303 -91 875 529 
Q 447 1150 447 2328 
Q 447 3434 972 4092 
Q 1497 4750 2381 4750 
Q 2619 4750 2861 4703 
Q 3103 4656 3366 4563 
z
" transform="scale(0.015625)"/>
       </defs>
       <use xlink:href="#DejaVuSans-31"/>
       <use xlink:href="#DejaVuSans-36" x="63.623047"/>
       <use xlink:href="#DejaVuSans-30" x="127.246094"/>
       <use xlink:href="#DejaVuSans-30" x="190.869141"/>
      </g>
     </g>
    </g>
    <g id="ytick_4">
     <g id="line2d_25">
      <path d="M 108 205.472986 
L 777.6 205.472986 
" clip-path="url(#pa599f5396f)" style="fill: none; stroke-dasharray: 5.12,1.28,0.8,1.28; stroke-dashoffset: 0; stroke: #b0b0b0; stroke-width: 0.8"/>
     </g>
     <g id="line2d_26">
      <g>
       <use xlink:href="#m5a7e1a90e1" x="108" y="205.472986" style="fill: #a9a9a9; stroke: #a9a9a9; stroke-width: 0.8"/>
      </g>
     </g>
     <g id="text_13">
      <!-- 2400 -->
      <g style="fill: #a9a9a9" transform="translate(75.55 209.272205) scale(0.1 -0.1)">
       <use xlink:href="#DejaVuSans-32"/>
       <use xlink:href="#DejaVuSans-34" x="63.623047"/>
       <use xlink:href="#DejaVuSans-30" x="127.246094"/>
       <use xlink:href="#DejaVuSans-30" x="190.869141"/>
      </g>
     </g>
    </g>
    <g id="ytick_5">
     <g id="line2d_27">
      <path d="M 108 171.349763 
L 777.6 171.349763 
" clip-path="url(#pa599f5396f)" style="fill: none; stroke-dasharray: 5.12,1.28,0.8,1.28; stroke-dashoffset: 0; stroke: #b0b0b0; stroke-width: 0.8"/>
     </g>
     <g id="line2d_28">
      <g>
       <use xlink:href="#m5a7e1a90e1" x="108" y="171.349763" style="fill: #a9a9a9; stroke: #a9a9a9; stroke-width: 0.8"/>
      </g>
     </g>
     <g id="text_14">
      <!-- 3200 -->
      <g style="fill: #a9a9a9" transform="translate(75.55 175.148982) scale(0.1 -0.1)">
       <use xlink:href="#DejaVuSans-33"/>
       <use xlink:href="#DejaVuSans-32" x="63.623047"/>
       <use xlink:href="#DejaVuSans-30" x="127.246094"/>
       <use xlink:href="#DejaVuSans-30" x="190.869141"/>
      </g>
     </g>
    </g>
    <g id="ytick_6">
     <g id="line2d_29">
      <path d="M 108 137.22654 
L 777.6 137.22654 
" clip-path="url(#pa599f5396f)" style="fill: none; stroke-dasharray: 5.12,1.28,0.8,1.28; stroke-dashoffset: 0; stroke: #b0b0b0; stroke-width: 0.8"/>
     </g>
     <g id="line2d_30">
      <g>
       <use xlink:href="#m5a7e1a90e1" x="108" y="137.22654" style="fill: #a9a9a9; stroke: #a9a9a9; stroke-width: 0.8"/>
      </g>
     </g>
     <g id="text_15">
      <!-- 4000 -->
      <g style="fill: #a9a9a9" transform="translate(75.55 141.025759) scale(0.1 -0.1)">
       <use xlink:href="#DejaVuSans-34"/>
       <use xlink:href="#DejaVuSans-30" x="63.623047"/>
       <use xlink:href="#DejaVuSans-30" x="127.246094"/>
       <use xlink:href="#DejaVuSans-30" x="190.869141"/>
      </g>
     </g>
    </g>
    <g id="ytick_7">
     <g id="line2d_31">
      <path d="M 108 103.103318 
L 777.6 103.103318 
" clip-path="url(#pa599f5396f)" style="fill: none; stroke-dasharray: 5.12,1.28,0.8,1.28; stroke-dashoffset: 0; stroke: #b0b0b0; stroke-width: 0.8"/>
     </g>
     <g id="line2d_32">
      <g>
       <use xlink:href="#m5a7e1a90e1" x="108" y="103.103318" style="fill: #a9a9a9; stroke: #a9a9a9; stroke-width: 0.8"/>
      </g>
     </g>
     <g id="text_16">
      <!-- 4800 -->
      <g style="fill: #a9a9a9" transform="translate(75.55 106.902536) scale(0.1 -0.1)">
       <use xlink:href="#DejaVuSans-34"/>
       <use xlink:href="#DejaVuSans-38" x="63.623047"/>
       <use xlink:href="#DejaVuSans-30" x="127.246094"/>
       <use xlink:href="#DejaVuSans-30" x="190.869141"/>
      </g>
     </g>
    </g>
    <g id="ytick_8">
     <g id="line2d_33">
      <path d="M 108 68.980095 
L 777.6 68.980095 
" clip-path="url(#pa599f5396f)" style="fill: none; stroke-dasharray: 5.12,1.28,0.8,1.28; stroke-dashoffset: 0; stroke: #b0b0b0; stroke-width: 0.8"/>
     </g>
     <g id="line2d_34">
      <g>
       <use xlink:href="#m5a7e1a90e1" x="108" y="68.980095" style="fill: #a9a9a9; stroke: #a9a9a9; stroke-width: 0.8"/>
      </g>
     </g>
     <g id="text_17">
      <!-- 5600 -->
      <g style="fill: #a9a9a9" transform="translate(75.55 72.779314) scale(0.1 -0.1)">
       <use xlink:href="#DejaVuSans-35"/>
       <use xlink:href="#DejaVuSans-36" x="63.623047"/>
       <use xlink:href="#DejaVuSans-30" x="127.246094"/>
       <use xlink:href="#DejaVuSans-30" x="190.869141"/>
      </g>
     </g>
    </g>
   </g>
   <g id="line2d_35">
    <path d="M 138.436364 307.714692 
L 142.103395 307.416114 
L 142.714567 307.16019 
L 144.548083 306.946919 
L 148.215115 306.221801 
L 151.882147 305.923223 
L 152.493319 305.624645 
L 153.104491 305.454028 
L 153.715663 304.686256 
L 154.326835 304.259716 
L 154.938007 302.937441 
L 155.549179 302.852133 
L 156.16035 302.382938 
L 157.382694 301.785782 
L 159.827382 299.909005 
L 161.049726 299.397156 
L 161.660898 298.970616 
L 164.105586 297.904265 
L 164.716758 296.965877 
L 165.939102 296.112796 
L 166.550274 295.814218 
L 172.661993 294.961137 
L 173.273165 294.662559 
L 177.551369 294.321327 
L 179.384885 293.852133 
L 184.885433 293.127014 
L 185.496605 292.785782 
L 186.107777 292.700474 
L 186.718949 292.44455 
L 187.941292 292.23128 
L 188.552464 292.188626 
L 189.774808 291.932701 
L 190.38598 291.890047 
L 192.830668 291.292891 
L 194.664184 291.122275 
L 195.886528 290.994313 
L 196.4977 290.823697 
L 197.108872 290.781043 
L 198.942388 290.22654 
L 200.164732 290.141232 
L 201.387076 289.970616 
L 202.609419 289.714692 
L 203.220591 289.544076 
L 203.831763 288.733649 
L 205.665279 288.051185 
L 207.498795 287.581991 
L 208.109967 287.283412 
L 208.721139 287.240758 
L 211.776999 286.387678 
L 212.999343 286.30237 
L 214.221687 286.046445 
L 216.666375 285.449289 
L 217.277547 285.406635 
L 218.49989 284.852133 
L 219.111062 284.766825 
L 219.722234 284.468246 
L 225.833954 283.572512 
L 228.889814 282.719431 
L 229.500986 282.335545 
L 231.945674 281.695735 
L 233.168018 280.970616 
L 233.779189 280.544076 
L 235.612705 280.202844 
L 239.279737 279.093839 
L 240.502081 278.709953 
L 241.113253 278.624645 
L 242.335597 278.283412 
L 243.557941 277.984834 
L 244.169113 277.899526 
L 245.391457 277.387678 
L 246.002629 277.259716 
L 246.613801 277.003791 
L 247.224973 276.918483 
L 247.836145 276.619905 
L 248.447317 276.449289 
L 249.66966 276.363981 
L 250.892004 275.937441 
L 252.114348 275.852133 
L 252.72552 275.553555 
L 253.947864 275.382938 
L 254.559036 275.169668 
L 255.78138 275.127014 
L 258.226068 274.828436 
L 259.448412 274.23128 
L 266.171303 271.37346 
L 266.782475 271.032227 
L 267.393647 270.392417 
L 268.615991 268.558294 
L 269.227163 268.387678 
L 269.838335 268.387678 
L 271.060679 267.491943 
L 271.671851 267.321327 
L 272.283023 267.022749 
L 272.894195 266.894787 
L 273.505367 266.340284 
L 274.116539 266.169668 
L 275.950055 265.273934 
L 277.172399 263.567773 
L 277.783571 263.183886 
L 278.394743 262.16019 
L 279.005915 261.520379 
L 279.617087 261.221801 
L 280.228258 261.051185 
L 282.672946 259.600948 
L 283.89529 258.619905 
L 284.506462 258.236019 
L 285.117634 257.340284 
L 285.728806 255.975355 
L 286.339978 255.079621 
L 286.95115 254.610427 
L 287.562322 254.354502 
L 290.00701 252.221801 
L 291.229354 251.240758 
L 291.840526 250.72891 
L 292.451698 249.918483 
L 293.674042 248.852133 
L 296.118729 247.273934 
L 296.729901 246.762085 
L 297.341073 246.634123 
L 297.952245 246.378199 
L 299.785761 245.354502 
L 301.008105 244.757346 
L 302.230449 243.605687 
L 302.841621 242.880569 
L 304.063965 242.027488 
L 304.675137 241.856872 
L 305.286309 241.558294 
L 306.508653 240.747867 
L 307.119825 240.406635 
L 307.730997 240.321327 
L 312.620372 237.378199 
L 313.231544 237.036967 
L 313.842716 236.823697 
L 315.676232 235.629384 
L 317.509748 235.074882 
L 318.12092 234.648341 
L 318.732092 234.520379 
L 319.954436 234.093839 
L 321.787952 233.36872 
L 323.621468 232.686256 
L 324.843812 232.472986 
L 326.066156 231.406635 
L 327.899671 230.553555 
L 329.122015 229.828436 
L 330.344359 229.487204 
L 330.955531 229.103318 
L 331.566703 228.932701 
L 333.400219 227.781043 
L 336.456079 227.055924 
L 338.289595 225.989573 
L 338.900767 225.904265 
L 339.511939 225.690995 
L 340.734283 225.435071 
L 342.567798 224.070142 
L 344.401314 223.643602 
L 345.012486 223.430332 
L 345.623658 222.961137 
L 349.29069 221.766825 
L 349.901862 221.724171 
L 350.513034 221.553555 
L 351.735378 221.041706 
L 356.013582 219.548815 
L 357.235926 219.378199 
L 357.847097 219.207583 
L 358.458269 218.909005 
L 359.069441 218.781043 
L 360.902957 217.927962 
L 362.736473 217.032227 
L 363.347645 216.605687 
L 363.958817 216.435071 
L 365.792333 215.454028 
L 367.014677 215.15545 
L 368.237021 214.51564 
L 369.459365 214.174408 
L 370.070537 214.0891 
L 371.292881 213.363981 
L 371.904053 213.236019 
L 373.126396 212.724171 
L 373.737568 212.596209 
L 374.34874 212.254976 
L 376.793428 211.87109 
L 378.015772 211.273934 
L 378.626944 210.762085 
L 379.238116 209.695735 
L 381.071632 209.354502 
L 383.51632 208.074882 
L 384.127492 207.946919 
L 388.405696 205.899526 
L 389.628039 205.558294 
L 390.850383 205.30237 
L 392.072727 204.705213 
L 392.683899 204.449289 
L 393.295071 204.363981 
L 395.739759 203.29763 
L 397.573275 202.145972 
L 398.184447 202.060664 
L 398.795619 201.847393 
L 399.406791 201.804739 
L 402.462651 201.036967 
L 403.073823 200.567773 
L 404.296166 200.141232 
L 406.129682 199.544076 
L 406.740854 199.16019 
L 407.352026 198.989573 
L 407.963198 198.563033 
L 408.57437 198.307109 
L 409.796714 197.667299 
L 412.241402 196.899526 
L 412.852574 196.600948 
L 414.68609 195.193365 
L 415.297262 195.065403 
L 416.519606 194.127014 
L 417.130778 193.999052 
L 417.74195 193.060664 
L 418.353122 192.804739 
L 418.964294 192.335545 
L 419.575465 192.250237 
L 420.797809 191.525118 
L 421.408981 191.397156 
L 422.020153 191.141232 
L 422.631325 190.672038 
L 423.242497 190.458768 
L 425.076013 189.221801 
L 427.520701 187.984834 
L 428.131873 187.899526 
L 429.354217 187.345024 
L 429.965389 187.003791 
L 430.576561 185.980095 
L 431.187733 185.425592 
L 431.798905 185.08436 
L 432.410077 184.956398 
L 433.632421 184.188626 
L 434.243593 184.060664 
L 435.465936 183.463507 
L 437.299452 182.695735 
L 438.521796 181.842654 
L 439.74414 180.563033 
L 442.8 178.345024 
L 444.022344 177.363981 
L 444.633516 177.108057 
L 445.244688 176.425592 
L 445.85586 175.956398 
L 447.078204 175.529858 
L 448.300548 174.719431 
L 448.91172 174.420853 
L 449.522892 174.250237 
L 450.134064 173.823697 
L 450.745235 173.695735 
L 452.578751 172.714692 
L 453.801095 171.989573 
L 459.912815 169.814218 
L 460.523987 169.259716 
L 462.357503 168.577251 
L 463.579847 168.193365 
L 464.191019 167.724171 
L 467.246878 166.145972 
L 468.469222 163.8 
L 469.691566 162.349763 
L 470.91391 161.624645 
L 472.747426 160.899526 
L 473.358598 160.814218 
L 473.96977 160.472986 
L 475.803286 159.918483 
L 478.247974 158.809479 
L 478.859146 158.425592 
L 480.08149 157.999052 
L 483.748521 155.866351 
L 484.359693 155.22654 
L 485.582037 154.58673 
L 486.193209 154.245498 
L 486.804381 154.032227 
L 487.415553 153.605687 
L 488.637897 153.008531 
L 490.471413 152.027488 
L 491.082585 151.856872 
L 491.693757 151.387678 
L 494.749617 150.406635 
L 495.360789 150.236019 
L 495.971961 149.937441 
L 496.583133 149.5109 
L 497.805476 149.169668 
L 499.02782 148.700474 
L 499.638992 148.23128 
L 500.861336 147.847393 
L 501.472508 147.548815 
L 502.08368 147.378199 
L 503.306024 146.525118 
L 504.528368 146.01327 
L 505.750712 145.074882 
L 506.973056 144.648341 
L 507.584228 144.136493 
L 508.1954 144.051185 
L 509.417744 143.15545 
L 510.640088 142.558294 
L 511.25126 142.30237 
L 511.862432 141.705213 
L 515.529463 140.382938 
L 517.362979 139.572512 
L 519.196495 139.018009 
L 520.418839 138.847393 
L 521.030011 138.591469 
L 521.641183 138.506161 
L 522.863527 137.994313 
L 523.474699 137.951659 
L 525.919387 137.055924 
L 527.752903 135.818957 
L 528.364074 135.563033 
L 529.586418 134.923223 
L 530.19759 134.709953 
L 532.642278 133.259716 
L 533.25345 132.875829 
L 534.475794 132.577251 
L 536.30931 131.553555 
L 538.142826 130.956398 
L 538.753998 130.700474 
L 539.976342 130.401896 
L 543.032202 129.420853 
L 544.865717 129.122275 
L 547.310405 128.354502 
L 547.921577 128.098578 
L 548.532749 128.01327 
L 549.143921 127.714692 
L 550.366265 127.458768 
L 551.588609 127.032227 
L 552.199781 126.818957 
L 553.422125 126.690995 
L 554.644469 126.392417 
L 556.477985 126.093839 
L 557.089157 125.880569 
L 558.311501 125.752607 
L 561.36736 124.984834 
L 562.589704 124.686256 
L 563.200876 124.345024 
L 566.256736 123.577251 
L 566.867908 123.449289 
L 568.090252 123.022749 
L 569.923768 122.382938 
L 570.53494 122.29763 
L 572.368456 121.65782 
L 572.979628 121.65782 
L 574.201972 121.23128 
L 574.813143 120.634123 
L 575.424315 120.335545 
L 576.646659 119.951659 
L 579.091347 119.01327 
L 579.702519 118.885308 
L 580.313691 118.501422 
L 580.924863 118.37346 
L 581.536035 118.032227 
L 584.591895 117.136493 
L 585.203067 116.752607 
L 585.814239 116.624645 
L 586.425411 116.112796 
L 588.258927 115.771564 
L 589.481271 115.0891 
L 590.092442 114.406635 
L 591.314786 114.150711 
L 595.59299 113.169668 
L 596.204162 112.999052 
L 597.426506 112.956398 
L 598.037678 112.65782 
L 600.482366 112.23128 
L 601.093538 111.975355 
L 602.927054 111.719431 
L 605.371742 110.951659 
L 607.205257 110.525118 
L 609.038773 110.055924 
L 610.872289 109.501422 
L 613.928149 108.605687 
L 614.539321 108.264455 
L 616.372837 107.624645 
L 616.984009 107.15545 
L 618.206353 106.814218 
L 618.817525 106.558294 
L 620.039869 106.217062 
L 622.484556 105.108057 
L 624.318072 104.980095 
L 626.76276 104.29763 
L 627.373932 103.913744 
L 628.596276 103.572512 
L 630.429792 102.634123 
L 631.040964 102.506161 
L 631.652136 102.207583 
L 632.263308 102.164929 
L 638.986199 99.904265 
L 641.430887 99.307109 
L 642.042059 99.136493 
L 643.264403 98.581991 
L 643.875575 98.496682 
L 645.097919 98.15545 
L 645.709091 97.686256 
L 646.320263 97.387678 
L 646.931435 96.662559 
L 647.542607 96.236019 
L 648.764951 95.852133 
L 649.376123 95.382938 
L 656.099014 92.610427 
L 657.321358 92.311848 
L 659.154874 91.458768 
L 660.377218 90.733649 
L 660.98839 90.605687 
L 661.599562 90.136493 
L 662.821906 89.539336 
L 664.04425 88.771564 
L 665.877766 87.918483 
L 666.488938 87.491943 
L 667.711281 87.065403 
L 668.933625 86.340284 
L 669.544797 86.08436 
L 670.155969 85.65782 
L 671.378313 85.23128 
L 671.989485 85.103318 
L 674.434173 83.994313 
L 677.490033 82.927962 
L 678.101205 82.885308 
L 678.712377 82.714692 
L 679.323549 82.330806 
L 679.934721 82.245498 
L 680.545893 82.032227 
L 682.379409 81.690995 
L 686.04644 79.814218 
L 686.657612 79.472986 
L 687.268784 79.387678 
L 689.1023 78.406635 
L 690.935816 77.724171 
L 692.769332 76.913744 
L 695.21402 75.932701 
L 695.825192 75.762085 
L 696.436364 75.378199 
L 697.658708 75.207583 
L 698.26988 74.823697 
L 698.881051 74.781043 
L 700.103395 74.397156 
L 701.325739 73.8 
L 701.936911 73.714692 
L 702.548083 73.458768 
L 703.159255 73.330806 
L 704.992771 72.520379 
L 705.603943 72.392417 
L 706.215115 72.136493 
L 709.270975 71.411374 
L 711.104491 70.72891 
L 713.549179 69.321327 
L 714.771522 68.852133 
L 715.382694 68.468246 
L 716.605038 68.212322 
L 717.21621 67.87109 
L 717.827382 67.743128 
L 719.049726 67.060664 
L 722.716758 65.354502 
L 724.550274 64.757346 
L 725.772618 64.330806 
L 726.38379 64.117536 
L 727.606134 63.477725 
L 728.828478 63.093839 
L 729.43965 62.965877 
L 731.884337 61.814218 
L 732.495509 61.72891 
L 733.106681 61.51564 
L 734.940197 60.491943 
L 742.885433 57.164929 
L 743.496605 56.738389 
L 745.941292 55.927962 
L 746.552464 55.927962 
L 747.163636 55.8 
L 747.163636 55.8 
" clip-path="url(#pa599f5396f)" style="fill: none; stroke: #1f77b4; stroke-width: 1.5; stroke-linecap: square"/>
   </g>
   <g id="line2d_36">
    <path d="M 139.047536 307.8 
L 140.881051 307.714692 
L 142.714567 307.672038 
L 146.381599 307.58673 
L 149.437459 307.458768 
L 151.882147 307.458768 
L 152.493319 307.288152 
L 154.938007 307.202844 
L 156.771522 306.989573 
L 158.605038 306.818957 
L 162.27207 306.648341 
L 162.883242 306.648341 
L 163.494414 306.520379 
L 165.939102 306.435071 
L 167.161446 306.349763 
L 172.050821 306.264455 
L 175.106681 306.136493 
L 182.440745 306.051185 
L 185.496605 305.923223 
L 189.163636 305.837915 
L 191.608324 305.752607 
L 197.108872 305.667299 
L 198.942388 305.624645 
L 200.775904 305.581991 
L 202.609419 305.36872 
L 206.276451 305.326066 
L 207.498795 305.240758 
L 211.776999 305.15545 
L 218.49989 304.771564 
L 222.778094 304.686256 
L 224.000438 304.600948 
L 225.833954 304.51564 
L 229.500986 304.345024 
L 231.945674 304.30237 
L 233.779189 304.131754 
L 243.557941 303.534597 
L 246.002629 303.449289 
L 250.280832 303.236019 
L 252.114348 303.150711 
L 258.226068 302.809479 
L 264.948959 302.724171 
L 267.393647 302.468246 
L 268.615991 302.382938 
L 276.561227 301.743128 
L 280.228258 301.273934 
L 282.672946 301.188626 
L 287.562322 300.548815 
L 291.229354 300.463507 
L 293.06287 300.292891 
L 294.285214 300.250237 
L 295.507558 300.122275 
L 297.341073 300.036967 
L 298.563417 299.866351 
L 301.619277 299.525118 
L 304.063965 299.43981 
L 305.286309 299.354502 
L 307.730997 299.269194 
L 308.953341 299.183886 
L 312.0092 298.885308 
L 312.620372 298.714692 
L 316.287404 298.544076 
L 319.343264 298.458768 
L 327.288499 297.989573 
L 329.122015 297.904265 
L 337.067251 297.435071 
L 341.345455 297.349763 
L 341.956627 297.221801 
L 346.846002 297.136493 
L 351.124206 296.923223 
L 357.847097 296.837915 
L 362.125301 296.624645 
L 367.014677 296.539336 
L 371.904053 296.283412 
L 376.182256 296.198104 
L 387.794524 295.472986 
L 392.683899 295.387678 
L 408.57437 294.363981 
L 412.241402 294.278673 
L 414.074918 294.236019 
L 415.908434 294.193365 
L 417.74195 294.022749 
L 422.631325 293.937441 
L 423.853669 293.724171 
L 425.076013 293.638863 
L 428.131873 293.5109 
L 429.354217 293.425592 
L 430.576561 293.340284 
L 436.077108 293.254976 
L 437.299452 293.127014 
L 439.74414 293.08436 
L 440.355312 292.956398 
L 441.577656 292.87109 
L 442.188828 292.743128 
L 444.022344 292.65782 
L 454.412267 292.018009 
L 456.245783 291.932701 
L 459.301643 291.804739 
L 467.85805 291.719431 
L 472.136254 291.506161 
L 477.02563 291.420853 
L 479.470318 291.335545 
L 481.915005 291.292891 
L 483.137349 291.164929 
L 485.582037 291.079621 
L 491.693757 290.738389 
L 495.360789 290.695735 
L 497.194304 290.525118 
L 499.02782 290.482464 
L 503.306024 290.397156 
L 505.750712 290.311848 
L 513.084775 290.22654 
L 516.140635 290.098578 
L 519.807667 290.01327 
L 521.641183 289.8 
L 525.308215 289.757346 
L 527.141731 289.58673 
L 529.586418 289.501422 
L 536.920482 289.416114 
L 539.976342 289.288152 
L 550.366265 289.245498 
L 551.588609 289.16019 
L 553.422125 289.117536 
L 561.36736 289.032227 
L 562.589704 288.946919 
L 569.312596 288.861611 
L 571.757284 288.776303 
L 579.091347 288.733649 
L 580.313691 288.648341 
L 589.481271 288.605687 
L 591.314786 288.435071 
L 606.594085 288.349763 
L 608.427601 288.307109 
L 624.929244 288.221801 
L 627.373932 288.136493 
L 637.763855 288.051185 
L 638.986199 287.965877 
L 642.042059 287.880569 
L 643.875575 287.709953 
L 646.931435 287.624645 
L 649.376123 287.539336 
L 653.043154 287.454028 
L 654.87667 287.411374 
L 657.321358 287.326066 
L 659.154874 287.283412 
L 662.210734 287.198104 
L 663.433078 287.112796 
L 667.10011 287.027488 
L 670.155969 286.899526 
L 671.378313 286.856872 
L 672.600657 286.771564 
L 674.434173 286.72891 
L 676.878861 286.643602 
L 679.323549 286.558294 
L 687.268784 286.472986 
L 689.713472 286.387678 
L 694.602848 286.30237 
L 698.881051 286.0891 
L 704.381599 286.003791 
L 705.603943 285.918483 
L 716.605038 285.833175 
L 718.438554 285.790521 
L 721.494414 285.747867 
L 723.939102 285.491943 
L 725.772618 285.449289 
L 729.43965 285.363981 
L 736.162541 284.980095 
L 738.607229 284.894787 
L 741.051917 284.809479 
L 744.718949 284.724171 
L 745.941292 284.638863 
L 747.163636 284.638863 
L 747.163636 284.638863 
" clip-path="url(#pa599f5396f)" style="fill: none; stroke: #ff7f0e; stroke-width: 1.5; stroke-linecap: square"/>
   </g>
   <g id="patch_3">
    <path d="M 108 320.4 
L 108 43.2 
" style="fill: none; stroke: #a9a9a9; stroke-width: 0.8; stroke-linejoin: miter; stroke-linecap: square"/>
   </g>
   <g id="patch_4">
    <path d="M 777.6 320.4 
L 777.6 43.2 
" style="fill: none"/>
   </g>
   <g id="patch_5">
    <path d="M 108 320.4 
L 777.6 320.4 
" style="fill: none; stroke: #a9a9a9; stroke-width: 0.8; stroke-linejoin: miter; stroke-linecap: square"/>
   </g>
   <g id="patch_6">
    <path d="M 108 43.2 
L 777.6 43.2 
" style="fill: none"/>
   </g>
   <g id="text_18">
    <!-- get_subscribe history -->
    <g style="fill: #a9a9a9" transform="translate(378.6075 37.2) scale(0.12 -0.12)">
     <defs>
      <path id="DejaVuSans-67" d="M 2906 1791 
Q 2906 2416 2648 2759 
Q 2391 3103 1925 3103 
Q 1463 3103 1205 2759 
Q 947 2416 947 1791 
Q 947 1169 1205 825 
Q 1463 481 1925 481 
Q 2391 481 2648 825 
Q 2906 1169 2906 1791 
z
M 3481 434 
Q 3481 -459 3084 -895 
Q 2688 -1331 1869 -1331 
Q 1566 -1331 1297 -1286 
Q 1028 -1241 775 -1147 
L 775 -588 
Q 1028 -725 1275 -790 
Q 1522 -856 1778 -856 
Q 2344 -856 2625 -561 
Q 2906 -266 2906 331 
L 2906 616 
Q 2728 306 2450 153 
Q 2172 0 1784 0 
Q 1141 0 747 490 
Q 353 981 353 1791 
Q 353 2603 747 3093 
Q 1141 3584 1784 3584 
Q 2172 3584 2450 3431 
Q 2728 3278 2906 2969 
L 2906 3500 
L 3481 3500 
L 3481 434 
z
" transform="scale(0.015625)"/>
      <path id="DejaVuSans-65" d="M 3597 1894 
L 3597 1613 
L 953 1613 
Q 991 1019 1311 708 
Q 1631 397 2203 397 
Q 2534 397 2845 478 
Q 3156 559 3463 722 
L 3463 178 
Q 3153 47 2828 -22 
Q 2503 -91 2169 -91 
Q 1331 -91 842 396 
Q 353 884 353 1716 
Q 353 2575 817 3079 
Q 1281 3584 2069 3584 
Q 2775 3584 3186 3129 
Q 3597 2675 3597 1894 
z
M 3022 2063 
Q 3016 2534 2758 2815 
Q 2500 3097 2075 3097 
Q 1594 3097 1305 2825 
Q 1016 2553 972 2059 
L 3022 2063 
z
" transform="scale(0.015625)"/>
      <path id="DejaVuSans-74" d="M 1172 4494 
L 1172 3500 
L 2356 3500 
L 2356 3053 
L 1172 3053 
L 1172 1153 
Q 1172 725 1289 603 
Q 1406 481 1766 481 
L 2356 481 
L 2356 0 
L 1766 0 
Q 1100 0 847 248 
Q 594 497 594 1153 
L 594 3053 
L 172 3053 
L 172 3500 
L 594 3500 
L 594 4494 
L 1172 4494 
z
" transform="scale(0.015625)"/>
      <path id="DejaVuSans-5f" d="M 3263 -1063 
L 3263 -1509 
L -63 -1509 
L -63 -1063 
L 3263 -1063 
z
" transform="scale(0.015625)"/>
      <path id="DejaVuSans-73" d="M 2834 3397 
L 2834 2853 
Q 2591 2978 2328 3040 
Q 2066 3103 1784 3103 
Q 1356 3103 1142 2972 
Q 928 2841 928 2578 
Q 928 2378 1081 2264 
Q 1234 2150 1697 2047 
L 1894 2003 
Q 2506 1872 2764 1633 
Q 3022 1394 3022 966 
Q 3022 478 2636 193 
Q 2250 -91 1575 -91 
Q 1294 -91 989 -36 
Q 684 19 347 128 
L 347 722 
Q 666 556 975 473 
Q 1284 391 1588 391 
Q 1994 391 2212 530 
Q 2431 669 2431 922 
Q 2431 1156 2273 1281 
Q 2116 1406 1581 1522 
L 1381 1569 
Q 847 1681 609 1914 
Q 372 2147 372 2553 
Q 372 3047 722 3315 
Q 1072 3584 1716 3584 
Q 2034 3584 2315 3537 
Q 2597 3491 2834 3397 
z
" transform="scale(0.015625)"/>
      <path id="DejaVuSans-75" d="M 544 1381 
L 544 3500 
L 1119 3500 
L 1119 1403 
Q 1119 906 1312 657 
Q 1506 409 1894 409 
Q 2359 409 2629 706 
Q 2900 1003 2900 1516 
L 2900 3500 
L 3475 3500 
L 3475 0 
L 2900 0 
L 2900 538 
Q 2691 219 2414 64 
Q 2138 -91 1772 -91 
Q 1169 -91 856 284 
Q 544 659 544 1381 
z
M 1991 3584 
L 1991 3584 
z
" transform="scale(0.015625)"/>
      <path id="DejaVuSans-62" d="M 3116 1747 
Q 3116 2381 2855 2742 
Q 2594 3103 2138 3103 
Q 1681 3103 1420 2742 
Q 1159 2381 1159 1747 
Q 1159 1113 1420 752 
Q 1681 391 2138 391 
Q 2594 391 2855 752 
Q 3116 1113 3116 1747 
z
M 1159 2969 
Q 1341 3281 1617 3432 
Q 1894 3584 2278 3584 
Q 2916 3584 3314 3078 
Q 3713 2572 3713 1747 
Q 3713 922 3314 415 
Q 2916 -91 2278 -91 
Q 1894 -91 1617 61 
Q 1341 213 1159 525 
L 1159 0 
L 581 0 
L 581 4863 
L 1159 4863 
L 1159 2969 
z
" transform="scale(0.015625)"/>
      <path id="DejaVuSans-63" d="M 3122 3366 
L 3122 2828 
Q 2878 2963 2633 3030 
Q 2388 3097 2138 3097 
Q 1578 3097 1268 2742 
Q 959 2388 959 1747 
Q 959 1106 1268 751 
Q 1578 397 2138 397 
Q 2388 397 2633 464 
Q 2878 531 3122 666 
L 3122 134 
Q 2881 22 2623 -34 
Q 2366 -91 2075 -91 
Q 1284 -91 818 406 
Q 353 903 353 1747 
Q 353 2603 823 3093 
Q 1294 3584 2113 3584 
Q 2378 3584 2631 3529 
Q 2884 3475 3122 3366 
z
" transform="scale(0.015625)"/>
      <path id="DejaVuSans-72" d="M 2631 2963 
Q 2534 3019 2420 3045 
Q 2306 3072 2169 3072 
Q 1681 3072 1420 2755 
Q 1159 2438 1159 1844 
L 1159 0 
L 581 0 
L 581 3500 
L 1159 3500 
L 1159 2956 
Q 1341 3275 1631 3429 
Q 1922 3584 2338 3584 
Q 2397 3584 2469 3576 
Q 2541 3569 2628 3553 
L 2631 2963 
z
" transform="scale(0.015625)"/>
      <path id="DejaVuSans-69" d="M 603 3500 
L 1178 3500 
L 1178 0 
L 603 0 
L 603 3500 
z
M 603 4863 
L 1178 4863 
L 1178 4134 
L 603 4134 
L 603 4863 
z
" transform="scale(0.015625)"/>
      <path id="DejaVuSans-20" transform="scale(0.015625)"/>
      <path id="DejaVuSans-68" d="M 3513 2113 
L 3513 0 
L 2938 0 
L 2938 2094 
Q 2938 2591 2744 2837 
Q 2550 3084 2163 3084 
Q 1697 3084 1428 2787 
Q 1159 2491 1159 1978 
L 1159 0 
L 581 0 
L 581 4863 
L 1159 4863 
L 1159 2956 
Q 1366 3272 1645 3428 
Q 1925 3584 2291 3584 
Q 2894 3584 3203 3211 
Q 3513 2838 3513 2113 
z
" transform="scale(0.015625)"/>
      <path id="DejaVuSans-6f" d="M 1959 3097 
Q 1497 3097 1228 2736 
Q 959 2375 959 1747 
Q 959 1119 1226 758 
Q 1494 397 1959 397 
Q 2419 397 2687 759 
Q 2956 1122 2956 1747 
Q 2956 2369 2687 2733 
Q 2419 3097 1959 3097 
z
M 1959 3584 
Q 2709 3584 3137 3096 
Q 3566 2609 3566 1747 
Q 3566 888 3137 398 
Q 2709 -91 1959 -91 
Q 1206 -91 779 398 
Q 353 888 353 1747 
Q 353 2609 779 3096 
Q 1206 3584 1959 3584 
z
" transform="scale(0.015625)"/>
      <path id="DejaVuSans-79" d="M 2059 -325 
Q 1816 -950 1584 -1140 
Q 1353 -1331 966 -1331 
L 506 -1331 
L 506 -850 
L 844 -850 
Q 1081 -850 1212 -737 
Q 1344 -625 1503 -206 
L 1606 56 
L 191 3500 
L 800 3500 
L 1894 763 
L 2988 3500 
L 3597 3500 
L 2059 -325 
z
" transform="scale(0.015625)"/>
     </defs>
     <use xlink:href="#DejaVuSans-67"/>
     <use xlink:href="#DejaVuSans-65" x="63.476562"/>
     <use xlink:href="#DejaVuSans-74" x="125"/>
     <use xlink:href="#DejaVuSans-5f" x="164.208984"/>
     <use xlink:href="#DejaVuSans-73" x="214.208984"/>
     <use xlink:href="#DejaVuSans-75" x="266.308594"/>
     <use xlink:href="#DejaVuSans-62" x="329.6875"/>
     <use xlink:href="#DejaVuSans-73" x="393.164062"/>
     <use xlink:href="#DejaVuSans-63" x="445.263672"/>
     <use xlink:href="#DejaVuSans-72" x="500.244141"/>
     <use xlink:href="#DejaVuSans-69" x="541.357422"/>
     <use xlink:href="#DejaVuSans-62" x="569.140625"/>
     <use xlink:href="#DejaVuSans-65" x="632.617188"/>
     <use xlink:href="#DejaVuSans-20" x="694.140625"/>
     <use xlink:href="#DejaVuSans-68" x="725.927734"/>
     <use xlink:href="#DejaVuSans-69" x="789.306641"/>
     <use xlink:href="#DejaVuSans-73" x="817.089844"/>
     <use xlink:href="#DejaVuSans-74" x="869.189453"/>
     <use xlink:href="#DejaVuSans-6f" x="908.398438"/>
     <use xlink:href="#DejaVuSans-72" x="969.580078"/>
     <use xlink:href="#DejaVuSans-79" x="1010.693359"/>
    </g>
   </g>
   <g id="legend_1">
    <g id="line2d_37">
     <path d="M 815.08 328.498438 
L 825.08 328.498438 
L 835.08 328.498438 
" style="fill: none; stroke: #1f77b4; stroke-width: 1.5; stroke-linecap: square"/>
    </g>
    <g id="text_19">
     <!-- star -->
     <g style="fill: #a9a9a9" transform="translate(843.08 331.998438) scale(0.1 -0.1)">
      <defs>
       <path id="DejaVuSans-61" d="M 2194 1759 
Q 1497 1759 1228 1600 
Q 959 1441 959 1056 
Q 959 750 1161 570 
Q 1363 391 1709 391 
Q 2188 391 2477 730 
Q 2766 1069 2766 1631 
L 2766 1759 
L 2194 1759 
z
M 3341 1997 
L 3341 0 
L 2766 0 
L 2766 531 
Q 2569 213 2275 61 
Q 1981 -91 1556 -91 
Q 1019 -91 701 211 
Q 384 513 384 1019 
Q 384 1609 779 1909 
Q 1175 2209 1959 2209 
L 2766 2209 
L 2766 2266 
Q 2766 2663 2505 2880 
Q 2244 3097 1772 3097 
Q 1472 3097 1187 3025 
Q 903 2953 641 2809 
L 641 3341 
Q 956 3463 1253 3523 
Q 1550 3584 1831 3584 
Q 2591 3584 2966 3190 
Q 3341 2797 3341 1997 
z
" transform="scale(0.015625)"/>
      </defs>
      <use xlink:href="#DejaVuSans-73"/>
      <use xlink:href="#DejaVuSans-74" x="52.099609"/>
      <use xlink:href="#DejaVuSans-61" x="91.308594"/>
      <use xlink:href="#DejaVuSans-72" x="152.587891"/>
     </g>
    </g>
    <g id="line2d_38">
     <path d="M 815.08 343.176562 
L 825.08 343.176562 
L 835.08 343.176562 
" style="fill: none; stroke: #ff7f0e; stroke-width: 1.5; stroke-linecap: square"/>
    </g>
    <g id="text_20">
     <!-- fork -->
     <g style="fill: #a9a9a9" transform="translate(843.08 346.676562) scale(0.1 -0.1)">
      <defs>
       <path id="DejaVuSans-66" d="M 2375 4863 
L 2375 4384 
L 1825 4384 
Q 1516 4384 1395 4259 
Q 1275 4134 1275 3809 
L 1275 3500 
L 2222 3500 
L 2222 3053 
L 1275 3053 
L 1275 0 
L 697 0 
L 697 3053 
L 147 3053 
L 147 3500 
L 697 3500 
L 697 3744 
Q 697 4328 969 4595 
Q 1241 4863 1831 4863 
L 2375 4863 
z
" transform="scale(0.015625)"/>
       <path id="DejaVuSans-6b" d="M 581 4863 
L 1159 4863 
L 1159 1991 
L 2875 3500 
L 3609 3500 
L 1753 1863 
L 3688 0 
L 2938 0 
L 1159 1709 
L 1159 0 
L 581 0 
L 581 4863 
z
" transform="scale(0.015625)"/>
      </defs>
      <use xlink:href="#DejaVuSans-66"/>
      <use xlink:href="#DejaVuSans-6f" x="35.205078"/>
      <use xlink:href="#DejaVuSans-72" x="96.386719"/>
      <use xlink:href="#DejaVuSans-6b" x="137.5"/>
     </g>
    </g>
   </g>
  </g>
 </g>
 <defs>
  <clipPath id="pa599f5396f">
   <rect x="108" y="43.2" width="669.6" height="277.2"/>
  </clipPath>
 </defs>
</svg>
