<?xml version="1.0" encoding="utf-8" standalone="no"?>
<!DOCTYPE svg PUBLIC "-//W3C//DTD SVG 1.1//EN"
  "http://www.w3.org/Graphics/SVG/1.1/DTD/svg11.dtd">
<svg xmlns:xlink="http://www.w3.org/1999/xlink" width="864pt" height="360pt" viewBox="0 0 864 360" xmlns="http://www.w3.org/2000/svg" version="1.1">
 <metadata>
  <rdf:RDF xmlns:dc="http://purl.org/dc/elements/1.1/" xmlns:cc="http://creativecommons.org/ns#" xmlns:rdf="http://www.w3.org/1999/02/22-rdf-syntax-ns#">
   <cc:Work>
    <dc:type rdf:resource="http://purl.org/dc/dcmitype/StillImage"/>
    <dc:date>2024-04-19T08:10:43.865373</dc:date>
    <dc:format>image/svg+xml</dc:format>
    <dc:creator>
     <cc:Agent>
      <dc:title>Matplotlib v3.8.4, https://matplotlib.org/</dc:title>
     </cc:Agent>
    </dc:creator>
   </cc:Work>
  </rdf:RDF>
 </metadata>
 <defs>
  <style type="text/css">*{stroke-linejoin: round; stroke-linecap: butt}</style>
 </defs>
 <g id="figure_1">
  <g id="patch_1">
   <path d="M 0 360 
L 864 360 
L 864 0 
L 0 0 
L 0 360 
z
" style="fill: none; opacity: 0"/>
  </g>
  <g id="axes_1">
   <g id="patch_2">
    <path d="M 108 320.4 
L 777.6 320.4 
L 777.6 43.2 
L 108 43.2 
L 108 320.4 
z
" style="fill: none; opacity: 0"/>
   </g>
   <g id="matplotlib.axis_1">
    <g id="xtick_1">
     <g id="line2d_1">
      <path d="M 162.176727 320.4 
L 162.176727 43.2 
" clip-path="url(#p3d40e7856d)" style="fill: none; stroke-dasharray: 5.12,1.28,0.8,1.28; stroke-dashoffset: 0; stroke: #b0b0b0; stroke-width: 0.8"/>
     </g>
     <g id="line2d_2">
      <defs>
       <path id="mbc1b5f7f34" d="M 0 0 
L 0 3.5 
" style="stroke: #a9a9a9; stroke-width: 0.8"/>
      </defs>
      <g>
       <use xlink:href="#mbc1b5f7f34" x="162.176727" y="320.4" style="fill: #a9a9a9; stroke: #a9a9a9; stroke-width: 0.8"/>
      </g>
     </g>
     <g id="text_1">
      <!-- 2021-09 -->
      <g style="fill: #a9a9a9" transform="translate(141.285321 334.998438) scale(0.1 -0.1)">
       <defs>
        <path id="DejaVuSans-32" d="M 1228 531 
L 3431 531 
L 3431 0 
L 469 0 
L 469 531 
Q 828 903 1448 1529 
Q 2069 2156 2228 2338 
Q 2531 2678 2651 2914 
Q 2772 3150 2772 3378 
Q 2772 3750 2511 3984 
Q 2250 4219 1831 4219 
Q 1534 4219 1204 4116 
Q 875 4013 500 3803 
L 500 4441 
Q 881 4594 1212 4672 
Q 1544 4750 1819 4750 
Q 2544 4750 2975 4387 
Q 3406 4025 3406 3419 
Q 3406 3131 3298 2873 
Q 3191 2616 2906 2266 
Q 2828 2175 2409 1742 
Q 1991 1309 1228 531 
z
" transform="scale(0.015625)"/>
        <path id="DejaVuSans-30" d="M 2034 4250 
Q 1547 4250 1301 3770 
Q 1056 3291 1056 2328 
Q 1056 1369 1301 889 
Q 1547 409 2034 409 
Q 2525 409 2770 889 
Q 3016 1369 3016 2328 
Q 3016 3291 2770 3770 
Q 2525 4250 2034 4250 
z
M 2034 4750 
Q 2819 4750 3233 4129 
Q 3647 3509 3647 2328 
Q 3647 1150 3233 529 
Q 2819 -91 2034 -91 
Q 1250 -91 836 529 
Q 422 1150 422 2328 
Q 422 3509 836 4129 
Q 1250 4750 2034 4750 
z
" transform="scale(0.015625)"/>
        <path id="DejaVuSans-31" d="M 794 531 
L 1825 531 
L 1825 4091 
L 703 3866 
L 703 4441 
L 1819 4666 
L 2450 4666 
L 2450 531 
L 3481 531 
L 3481 0 
L 794 0 
L 794 531 
z
" transform="scale(0.015625)"/>
        <path id="DejaVuSans-2d" d="M 313 2009 
L 1997 2009 
L 1997 1497 
L 313 1497 
L 313 2009 
z
" transform="scale(0.015625)"/>
        <path id="DejaVuSans-39" d="M 703 97 
L 703 672 
Q 941 559 1184 500 
Q 1428 441 1663 441 
Q 2288 441 2617 861 
Q 2947 1281 2994 2138 
Q 2813 1869 2534 1725 
Q 2256 1581 1919 1581 
Q 1219 1581 811 2004 
Q 403 2428 403 3163 
Q 403 3881 828 4315 
Q 1253 4750 1959 4750 
Q 2769 4750 3195 4129 
Q 3622 3509 3622 2328 
Q 3622 1225 3098 567 
Q 2575 -91 1691 -91 
Q 1453 -91 1209 -44 
Q 966 3 703 97 
z
M 1959 2075 
Q 2384 2075 2632 2365 
Q 2881 2656 2881 3163 
Q 2881 3666 2632 3958 
Q 2384 4250 1959 4250 
Q 1534 4250 1286 3958 
Q 1038 3666 1038 3163 
Q 1038 2656 1286 2365 
Q 1534 2075 1959 2075 
z
" transform="scale(0.015625)"/>
       </defs>
       <use xlink:href="#DejaVuSans-32"/>
       <use xlink:href="#DejaVuSans-30" x="63.623047"/>
       <use xlink:href="#DejaVuSans-32" x="127.246094"/>
       <use xlink:href="#DejaVuSans-31" x="190.869141"/>
       <use xlink:href="#DejaVuSans-2d" x="254.492188"/>
       <use xlink:href="#DejaVuSans-30" x="290.576172"/>
       <use xlink:href="#DejaVuSans-39" x="354.199219"/>
      </g>
     </g>
    </g>
    <g id="xtick_2">
     <g id="line2d_3">
      <path d="M 236.441455 320.4 
L 236.441455 43.2 
" clip-path="url(#p3d40e7856d)" style="fill: none; stroke-dasharray: 5.12,1.28,0.8,1.28; stroke-dashoffset: 0; stroke: #b0b0b0; stroke-width: 0.8"/>
     </g>
     <g id="line2d_4">
      <g>
       <use xlink:href="#mbc1b5f7f34" x="236.441455" y="320.4" style="fill: #a9a9a9; stroke: #a9a9a9; stroke-width: 0.8"/>
      </g>
     </g>
     <g id="text_2">
      <!-- 2022-01 -->
      <g style="fill: #a9a9a9" transform="translate(215.550048 334.998438) scale(0.1 -0.1)">
       <use xlink:href="#DejaVuSans-32"/>
       <use xlink:href="#DejaVuSans-30" x="63.623047"/>
       <use xlink:href="#DejaVuSans-32" x="127.246094"/>
       <use xlink:href="#DejaVuSans-32" x="190.869141"/>
       <use xlink:href="#DejaVuSans-2d" x="254.492188"/>
       <use xlink:href="#DejaVuSans-30" x="290.576172"/>
       <use xlink:href="#DejaVuSans-31" x="354.199219"/>
      </g>
     </g>
    </g>
    <g id="xtick_3">
     <g id="line2d_5">
      <path d="M 309.488727 320.4 
L 309.488727 43.2 
" clip-path="url(#p3d40e7856d)" style="fill: none; stroke-dasharray: 5.12,1.28,0.8,1.28; stroke-dashoffset: 0; stroke: #b0b0b0; stroke-width: 0.8"/>
     </g>
     <g id="line2d_6">
      <g>
       <use xlink:href="#mbc1b5f7f34" x="309.488727" y="320.4" style="fill: #a9a9a9; stroke: #a9a9a9; stroke-width: 0.8"/>
      </g>
     </g>
     <g id="text_3">
      <!-- 2022-05 -->
      <g style="fill: #a9a9a9" transform="translate(288.597321 334.998438) scale(0.1 -0.1)">
       <defs>
        <path id="DejaVuSans-35" d="M 691 4666 
L 3169 4666 
L 3169 4134 
L 1269 4134 
L 1269 2991 
Q 1406 3038 1543 3061 
Q 1681 3084 1819 3084 
Q 2600 3084 3056 2656 
Q 3513 2228 3513 1497 
Q 3513 744 3044 326 
Q 2575 -91 1722 -91 
Q 1428 -91 1123 -41 
Q 819 9 494 109 
L 494 744 
Q 775 591 1075 516 
Q 1375 441 1709 441 
Q 2250 441 2565 725 
Q 2881 1009 2881 1497 
Q 2881 1984 2565 2268 
Q 2250 2553 1709 2553 
Q 1456 2553 1204 2497 
Q 953 2441 691 2322 
L 691 4666 
z
" transform="scale(0.015625)"/>
       </defs>
       <use xlink:href="#DejaVuSans-32"/>
       <use xlink:href="#DejaVuSans-30" x="63.623047"/>
       <use xlink:href="#DejaVuSans-32" x="127.246094"/>
       <use xlink:href="#DejaVuSans-32" x="190.869141"/>
       <use xlink:href="#DejaVuSans-2d" x="254.492188"/>
       <use xlink:href="#DejaVuSans-30" x="290.576172"/>
       <use xlink:href="#DejaVuSans-35" x="354.199219"/>
      </g>
     </g>
    </g>
    <g id="xtick_4">
     <g id="line2d_7">
      <path d="M 384.362182 320.4 
L 384.362182 43.2 
" clip-path="url(#p3d40e7856d)" style="fill: none; stroke-dasharray: 5.12,1.28,0.8,1.28; stroke-dashoffset: 0; stroke: #b0b0b0; stroke-width: 0.8"/>
     </g>
     <g id="line2d_8">
      <g>
       <use xlink:href="#mbc1b5f7f34" x="384.362182" y="320.4" style="fill: #a9a9a9; stroke: #a9a9a9; stroke-width: 0.8"/>
      </g>
     </g>
     <g id="text_4">
      <!-- 2022-09 -->
      <g style="fill: #a9a9a9" transform="translate(363.470776 334.998438) scale(0.1 -0.1)">
       <use xlink:href="#DejaVuSans-32"/>
       <use xlink:href="#DejaVuSans-30" x="63.623047"/>
       <use xlink:href="#DejaVuSans-32" x="127.246094"/>
       <use xlink:href="#DejaVuSans-32" x="190.869141"/>
       <use xlink:href="#DejaVuSans-2d" x="254.492188"/>
       <use xlink:href="#DejaVuSans-30" x="290.576172"/>
       <use xlink:href="#DejaVuSans-39" x="354.199219"/>
      </g>
     </g>
    </g>
    <g id="xtick_5">
     <g id="line2d_9">
      <path d="M 458.626909 320.4 
L 458.626909 43.2 
" clip-path="url(#p3d40e7856d)" style="fill: none; stroke-dasharray: 5.12,1.28,0.8,1.28; stroke-dashoffset: 0; stroke: #b0b0b0; stroke-width: 0.8"/>
     </g>
     <g id="line2d_10">
      <g>
       <use xlink:href="#mbc1b5f7f34" x="458.626909" y="320.4" style="fill: #a9a9a9; stroke: #a9a9a9; stroke-width: 0.8"/>
      </g>
     </g>
     <g id="text_5">
      <!-- 2023-01 -->
      <g style="fill: #a9a9a9" transform="translate(437.735503 334.998438) scale(0.1 -0.1)">
       <defs>
        <path id="DejaVuSans-33" d="M 2597 2516 
Q 3050 2419 3304 2112 
Q 3559 1806 3559 1356 
Q 3559 666 3084 287 
Q 2609 -91 1734 -91 
Q 1441 -91 1130 -33 
Q 819 25 488 141 
L 488 750 
Q 750 597 1062 519 
Q 1375 441 1716 441 
Q 2309 441 2620 675 
Q 2931 909 2931 1356 
Q 2931 1769 2642 2001 
Q 2353 2234 1838 2234 
L 1294 2234 
L 1294 2753 
L 1863 2753 
Q 2328 2753 2575 2939 
Q 2822 3125 2822 3475 
Q 2822 3834 2567 4026 
Q 2313 4219 1838 4219 
Q 1578 4219 1281 4162 
Q 984 4106 628 3988 
L 628 4550 
Q 988 4650 1302 4700 
Q 1616 4750 1894 4750 
Q 2613 4750 3031 4423 
Q 3450 4097 3450 3541 
Q 3450 3153 3228 2886 
Q 3006 2619 2597 2516 
z
" transform="scale(0.015625)"/>
       </defs>
       <use xlink:href="#DejaVuSans-32"/>
       <use xlink:href="#DejaVuSans-30" x="63.623047"/>
       <use xlink:href="#DejaVuSans-32" x="127.246094"/>
       <use xlink:href="#DejaVuSans-33" x="190.869141"/>
       <use xlink:href="#DejaVuSans-2d" x="254.492188"/>
       <use xlink:href="#DejaVuSans-30" x="290.576172"/>
       <use xlink:href="#DejaVuSans-31" x="354.199219"/>
      </g>
     </g>
    </g>
    <g id="xtick_6">
     <g id="line2d_11">
      <path d="M 531.674182 320.4 
L 531.674182 43.2 
" clip-path="url(#p3d40e7856d)" style="fill: none; stroke-dasharray: 5.12,1.28,0.8,1.28; stroke-dashoffset: 0; stroke: #b0b0b0; stroke-width: 0.8"/>
     </g>
     <g id="line2d_12">
      <g>
       <use xlink:href="#mbc1b5f7f34" x="531.674182" y="320.4" style="fill: #a9a9a9; stroke: #a9a9a9; stroke-width: 0.8"/>
      </g>
     </g>
     <g id="text_6">
      <!-- 2023-05 -->
      <g style="fill: #a9a9a9" transform="translate(510.782776 334.998438) scale(0.1 -0.1)">
       <use xlink:href="#DejaVuSans-32"/>
       <use xlink:href="#DejaVuSans-30" x="63.623047"/>
       <use xlink:href="#DejaVuSans-32" x="127.246094"/>
       <use xlink:href="#DejaVuSans-33" x="190.869141"/>
       <use xlink:href="#DejaVuSans-2d" x="254.492188"/>
       <use xlink:href="#DejaVuSans-30" x="290.576172"/>
       <use xlink:href="#DejaVuSans-35" x="354.199219"/>
      </g>
     </g>
    </g>
    <g id="xtick_7">
     <g id="line2d_13">
      <path d="M 606.547636 320.4 
L 606.547636 43.2 
" clip-path="url(#p3d40e7856d)" style="fill: none; stroke-dasharray: 5.12,1.28,0.8,1.28; stroke-dashoffset: 0; stroke: #b0b0b0; stroke-width: 0.8"/>
     </g>
     <g id="line2d_14">
      <g>
       <use xlink:href="#mbc1b5f7f34" x="606.547636" y="320.4" style="fill: #a9a9a9; stroke: #a9a9a9; stroke-width: 0.8"/>
      </g>
     </g>
     <g id="text_7">
      <!-- 2023-09 -->
      <g style="fill: #a9a9a9" transform="translate(585.65623 334.998438) scale(0.1 -0.1)">
       <use xlink:href="#DejaVuSans-32"/>
       <use xlink:href="#DejaVuSans-30" x="63.623047"/>
       <use xlink:href="#DejaVuSans-32" x="127.246094"/>
       <use xlink:href="#DejaVuSans-33" x="190.869141"/>
       <use xlink:href="#DejaVuSans-2d" x="254.492188"/>
       <use xlink:href="#DejaVuSans-30" x="290.576172"/>
       <use xlink:href="#DejaVuSans-39" x="354.199219"/>
      </g>
     </g>
    </g>
    <g id="xtick_8">
     <g id="line2d_15">
      <path d="M 680.812364 320.4 
L 680.812364 43.2 
" clip-path="url(#p3d40e7856d)" style="fill: none; stroke-dasharray: 5.12,1.28,0.8,1.28; stroke-dashoffset: 0; stroke: #b0b0b0; stroke-width: 0.8"/>
     </g>
     <g id="line2d_16">
      <g>
       <use xlink:href="#mbc1b5f7f34" x="680.812364" y="320.4" style="fill: #a9a9a9; stroke: #a9a9a9; stroke-width: 0.8"/>
      </g>
     </g>
     <g id="text_8">
      <!-- 2024-01 -->
      <g style="fill: #a9a9a9" transform="translate(659.920957 334.998438) scale(0.1 -0.1)">
       <defs>
        <path id="DejaVuSans-34" d="M 2419 4116 
L 825 1625 
L 2419 1625 
L 2419 4116 
z
M 2253 4666 
L 3047 4666 
L 3047 1625 
L 3713 1625 
L 3713 1100 
L 3047 1100 
L 3047 0 
L 2419 0 
L 2419 1100 
L 313 1100 
L 313 1709 
L 2253 4666 
z
" transform="scale(0.015625)"/>
       </defs>
       <use xlink:href="#DejaVuSans-32"/>
       <use xlink:href="#DejaVuSans-30" x="63.623047"/>
       <use xlink:href="#DejaVuSans-32" x="127.246094"/>
       <use xlink:href="#DejaVuSans-34" x="190.869141"/>
       <use xlink:href="#DejaVuSans-2d" x="254.492188"/>
       <use xlink:href="#DejaVuSans-30" x="290.576172"/>
       <use xlink:href="#DejaVuSans-31" x="354.199219"/>
      </g>
     </g>
    </g>
    <g id="xtick_9">
     <g id="line2d_17">
      <path d="M 754.468364 320.4 
L 754.468364 43.2 
" clip-path="url(#p3d40e7856d)" style="fill: none; stroke-dasharray: 5.12,1.28,0.8,1.28; stroke-dashoffset: 0; stroke: #b0b0b0; stroke-width: 0.8"/>
     </g>
     <g id="line2d_18">
      <g>
       <use xlink:href="#mbc1b5f7f34" x="754.468364" y="320.4" style="fill: #a9a9a9; stroke: #a9a9a9; stroke-width: 0.8"/>
      </g>
     </g>
     <g id="text_9">
      <!-- 2024-05 -->
      <g style="fill: #a9a9a9" transform="translate(733.576957 334.998438) scale(0.1 -0.1)">
       <use xlink:href="#DejaVuSans-32"/>
       <use xlink:href="#DejaVuSans-30" x="63.623047"/>
       <use xlink:href="#DejaVuSans-32" x="127.246094"/>
       <use xlink:href="#DejaVuSans-34" x="190.869141"/>
       <use xlink:href="#DejaVuSans-2d" x="254.492188"/>
       <use xlink:href="#DejaVuSans-30" x="290.576172"/>
       <use xlink:href="#DejaVuSans-35" x="354.199219"/>
      </g>
     </g>
    </g>
   </g>
   <g id="matplotlib.axis_2">
    <g id="ytick_1">
     <g id="line2d_19">
      <path d="M 108 307.842374 
L 777.6 307.842374 
" clip-path="url(#p3d40e7856d)" style="fill: none; stroke-dasharray: 5.12,1.28,0.8,1.28; stroke-dashoffset: 0; stroke: #b0b0b0; stroke-width: 0.8"/>
     </g>
     <g id="line2d_20">
      <defs>
       <path id="m55ffb04dab" d="M 0 0 
L -3.5 0 
" style="stroke: #a9a9a9; stroke-width: 0.8"/>
      </defs>
      <g>
       <use xlink:href="#m55ffb04dab" x="108" y="307.842374" style="fill: #a9a9a9; stroke: #a9a9a9; stroke-width: 0.8"/>
      </g>
     </g>
     <g id="text_10">
      <!-- 0 -->
      <g style="fill: #a9a9a9" transform="translate(94.6375 311.641593) scale(0.1 -0.1)">
       <use xlink:href="#DejaVuSans-30"/>
      </g>
     </g>
    </g>
    <g id="ytick_2">
     <g id="line2d_21">
      <path d="M 108 273.942929 
L 777.6 273.942929 
" clip-path="url(#p3d40e7856d)" style="fill: none; stroke-dasharray: 5.12,1.28,0.8,1.28; stroke-dashoffset: 0; stroke: #b0b0b0; stroke-width: 0.8"/>
     </g>
     <g id="line2d_22">
      <g>
       <use xlink:href="#m55ffb04dab" x="108" y="273.942929" style="fill: #a9a9a9; stroke: #a9a9a9; stroke-width: 0.8"/>
      </g>
     </g>
     <g id="text_11">
      <!-- 800 -->
      <g style="fill: #a9a9a9" transform="translate(81.9125 277.742148) scale(0.1 -0.1)">
       <defs>
        <path id="DejaVuSans-38" d="M 2034 2216 
Q 1584 2216 1326 1975 
Q 1069 1734 1069 1313 
Q 1069 891 1326 650 
Q 1584 409 2034 409 
Q 2484 409 2743 651 
Q 3003 894 3003 1313 
Q 3003 1734 2745 1975 
Q 2488 2216 2034 2216 
z
M 1403 2484 
Q 997 2584 770 2862 
Q 544 3141 544 3541 
Q 544 4100 942 4425 
Q 1341 4750 2034 4750 
Q 2731 4750 3128 4425 
Q 3525 4100 3525 3541 
Q 3525 3141 3298 2862 
Q 3072 2584 2669 2484 
Q 3125 2378 3379 2068 
Q 3634 1759 3634 1313 
Q 3634 634 3220 271 
Q 2806 -91 2034 -91 
Q 1263 -91 848 271 
Q 434 634 434 1313 
Q 434 1759 690 2068 
Q 947 2378 1403 2484 
z
M 1172 3481 
Q 1172 3119 1398 2916 
Q 1625 2713 2034 2713 
Q 2441 2713 2670 2916 
Q 2900 3119 2900 3481 
Q 2900 3844 2670 4047 
Q 2441 4250 2034 4250 
Q 1625 4250 1398 4047 
Q 1172 3844 1172 3481 
z
" transform="scale(0.015625)"/>
       </defs>
       <use xlink:href="#DejaVuSans-38"/>
       <use xlink:href="#DejaVuSans-30" x="63.623047"/>
       <use xlink:href="#DejaVuSans-30" x="127.246094"/>
      </g>
     </g>
    </g>
    <g id="ytick_3">
     <g id="line2d_23">
      <path d="M 108 240.043484 
L 777.6 240.043484 
" clip-path="url(#p3d40e7856d)" style="fill: none; stroke-dasharray: 5.12,1.28,0.8,1.28; stroke-dashoffset: 0; stroke: #b0b0b0; stroke-width: 0.8"/>
     </g>
     <g id="line2d_24">
      <g>
       <use xlink:href="#m55ffb04dab" x="108" y="240.043484" style="fill: #a9a9a9; stroke: #a9a9a9; stroke-width: 0.8"/>
      </g>
     </g>
     <g id="text_12">
      <!-- 1600 -->
      <g style="fill: #a9a9a9" transform="translate(75.55 243.842703) scale(0.1 -0.1)">
       <defs>
        <path id="DejaVuSans-36" d="M 2113 2584 
Q 1688 2584 1439 2293 
Q 1191 2003 1191 1497 
Q 1191 994 1439 701 
Q 1688 409 2113 409 
Q 2538 409 2786 701 
Q 3034 994 3034 1497 
Q 3034 2003 2786 2293 
Q 2538 2584 2113 2584 
z
M 3366 4563 
L 3366 3988 
Q 3128 4100 2886 4159 
Q 2644 4219 2406 4219 
Q 1781 4219 1451 3797 
Q 1122 3375 1075 2522 
Q 1259 2794 1537 2939 
Q 1816 3084 2150 3084 
Q 2853 3084 3261 2657 
Q 3669 2231 3669 1497 
Q 3669 778 3244 343 
Q 2819 -91 2113 -91 
Q 1303 -91 875 529 
Q 447 1150 447 2328 
Q 447 3434 972 4092 
Q 1497 4750 2381 4750 
Q 2619 4750 2861 4703 
Q 3103 4656 3366 4563 
z
" transform="scale(0.015625)"/>
       </defs>
       <use xlink:href="#DejaVuSans-31"/>
       <use xlink:href="#DejaVuSans-36" x="63.623047"/>
       <use xlink:href="#DejaVuSans-30" x="127.246094"/>
       <use xlink:href="#DejaVuSans-30" x="190.869141"/>
      </g>
     </g>
    </g>
    <g id="ytick_4">
     <g id="line2d_25">
      <path d="M 108 206.144039 
L 777.6 206.144039 
" clip-path="url(#p3d40e7856d)" style="fill: none; stroke-dasharray: 5.12,1.28,0.8,1.28; stroke-dashoffset: 0; stroke: #b0b0b0; stroke-width: 0.8"/>
     </g>
     <g id="line2d_26">
      <g>
       <use xlink:href="#m55ffb04dab" x="108" y="206.144039" style="fill: #a9a9a9; stroke: #a9a9a9; stroke-width: 0.8"/>
      </g>
     </g>
     <g id="text_13">
      <!-- 2400 -->
      <g style="fill: #a9a9a9" transform="translate(75.55 209.943258) scale(0.1 -0.1)">
       <use xlink:href="#DejaVuSans-32"/>
       <use xlink:href="#DejaVuSans-34" x="63.623047"/>
       <use xlink:href="#DejaVuSans-30" x="127.246094"/>
       <use xlink:href="#DejaVuSans-30" x="190.869141"/>
      </g>
     </g>
    </g>
    <g id="ytick_5">
     <g id="line2d_27">
      <path d="M 108 172.244594 
L 777.6 172.244594 
" clip-path="url(#p3d40e7856d)" style="fill: none; stroke-dasharray: 5.12,1.28,0.8,1.28; stroke-dashoffset: 0; stroke: #b0b0b0; stroke-width: 0.8"/>
     </g>
     <g id="line2d_28">
      <g>
       <use xlink:href="#m55ffb04dab" x="108" y="172.244594" style="fill: #a9a9a9; stroke: #a9a9a9; stroke-width: 0.8"/>
      </g>
     </g>
     <g id="text_14">
      <!-- 3200 -->
      <g style="fill: #a9a9a9" transform="translate(75.55 176.043813) scale(0.1 -0.1)">
       <use xlink:href="#DejaVuSans-33"/>
       <use xlink:href="#DejaVuSans-32" x="63.623047"/>
       <use xlink:href="#DejaVuSans-30" x="127.246094"/>
       <use xlink:href="#DejaVuSans-30" x="190.869141"/>
      </g>
     </g>
    </g>
    <g id="ytick_6">
     <g id="line2d_29">
      <path d="M 108 138.345149 
L 777.6 138.345149 
" clip-path="url(#p3d40e7856d)" style="fill: none; stroke-dasharray: 5.12,1.28,0.8,1.28; stroke-dashoffset: 0; stroke: #b0b0b0; stroke-width: 0.8"/>
     </g>
     <g id="line2d_30">
      <g>
       <use xlink:href="#m55ffb04dab" x="108" y="138.345149" style="fill: #a9a9a9; stroke: #a9a9a9; stroke-width: 0.8"/>
      </g>
     </g>
     <g id="text_15">
      <!-- 4000 -->
      <g style="fill: #a9a9a9" transform="translate(75.55 142.144368) scale(0.1 -0.1)">
       <use xlink:href="#DejaVuSans-34"/>
       <use xlink:href="#DejaVuSans-30" x="63.623047"/>
       <use xlink:href="#DejaVuSans-30" x="127.246094"/>
       <use xlink:href="#DejaVuSans-30" x="190.869141"/>
      </g>
     </g>
    </g>
    <g id="ytick_7">
     <g id="line2d_31">
      <path d="M 108 104.445704 
L 777.6 104.445704 
" clip-path="url(#p3d40e7856d)" style="fill: none; stroke-dasharray: 5.12,1.28,0.8,1.28; stroke-dashoffset: 0; stroke: #b0b0b0; stroke-width: 0.8"/>
     </g>
     <g id="line2d_32">
      <g>
       <use xlink:href="#m55ffb04dab" x="108" y="104.445704" style="fill: #a9a9a9; stroke: #a9a9a9; stroke-width: 0.8"/>
      </g>
     </g>
     <g id="text_16">
      <!-- 4800 -->
      <g style="fill: #a9a9a9" transform="translate(75.55 108.244922) scale(0.1 -0.1)">
       <use xlink:href="#DejaVuSans-34"/>
       <use xlink:href="#DejaVuSans-38" x="63.623047"/>
       <use xlink:href="#DejaVuSans-30" x="127.246094"/>
       <use xlink:href="#DejaVuSans-30" x="190.869141"/>
      </g>
     </g>
    </g>
    <g id="ytick_8">
     <g id="line2d_33">
      <path d="M 108 70.546259 
L 777.6 70.546259 
" clip-path="url(#p3d40e7856d)" style="fill: none; stroke-dasharray: 5.12,1.28,0.8,1.28; stroke-dashoffset: 0; stroke: #b0b0b0; stroke-width: 0.8"/>
     </g>
     <g id="line2d_34">
      <g>
       <use xlink:href="#m55ffb04dab" x="108" y="70.546259" style="fill: #a9a9a9; stroke: #a9a9a9; stroke-width: 0.8"/>
      </g>
     </g>
     <g id="text_17">
      <!-- 5600 -->
      <g style="fill: #a9a9a9" transform="translate(75.55 74.345477) scale(0.1 -0.1)">
       <use xlink:href="#DejaVuSans-35"/>
       <use xlink:href="#DejaVuSans-36" x="63.623047"/>
       <use xlink:href="#DejaVuSans-30" x="127.246094"/>
       <use xlink:href="#DejaVuSans-30" x="190.869141"/>
      </g>
     </g>
    </g>
   </g>
   <g id="line2d_35">
    <path d="M 138.436364 307.715251 
L 142.088727 307.418631 
L 142.697455 307.164385 
L 144.523636 306.952514 
L 148.176 306.232151 
L 151.828364 305.935531 
L 152.437091 305.63891 
L 153.045818 305.469413 
L 153.654545 304.706676 
L 154.263273 304.282933 
L 154.872 302.969329 
L 155.480727 302.88458 
L 156.089455 302.418463 
L 157.306909 301.825223 
L 159.741818 299.960753 
L 160.959273 299.452262 
L 161.568 299.028519 
L 164.002909 297.969161 
L 164.611636 297.036926 
L 165.829091 296.18944 
L 166.437818 295.89282 
L 172.525091 295.045334 
L 173.133818 294.748714 
L 177.394909 294.409719 
L 179.221091 293.943602 
L 184.699636 293.223239 
L 185.308364 292.884244 
L 185.917091 292.799496 
L 186.525818 292.54525 
L 187.743273 292.333378 
L 188.352 292.291004 
L 189.569455 292.036758 
L 190.178182 291.994384 
L 192.613091 291.401143 
L 194.439273 291.231646 
L 195.656727 291.104523 
L 196.265455 290.935026 
L 196.874182 290.892652 
L 198.700364 290.341786 
L 199.917818 290.257037 
L 201.135273 290.08754 
L 202.352727 289.833294 
L 202.961455 289.663797 
L 203.570182 288.858685 
L 205.396364 288.180696 
L 207.222545 287.714579 
L 207.831273 287.417959 
L 208.44 287.375584 
L 211.483636 286.528098 
L 212.701091 286.44335 
L 213.918545 286.189104 
L 216.353455 285.595863 
L 216.962182 285.553489 
L 218.179636 285.002623 
L 218.788364 284.917875 
L 219.397091 284.621254 
L 225.484364 283.731394 
L 228.528 282.883908 
L 229.136727 282.502539 
L 231.571636 281.866924 
L 234.006545 280.63807 
L 235.832727 280.214327 
L 236.441455 280.129578 
L 237.050182 279.832958 
L 238.267636 279.621086 
L 239.485091 279.07022 
L 242.528727 278.307483 
L 244.354909 277.841365 
L 244.963636 277.58712 
L 245.572364 277.459997 
L 246.181091 277.205751 
L 246.789818 277.121002 
L 247.398545 276.824382 
L 248.007273 276.654885 
L 249.224727 276.570136 
L 250.442182 276.146393 
L 251.659636 276.061645 
L 252.268364 275.765024 
L 253.485818 275.595527 
L 254.094545 275.383656 
L 255.312 275.341281 
L 257.746909 275.044661 
L 258.964364 274.451421 
L 265.660364 271.612342 
L 266.269091 271.273348 
L 266.877818 270.637733 
L 268.095273 268.815638 
L 268.704 268.646141 
L 269.312727 268.646141 
L 270.530182 267.75628 
L 271.138909 267.586783 
L 271.747636 267.290163 
L 272.356364 267.16304 
L 272.965091 266.612174 
L 273.573818 266.442677 
L 275.4 265.552817 
L 276.617455 263.857844 
L 277.226182 263.476476 
L 277.834909 262.459492 
L 278.443636 261.823878 
L 279.052364 261.527257 
L 279.661091 261.35776 
L 282.096 259.917034 
L 283.313455 258.942425 
L 283.922182 258.561056 
L 284.530909 257.671196 
L 285.139636 256.315218 
L 285.748364 255.425357 
L 286.357091 254.95924 
L 286.965818 254.704994 
L 289.400727 252.586279 
L 290.618182 251.61167 
L 291.226909 251.103178 
L 291.835636 250.298066 
L 293.053091 249.238709 
L 295.488 247.670859 
L 296.096727 247.162368 
L 296.705455 247.035245 
L 297.314182 246.780999 
L 299.140364 245.764015 
L 300.966545 244.619909 
L 302.792727 242.840188 
L 303.401455 242.45882 
L 304.010182 242.289322 
L 304.618909 241.992702 
L 305.836364 241.18759 
L 306.445091 240.848596 
L 307.053818 240.763847 
L 311.923636 237.84002 
L 313.749818 236.865411 
L 314.358545 236.314545 
L 316.793455 235.551808 
L 317.402182 235.128065 
L 318.010909 235.000942 
L 319.228364 234.577199 
L 321.054545 233.856835 
L 322.880727 233.178846 
L 324.098182 232.966975 
L 325.315636 231.907617 
L 327.141818 231.060131 
L 328.359273 230.339768 
L 329.576727 230.000773 
L 330.185455 229.619405 
L 330.794182 229.449908 
L 332.620364 228.305801 
L 335.664 227.585438 
L 337.490182 226.52608 
L 338.098909 226.441332 
L 338.707636 226.22946 
L 339.925091 225.975214 
L 341.751273 224.619237 
L 343.577455 224.195494 
L 344.186182 223.983622 
L 344.794909 223.517505 
L 348.447273 222.331024 
L 349.056 222.28865 
L 349.664727 222.119153 
L 350.882182 221.610661 
L 355.143273 220.12756 
L 356.360727 219.958063 
L 356.969455 219.788566 
L 357.578182 219.491946 
L 358.186909 219.364823 
L 360.013091 218.517336 
L 361.839273 217.627476 
L 362.448 217.203733 
L 363.056727 217.034236 
L 364.882909 216.059627 
L 366.100364 215.763007 
L 367.317818 215.127392 
L 368.535273 214.788398 
L 369.144 214.703649 
L 370.361455 213.983286 
L 370.970182 213.856163 
L 372.187636 213.347671 
L 372.796364 213.220548 
L 373.405091 212.881554 
L 375.84 212.500185 
L 377.057455 211.906945 
L 377.666182 211.398453 
L 378.274909 210.339095 
L 380.101091 210.000101 
L 382.536 208.728872 
L 383.144727 208.601749 
L 387.405818 206.567782 
L 388.623273 206.228788 
L 389.840727 205.974542 
L 391.058182 205.381301 
L 391.666909 205.127056 
L 392.275636 205.042307 
L 394.710545 203.982949 
L 396.536727 202.838843 
L 397.145455 202.754095 
L 397.754182 202.542223 
L 398.362909 202.499849 
L 401.406545 201.737111 
L 402.015273 201.270994 
L 403.232727 200.847251 
L 405.058909 200.25401 
L 405.667636 199.872642 
L 406.276364 199.703144 
L 406.885091 199.279401 
L 407.493818 199.025156 
L 408.711273 198.389541 
L 411.146182 197.626803 
L 411.754909 197.330183 
L 413.581091 195.931831 
L 414.189818 195.804708 
L 415.407273 194.872474 
L 416.016 194.745351 
L 416.624727 193.813116 
L 417.233455 193.55887 
L 417.842182 193.092753 
L 418.450909 193.008004 
L 419.668364 192.287641 
L 420.277091 192.160518 
L 420.885818 191.906272 
L 421.494545 191.440155 
L 422.103273 191.228283 
L 423.929455 189.999428 
L 426.364364 188.770573 
L 426.973091 188.685825 
L 428.190545 188.134959 
L 428.799273 187.795964 
L 429.408 186.778981 
L 430.016727 186.228115 
L 430.625455 185.889121 
L 431.234182 185.761998 
L 432.451636 184.99926 
L 433.060364 184.872137 
L 434.277818 184.278897 
L 436.104 183.516159 
L 437.321455 182.668673 
L 438.538909 181.397444 
L 441.582545 179.19398 
L 442.8 178.219371 
L 443.408727 177.965125 
L 444.017455 177.287136 
L 444.626182 176.821019 
L 445.843636 176.397276 
L 447.061091 175.592164 
L 447.669818 175.295544 
L 448.278545 175.126047 
L 448.887273 174.702304 
L 449.496 174.575181 
L 451.322182 173.600572 
L 452.539636 172.880209 
L 458.626909 170.719119 
L 459.235636 170.168253 
L 461.061818 169.490264 
L 462.279273 169.108895 
L 462.888 168.642778 
L 465.931636 167.074929 
L 467.149091 164.701967 
L 468.366545 163.261241 
L 469.584 162.540878 
L 471.410182 161.820515 
L 472.018909 161.735766 
L 472.627636 161.396771 
L 474.453818 160.845905 
L 476.888727 159.744174 
L 477.497455 159.362805 
L 478.714909 158.939062 
L 482.367273 156.820346 
L 482.976 156.184732 
L 484.193455 155.549117 
L 487.845818 153.642273 
L 488.454545 153.388028 
L 489.063273 153.006659 
L 489.672 152.837162 
L 490.280727 152.371044 
L 493.324364 151.396435 
L 493.933091 151.226938 
L 494.541818 150.930318 
L 495.150545 150.506575 
L 496.368 150.16758 
L 497.585455 149.701463 
L 498.194182 149.235346 
L 499.411636 148.853977 
L 500.020364 148.557357 
L 500.629091 148.387859 
L 501.846545 147.540373 
L 503.064 147.031882 
L 504.281455 146.099647 
L 505.498909 145.675904 
L 506.107636 145.167412 
L 506.716364 145.082664 
L 507.933818 144.192803 
L 509.151273 143.599563 
L 509.76 143.345317 
L 510.368727 142.752077 
L 514.021091 141.438473 
L 515.847273 140.633361 
L 517.673455 140.082495 
L 518.890909 139.912998 
L 519.499636 139.658752 
L 520.108364 139.574004 
L 521.325818 139.065512 
L 521.934545 139.023138 
L 524.369455 138.133277 
L 526.195636 136.904422 
L 526.804364 136.650177 
L 528.021818 136.014562 
L 528.630545 135.80269 
L 532.282909 133.811098 
L 532.891636 133.683975 
L 534.717818 132.666992 
L 536.544 132.073751 
L 537.152727 131.819506 
L 538.370182 131.522885 
L 541.413818 130.548276 
L 543.24 130.251656 
L 545.674909 129.488919 
L 546.283636 129.234673 
L 546.892364 129.149924 
L 547.501091 128.853304 
L 548.718545 128.599058 
L 549.936 128.175315 
L 550.544727 127.963444 
L 551.762182 127.836321 
L 552.979636 127.539701 
L 554.805818 127.243081 
L 555.414545 127.031209 
L 556.632 126.904086 
L 559.675636 126.141349 
L 560.893091 125.844728 
L 561.501818 125.505734 
L 564.545455 124.742996 
L 565.154182 124.615874 
L 566.371636 124.19213 
L 568.197818 123.556516 
L 568.806545 123.471767 
L 570.632727 122.836153 
L 571.241455 122.836153 
L 572.458909 122.41241 
L 573.067636 121.819169 
L 573.676364 121.522549 
L 574.893818 121.14118 
L 577.328727 120.208946 
L 577.937455 120.081823 
L 578.546182 119.700454 
L 579.154909 119.573331 
L 579.763636 119.234337 
L 582.807273 118.344476 
L 583.416 117.963107 
L 584.024727 117.835985 
L 584.633455 117.327493 
L 586.459636 116.988498 
L 587.677091 116.31051 
L 588.285818 115.632521 
L 589.503273 115.378275 
L 593.764364 114.403666 
L 594.373091 114.234168 
L 595.590545 114.191794 
L 596.199273 113.895174 
L 598.634182 113.471431 
L 599.242909 113.217185 
L 601.069091 112.962939 
L 603.504 112.200202 
L 605.330182 111.776459 
L 607.156364 111.310341 
L 608.982545 110.759475 
L 612.026182 109.869615 
L 613.243636 109.318749 
L 614.461091 108.895006 
L 615.069818 108.428889 
L 616.287273 108.089894 
L 616.896 107.835648 
L 618.113455 107.496654 
L 620.548364 106.394922 
L 622.374545 106.267799 
L 624.809455 105.58981 
L 625.418182 105.208441 
L 626.635636 104.869447 
L 628.461818 103.937212 
L 629.070545 103.810089 
L 629.679273 103.513469 
L 630.288 103.471095 
L 636.984 101.225256 
L 639.418909 100.632016 
L 640.027636 100.462519 
L 641.245091 99.911653 
L 641.853818 99.826904 
L 643.071273 99.48791 
L 643.68 99.021793 
L 644.288727 98.725172 
L 644.897455 98.004809 
L 645.506182 97.581066 
L 646.723636 97.199697 
L 647.332364 96.73358 
L 654.028364 93.97925 
L 655.245818 93.68263 
L 657.072 92.835144 
L 658.289455 92.114781 
L 658.898182 91.987658 
L 659.506909 91.52154 
L 660.724364 90.9283 
L 661.941818 90.165562 
L 663.768 89.318076 
L 664.376727 88.894333 
L 665.594182 88.47059 
L 666.811636 87.750227 
L 667.420364 87.495981 
L 668.029091 87.072238 
L 669.246545 86.648495 
L 669.855273 86.521372 
L 672.290182 85.41964 
L 675.333818 84.360282 
L 675.942545 84.317908 
L 676.551273 84.148411 
L 677.16 83.767042 
L 677.768727 83.682294 
L 678.377455 83.470422 
L 680.203636 83.131428 
L 683.856 81.266958 
L 684.464727 80.927964 
L 685.073455 80.843215 
L 686.899636 79.868606 
L 688.725818 79.190617 
L 690.552 78.385505 
L 692.986909 77.410896 
L 693.595636 77.241399 
L 694.204364 76.86003 
L 695.421818 76.690533 
L 696.030545 76.309164 
L 696.639273 76.26679 
L 697.856727 75.885421 
L 699.074182 75.292181 
L 699.682909 75.207432 
L 700.291636 74.953186 
L 700.900364 74.826064 
L 702.726545 74.020952 
L 703.335273 73.893829 
L 703.944 73.639583 
L 706.987636 72.91922 
L 708.813818 72.241231 
L 711.248727 70.842879 
L 712.466182 70.376761 
L 713.074909 69.995393 
L 714.292364 69.741147 
L 714.901091 69.402152 
L 715.509818 69.275029 
L 716.727273 68.597041 
L 720.379636 66.902068 
L 722.205818 66.308828 
L 723.423273 65.885085 
L 724.032 65.673213 
L 725.249455 65.037599 
L 726.466909 64.65623 
L 727.075636 64.529107 
L 729.510545 63.385001 
L 730.119273 63.300252 
L 730.728 63.088381 
L 731.945455 62.410392 
L 734.380364 61.30866 
L 735.597818 60.884917 
L 736.815273 60.249302 
L 737.424 60.164554 
L 740.467636 58.808576 
L 741.076364 58.384833 
L 743.511273 57.579721 
L 744.12 57.579721 
L 745.337455 57.028855 
L 746.554909 55.8 
L 747.163636 55.8 
L 747.163636 55.8 
" clip-path="url(#p3d40e7856d)" style="fill: none; stroke: #1f77b4; stroke-width: 1.5; stroke-linecap: square"/>
   </g>
   <g id="line2d_36">
    <path d="M 139.045091 307.8 
L 140.871273 307.715251 
L 142.697455 307.672877 
L 146.349818 307.588128 
L 149.393455 307.461006 
L 151.828364 307.461006 
L 152.437091 307.291508 
L 154.872 307.20676 
L 156.698182 306.994888 
L 158.524364 306.825391 
L 162.176727 306.655894 
L 162.785455 306.655894 
L 163.394182 306.528771 
L 165.829091 306.444022 
L 167.046545 306.359274 
L 171.916364 306.274525 
L 174.96 306.147402 
L 182.264727 306.062653 
L 185.308364 305.935531 
L 188.960727 305.850782 
L 191.395636 305.766033 
L 196.874182 305.681285 
L 198.700364 305.63891 
L 200.526545 305.596536 
L 202.352727 305.384665 
L 206.005091 305.34229 
L 207.222545 305.257542 
L 211.483636 305.172793 
L 218.179636 304.791424 
L 222.440727 304.706676 
L 223.658182 304.621927 
L 225.484364 304.537178 
L 229.136727 304.367681 
L 231.571636 304.325307 
L 233.397818 304.15581 
L 243.137455 303.562569 
L 245.572364 303.477821 
L 249.833455 303.265949 
L 251.659636 303.181201 
L 257.746909 302.842206 
L 264.442909 302.757458 
L 266.877818 302.503212 
L 268.095273 302.418463 
L 276.008727 301.782848 
L 279.661091 301.316731 
L 282.096 301.231983 
L 286.965818 300.596368 
L 290.618182 300.511619 
L 292.444364 300.342122 
L 293.661818 300.299748 
L 294.879273 300.172625 
L 296.705455 300.087876 
L 297.922909 299.918379 
L 300.966545 299.579385 
L 303.401455 299.494636 
L 304.618909 299.409887 
L 307.053818 299.325139 
L 308.271273 299.24039 
L 311.314909 298.94377 
L 311.923636 298.774273 
L 315.576 298.604776 
L 318.619636 298.520027 
L 326.533091 298.05391 
L 328.359273 297.969161 
L 336.272727 297.503044 
L 340.533818 297.418295 
L 341.142545 297.291172 
L 346.012364 297.206423 
L 350.273455 296.994552 
L 356.969455 296.909803 
L 361.230545 296.697932 
L 366.100364 296.613183 
L 370.970182 296.358937 
L 375.231273 296.274189 
L 386.797091 295.553825 
L 391.666909 295.469077 
L 407.493818 294.452093 
L 411.146182 294.367345 
L 412.972364 294.324971 
L 414.798545 294.282596 
L 416.624727 294.113099 
L 421.494545 294.02835 
L 422.712 293.816479 
L 423.929455 293.73173 
L 426.973091 293.604607 
L 428.190545 293.519859 
L 429.408 293.43511 
L 434.886545 293.350362 
L 436.104 293.223239 
L 438.538909 293.180864 
L 439.147636 293.053741 
L 440.365091 292.968993 
L 440.973818 292.84187 
L 442.8 292.757121 
L 453.148364 292.121507 
L 454.974545 292.036758 
L 458.018182 291.909635 
L 466.540364 291.824886 
L 470.801455 291.613015 
L 475.671273 291.528266 
L 478.106182 291.443518 
L 480.541091 291.401143 
L 481.758545 291.274021 
L 484.193455 291.189272 
L 490.280727 290.850277 
L 493.933091 290.807903 
L 495.759273 290.638406 
L 497.585455 290.596032 
L 501.846545 290.511283 
L 504.281455 290.426534 
L 511.586182 290.341786 
L 514.629818 290.214663 
L 518.282182 290.129914 
L 520.108364 289.918043 
L 523.760727 289.875668 
L 525.586909 289.706171 
L 528.021818 289.621423 
L 535.326545 289.536674 
L 538.370182 289.409551 
L 548.718545 289.367177 
L 549.936 289.282428 
L 551.762182 289.240054 
L 559.675636 289.155305 
L 560.893091 289.070557 
L 567.589091 288.985808 
L 570.024 288.901059 
L 577.328727 288.858685 
L 578.546182 288.773936 
L 587.677091 288.731562 
L 589.503273 288.562065 
L 604.721455 288.477316 
L 606.547636 288.434942 
L 622.983273 288.350193 
L 625.418182 288.265445 
L 635.766545 288.180696 
L 636.984 288.095948 
L 640.027636 288.011199 
L 641.853818 287.841702 
L 644.897455 287.756953 
L 647.332364 287.672204 
L 650.984727 287.587456 
L 652.810909 287.545082 
L 655.245818 287.460333 
L 657.072 287.417959 
L 660.115636 287.33321 
L 661.333091 287.248461 
L 664.985455 287.163713 
L 668.029091 287.03659 
L 669.246545 286.994216 
L 670.464 286.909467 
L 672.290182 286.867093 
L 674.725091 286.782344 
L 677.16 286.697595 
L 685.073455 286.612847 
L 687.508364 286.528098 
L 692.378182 286.44335 
L 696.639273 286.231478 
L 702.117818 286.146729 
L 703.335273 286.061981 
L 714.292364 285.977232 
L 716.118545 285.934858 
L 719.162182 285.892484 
L 721.597091 285.638238 
L 723.423273 285.595863 
L 727.075636 285.511115 
L 733.771636 285.129746 
L 736.206545 285.044997 
L 738.641455 284.960249 
L 742.293818 284.8755 
L 743.511273 284.790752 
L 745.946182 284.706003 
L 747.163636 284.621254 
L 747.163636 284.621254 
" clip-path="url(#p3d40e7856d)" style="fill: none; stroke: #ff7f0e; stroke-width: 1.5; stroke-linecap: square"/>
   </g>
   <g id="patch_3">
    <path d="M 108 320.4 
L 108 43.2 
" style="fill: none; stroke: #a9a9a9; stroke-width: 0.8; stroke-linejoin: miter; stroke-linecap: square"/>
   </g>
   <g id="patch_4">
    <path d="M 777.6 320.4 
L 777.6 43.2 
" style="fill: none"/>
   </g>
   <g id="patch_5">
    <path d="M 108 320.4 
L 777.6 320.4 
" style="fill: none; stroke: #a9a9a9; stroke-width: 0.8; stroke-linejoin: miter; stroke-linecap: square"/>
   </g>
   <g id="patch_6">
    <path d="M 108 43.2 
L 777.6 43.2 
" style="fill: none"/>
   </g>
   <g id="text_18">
    <!-- get_subscribe history -->
    <g style="fill: #a9a9a9" transform="translate(378.6075 37.2) scale(0.12 -0.12)">
     <defs>
      <path id="DejaVuSans-67" d="M 2906 1791 
Q 2906 2416 2648 2759 
Q 2391 3103 1925 3103 
Q 1463 3103 1205 2759 
Q 947 2416 947 1791 
Q 947 1169 1205 825 
Q 1463 481 1925 481 
Q 2391 481 2648 825 
Q 2906 1169 2906 1791 
z
M 3481 434 
Q 3481 -459 3084 -895 
Q 2688 -1331 1869 -1331 
Q 1566 -1331 1297 -1286 
Q 1028 -1241 775 -1147 
L 775 -588 
Q 1028 -725 1275 -790 
Q 1522 -856 1778 -856 
Q 2344 -856 2625 -561 
Q 2906 -266 2906 331 
L 2906 616 
Q 2728 306 2450 153 
Q 2172 0 1784 0 
Q 1141 0 747 490 
Q 353 981 353 1791 
Q 353 2603 747 3093 
Q 1141 3584 1784 3584 
Q 2172 3584 2450 3431 
Q 2728 3278 2906 2969 
L 2906 3500 
L 3481 3500 
L 3481 434 
z
" transform="scale(0.015625)"/>
      <path id="DejaVuSans-65" d="M 3597 1894 
L 3597 1613 
L 953 1613 
Q 991 1019 1311 708 
Q 1631 397 2203 397 
Q 2534 397 2845 478 
Q 3156 559 3463 722 
L 3463 178 
Q 3153 47 2828 -22 
Q 2503 -91 2169 -91 
Q 1331 -91 842 396 
Q 353 884 353 1716 
Q 353 2575 817 3079 
Q 1281 3584 2069 3584 
Q 2775 3584 3186 3129 
Q 3597 2675 3597 1894 
z
M 3022 2063 
Q 3016 2534 2758 2815 
Q 2500 3097 2075 3097 
Q 1594 3097 1305 2825 
Q 1016 2553 972 2059 
L 3022 2063 
z
" transform="scale(0.015625)"/>
      <path id="DejaVuSans-74" d="M 1172 4494 
L 1172 3500 
L 2356 3500 
L 2356 3053 
L 1172 3053 
L 1172 1153 
Q 1172 725 1289 603 
Q 1406 481 1766 481 
L 2356 481 
L 2356 0 
L 1766 0 
Q 1100 0 847 248 
Q 594 497 594 1153 
L 594 3053 
L 172 3053 
L 172 3500 
L 594 3500 
L 594 4494 
L 1172 4494 
z
" transform="scale(0.015625)"/>
      <path id="DejaVuSans-5f" d="M 3263 -1063 
L 3263 -1509 
L -63 -1509 
L -63 -1063 
L 3263 -1063 
z
" transform="scale(0.015625)"/>
      <path id="DejaVuSans-73" d="M 2834 3397 
L 2834 2853 
Q 2591 2978 2328 3040 
Q 2066 3103 1784 3103 
Q 1356 3103 1142 2972 
Q 928 2841 928 2578 
Q 928 2378 1081 2264 
Q 1234 2150 1697 2047 
L 1894 2003 
Q 2506 1872 2764 1633 
Q 3022 1394 3022 966 
Q 3022 478 2636 193 
Q 2250 -91 1575 -91 
Q 1294 -91 989 -36 
Q 684 19 347 128 
L 347 722 
Q 666 556 975 473 
Q 1284 391 1588 391 
Q 1994 391 2212 530 
Q 2431 669 2431 922 
Q 2431 1156 2273 1281 
Q 2116 1406 1581 1522 
L 1381 1569 
Q 847 1681 609 1914 
Q 372 2147 372 2553 
Q 372 3047 722 3315 
Q 1072 3584 1716 3584 
Q 2034 3584 2315 3537 
Q 2597 3491 2834 3397 
z
" transform="scale(0.015625)"/>
      <path id="DejaVuSans-75" d="M 544 1381 
L 544 3500 
L 1119 3500 
L 1119 1403 
Q 1119 906 1312 657 
Q 1506 409 1894 409 
Q 2359 409 2629 706 
Q 2900 1003 2900 1516 
L 2900 3500 
L 3475 3500 
L 3475 0 
L 2900 0 
L 2900 538 
Q 2691 219 2414 64 
Q 2138 -91 1772 -91 
Q 1169 -91 856 284 
Q 544 659 544 1381 
z
M 1991 3584 
L 1991 3584 
z
" transform="scale(0.015625)"/>
      <path id="DejaVuSans-62" d="M 3116 1747 
Q 3116 2381 2855 2742 
Q 2594 3103 2138 3103 
Q 1681 3103 1420 2742 
Q 1159 2381 1159 1747 
Q 1159 1113 1420 752 
Q 1681 391 2138 391 
Q 2594 391 2855 752 
Q 3116 1113 3116 1747 
z
M 1159 2969 
Q 1341 3281 1617 3432 
Q 1894 3584 2278 3584 
Q 2916 3584 3314 3078 
Q 3713 2572 3713 1747 
Q 3713 922 3314 415 
Q 2916 -91 2278 -91 
Q 1894 -91 1617 61 
Q 1341 213 1159 525 
L 1159 0 
L 581 0 
L 581 4863 
L 1159 4863 
L 1159 2969 
z
" transform="scale(0.015625)"/>
      <path id="DejaVuSans-63" d="M 3122 3366 
L 3122 2828 
Q 2878 2963 2633 3030 
Q 2388 3097 2138 3097 
Q 1578 3097 1268 2742 
Q 959 2388 959 1747 
Q 959 1106 1268 751 
Q 1578 397 2138 397 
Q 2388 397 2633 464 
Q 2878 531 3122 666 
L 3122 134 
Q 2881 22 2623 -34 
Q 2366 -91 2075 -91 
Q 1284 -91 818 406 
Q 353 903 353 1747 
Q 353 2603 823 3093 
Q 1294 3584 2113 3584 
Q 2378 3584 2631 3529 
Q 2884 3475 3122 3366 
z
" transform="scale(0.015625)"/>
      <path id="DejaVuSans-72" d="M 2631 2963 
Q 2534 3019 2420 3045 
Q 2306 3072 2169 3072 
Q 1681 3072 1420 2755 
Q 1159 2438 1159 1844 
L 1159 0 
L 581 0 
L 581 3500 
L 1159 3500 
L 1159 2956 
Q 1341 3275 1631 3429 
Q 1922 3584 2338 3584 
Q 2397 3584 2469 3576 
Q 2541 3569 2628 3553 
L 2631 2963 
z
" transform="scale(0.015625)"/>
      <path id="DejaVuSans-69" d="M 603 3500 
L 1178 3500 
L 1178 0 
L 603 0 
L 603 3500 
z
M 603 4863 
L 1178 4863 
L 1178 4134 
L 603 4134 
L 603 4863 
z
" transform="scale(0.015625)"/>
      <path id="DejaVuSans-20" transform="scale(0.015625)"/>
      <path id="DejaVuSans-68" d="M 3513 2113 
L 3513 0 
L 2938 0 
L 2938 2094 
Q 2938 2591 2744 2837 
Q 2550 3084 2163 3084 
Q 1697 3084 1428 2787 
Q 1159 2491 1159 1978 
L 1159 0 
L 581 0 
L 581 4863 
L 1159 4863 
L 1159 2956 
Q 1366 3272 1645 3428 
Q 1925 3584 2291 3584 
Q 2894 3584 3203 3211 
Q 3513 2838 3513 2113 
z
" transform="scale(0.015625)"/>
      <path id="DejaVuSans-6f" d="M 1959 3097 
Q 1497 3097 1228 2736 
Q 959 2375 959 1747 
Q 959 1119 1226 758 
Q 1494 397 1959 397 
Q 2419 397 2687 759 
Q 2956 1122 2956 1747 
Q 2956 2369 2687 2733 
Q 2419 3097 1959 3097 
z
M 1959 3584 
Q 2709 3584 3137 3096 
Q 3566 2609 3566 1747 
Q 3566 888 3137 398 
Q 2709 -91 1959 -91 
Q 1206 -91 779 398 
Q 353 888 353 1747 
Q 353 2609 779 3096 
Q 1206 3584 1959 3584 
z
" transform="scale(0.015625)"/>
      <path id="DejaVuSans-79" d="M 2059 -325 
Q 1816 -950 1584 -1140 
Q 1353 -1331 966 -1331 
L 506 -1331 
L 506 -850 
L 844 -850 
Q 1081 -850 1212 -737 
Q 1344 -625 1503 -206 
L 1606 56 
L 191 3500 
L 800 3500 
L 1894 763 
L 2988 3500 
L 3597 3500 
L 2059 -325 
z
" transform="scale(0.015625)"/>
     </defs>
     <use xlink:href="#DejaVuSans-67"/>
     <use xlink:href="#DejaVuSans-65" x="63.476562"/>
     <use xlink:href="#DejaVuSans-74" x="125"/>
     <use xlink:href="#DejaVuSans-5f" x="164.208984"/>
     <use xlink:href="#DejaVuSans-73" x="214.208984"/>
     <use xlink:href="#DejaVuSans-75" x="266.308594"/>
     <use xlink:href="#DejaVuSans-62" x="329.6875"/>
     <use xlink:href="#DejaVuSans-73" x="393.164062"/>
     <use xlink:href="#DejaVuSans-63" x="445.263672"/>
     <use xlink:href="#DejaVuSans-72" x="500.244141"/>
     <use xlink:href="#DejaVuSans-69" x="541.357422"/>
     <use xlink:href="#DejaVuSans-62" x="569.140625"/>
     <use xlink:href="#DejaVuSans-65" x="632.617188"/>
     <use xlink:href="#DejaVuSans-20" x="694.140625"/>
     <use xlink:href="#DejaVuSans-68" x="725.927734"/>
     <use xlink:href="#DejaVuSans-69" x="789.306641"/>
     <use xlink:href="#DejaVuSans-73" x="817.089844"/>
     <use xlink:href="#DejaVuSans-74" x="869.189453"/>
     <use xlink:href="#DejaVuSans-6f" x="908.398438"/>
     <use xlink:href="#DejaVuSans-72" x="969.580078"/>
     <use xlink:href="#DejaVuSans-79" x="1010.693359"/>
    </g>
   </g>
   <g id="legend_1">
    <g id="line2d_37">
     <path d="M 815.08 328.498438 
L 825.08 328.498438 
L 835.08 328.498438 
" style="fill: none; stroke: #1f77b4; stroke-width: 1.5; stroke-linecap: square"/>
    </g>
    <g id="text_19">
     <!-- star -->
     <g style="fill: #a9a9a9" transform="translate(843.08 331.998438) scale(0.1 -0.1)">
      <defs>
       <path id="DejaVuSans-61" d="M 2194 1759 
Q 1497 1759 1228 1600 
Q 959 1441 959 1056 
Q 959 750 1161 570 
Q 1363 391 1709 391 
Q 2188 391 2477 730 
Q 2766 1069 2766 1631 
L 2766 1759 
L 2194 1759 
z
M 3341 1997 
L 3341 0 
L 2766 0 
L 2766 531 
Q 2569 213 2275 61 
Q 1981 -91 1556 -91 
Q 1019 -91 701 211 
Q 384 513 384 1019 
Q 384 1609 779 1909 
Q 1175 2209 1959 2209 
L 2766 2209 
L 2766 2266 
Q 2766 2663 2505 2880 
Q 2244 3097 1772 3097 
Q 1472 3097 1187 3025 
Q 903 2953 641 2809 
L 641 3341 
Q 956 3463 1253 3523 
Q 1550 3584 1831 3584 
Q 2591 3584 2966 3190 
Q 3341 2797 3341 1997 
z
" transform="scale(0.015625)"/>
      </defs>
      <use xlink:href="#DejaVuSans-73"/>
      <use xlink:href="#DejaVuSans-74" x="52.099609"/>
      <use xlink:href="#DejaVuSans-61" x="91.308594"/>
      <use xlink:href="#DejaVuSans-72" x="152.587891"/>
     </g>
    </g>
    <g id="line2d_38">
     <path d="M 815.08 343.176562 
L 825.08 343.176562 
L 835.08 343.176562 
" style="fill: none; stroke: #ff7f0e; stroke-width: 1.5; stroke-linecap: square"/>
    </g>
    <g id="text_20">
     <!-- fork -->
     <g style="fill: #a9a9a9" transform="translate(843.08 346.676562) scale(0.1 -0.1)">
      <defs>
       <path id="DejaVuSans-66" d="M 2375 4863 
L 2375 4384 
L 1825 4384 
Q 1516 4384 1395 4259 
Q 1275 4134 1275 3809 
L 1275 3500 
L 2222 3500 
L 2222 3053 
L 1275 3053 
L 1275 0 
L 697 0 
L 697 3053 
L 147 3053 
L 147 3500 
L 697 3500 
L 697 3744 
Q 697 4328 969 4595 
Q 1241 4863 1831 4863 
L 2375 4863 
z
" transform="scale(0.015625)"/>
       <path id="DejaVuSans-6b" d="M 581 4863 
L 1159 4863 
L 1159 1991 
L 2875 3500 
L 3609 3500 
L 1753 1863 
L 3688 0 
L 2938 0 
L 1159 1709 
L 1159 0 
L 581 0 
L 581 4863 
z
" transform="scale(0.015625)"/>
      </defs>
      <use xlink:href="#DejaVuSans-66"/>
      <use xlink:href="#DejaVuSans-6f" x="35.205078"/>
      <use xlink:href="#DejaVuSans-72" x="96.386719"/>
      <use xlink:href="#DejaVuSans-6b" x="137.5"/>
     </g>
    </g>
   </g>
  </g>
 </g>
 <defs>
  <clipPath id="p3d40e7856d">
   <rect x="108" y="43.2" width="669.6" height="277.2"/>
  </clipPath>
 </defs>
</svg>
