<?xml version="1.0" encoding="utf-8" standalone="no"?>
<!DOCTYPE svg PUBLIC "-//W3C//DTD SVG 1.1//EN"
  "http://www.w3.org/Graphics/SVG/1.1/DTD/svg11.dtd">
<svg xmlns:xlink="http://www.w3.org/1999/xlink" width="864pt" height="360pt" viewBox="0 0 864 360" xmlns="http://www.w3.org/2000/svg" version="1.1">
 <metadata>
  <rdf:RDF xmlns:dc="http://purl.org/dc/elements/1.1/" xmlns:cc="http://creativecommons.org/ns#" xmlns:rdf="http://www.w3.org/1999/02/22-rdf-syntax-ns#">
   <cc:Work>
    <dc:type rdf:resource="http://purl.org/dc/dcmitype/StillImage"/>
    <dc:date>2024-04-16T08:10:45.289032</dc:date>
    <dc:format>image/svg+xml</dc:format>
    <dc:creator>
     <cc:Agent>
      <dc:title>Matplotlib v3.8.4, https://matplotlib.org/</dc:title>
     </cc:Agent>
    </dc:creator>
   </cc:Work>
  </rdf:RDF>
 </metadata>
 <defs>
  <style type="text/css">*{stroke-linejoin: round; stroke-linecap: butt}</style>
 </defs>
 <g id="figure_1">
  <g id="patch_1">
   <path d="M 0 360 
L 864 360 
L 864 0 
L 0 0 
L 0 360 
z
" style="fill: none; opacity: 0"/>
  </g>
  <g id="axes_1">
   <g id="patch_2">
    <path d="M 108 320.4 
L 777.6 320.4 
L 777.6 43.2 
L 108 43.2 
L 108 320.4 
z
" style="fill: none; opacity: 0"/>
   </g>
   <g id="matplotlib.axis_1">
    <g id="xtick_1">
     <g id="line2d_1">
      <path d="M 162.248163 320.4 
L 162.248163 43.2 
" clip-path="url(#p0d4f800252)" style="fill: none; stroke-dasharray: 5.12,1.28,0.8,1.28; stroke-dashoffset: 0; stroke: #b0b0b0; stroke-width: 0.8"/>
     </g>
     <g id="line2d_2">
      <defs>
       <path id="m988df36c05" d="M 0 0 
L 0 3.5 
" style="stroke: #a9a9a9; stroke-width: 0.8"/>
      </defs>
      <g>
       <use xlink:href="#m988df36c05" x="162.248163" y="320.4" style="fill: #a9a9a9; stroke: #a9a9a9; stroke-width: 0.8"/>
      </g>
     </g>
     <g id="text_1">
      <!-- 2021-09 -->
      <g style="fill: #a9a9a9" transform="translate(141.356756 334.998438) scale(0.1 -0.1)">
       <defs>
        <path id="DejaVuSans-32" d="M 1228 531 
L 3431 531 
L 3431 0 
L 469 0 
L 469 531 
Q 828 903 1448 1529 
Q 2069 2156 2228 2338 
Q 2531 2678 2651 2914 
Q 2772 3150 2772 3378 
Q 2772 3750 2511 3984 
Q 2250 4219 1831 4219 
Q 1534 4219 1204 4116 
Q 875 4013 500 3803 
L 500 4441 
Q 881 4594 1212 4672 
Q 1544 4750 1819 4750 
Q 2544 4750 2975 4387 
Q 3406 4025 3406 3419 
Q 3406 3131 3298 2873 
Q 3191 2616 2906 2266 
Q 2828 2175 2409 1742 
Q 1991 1309 1228 531 
z
" transform="scale(0.015625)"/>
        <path id="DejaVuSans-30" d="M 2034 4250 
Q 1547 4250 1301 3770 
Q 1056 3291 1056 2328 
Q 1056 1369 1301 889 
Q 1547 409 2034 409 
Q 2525 409 2770 889 
Q 3016 1369 3016 2328 
Q 3016 3291 2770 3770 
Q 2525 4250 2034 4250 
z
M 2034 4750 
Q 2819 4750 3233 4129 
Q 3647 3509 3647 2328 
Q 3647 1150 3233 529 
Q 2819 -91 2034 -91 
Q 1250 -91 836 529 
Q 422 1150 422 2328 
Q 422 3509 836 4129 
Q 1250 4750 2034 4750 
z
" transform="scale(0.015625)"/>
        <path id="DejaVuSans-31" d="M 794 531 
L 1825 531 
L 1825 4091 
L 703 3866 
L 703 4441 
L 1819 4666 
L 2450 4666 
L 2450 531 
L 3481 531 
L 3481 0 
L 794 0 
L 794 531 
z
" transform="scale(0.015625)"/>
        <path id="DejaVuSans-2d" d="M 313 2009 
L 1997 2009 
L 1997 1497 
L 313 1497 
L 313 2009 
z
" transform="scale(0.015625)"/>
        <path id="DejaVuSans-39" d="M 703 97 
L 703 672 
Q 941 559 1184 500 
Q 1428 441 1663 441 
Q 2288 441 2617 861 
Q 2947 1281 2994 2138 
Q 2813 1869 2534 1725 
Q 2256 1581 1919 1581 
Q 1219 1581 811 2004 
Q 403 2428 403 3163 
Q 403 3881 828 4315 
Q 1253 4750 1959 4750 
Q 2769 4750 3195 4129 
Q 3622 3509 3622 2328 
Q 3622 1225 3098 567 
Q 2575 -91 1691 -91 
Q 1453 -91 1209 -44 
Q 966 3 703 97 
z
M 1959 2075 
Q 2384 2075 2632 2365 
Q 2881 2656 2881 3163 
Q 2881 3666 2632 3958 
Q 2384 4250 1959 4250 
Q 1534 4250 1286 3958 
Q 1038 3666 1038 3163 
Q 1038 2656 1286 2365 
Q 1534 2075 1959 2075 
z
" transform="scale(0.015625)"/>
       </defs>
       <use xlink:href="#DejaVuSans-32"/>
       <use xlink:href="#DejaVuSans-30" x="63.623047"/>
       <use xlink:href="#DejaVuSans-32" x="127.246094"/>
       <use xlink:href="#DejaVuSans-31" x="190.869141"/>
       <use xlink:href="#DejaVuSans-2d" x="254.492188"/>
       <use xlink:href="#DejaVuSans-30" x="290.576172"/>
       <use xlink:href="#DejaVuSans-39" x="354.199219"/>
      </g>
     </g>
    </g>
    <g id="xtick_2">
     <g id="line2d_3">
      <path d="M 236.736355 320.4 
L 236.736355 43.2 
" clip-path="url(#p0d4f800252)" style="fill: none; stroke-dasharray: 5.12,1.28,0.8,1.28; stroke-dashoffset: 0; stroke: #b0b0b0; stroke-width: 0.8"/>
     </g>
     <g id="line2d_4">
      <g>
       <use xlink:href="#m988df36c05" x="236.736355" y="320.4" style="fill: #a9a9a9; stroke: #a9a9a9; stroke-width: 0.8"/>
      </g>
     </g>
     <g id="text_2">
      <!-- 2022-01 -->
      <g style="fill: #a9a9a9" transform="translate(215.844948 334.998438) scale(0.1 -0.1)">
       <use xlink:href="#DejaVuSans-32"/>
       <use xlink:href="#DejaVuSans-30" x="63.623047"/>
       <use xlink:href="#DejaVuSans-32" x="127.246094"/>
       <use xlink:href="#DejaVuSans-32" x="190.869141"/>
       <use xlink:href="#DejaVuSans-2d" x="254.492188"/>
       <use xlink:href="#DejaVuSans-30" x="290.576172"/>
       <use xlink:href="#DejaVuSans-31" x="354.199219"/>
      </g>
     </g>
    </g>
    <g id="xtick_3">
     <g id="line2d_5">
      <path d="M 310.003428 320.4 
L 310.003428 43.2 
" clip-path="url(#p0d4f800252)" style="fill: none; stroke-dasharray: 5.12,1.28,0.8,1.28; stroke-dashoffset: 0; stroke: #b0b0b0; stroke-width: 0.8"/>
     </g>
     <g id="line2d_6">
      <g>
       <use xlink:href="#m988df36c05" x="310.003428" y="320.4" style="fill: #a9a9a9; stroke: #a9a9a9; stroke-width: 0.8"/>
      </g>
     </g>
     <g id="text_3">
      <!-- 2022-05 -->
      <g style="fill: #a9a9a9" transform="translate(289.112022 334.998438) scale(0.1 -0.1)">
       <defs>
        <path id="DejaVuSans-35" d="M 691 4666 
L 3169 4666 
L 3169 4134 
L 1269 4134 
L 1269 2991 
Q 1406 3038 1543 3061 
Q 1681 3084 1819 3084 
Q 2600 3084 3056 2656 
Q 3513 2228 3513 1497 
Q 3513 744 3044 326 
Q 2575 -91 1722 -91 
Q 1428 -91 1123 -41 
Q 819 9 494 109 
L 494 744 
Q 775 591 1075 516 
Q 1375 441 1709 441 
Q 2250 441 2565 725 
Q 2881 1009 2881 1497 
Q 2881 1984 2565 2268 
Q 2250 2553 1709 2553 
Q 1456 2553 1204 2497 
Q 953 2441 691 2322 
L 691 4666 
z
" transform="scale(0.015625)"/>
       </defs>
       <use xlink:href="#DejaVuSans-32"/>
       <use xlink:href="#DejaVuSans-30" x="63.623047"/>
       <use xlink:href="#DejaVuSans-32" x="127.246094"/>
       <use xlink:href="#DejaVuSans-32" x="190.869141"/>
       <use xlink:href="#DejaVuSans-2d" x="254.492188"/>
       <use xlink:href="#DejaVuSans-30" x="290.576172"/>
       <use xlink:href="#DejaVuSans-35" x="354.199219"/>
      </g>
     </g>
    </g>
    <g id="xtick_4">
     <g id="line2d_7">
      <path d="M 385.102179 320.4 
L 385.102179 43.2 
" clip-path="url(#p0d4f800252)" style="fill: none; stroke-dasharray: 5.12,1.28,0.8,1.28; stroke-dashoffset: 0; stroke: #b0b0b0; stroke-width: 0.8"/>
     </g>
     <g id="line2d_8">
      <g>
       <use xlink:href="#m988df36c05" x="385.102179" y="320.4" style="fill: #a9a9a9; stroke: #a9a9a9; stroke-width: 0.8"/>
      </g>
     </g>
     <g id="text_4">
      <!-- 2022-09 -->
      <g style="fill: #a9a9a9" transform="translate(364.210773 334.998438) scale(0.1 -0.1)">
       <use xlink:href="#DejaVuSans-32"/>
       <use xlink:href="#DejaVuSans-30" x="63.623047"/>
       <use xlink:href="#DejaVuSans-32" x="127.246094"/>
       <use xlink:href="#DejaVuSans-32" x="190.869141"/>
       <use xlink:href="#DejaVuSans-2d" x="254.492188"/>
       <use xlink:href="#DejaVuSans-30" x="290.576172"/>
       <use xlink:href="#DejaVuSans-39" x="354.199219"/>
      </g>
     </g>
    </g>
    <g id="xtick_5">
     <g id="line2d_9">
      <path d="M 459.590371 320.4 
L 459.590371 43.2 
" clip-path="url(#p0d4f800252)" style="fill: none; stroke-dasharray: 5.12,1.28,0.8,1.28; stroke-dashoffset: 0; stroke: #b0b0b0; stroke-width: 0.8"/>
     </g>
     <g id="line2d_10">
      <g>
       <use xlink:href="#m988df36c05" x="459.590371" y="320.4" style="fill: #a9a9a9; stroke: #a9a9a9; stroke-width: 0.8"/>
      </g>
     </g>
     <g id="text_5">
      <!-- 2023-01 -->
      <g style="fill: #a9a9a9" transform="translate(438.698965 334.998438) scale(0.1 -0.1)">
       <defs>
        <path id="DejaVuSans-33" d="M 2597 2516 
Q 3050 2419 3304 2112 
Q 3559 1806 3559 1356 
Q 3559 666 3084 287 
Q 2609 -91 1734 -91 
Q 1441 -91 1130 -33 
Q 819 25 488 141 
L 488 750 
Q 750 597 1062 519 
Q 1375 441 1716 441 
Q 2309 441 2620 675 
Q 2931 909 2931 1356 
Q 2931 1769 2642 2001 
Q 2353 2234 1838 2234 
L 1294 2234 
L 1294 2753 
L 1863 2753 
Q 2328 2753 2575 2939 
Q 2822 3125 2822 3475 
Q 2822 3834 2567 4026 
Q 2313 4219 1838 4219 
Q 1578 4219 1281 4162 
Q 984 4106 628 3988 
L 628 4550 
Q 988 4650 1302 4700 
Q 1616 4750 1894 4750 
Q 2613 4750 3031 4423 
Q 3450 4097 3450 3541 
Q 3450 3153 3228 2886 
Q 3006 2619 2597 2516 
z
" transform="scale(0.015625)"/>
       </defs>
       <use xlink:href="#DejaVuSans-32"/>
       <use xlink:href="#DejaVuSans-30" x="63.623047"/>
       <use xlink:href="#DejaVuSans-32" x="127.246094"/>
       <use xlink:href="#DejaVuSans-33" x="190.869141"/>
       <use xlink:href="#DejaVuSans-2d" x="254.492188"/>
       <use xlink:href="#DejaVuSans-30" x="290.576172"/>
       <use xlink:href="#DejaVuSans-31" x="354.199219"/>
      </g>
     </g>
    </g>
    <g id="xtick_6">
     <g id="line2d_11">
      <path d="M 532.857445 320.4 
L 532.857445 43.2 
" clip-path="url(#p0d4f800252)" style="fill: none; stroke-dasharray: 5.12,1.28,0.8,1.28; stroke-dashoffset: 0; stroke: #b0b0b0; stroke-width: 0.8"/>
     </g>
     <g id="line2d_12">
      <g>
       <use xlink:href="#m988df36c05" x="532.857445" y="320.4" style="fill: #a9a9a9; stroke: #a9a9a9; stroke-width: 0.8"/>
      </g>
     </g>
     <g id="text_6">
      <!-- 2023-05 -->
      <g style="fill: #a9a9a9" transform="translate(511.966039 334.998438) scale(0.1 -0.1)">
       <use xlink:href="#DejaVuSans-32"/>
       <use xlink:href="#DejaVuSans-30" x="63.623047"/>
       <use xlink:href="#DejaVuSans-32" x="127.246094"/>
       <use xlink:href="#DejaVuSans-33" x="190.869141"/>
       <use xlink:href="#DejaVuSans-2d" x="254.492188"/>
       <use xlink:href="#DejaVuSans-30" x="290.576172"/>
       <use xlink:href="#DejaVuSans-35" x="354.199219"/>
      </g>
     </g>
    </g>
    <g id="xtick_7">
     <g id="line2d_13">
      <path d="M 607.956196 320.4 
L 607.956196 43.2 
" clip-path="url(#p0d4f800252)" style="fill: none; stroke-dasharray: 5.12,1.28,0.8,1.28; stroke-dashoffset: 0; stroke: #b0b0b0; stroke-width: 0.8"/>
     </g>
     <g id="line2d_14">
      <g>
       <use xlink:href="#m988df36c05" x="607.956196" y="320.4" style="fill: #a9a9a9; stroke: #a9a9a9; stroke-width: 0.8"/>
      </g>
     </g>
     <g id="text_7">
      <!-- 2023-09 -->
      <g style="fill: #a9a9a9" transform="translate(587.06479 334.998438) scale(0.1 -0.1)">
       <use xlink:href="#DejaVuSans-32"/>
       <use xlink:href="#DejaVuSans-30" x="63.623047"/>
       <use xlink:href="#DejaVuSans-32" x="127.246094"/>
       <use xlink:href="#DejaVuSans-33" x="190.869141"/>
       <use xlink:href="#DejaVuSans-2d" x="254.492188"/>
       <use xlink:href="#DejaVuSans-30" x="290.576172"/>
       <use xlink:href="#DejaVuSans-39" x="354.199219"/>
      </g>
     </g>
    </g>
    <g id="xtick_8">
     <g id="line2d_15">
      <path d="M 682.444388 320.4 
L 682.444388 43.2 
" clip-path="url(#p0d4f800252)" style="fill: none; stroke-dasharray: 5.12,1.28,0.8,1.28; stroke-dashoffset: 0; stroke: #b0b0b0; stroke-width: 0.8"/>
     </g>
     <g id="line2d_16">
      <g>
       <use xlink:href="#m988df36c05" x="682.444388" y="320.4" style="fill: #a9a9a9; stroke: #a9a9a9; stroke-width: 0.8"/>
      </g>
     </g>
     <g id="text_8">
      <!-- 2024-01 -->
      <g style="fill: #a9a9a9" transform="translate(661.552981 334.998438) scale(0.1 -0.1)">
       <defs>
        <path id="DejaVuSans-34" d="M 2419 4116 
L 825 1625 
L 2419 1625 
L 2419 4116 
z
M 2253 4666 
L 3047 4666 
L 3047 1625 
L 3713 1625 
L 3713 1100 
L 3047 1100 
L 3047 0 
L 2419 0 
L 2419 1100 
L 313 1100 
L 313 1709 
L 2253 4666 
z
" transform="scale(0.015625)"/>
       </defs>
       <use xlink:href="#DejaVuSans-32"/>
       <use xlink:href="#DejaVuSans-30" x="63.623047"/>
       <use xlink:href="#DejaVuSans-32" x="127.246094"/>
       <use xlink:href="#DejaVuSans-34" x="190.869141"/>
       <use xlink:href="#DejaVuSans-2d" x="254.492188"/>
       <use xlink:href="#DejaVuSans-30" x="290.576172"/>
       <use xlink:href="#DejaVuSans-31" x="354.199219"/>
      </g>
     </g>
    </g>
    <g id="xtick_9">
     <g id="line2d_17">
      <path d="M 756.322021 320.4 
L 756.322021 43.2 
" clip-path="url(#p0d4f800252)" style="fill: none; stroke-dasharray: 5.12,1.28,0.8,1.28; stroke-dashoffset: 0; stroke: #b0b0b0; stroke-width: 0.8"/>
     </g>
     <g id="line2d_18">
      <g>
       <use xlink:href="#m988df36c05" x="756.322021" y="320.4" style="fill: #a9a9a9; stroke: #a9a9a9; stroke-width: 0.8"/>
      </g>
     </g>
     <g id="text_9">
      <!-- 2024-05 -->
      <g style="fill: #a9a9a9" transform="translate(735.430614 334.998438) scale(0.1 -0.1)">
       <use xlink:href="#DejaVuSans-32"/>
       <use xlink:href="#DejaVuSans-30" x="63.623047"/>
       <use xlink:href="#DejaVuSans-32" x="127.246094"/>
       <use xlink:href="#DejaVuSans-34" x="190.869141"/>
       <use xlink:href="#DejaVuSans-2d" x="254.492188"/>
       <use xlink:href="#DejaVuSans-30" x="290.576172"/>
       <use xlink:href="#DejaVuSans-35" x="354.199219"/>
      </g>
     </g>
    </g>
   </g>
   <g id="matplotlib.axis_2">
    <g id="ytick_1">
     <g id="line2d_19">
      <path d="M 108 307.842632 
L 777.6 307.842632 
" clip-path="url(#p0d4f800252)" style="fill: none; stroke-dasharray: 5.12,1.28,0.8,1.28; stroke-dashoffset: 0; stroke: #b0b0b0; stroke-width: 0.8"/>
     </g>
     <g id="line2d_20">
      <defs>
       <path id="me9da2b00f0" d="M 0 0 
L -3.5 0 
" style="stroke: #a9a9a9; stroke-width: 0.8"/>
      </defs>
      <g>
       <use xlink:href="#me9da2b00f0" x="108" y="307.842632" style="fill: #a9a9a9; stroke: #a9a9a9; stroke-width: 0.8"/>
      </g>
     </g>
     <g id="text_10">
      <!-- 0 -->
      <g style="fill: #a9a9a9" transform="translate(94.6375 311.641851) scale(0.1 -0.1)">
       <use xlink:href="#DejaVuSans-30"/>
      </g>
     </g>
    </g>
    <g id="ytick_2">
     <g id="line2d_21">
      <path d="M 108 273.736728 
L 777.6 273.736728 
" clip-path="url(#p0d4f800252)" style="fill: none; stroke-dasharray: 5.12,1.28,0.8,1.28; stroke-dashoffset: 0; stroke: #b0b0b0; stroke-width: 0.8"/>
     </g>
     <g id="line2d_22">
      <g>
       <use xlink:href="#me9da2b00f0" x="108" y="273.736728" style="fill: #a9a9a9; stroke: #a9a9a9; stroke-width: 0.8"/>
      </g>
     </g>
     <g id="text_11">
      <!-- 800 -->
      <g style="fill: #a9a9a9" transform="translate(81.9125 277.535947) scale(0.1 -0.1)">
       <defs>
        <path id="DejaVuSans-38" d="M 2034 2216 
Q 1584 2216 1326 1975 
Q 1069 1734 1069 1313 
Q 1069 891 1326 650 
Q 1584 409 2034 409 
Q 2484 409 2743 651 
Q 3003 894 3003 1313 
Q 3003 1734 2745 1975 
Q 2488 2216 2034 2216 
z
M 1403 2484 
Q 997 2584 770 2862 
Q 544 3141 544 3541 
Q 544 4100 942 4425 
Q 1341 4750 2034 4750 
Q 2731 4750 3128 4425 
Q 3525 4100 3525 3541 
Q 3525 3141 3298 2862 
Q 3072 2584 2669 2484 
Q 3125 2378 3379 2068 
Q 3634 1759 3634 1313 
Q 3634 634 3220 271 
Q 2806 -91 2034 -91 
Q 1263 -91 848 271 
Q 434 634 434 1313 
Q 434 1759 690 2068 
Q 947 2378 1403 2484 
z
M 1172 3481 
Q 1172 3119 1398 2916 
Q 1625 2713 2034 2713 
Q 2441 2713 2670 2916 
Q 2900 3119 2900 3481 
Q 2900 3844 2670 4047 
Q 2441 4250 2034 4250 
Q 1625 4250 1398 4047 
Q 1172 3844 1172 3481 
z
" transform="scale(0.015625)"/>
       </defs>
       <use xlink:href="#DejaVuSans-38"/>
       <use xlink:href="#DejaVuSans-30" x="63.623047"/>
       <use xlink:href="#DejaVuSans-30" x="127.246094"/>
      </g>
     </g>
    </g>
    <g id="ytick_3">
     <g id="line2d_23">
      <path d="M 108 239.630824 
L 777.6 239.630824 
" clip-path="url(#p0d4f800252)" style="fill: none; stroke-dasharray: 5.12,1.28,0.8,1.28; stroke-dashoffset: 0; stroke: #b0b0b0; stroke-width: 0.8"/>
     </g>
     <g id="line2d_24">
      <g>
       <use xlink:href="#me9da2b00f0" x="108" y="239.630824" style="fill: #a9a9a9; stroke: #a9a9a9; stroke-width: 0.8"/>
      </g>
     </g>
     <g id="text_12">
      <!-- 1600 -->
      <g style="fill: #a9a9a9" transform="translate(75.55 243.430043) scale(0.1 -0.1)">
       <defs>
        <path id="DejaVuSans-36" d="M 2113 2584 
Q 1688 2584 1439 2293 
Q 1191 2003 1191 1497 
Q 1191 994 1439 701 
Q 1688 409 2113 409 
Q 2538 409 2786 701 
Q 3034 994 3034 1497 
Q 3034 2003 2786 2293 
Q 2538 2584 2113 2584 
z
M 3366 4563 
L 3366 3988 
Q 3128 4100 2886 4159 
Q 2644 4219 2406 4219 
Q 1781 4219 1451 3797 
Q 1122 3375 1075 2522 
Q 1259 2794 1537 2939 
Q 1816 3084 2150 3084 
Q 2853 3084 3261 2657 
Q 3669 2231 3669 1497 
Q 3669 778 3244 343 
Q 2819 -91 2113 -91 
Q 1303 -91 875 529 
Q 447 1150 447 2328 
Q 447 3434 972 4092 
Q 1497 4750 2381 4750 
Q 2619 4750 2861 4703 
Q 3103 4656 3366 4563 
z
" transform="scale(0.015625)"/>
       </defs>
       <use xlink:href="#DejaVuSans-31"/>
       <use xlink:href="#DejaVuSans-36" x="63.623047"/>
       <use xlink:href="#DejaVuSans-30" x="127.246094"/>
       <use xlink:href="#DejaVuSans-30" x="190.869141"/>
      </g>
     </g>
    </g>
    <g id="ytick_4">
     <g id="line2d_25">
      <path d="M 108 205.52492 
L 777.6 205.52492 
" clip-path="url(#p0d4f800252)" style="fill: none; stroke-dasharray: 5.12,1.28,0.8,1.28; stroke-dashoffset: 0; stroke: #b0b0b0; stroke-width: 0.8"/>
     </g>
     <g id="line2d_26">
      <g>
       <use xlink:href="#me9da2b00f0" x="108" y="205.52492" style="fill: #a9a9a9; stroke: #a9a9a9; stroke-width: 0.8"/>
      </g>
     </g>
     <g id="text_13">
      <!-- 2400 -->
      <g style="fill: #a9a9a9" transform="translate(75.55 209.324138) scale(0.1 -0.1)">
       <use xlink:href="#DejaVuSans-32"/>
       <use xlink:href="#DejaVuSans-34" x="63.623047"/>
       <use xlink:href="#DejaVuSans-30" x="127.246094"/>
       <use xlink:href="#DejaVuSans-30" x="190.869141"/>
      </g>
     </g>
    </g>
    <g id="ytick_5">
     <g id="line2d_27">
      <path d="M 108 171.419015 
L 777.6 171.419015 
" clip-path="url(#p0d4f800252)" style="fill: none; stroke-dasharray: 5.12,1.28,0.8,1.28; stroke-dashoffset: 0; stroke: #b0b0b0; stroke-width: 0.8"/>
     </g>
     <g id="line2d_28">
      <g>
       <use xlink:href="#me9da2b00f0" x="108" y="171.419015" style="fill: #a9a9a9; stroke: #a9a9a9; stroke-width: 0.8"/>
      </g>
     </g>
     <g id="text_14">
      <!-- 3200 -->
      <g style="fill: #a9a9a9" transform="translate(75.55 175.218234) scale(0.1 -0.1)">
       <use xlink:href="#DejaVuSans-33"/>
       <use xlink:href="#DejaVuSans-32" x="63.623047"/>
       <use xlink:href="#DejaVuSans-30" x="127.246094"/>
       <use xlink:href="#DejaVuSans-30" x="190.869141"/>
      </g>
     </g>
    </g>
    <g id="ytick_6">
     <g id="line2d_29">
      <path d="M 108 137.313111 
L 777.6 137.313111 
" clip-path="url(#p0d4f800252)" style="fill: none; stroke-dasharray: 5.12,1.28,0.8,1.28; stroke-dashoffset: 0; stroke: #b0b0b0; stroke-width: 0.8"/>
     </g>
     <g id="line2d_30">
      <g>
       <use xlink:href="#me9da2b00f0" x="108" y="137.313111" style="fill: #a9a9a9; stroke: #a9a9a9; stroke-width: 0.8"/>
      </g>
     </g>
     <g id="text_15">
      <!-- 4000 -->
      <g style="fill: #a9a9a9" transform="translate(75.55 141.11233) scale(0.1 -0.1)">
       <use xlink:href="#DejaVuSans-34"/>
       <use xlink:href="#DejaVuSans-30" x="63.623047"/>
       <use xlink:href="#DejaVuSans-30" x="127.246094"/>
       <use xlink:href="#DejaVuSans-30" x="190.869141"/>
      </g>
     </g>
    </g>
    <g id="ytick_7">
     <g id="line2d_31">
      <path d="M 108 103.207207 
L 777.6 103.207207 
" clip-path="url(#p0d4f800252)" style="fill: none; stroke-dasharray: 5.12,1.28,0.8,1.28; stroke-dashoffset: 0; stroke: #b0b0b0; stroke-width: 0.8"/>
     </g>
     <g id="line2d_32">
      <g>
       <use xlink:href="#me9da2b00f0" x="108" y="103.207207" style="fill: #a9a9a9; stroke: #a9a9a9; stroke-width: 0.8"/>
      </g>
     </g>
     <g id="text_16">
      <!-- 4800 -->
      <g style="fill: #a9a9a9" transform="translate(75.55 107.006426) scale(0.1 -0.1)">
       <use xlink:href="#DejaVuSans-34"/>
       <use xlink:href="#DejaVuSans-38" x="63.623047"/>
       <use xlink:href="#DejaVuSans-30" x="127.246094"/>
       <use xlink:href="#DejaVuSans-30" x="190.869141"/>
      </g>
     </g>
    </g>
    <g id="ytick_8">
     <g id="line2d_33">
      <path d="M 108 69.101303 
L 777.6 69.101303 
" clip-path="url(#p0d4f800252)" style="fill: none; stroke-dasharray: 5.12,1.28,0.8,1.28; stroke-dashoffset: 0; stroke: #b0b0b0; stroke-width: 0.8"/>
     </g>
     <g id="line2d_34">
      <g>
       <use xlink:href="#me9da2b00f0" x="108" y="69.101303" style="fill: #a9a9a9; stroke: #a9a9a9; stroke-width: 0.8"/>
      </g>
     </g>
     <g id="text_17">
      <!-- 5600 -->
      <g style="fill: #a9a9a9" transform="translate(75.55 72.900521) scale(0.1 -0.1)">
       <use xlink:href="#DejaVuSans-35"/>
       <use xlink:href="#DejaVuSans-36" x="63.623047"/>
       <use xlink:href="#DejaVuSans-30" x="127.246094"/>
       <use xlink:href="#DejaVuSans-30" x="190.869141"/>
      </g>
     </g>
    </g>
   </g>
   <g id="line2d_35">
    <path d="M 138.436364 307.714735 
L 142.099717 307.416309 
L 142.710276 307.160514 
L 144.541953 306.947352 
L 148.205307 306.222602 
L 151.868661 305.924175 
L 152.479219 305.625749 
L 153.089778 305.455219 
L 153.700337 304.687836 
L 154.310896 304.261512 
L 154.921455 302.939909 
L 155.532014 302.854644 
L 156.142573 302.385688 
L 157.363691 301.788834 
L 159.805927 299.91301 
L 161.027045 299.401421 
L 161.637604 298.975097 
L 164.07984 297.909288 
L 164.690398 296.971375 
L 165.911516 296.118728 
L 166.522075 295.820301 
L 172.627665 294.967654 
L 173.238224 294.669227 
L 177.512136 294.328168 
L 179.343813 293.859212 
L 184.838844 293.134461 
L 185.449403 292.793402 
L 186.059962 292.708137 
L 186.670521 292.452343 
L 187.891639 292.239181 
L 188.502198 292.196549 
L 189.723315 291.940755 
L 190.333874 291.898122 
L 192.77611 291.301269 
L 194.607787 291.130739 
L 195.828905 291.002842 
L 196.439464 290.832313 
L 197.050023 290.78968 
L 198.8817 290.235459 
L 200.102818 290.150195 
L 201.323935 289.979665 
L 202.545053 289.723871 
L 203.155612 289.553341 
L 203.766171 288.743326 
L 205.597848 288.061208 
L 207.429525 287.592252 
L 208.040084 287.293825 
L 208.650643 287.251193 
L 211.703438 286.398545 
L 212.924555 286.31328 
L 214.145673 286.057486 
L 216.587909 285.460633 
L 217.198468 285.418 
L 218.419586 284.863779 
L 219.030145 284.778515 
L 219.640704 284.480088 
L 225.746293 283.584808 
L 228.799088 282.73216 
L 229.409647 282.348469 
L 231.851883 281.708983 
L 233.073001 280.984233 
L 233.68356 280.557909 
L 235.515237 280.21685 
L 239.17859 279.108408 
L 240.399708 278.724717 
L 241.010267 278.639452 
L 242.231385 278.298393 
L 243.452503 277.999966 
L 244.063062 277.914701 
L 245.28418 277.403113 
L 245.894739 277.275216 
L 246.505298 277.019421 
L 247.115857 276.934157 
L 247.726416 276.63573 
L 248.336975 276.4652 
L 249.558092 276.379936 
L 250.77921 275.953612 
L 252.000328 275.868347 
L 252.610887 275.56992 
L 253.832005 275.399391 
L 254.442564 275.186229 
L 255.663682 275.143597 
L 258.105918 274.84517 
L 259.327036 274.248317 
L 266.043184 271.391947 
L 266.653743 271.050888 
L 267.264302 270.411402 
L 268.48542 268.57821 
L 269.095979 268.407681 
L 269.706538 268.407681 
L 270.927656 267.512401 
L 271.538215 267.341871 
L 272.148774 267.043444 
L 272.759333 266.915547 
L 273.369891 266.361326 
L 273.98045 266.190797 
L 275.812127 265.295517 
L 277.033245 263.590222 
L 277.643804 263.20653 
L 278.254363 262.183353 
L 278.864922 261.543867 
L 279.475481 261.245441 
L 280.08604 261.074911 
L 282.528276 259.62541 
L 283.749394 258.644866 
L 284.359953 258.261174 
L 284.970512 257.365894 
L 285.58107 256.001658 
L 286.191629 255.106378 
L 286.802188 254.637422 
L 287.412747 254.381627 
L 289.854983 252.250008 
L 291.076101 251.269464 
L 291.68666 250.757875 
L 292.297219 249.94786 
L 293.518337 248.88205 
L 295.960573 247.304652 
L 296.571132 246.793064 
L 297.181691 246.665167 
L 297.792249 246.409372 
L 299.623926 245.386195 
L 300.845044 244.789342 
L 302.066162 243.638268 
L 302.676721 242.913517 
L 303.897839 242.06087 
L 304.508398 241.89034 
L 305.118957 241.591913 
L 306.340075 240.781898 
L 306.950634 240.440839 
L 307.561193 240.355574 
L 312.445664 237.41394 
L 313.056223 237.072881 
L 313.666782 236.859719 
L 315.498459 235.666013 
L 317.330136 235.111792 
L 317.940695 234.685468 
L 318.551254 234.557571 
L 319.772372 234.131247 
L 321.604049 233.406496 
L 323.435725 232.724378 
L 324.656843 232.511216 
L 325.877961 231.445407 
L 327.709638 230.592759 
L 328.930756 229.868009 
L 330.151874 229.52695 
L 330.762433 229.143258 
L 331.372992 228.972729 
L 333.204669 227.821655 
L 336.257463 227.096904 
L 338.08914 226.031095 
L 338.699699 225.94583 
L 339.310258 225.732668 
L 340.531376 225.476874 
L 342.363053 224.112637 
L 344.19473 223.686314 
L 344.805289 223.473152 
L 345.415848 223.004196 
L 349.079201 221.810489 
L 349.68976 221.767857 
L 350.300319 221.597327 
L 351.521437 221.085738 
L 355.79535 219.593605 
L 357.016468 219.423076 
L 357.627027 219.252546 
L 358.237585 218.954119 
L 358.848144 218.826222 
L 360.679821 217.973575 
L 362.511498 217.078295 
L 363.122057 216.651971 
L 363.732616 216.481441 
L 365.564293 215.500897 
L 366.785411 215.20247 
L 368.006529 214.562984 
L 369.227647 214.221925 
L 369.838206 214.13666 
L 371.059323 213.41191 
L 371.669882 213.284013 
L 372.891 212.772424 
L 373.501559 212.644527 
L 374.112118 212.303468 
L 376.554354 211.919777 
L 377.775472 211.322923 
L 378.386031 210.811335 
L 378.99659 209.745525 
L 380.828267 209.404466 
L 383.270502 208.125495 
L 383.881061 207.997598 
L 388.154974 205.951243 
L 389.376092 205.610184 
L 390.59721 205.35439 
L 391.818328 204.757537 
L 392.428887 204.501743 
L 393.039446 204.416478 
L 395.481681 203.350668 
L 397.313358 202.199594 
L 397.923917 202.114329 
L 398.534476 201.901167 
L 399.145035 201.858535 
L 402.19783 201.091152 
L 402.808389 200.622196 
L 404.029507 200.195872 
L 405.861184 199.599019 
L 406.471743 199.215327 
L 407.082301 199.044798 
L 407.69286 198.618474 
L 408.303419 198.36268 
L 409.524537 197.723194 
L 411.966773 196.955811 
L 412.577332 196.657385 
L 414.409009 195.250516 
L 415.019568 195.122619 
L 416.240686 194.184706 
L 416.851245 194.056809 
L 417.461804 193.118897 
L 418.072363 192.863103 
L 418.682921 192.394147 
L 419.29348 192.308882 
L 420.514598 191.584131 
L 421.125157 191.456234 
L 421.735716 191.20044 
L 422.346275 190.731484 
L 422.956834 190.518322 
L 424.788511 189.281983 
L 427.230747 188.045644 
L 427.841306 187.960379 
L 429.062424 187.406158 
L 429.672983 187.065099 
L 430.283542 186.041922 
L 430.8941 185.487701 
L 431.504659 185.146642 
L 432.115218 185.018745 
L 433.336336 184.251362 
L 433.946895 184.123465 
L 435.168013 183.526611 
L 436.99969 182.759229 
L 438.220808 181.906581 
L 439.441926 180.62761 
L 442.494721 178.410726 
L 443.715838 177.430181 
L 444.326397 177.174387 
L 444.936956 176.492269 
L 445.547515 176.023312 
L 446.768633 175.596989 
L 447.989751 174.786973 
L 448.60031 174.488547 
L 449.210869 174.318017 
L 449.821428 173.891693 
L 450.431987 173.763796 
L 452.263664 172.783252 
L 453.484782 172.058501 
L 459.590371 169.88425 
L 460.20093 169.330029 
L 462.032607 168.647911 
L 463.253725 168.264219 
L 463.864284 167.795263 
L 466.917079 166.217865 
L 468.138196 163.873084 
L 469.359314 162.423583 
L 470.580432 161.698833 
L 472.412109 160.974082 
L 473.022668 160.888817 
L 473.633227 160.547758 
L 475.464904 159.993537 
L 477.90714 158.885096 
L 478.517699 158.501404 
L 479.738816 158.07508 
L 483.40217 155.943461 
L 484.012729 155.303976 
L 485.233847 154.66449 
L 485.844406 154.323431 
L 486.454965 154.110269 
L 487.065524 153.683945 
L 488.286642 153.087092 
L 490.118319 152.106547 
L 490.728878 151.936018 
L 491.339436 151.467061 
L 494.392231 150.486517 
L 495.00279 150.315987 
L 495.613349 150.01756 
L 496.223908 149.591237 
L 497.445026 149.250178 
L 498.666144 148.781221 
L 499.276703 148.312265 
L 500.497821 147.928574 
L 501.10838 147.630147 
L 501.718939 147.459618 
L 502.940057 146.60697 
L 504.161174 146.095381 
L 505.382292 145.157469 
L 506.60341 144.731145 
L 507.213969 144.219557 
L 507.824528 144.134292 
L 509.045646 143.239012 
L 510.266764 142.642159 
L 510.877323 142.386364 
L 511.487882 141.789511 
L 515.151236 140.467907 
L 516.982912 139.657892 
L 518.814589 139.103671 
L 520.035707 138.933142 
L 520.646266 138.677347 
L 521.256825 138.592083 
L 522.477943 138.080494 
L 523.088502 138.037862 
L 525.530738 137.142582 
L 527.362415 135.906243 
L 527.972973 135.650448 
L 529.194091 135.010963 
L 529.80465 134.797801 
L 532.246886 133.3483 
L 532.857445 132.964608 
L 534.078563 132.666182 
L 535.91024 131.643005 
L 537.741917 131.046151 
L 538.352476 130.790357 
L 539.573594 130.49193 
L 542.626388 129.511386 
L 544.458065 129.212959 
L 546.900301 128.445576 
L 547.51086 128.189782 
L 548.121419 128.104517 
L 548.731978 127.80609 
L 549.953096 127.550296 
L 551.174214 127.123972 
L 551.784772 126.91081 
L 553.00589 126.782913 
L 554.227008 126.484487 
L 556.058685 126.18606 
L 556.669244 125.972898 
L 557.890362 125.845001 
L 560.943157 125.077618 
L 562.164275 124.779191 
L 562.774834 124.438132 
L 565.827628 123.670749 
L 566.438187 123.542852 
L 567.659305 123.116529 
L 569.490982 122.477043 
L 570.101541 122.391778 
L 571.933218 121.752292 
L 572.543777 121.752292 
L 573.764895 121.325969 
L 574.375454 120.729115 
L 574.986013 120.430689 
L 576.20713 120.046997 
L 578.649366 119.109085 
L 579.259925 118.981188 
L 579.870484 118.597496 
L 580.481043 118.469599 
L 581.091602 118.12854 
L 584.144397 117.23326 
L 584.754956 116.849569 
L 585.365515 116.721671 
L 585.976074 116.210083 
L 587.807751 115.869024 
L 589.028868 115.186906 
L 589.639427 114.504788 
L 590.860545 114.248993 
L 595.134458 113.268449 
L 595.745017 113.097919 
L 596.966135 113.055287 
L 597.576694 112.75686 
L 600.01893 112.330536 
L 600.629488 112.074742 
L 602.461165 111.818948 
L 604.903401 111.051565 
L 606.735078 110.625241 
L 608.566755 110.156285 
L 610.398432 109.602064 
L 613.451226 108.706784 
L 614.061785 108.365725 
L 615.893462 107.726239 
L 616.504021 107.257283 
L 617.725139 106.916224 
L 618.335698 106.66043 
L 619.556816 106.319371 
L 621.999052 105.210929 
L 623.830729 105.083032 
L 626.272964 104.400914 
L 626.883523 104.017222 
L 628.104641 103.676163 
L 629.936318 102.738251 
L 630.546877 102.610354 
L 631.157436 102.311927 
L 631.767995 102.269295 
L 638.484143 100.009778 
L 640.926379 99.412925 
L 641.536938 99.242396 
L 642.758056 98.688175 
L 643.368615 98.60291 
L 644.589733 98.261851 
L 645.200292 97.792895 
L 645.810851 97.494468 
L 646.42141 96.769717 
L 647.031969 96.343394 
L 648.253087 95.959702 
L 648.863645 95.490746 
L 655.579794 92.719641 
L 656.800912 92.421215 
L 658.632589 91.568567 
L 659.853707 90.843817 
L 660.464266 90.715919 
L 661.074824 90.246963 
L 662.295942 89.65011 
L 663.51706 88.882727 
L 665.348737 88.03008 
L 665.959296 87.603756 
L 667.180414 87.177432 
L 668.401532 86.452681 
L 669.012091 86.196887 
L 669.62265 85.770563 
L 670.843768 85.34424 
L 671.454327 85.216342 
L 673.896562 84.107901 
L 676.949357 83.042091 
L 677.559916 82.999459 
L 678.170475 82.828929 
L 678.781034 82.445238 
L 679.391593 82.359973 
L 680.002152 82.146811 
L 681.833829 81.805752 
L 685.497182 79.929927 
L 686.107741 79.588868 
L 686.7183 79.503603 
L 688.549977 78.523059 
L 690.381654 77.840941 
L 692.213331 77.030925 
L 694.655567 76.050381 
L 695.266126 75.879851 
L 695.876685 75.49616 
L 697.097802 75.32563 
L 697.708361 74.941939 
L 698.31892 74.899306 
L 699.540038 74.515615 
L 700.761156 73.918762 
L 701.371715 73.833497 
L 701.982274 73.577703 
L 702.592833 73.449805 
L 704.42451 72.63979 
L 705.035069 72.511893 
L 705.645628 72.256099 
L 708.698423 71.531348 
L 710.530099 70.84923 
L 712.972335 69.442362 
L 714.193453 68.973406 
L 714.804012 68.589714 
L 716.02513 68.33392 
L 716.635689 67.992861 
L 717.246248 67.864964 
L 718.467366 67.182846 
L 722.130719 65.47755 
L 723.962396 64.880697 
L 725.183514 64.454373 
L 725.794073 64.241211 
L 727.015191 63.601726 
L 728.236309 63.218034 
L 728.846868 63.090137 
L 731.289104 61.939063 
L 731.899663 61.853798 
L 732.510222 61.640636 
L 734.341898 60.617459 
L 742.279165 57.292133 
L 742.889724 56.86581 
L 745.33196 56.055794 
L 745.942518 56.055794 
L 746.553077 55.8 
L 747.163636 55.8 
L 747.163636 55.8 
" clip-path="url(#p0d4f800252)" style="fill: none; stroke: #1f77b4; stroke-width: 1.5; stroke-linecap: square"/>
   </g>
   <g id="line2d_36">
    <path d="M 139.046923 307.8 
L 140.878599 307.714735 
L 142.710276 307.672103 
L 146.37363 307.586838 
L 149.426425 307.458941 
L 151.868661 307.458941 
L 152.479219 307.288411 
L 154.921455 307.203147 
L 156.753132 306.989985 
L 158.584809 306.819455 
L 162.248163 306.648926 
L 162.858722 306.648926 
L 163.469281 306.521029 
L 165.911516 306.435764 
L 167.132634 306.350499 
L 172.017106 306.265234 
L 175.069901 306.137337 
L 182.396608 306.052072 
L 185.449403 305.924175 
L 189.112756 305.838911 
L 191.554992 305.753646 
L 197.050023 305.668381 
L 198.8817 305.625749 
L 200.713376 305.583116 
L 202.545053 305.369954 
L 206.208407 305.327322 
L 207.429525 305.242057 
L 211.703438 305.156792 
L 218.419586 304.773101 
L 222.693499 304.687836 
L 223.914617 304.602571 
L 225.746293 304.517307 
L 229.409647 304.346777 
L 231.851883 304.304145 
L 233.68356 304.133615 
L 243.452503 303.536762 
L 245.894739 303.451497 
L 250.168651 303.238335 
L 252.000328 303.153071 
L 258.105918 302.812012 
L 264.822066 302.726747 
L 267.264302 302.470952 
L 268.48542 302.385688 
L 276.422686 301.746202 
L 280.08604 301.277246 
L 282.528276 301.191981 
L 287.412747 300.552495 
L 291.076101 300.467231 
L 292.907778 300.296701 
L 294.128896 300.254069 
L 295.350014 300.126172 
L 297.181691 300.040907 
L 298.402808 299.870377 
L 301.455603 299.529318 
L 303.897839 299.444053 
L 305.118957 299.358789 
L 307.561193 299.273524 
L 308.782311 299.188259 
L 311.835105 298.889833 
L 312.445664 298.719303 
L 316.109018 298.548773 
L 319.161813 298.463509 
L 327.099079 297.994553 
L 328.930756 297.909288 
L 336.868022 297.440332 
L 341.141935 297.355067 
L 341.752494 297.22717 
L 346.636965 297.141905 
L 350.910878 296.928743 
L 357.627027 296.843478 
L 361.900939 296.630316 
L 366.785411 296.545052 
L 371.669882 296.289257 
L 375.943795 296.203993 
L 387.544415 295.479242 
L 392.428887 295.393977 
L 408.303419 294.3708 
L 411.966773 294.285535 
L 413.79845 294.242903 
L 415.630127 294.200271 
L 417.461804 294.029741 
L 422.346275 293.944476 
L 423.567393 293.731314 
L 424.788511 293.64605 
L 427.841306 293.518153 
L 429.062424 293.432888 
L 430.283542 293.347623 
L 435.778572 293.262358 
L 436.99969 293.134461 
L 439.441926 293.091829 
L 440.052485 292.963932 
L 441.273603 292.878667 
L 441.884162 292.75077 
L 443.715838 292.665505 
L 454.095341 292.026019 
L 455.927017 291.940755 
L 458.979812 291.812857 
L 467.527637 291.727593 
L 471.80155 291.514431 
L 476.686022 291.429166 
L 479.128257 291.343901 
L 481.570493 291.301269 
L 482.791611 291.173372 
L 485.233847 291.088107 
L 491.339436 290.747048 
L 495.00279 290.704415 
L 496.834467 290.533886 
L 498.666144 290.491254 
L 502.940057 290.405989 
L 505.382292 290.320724 
L 512.709 290.235459 
L 515.761794 290.107562 
L 519.425148 290.022297 
L 521.256825 289.809136 
L 524.920179 289.766503 
L 526.751856 289.595974 
L 529.194091 289.510709 
L 536.520799 289.425444 
L 539.573594 289.297547 
L 549.953096 289.254915 
L 551.174214 289.16965 
L 553.00589 289.127017 
L 560.943157 289.041753 
L 562.164275 288.956488 
L 568.880423 288.871223 
L 571.322659 288.785958 
L 578.649366 288.743326 
L 579.870484 288.658061 
L 589.028868 288.615429 
L 590.860545 288.444899 
L 606.124519 288.359635 
L 607.956196 288.317002 
L 624.441287 288.231737 
L 626.883523 288.146473 
L 637.263025 288.061208 
L 638.484143 287.975943 
L 641.536938 287.890678 
L 643.368615 287.720149 
L 646.42141 287.634884 
L 648.863645 287.549619 
L 652.526999 287.464355 
L 654.358676 287.421722 
L 656.800912 287.336457 
L 658.632589 287.293825 
L 661.685383 287.20856 
L 662.906501 287.123296 
L 666.569855 287.038031 
L 669.62265 286.910134 
L 670.843768 286.867501 
L 672.064886 286.782237 
L 673.896562 286.739604 
L 676.338798 286.654339 
L 678.781034 286.569075 
L 686.7183 286.48381 
L 689.160536 286.398545 
L 694.045008 286.31328 
L 698.31892 286.100118 
L 703.813951 286.014854 
L 705.035069 285.929589 
L 716.02513 285.844324 
L 717.856807 285.801692 
L 720.909602 285.759059 
L 723.351837 285.503265 
L 725.183514 285.460633 
L 728.846868 285.375368 
L 735.563016 284.991677 
L 738.005252 284.906412 
L 740.447488 284.821147 
L 744.110842 284.735882 
L 745.33196 284.650617 
L 747.163636 284.650617 
L 747.163636 284.650617 
" clip-path="url(#p0d4f800252)" style="fill: none; stroke: #ff7f0e; stroke-width: 1.5; stroke-linecap: square"/>
   </g>
   <g id="patch_3">
    <path d="M 108 320.4 
L 108 43.2 
" style="fill: none; stroke: #a9a9a9; stroke-width: 0.8; stroke-linejoin: miter; stroke-linecap: square"/>
   </g>
   <g id="patch_4">
    <path d="M 777.6 320.4 
L 777.6 43.2 
" style="fill: none"/>
   </g>
   <g id="patch_5">
    <path d="M 108 320.4 
L 777.6 320.4 
" style="fill: none; stroke: #a9a9a9; stroke-width: 0.8; stroke-linejoin: miter; stroke-linecap: square"/>
   </g>
   <g id="patch_6">
    <path d="M 108 43.2 
L 777.6 43.2 
" style="fill: none"/>
   </g>
   <g id="text_18">
    <!-- get_subscribe history -->
    <g style="fill: #a9a9a9" transform="translate(378.6075 37.2) scale(0.12 -0.12)">
     <defs>
      <path id="DejaVuSans-67" d="M 2906 1791 
Q 2906 2416 2648 2759 
Q 2391 3103 1925 3103 
Q 1463 3103 1205 2759 
Q 947 2416 947 1791 
Q 947 1169 1205 825 
Q 1463 481 1925 481 
Q 2391 481 2648 825 
Q 2906 1169 2906 1791 
z
M 3481 434 
Q 3481 -459 3084 -895 
Q 2688 -1331 1869 -1331 
Q 1566 -1331 1297 -1286 
Q 1028 -1241 775 -1147 
L 775 -588 
Q 1028 -725 1275 -790 
Q 1522 -856 1778 -856 
Q 2344 -856 2625 -561 
Q 2906 -266 2906 331 
L 2906 616 
Q 2728 306 2450 153 
Q 2172 0 1784 0 
Q 1141 0 747 490 
Q 353 981 353 1791 
Q 353 2603 747 3093 
Q 1141 3584 1784 3584 
Q 2172 3584 2450 3431 
Q 2728 3278 2906 2969 
L 2906 3500 
L 3481 3500 
L 3481 434 
z
" transform="scale(0.015625)"/>
      <path id="DejaVuSans-65" d="M 3597 1894 
L 3597 1613 
L 953 1613 
Q 991 1019 1311 708 
Q 1631 397 2203 397 
Q 2534 397 2845 478 
Q 3156 559 3463 722 
L 3463 178 
Q 3153 47 2828 -22 
Q 2503 -91 2169 -91 
Q 1331 -91 842 396 
Q 353 884 353 1716 
Q 353 2575 817 3079 
Q 1281 3584 2069 3584 
Q 2775 3584 3186 3129 
Q 3597 2675 3597 1894 
z
M 3022 2063 
Q 3016 2534 2758 2815 
Q 2500 3097 2075 3097 
Q 1594 3097 1305 2825 
Q 1016 2553 972 2059 
L 3022 2063 
z
" transform="scale(0.015625)"/>
      <path id="DejaVuSans-74" d="M 1172 4494 
L 1172 3500 
L 2356 3500 
L 2356 3053 
L 1172 3053 
L 1172 1153 
Q 1172 725 1289 603 
Q 1406 481 1766 481 
L 2356 481 
L 2356 0 
L 1766 0 
Q 1100 0 847 248 
Q 594 497 594 1153 
L 594 3053 
L 172 3053 
L 172 3500 
L 594 3500 
L 594 4494 
L 1172 4494 
z
" transform="scale(0.015625)"/>
      <path id="DejaVuSans-5f" d="M 3263 -1063 
L 3263 -1509 
L -63 -1509 
L -63 -1063 
L 3263 -1063 
z
" transform="scale(0.015625)"/>
      <path id="DejaVuSans-73" d="M 2834 3397 
L 2834 2853 
Q 2591 2978 2328 3040 
Q 2066 3103 1784 3103 
Q 1356 3103 1142 2972 
Q 928 2841 928 2578 
Q 928 2378 1081 2264 
Q 1234 2150 1697 2047 
L 1894 2003 
Q 2506 1872 2764 1633 
Q 3022 1394 3022 966 
Q 3022 478 2636 193 
Q 2250 -91 1575 -91 
Q 1294 -91 989 -36 
Q 684 19 347 128 
L 347 722 
Q 666 556 975 473 
Q 1284 391 1588 391 
Q 1994 391 2212 530 
Q 2431 669 2431 922 
Q 2431 1156 2273 1281 
Q 2116 1406 1581 1522 
L 1381 1569 
Q 847 1681 609 1914 
Q 372 2147 372 2553 
Q 372 3047 722 3315 
Q 1072 3584 1716 3584 
Q 2034 3584 2315 3537 
Q 2597 3491 2834 3397 
z
" transform="scale(0.015625)"/>
      <path id="DejaVuSans-75" d="M 544 1381 
L 544 3500 
L 1119 3500 
L 1119 1403 
Q 1119 906 1312 657 
Q 1506 409 1894 409 
Q 2359 409 2629 706 
Q 2900 1003 2900 1516 
L 2900 3500 
L 3475 3500 
L 3475 0 
L 2900 0 
L 2900 538 
Q 2691 219 2414 64 
Q 2138 -91 1772 -91 
Q 1169 -91 856 284 
Q 544 659 544 1381 
z
M 1991 3584 
L 1991 3584 
z
" transform="scale(0.015625)"/>
      <path id="DejaVuSans-62" d="M 3116 1747 
Q 3116 2381 2855 2742 
Q 2594 3103 2138 3103 
Q 1681 3103 1420 2742 
Q 1159 2381 1159 1747 
Q 1159 1113 1420 752 
Q 1681 391 2138 391 
Q 2594 391 2855 752 
Q 3116 1113 3116 1747 
z
M 1159 2969 
Q 1341 3281 1617 3432 
Q 1894 3584 2278 3584 
Q 2916 3584 3314 3078 
Q 3713 2572 3713 1747 
Q 3713 922 3314 415 
Q 2916 -91 2278 -91 
Q 1894 -91 1617 61 
Q 1341 213 1159 525 
L 1159 0 
L 581 0 
L 581 4863 
L 1159 4863 
L 1159 2969 
z
" transform="scale(0.015625)"/>
      <path id="DejaVuSans-63" d="M 3122 3366 
L 3122 2828 
Q 2878 2963 2633 3030 
Q 2388 3097 2138 3097 
Q 1578 3097 1268 2742 
Q 959 2388 959 1747 
Q 959 1106 1268 751 
Q 1578 397 2138 397 
Q 2388 397 2633 464 
Q 2878 531 3122 666 
L 3122 134 
Q 2881 22 2623 -34 
Q 2366 -91 2075 -91 
Q 1284 -91 818 406 
Q 353 903 353 1747 
Q 353 2603 823 3093 
Q 1294 3584 2113 3584 
Q 2378 3584 2631 3529 
Q 2884 3475 3122 3366 
z
" transform="scale(0.015625)"/>
      <path id="DejaVuSans-72" d="M 2631 2963 
Q 2534 3019 2420 3045 
Q 2306 3072 2169 3072 
Q 1681 3072 1420 2755 
Q 1159 2438 1159 1844 
L 1159 0 
L 581 0 
L 581 3500 
L 1159 3500 
L 1159 2956 
Q 1341 3275 1631 3429 
Q 1922 3584 2338 3584 
Q 2397 3584 2469 3576 
Q 2541 3569 2628 3553 
L 2631 2963 
z
" transform="scale(0.015625)"/>
      <path id="DejaVuSans-69" d="M 603 3500 
L 1178 3500 
L 1178 0 
L 603 0 
L 603 3500 
z
M 603 4863 
L 1178 4863 
L 1178 4134 
L 603 4134 
L 603 4863 
z
" transform="scale(0.015625)"/>
      <path id="DejaVuSans-20" transform="scale(0.015625)"/>
      <path id="DejaVuSans-68" d="M 3513 2113 
L 3513 0 
L 2938 0 
L 2938 2094 
Q 2938 2591 2744 2837 
Q 2550 3084 2163 3084 
Q 1697 3084 1428 2787 
Q 1159 2491 1159 1978 
L 1159 0 
L 581 0 
L 581 4863 
L 1159 4863 
L 1159 2956 
Q 1366 3272 1645 3428 
Q 1925 3584 2291 3584 
Q 2894 3584 3203 3211 
Q 3513 2838 3513 2113 
z
" transform="scale(0.015625)"/>
      <path id="DejaVuSans-6f" d="M 1959 3097 
Q 1497 3097 1228 2736 
Q 959 2375 959 1747 
Q 959 1119 1226 758 
Q 1494 397 1959 397 
Q 2419 397 2687 759 
Q 2956 1122 2956 1747 
Q 2956 2369 2687 2733 
Q 2419 3097 1959 3097 
z
M 1959 3584 
Q 2709 3584 3137 3096 
Q 3566 2609 3566 1747 
Q 3566 888 3137 398 
Q 2709 -91 1959 -91 
Q 1206 -91 779 398 
Q 353 888 353 1747 
Q 353 2609 779 3096 
Q 1206 3584 1959 3584 
z
" transform="scale(0.015625)"/>
      <path id="DejaVuSans-79" d="M 2059 -325 
Q 1816 -950 1584 -1140 
Q 1353 -1331 966 -1331 
L 506 -1331 
L 506 -850 
L 844 -850 
Q 1081 -850 1212 -737 
Q 1344 -625 1503 -206 
L 1606 56 
L 191 3500 
L 800 3500 
L 1894 763 
L 2988 3500 
L 3597 3500 
L 2059 -325 
z
" transform="scale(0.015625)"/>
     </defs>
     <use xlink:href="#DejaVuSans-67"/>
     <use xlink:href="#DejaVuSans-65" x="63.476562"/>
     <use xlink:href="#DejaVuSans-74" x="125"/>
     <use xlink:href="#DejaVuSans-5f" x="164.208984"/>
     <use xlink:href="#DejaVuSans-73" x="214.208984"/>
     <use xlink:href="#DejaVuSans-75" x="266.308594"/>
     <use xlink:href="#DejaVuSans-62" x="329.6875"/>
     <use xlink:href="#DejaVuSans-73" x="393.164062"/>
     <use xlink:href="#DejaVuSans-63" x="445.263672"/>
     <use xlink:href="#DejaVuSans-72" x="500.244141"/>
     <use xlink:href="#DejaVuSans-69" x="541.357422"/>
     <use xlink:href="#DejaVuSans-62" x="569.140625"/>
     <use xlink:href="#DejaVuSans-65" x="632.617188"/>
     <use xlink:href="#DejaVuSans-20" x="694.140625"/>
     <use xlink:href="#DejaVuSans-68" x="725.927734"/>
     <use xlink:href="#DejaVuSans-69" x="789.306641"/>
     <use xlink:href="#DejaVuSans-73" x="817.089844"/>
     <use xlink:href="#DejaVuSans-74" x="869.189453"/>
     <use xlink:href="#DejaVuSans-6f" x="908.398438"/>
     <use xlink:href="#DejaVuSans-72" x="969.580078"/>
     <use xlink:href="#DejaVuSans-79" x="1010.693359"/>
    </g>
   </g>
   <g id="legend_1">
    <g id="line2d_37">
     <path d="M 815.08 328.498438 
L 825.08 328.498438 
L 835.08 328.498438 
" style="fill: none; stroke: #1f77b4; stroke-width: 1.5; stroke-linecap: square"/>
    </g>
    <g id="text_19">
     <!-- star -->
     <g style="fill: #a9a9a9" transform="translate(843.08 331.998438) scale(0.1 -0.1)">
      <defs>
       <path id="DejaVuSans-61" d="M 2194 1759 
Q 1497 1759 1228 1600 
Q 959 1441 959 1056 
Q 959 750 1161 570 
Q 1363 391 1709 391 
Q 2188 391 2477 730 
Q 2766 1069 2766 1631 
L 2766 1759 
L 2194 1759 
z
M 3341 1997 
L 3341 0 
L 2766 0 
L 2766 531 
Q 2569 213 2275 61 
Q 1981 -91 1556 -91 
Q 1019 -91 701 211 
Q 384 513 384 1019 
Q 384 1609 779 1909 
Q 1175 2209 1959 2209 
L 2766 2209 
L 2766 2266 
Q 2766 2663 2505 2880 
Q 2244 3097 1772 3097 
Q 1472 3097 1187 3025 
Q 903 2953 641 2809 
L 641 3341 
Q 956 3463 1253 3523 
Q 1550 3584 1831 3584 
Q 2591 3584 2966 3190 
Q 3341 2797 3341 1997 
z
" transform="scale(0.015625)"/>
      </defs>
      <use xlink:href="#DejaVuSans-73"/>
      <use xlink:href="#DejaVuSans-74" x="52.099609"/>
      <use xlink:href="#DejaVuSans-61" x="91.308594"/>
      <use xlink:href="#DejaVuSans-72" x="152.587891"/>
     </g>
    </g>
    <g id="line2d_38">
     <path d="M 815.08 343.176562 
L 825.08 343.176562 
L 835.08 343.176562 
" style="fill: none; stroke: #ff7f0e; stroke-width: 1.5; stroke-linecap: square"/>
    </g>
    <g id="text_20">
     <!-- fork -->
     <g style="fill: #a9a9a9" transform="translate(843.08 346.676562) scale(0.1 -0.1)">
      <defs>
       <path id="DejaVuSans-66" d="M 2375 4863 
L 2375 4384 
L 1825 4384 
Q 1516 4384 1395 4259 
Q 1275 4134 1275 3809 
L 1275 3500 
L 2222 3500 
L 2222 3053 
L 1275 3053 
L 1275 0 
L 697 0 
L 697 3053 
L 147 3053 
L 147 3500 
L 697 3500 
L 697 3744 
Q 697 4328 969 4595 
Q 1241 4863 1831 4863 
L 2375 4863 
z
" transform="scale(0.015625)"/>
       <path id="DejaVuSans-6b" d="M 581 4863 
L 1159 4863 
L 1159 1991 
L 2875 3500 
L 3609 3500 
L 1753 1863 
L 3688 0 
L 2938 0 
L 1159 1709 
L 1159 0 
L 581 0 
L 581 4863 
z
" transform="scale(0.015625)"/>
      </defs>
      <use xlink:href="#DejaVuSans-66"/>
      <use xlink:href="#DejaVuSans-6f" x="35.205078"/>
      <use xlink:href="#DejaVuSans-72" x="96.386719"/>
      <use xlink:href="#DejaVuSans-6b" x="137.5"/>
     </g>
    </g>
   </g>
  </g>
 </g>
 <defs>
  <clipPath id="p0d4f800252">
   <rect x="108" y="43.2" width="669.6" height="277.2"/>
  </clipPath>
 </defs>
</svg>
