<?xml version="1.0" encoding="utf-8" standalone="no"?>
<!DOCTYPE svg PUBLIC "-//W3C//DTD SVG 1.1//EN"
  "http://www.w3.org/Graphics/SVG/1.1/DTD/svg11.dtd">
<svg xmlns:xlink="http://www.w3.org/1999/xlink" width="864pt" height="360pt" viewBox="0 0 864 360" xmlns="http://www.w3.org/2000/svg" version="1.1">
 <metadata>
  <rdf:RDF xmlns:dc="http://purl.org/dc/elements/1.1/" xmlns:cc="http://creativecommons.org/ns#" xmlns:rdf="http://www.w3.org/1999/02/22-rdf-syntax-ns#">
   <cc:Work>
    <dc:type rdf:resource="http://purl.org/dc/dcmitype/StillImage"/>
    <dc:date>2024-04-17T20:05:03.616066</dc:date>
    <dc:format>image/svg+xml</dc:format>
    <dc:creator>
     <cc:Agent>
      <dc:title>Matplotlib v3.8.4, https://matplotlib.org/</dc:title>
     </cc:Agent>
    </dc:creator>
   </cc:Work>
  </rdf:RDF>
 </metadata>
 <defs>
  <style type="text/css">*{stroke-linejoin: round; stroke-linecap: butt}</style>
 </defs>
 <g id="figure_1">
  <g id="patch_1">
   <path d="M 0 360 
L 864 360 
L 864 0 
L 0 0 
L 0 360 
z
" style="fill: none; opacity: 0"/>
  </g>
  <g id="axes_1">
   <g id="patch_2">
    <path d="M 108 320.4 
L 777.6 320.4 
L 777.6 43.2 
L 108 43.2 
L 108 320.4 
z
" style="fill: none; opacity: 0"/>
   </g>
   <g id="matplotlib.axis_1">
    <g id="xtick_1">
     <g id="line2d_1">
      <path d="M 162.224303 320.4 
L 162.224303 43.2 
" clip-path="url(#p6ce01cffeb)" style="fill: none; stroke-dasharray: 5.12,1.28,0.8,1.28; stroke-dashoffset: 0; stroke: #b0b0b0; stroke-width: 0.8"/>
     </g>
     <g id="line2d_2">
      <defs>
       <path id="m482fcb681d" d="M 0 0 
L 0 3.5 
" style="stroke: #a9a9a9; stroke-width: 0.8"/>
      </defs>
      <g>
       <use xlink:href="#m482fcb681d" x="162.224303" y="320.4" style="fill: #a9a9a9; stroke: #a9a9a9; stroke-width: 0.8"/>
      </g>
     </g>
     <g id="text_1">
      <!-- 2021-09 -->
      <g style="fill: #a9a9a9" transform="translate(141.332897 334.998438) scale(0.1 -0.1)">
       <defs>
        <path id="DejaVuSans-32" d="M 1228 531 
L 3431 531 
L 3431 0 
L 469 0 
L 469 531 
Q 828 903 1448 1529 
Q 2069 2156 2228 2338 
Q 2531 2678 2651 2914 
Q 2772 3150 2772 3378 
Q 2772 3750 2511 3984 
Q 2250 4219 1831 4219 
Q 1534 4219 1204 4116 
Q 875 4013 500 3803 
L 500 4441 
Q 881 4594 1212 4672 
Q 1544 4750 1819 4750 
Q 2544 4750 2975 4387 
Q 3406 4025 3406 3419 
Q 3406 3131 3298 2873 
Q 3191 2616 2906 2266 
Q 2828 2175 2409 1742 
Q 1991 1309 1228 531 
z
" transform="scale(0.015625)"/>
        <path id="DejaVuSans-30" d="M 2034 4250 
Q 1547 4250 1301 3770 
Q 1056 3291 1056 2328 
Q 1056 1369 1301 889 
Q 1547 409 2034 409 
Q 2525 409 2770 889 
Q 3016 1369 3016 2328 
Q 3016 3291 2770 3770 
Q 2525 4250 2034 4250 
z
M 2034 4750 
Q 2819 4750 3233 4129 
Q 3647 3509 3647 2328 
Q 3647 1150 3233 529 
Q 2819 -91 2034 -91 
Q 1250 -91 836 529 
Q 422 1150 422 2328 
Q 422 3509 836 4129 
Q 1250 4750 2034 4750 
z
" transform="scale(0.015625)"/>
        <path id="DejaVuSans-31" d="M 794 531 
L 1825 531 
L 1825 4091 
L 703 3866 
L 703 4441 
L 1819 4666 
L 2450 4666 
L 2450 531 
L 3481 531 
L 3481 0 
L 794 0 
L 794 531 
z
" transform="scale(0.015625)"/>
        <path id="DejaVuSans-2d" d="M 313 2009 
L 1997 2009 
L 1997 1497 
L 313 1497 
L 313 2009 
z
" transform="scale(0.015625)"/>
        <path id="DejaVuSans-39" d="M 703 97 
L 703 672 
Q 941 559 1184 500 
Q 1428 441 1663 441 
Q 2288 441 2617 861 
Q 2947 1281 2994 2138 
Q 2813 1869 2534 1725 
Q 2256 1581 1919 1581 
Q 1219 1581 811 2004 
Q 403 2428 403 3163 
Q 403 3881 828 4315 
Q 1253 4750 1959 4750 
Q 2769 4750 3195 4129 
Q 3622 3509 3622 2328 
Q 3622 1225 3098 567 
Q 2575 -91 1691 -91 
Q 1453 -91 1209 -44 
Q 966 3 703 97 
z
M 1959 2075 
Q 2384 2075 2632 2365 
Q 2881 2656 2881 3163 
Q 2881 3666 2632 3958 
Q 2384 4250 1959 4250 
Q 1534 4250 1286 3958 
Q 1038 3666 1038 3163 
Q 1038 2656 1286 2365 
Q 1534 2075 1959 2075 
z
" transform="scale(0.015625)"/>
       </defs>
       <use xlink:href="#DejaVuSans-32"/>
       <use xlink:href="#DejaVuSans-30" x="63.623047"/>
       <use xlink:href="#DejaVuSans-32" x="127.246094"/>
       <use xlink:href="#DejaVuSans-31" x="190.869141"/>
       <use xlink:href="#DejaVuSans-2d" x="254.492188"/>
       <use xlink:href="#DejaVuSans-30" x="290.576172"/>
       <use xlink:href="#DejaVuSans-39" x="354.199219"/>
      </g>
     </g>
    </g>
    <g id="xtick_2">
     <g id="line2d_3">
      <path d="M 236.637858 320.4 
L 236.637858 43.2 
" clip-path="url(#p6ce01cffeb)" style="fill: none; stroke-dasharray: 5.12,1.28,0.8,1.28; stroke-dashoffset: 0; stroke: #b0b0b0; stroke-width: 0.8"/>
     </g>
     <g id="line2d_4">
      <g>
       <use xlink:href="#m482fcb681d" x="236.637858" y="320.4" style="fill: #a9a9a9; stroke: #a9a9a9; stroke-width: 0.8"/>
      </g>
     </g>
     <g id="text_2">
      <!-- 2022-01 -->
      <g style="fill: #a9a9a9" transform="translate(215.746451 334.998438) scale(0.1 -0.1)">
       <use xlink:href="#DejaVuSans-32"/>
       <use xlink:href="#DejaVuSans-30" x="63.623047"/>
       <use xlink:href="#DejaVuSans-32" x="127.246094"/>
       <use xlink:href="#DejaVuSans-32" x="190.869141"/>
       <use xlink:href="#DejaVuSans-2d" x="254.492188"/>
       <use xlink:href="#DejaVuSans-30" x="290.576172"/>
       <use xlink:href="#DejaVuSans-31" x="354.199219"/>
      </g>
     </g>
    </g>
    <g id="xtick_3">
     <g id="line2d_5">
      <path d="M 309.831518 320.4 
L 309.831518 43.2 
" clip-path="url(#p6ce01cffeb)" style="fill: none; stroke-dasharray: 5.12,1.28,0.8,1.28; stroke-dashoffset: 0; stroke: #b0b0b0; stroke-width: 0.8"/>
     </g>
     <g id="line2d_6">
      <g>
       <use xlink:href="#m482fcb681d" x="309.831518" y="320.4" style="fill: #a9a9a9; stroke: #a9a9a9; stroke-width: 0.8"/>
      </g>
     </g>
     <g id="text_3">
      <!-- 2022-05 -->
      <g style="fill: #a9a9a9" transform="translate(288.940111 334.998438) scale(0.1 -0.1)">
       <defs>
        <path id="DejaVuSans-35" d="M 691 4666 
L 3169 4666 
L 3169 4134 
L 1269 4134 
L 1269 2991 
Q 1406 3038 1543 3061 
Q 1681 3084 1819 3084 
Q 2600 3084 3056 2656 
Q 3513 2228 3513 1497 
Q 3513 744 3044 326 
Q 2575 -91 1722 -91 
Q 1428 -91 1123 -41 
Q 819 9 494 109 
L 494 744 
Q 775 591 1075 516 
Q 1375 441 1709 441 
Q 2250 441 2565 725 
Q 2881 1009 2881 1497 
Q 2881 1984 2565 2268 
Q 2250 2553 1709 2553 
Q 1456 2553 1204 2497 
Q 953 2441 691 2322 
L 691 4666 
z
" transform="scale(0.015625)"/>
       </defs>
       <use xlink:href="#DejaVuSans-32"/>
       <use xlink:href="#DejaVuSans-30" x="63.623047"/>
       <use xlink:href="#DejaVuSans-32" x="127.246094"/>
       <use xlink:href="#DejaVuSans-32" x="190.869141"/>
       <use xlink:href="#DejaVuSans-2d" x="254.492188"/>
       <use xlink:href="#DejaVuSans-30" x="290.576172"/>
       <use xlink:href="#DejaVuSans-35" x="354.199219"/>
      </g>
     </g>
    </g>
    <g id="xtick_4">
     <g id="line2d_7">
      <path d="M 384.855019 320.4 
L 384.855019 43.2 
" clip-path="url(#p6ce01cffeb)" style="fill: none; stroke-dasharray: 5.12,1.28,0.8,1.28; stroke-dashoffset: 0; stroke: #b0b0b0; stroke-width: 0.8"/>
     </g>
     <g id="line2d_8">
      <g>
       <use xlink:href="#m482fcb681d" x="384.855019" y="320.4" style="fill: #a9a9a9; stroke: #a9a9a9; stroke-width: 0.8"/>
      </g>
     </g>
     <g id="text_4">
      <!-- 2022-09 -->
      <g style="fill: #a9a9a9" transform="translate(363.963613 334.998438) scale(0.1 -0.1)">
       <use xlink:href="#DejaVuSans-32"/>
       <use xlink:href="#DejaVuSans-30" x="63.623047"/>
       <use xlink:href="#DejaVuSans-32" x="127.246094"/>
       <use xlink:href="#DejaVuSans-32" x="190.869141"/>
       <use xlink:href="#DejaVuSans-2d" x="254.492188"/>
       <use xlink:href="#DejaVuSans-30" x="290.576172"/>
       <use xlink:href="#DejaVuSans-39" x="354.199219"/>
      </g>
     </g>
    </g>
    <g id="xtick_5">
     <g id="line2d_9">
      <path d="M 459.268574 320.4 
L 459.268574 43.2 
" clip-path="url(#p6ce01cffeb)" style="fill: none; stroke-dasharray: 5.12,1.28,0.8,1.28; stroke-dashoffset: 0; stroke: #b0b0b0; stroke-width: 0.8"/>
     </g>
     <g id="line2d_10">
      <g>
       <use xlink:href="#m482fcb681d" x="459.268574" y="320.4" style="fill: #a9a9a9; stroke: #a9a9a9; stroke-width: 0.8"/>
      </g>
     </g>
     <g id="text_5">
      <!-- 2023-01 -->
      <g style="fill: #a9a9a9" transform="translate(438.377167 334.998438) scale(0.1 -0.1)">
       <defs>
        <path id="DejaVuSans-33" d="M 2597 2516 
Q 3050 2419 3304 2112 
Q 3559 1806 3559 1356 
Q 3559 666 3084 287 
Q 2609 -91 1734 -91 
Q 1441 -91 1130 -33 
Q 819 25 488 141 
L 488 750 
Q 750 597 1062 519 
Q 1375 441 1716 441 
Q 2309 441 2620 675 
Q 2931 909 2931 1356 
Q 2931 1769 2642 2001 
Q 2353 2234 1838 2234 
L 1294 2234 
L 1294 2753 
L 1863 2753 
Q 2328 2753 2575 2939 
Q 2822 3125 2822 3475 
Q 2822 3834 2567 4026 
Q 2313 4219 1838 4219 
Q 1578 4219 1281 4162 
Q 984 4106 628 3988 
L 628 4550 
Q 988 4650 1302 4700 
Q 1616 4750 1894 4750 
Q 2613 4750 3031 4423 
Q 3450 4097 3450 3541 
Q 3450 3153 3228 2886 
Q 3006 2619 2597 2516 
z
" transform="scale(0.015625)"/>
       </defs>
       <use xlink:href="#DejaVuSans-32"/>
       <use xlink:href="#DejaVuSans-30" x="63.623047"/>
       <use xlink:href="#DejaVuSans-32" x="127.246094"/>
       <use xlink:href="#DejaVuSans-33" x="190.869141"/>
       <use xlink:href="#DejaVuSans-2d" x="254.492188"/>
       <use xlink:href="#DejaVuSans-30" x="290.576172"/>
       <use xlink:href="#DejaVuSans-31" x="354.199219"/>
      </g>
     </g>
    </g>
    <g id="xtick_6">
     <g id="line2d_11">
      <path d="M 532.462234 320.4 
L 532.462234 43.2 
" clip-path="url(#p6ce01cffeb)" style="fill: none; stroke-dasharray: 5.12,1.28,0.8,1.28; stroke-dashoffset: 0; stroke: #b0b0b0; stroke-width: 0.8"/>
     </g>
     <g id="line2d_12">
      <g>
       <use xlink:href="#m482fcb681d" x="532.462234" y="320.4" style="fill: #a9a9a9; stroke: #a9a9a9; stroke-width: 0.8"/>
      </g>
     </g>
     <g id="text_6">
      <!-- 2023-05 -->
      <g style="fill: #a9a9a9" transform="translate(511.570827 334.998438) scale(0.1 -0.1)">
       <use xlink:href="#DejaVuSans-32"/>
       <use xlink:href="#DejaVuSans-30" x="63.623047"/>
       <use xlink:href="#DejaVuSans-32" x="127.246094"/>
       <use xlink:href="#DejaVuSans-33" x="190.869141"/>
       <use xlink:href="#DejaVuSans-2d" x="254.492188"/>
       <use xlink:href="#DejaVuSans-30" x="290.576172"/>
       <use xlink:href="#DejaVuSans-35" x="354.199219"/>
      </g>
     </g>
    </g>
    <g id="xtick_7">
     <g id="line2d_13">
      <path d="M 607.485735 320.4 
L 607.485735 43.2 
" clip-path="url(#p6ce01cffeb)" style="fill: none; stroke-dasharray: 5.12,1.28,0.8,1.28; stroke-dashoffset: 0; stroke: #b0b0b0; stroke-width: 0.8"/>
     </g>
     <g id="line2d_14">
      <g>
       <use xlink:href="#m482fcb681d" x="607.485735" y="320.4" style="fill: #a9a9a9; stroke: #a9a9a9; stroke-width: 0.8"/>
      </g>
     </g>
     <g id="text_7">
      <!-- 2023-09 -->
      <g style="fill: #a9a9a9" transform="translate(586.594329 334.998438) scale(0.1 -0.1)">
       <use xlink:href="#DejaVuSans-32"/>
       <use xlink:href="#DejaVuSans-30" x="63.623047"/>
       <use xlink:href="#DejaVuSans-32" x="127.246094"/>
       <use xlink:href="#DejaVuSans-33" x="190.869141"/>
       <use xlink:href="#DejaVuSans-2d" x="254.492188"/>
       <use xlink:href="#DejaVuSans-30" x="290.576172"/>
       <use xlink:href="#DejaVuSans-39" x="354.199219"/>
      </g>
     </g>
    </g>
    <g id="xtick_8">
     <g id="line2d_15">
      <path d="M 681.899289 320.4 
L 681.899289 43.2 
" clip-path="url(#p6ce01cffeb)" style="fill: none; stroke-dasharray: 5.12,1.28,0.8,1.28; stroke-dashoffset: 0; stroke: #b0b0b0; stroke-width: 0.8"/>
     </g>
     <g id="line2d_16">
      <g>
       <use xlink:href="#m482fcb681d" x="681.899289" y="320.4" style="fill: #a9a9a9; stroke: #a9a9a9; stroke-width: 0.8"/>
      </g>
     </g>
     <g id="text_8">
      <!-- 2024-01 -->
      <g style="fill: #a9a9a9" transform="translate(661.007883 334.998438) scale(0.1 -0.1)">
       <defs>
        <path id="DejaVuSans-34" d="M 2419 4116 
L 825 1625 
L 2419 1625 
L 2419 4116 
z
M 2253 4666 
L 3047 4666 
L 3047 1625 
L 3713 1625 
L 3713 1100 
L 3047 1100 
L 3047 0 
L 2419 0 
L 2419 1100 
L 313 1100 
L 313 1709 
L 2253 4666 
z
" transform="scale(0.015625)"/>
       </defs>
       <use xlink:href="#DejaVuSans-32"/>
       <use xlink:href="#DejaVuSans-30" x="63.623047"/>
       <use xlink:href="#DejaVuSans-32" x="127.246094"/>
       <use xlink:href="#DejaVuSans-34" x="190.869141"/>
       <use xlink:href="#DejaVuSans-2d" x="254.492188"/>
       <use xlink:href="#DejaVuSans-30" x="290.576172"/>
       <use xlink:href="#DejaVuSans-31" x="354.199219"/>
      </g>
     </g>
    </g>
    <g id="xtick_9">
     <g id="line2d_17">
      <path d="M 755.702897 320.4 
L 755.702897 43.2 
" clip-path="url(#p6ce01cffeb)" style="fill: none; stroke-dasharray: 5.12,1.28,0.8,1.28; stroke-dashoffset: 0; stroke: #b0b0b0; stroke-width: 0.8"/>
     </g>
     <g id="line2d_18">
      <g>
       <use xlink:href="#m482fcb681d" x="755.702897" y="320.4" style="fill: #a9a9a9; stroke: #a9a9a9; stroke-width: 0.8"/>
      </g>
     </g>
     <g id="text_9">
      <!-- 2024-05 -->
      <g style="fill: #a9a9a9" transform="translate(734.81149 334.998438) scale(0.1 -0.1)">
       <use xlink:href="#DejaVuSans-32"/>
       <use xlink:href="#DejaVuSans-30" x="63.623047"/>
       <use xlink:href="#DejaVuSans-32" x="127.246094"/>
       <use xlink:href="#DejaVuSans-34" x="190.869141"/>
       <use xlink:href="#DejaVuSans-2d" x="254.492188"/>
       <use xlink:href="#DejaVuSans-30" x="290.576172"/>
       <use xlink:href="#DejaVuSans-35" x="354.199219"/>
      </g>
     </g>
    </g>
   </g>
   <g id="matplotlib.axis_2">
    <g id="ytick_1">
     <g id="line2d_19">
      <path d="M 108 307.842517 
L 777.6 307.842517 
" clip-path="url(#p6ce01cffeb)" style="fill: none; stroke-dasharray: 5.12,1.28,0.8,1.28; stroke-dashoffset: 0; stroke: #b0b0b0; stroke-width: 0.8"/>
     </g>
     <g id="line2d_20">
      <defs>
       <path id="m67f3b084ba" d="M 0 0 
L -3.5 0 
" style="stroke: #a9a9a9; stroke-width: 0.8"/>
      </defs>
      <g>
       <use xlink:href="#m67f3b084ba" x="108" y="307.842517" style="fill: #a9a9a9; stroke: #a9a9a9; stroke-width: 0.8"/>
      </g>
     </g>
     <g id="text_10">
      <!-- 0 -->
      <g style="fill: #a9a9a9" transform="translate(94.6375 311.641736) scale(0.1 -0.1)">
       <use xlink:href="#DejaVuSans-30"/>
      </g>
     </g>
    </g>
    <g id="ytick_2">
     <g id="line2d_21">
      <path d="M 108 273.828682 
L 777.6 273.828682 
" clip-path="url(#p6ce01cffeb)" style="fill: none; stroke-dasharray: 5.12,1.28,0.8,1.28; stroke-dashoffset: 0; stroke: #b0b0b0; stroke-width: 0.8"/>
     </g>
     <g id="line2d_22">
      <g>
       <use xlink:href="#m67f3b084ba" x="108" y="273.828682" style="fill: #a9a9a9; stroke: #a9a9a9; stroke-width: 0.8"/>
      </g>
     </g>
     <g id="text_11">
      <!-- 800 -->
      <g style="fill: #a9a9a9" transform="translate(81.9125 277.627901) scale(0.1 -0.1)">
       <defs>
        <path id="DejaVuSans-38" d="M 2034 2216 
Q 1584 2216 1326 1975 
Q 1069 1734 1069 1313 
Q 1069 891 1326 650 
Q 1584 409 2034 409 
Q 2484 409 2743 651 
Q 3003 894 3003 1313 
Q 3003 1734 2745 1975 
Q 2488 2216 2034 2216 
z
M 1403 2484 
Q 997 2584 770 2862 
Q 544 3141 544 3541 
Q 544 4100 942 4425 
Q 1341 4750 2034 4750 
Q 2731 4750 3128 4425 
Q 3525 4100 3525 3541 
Q 3525 3141 3298 2862 
Q 3072 2584 2669 2484 
Q 3125 2378 3379 2068 
Q 3634 1759 3634 1313 
Q 3634 634 3220 271 
Q 2806 -91 2034 -91 
Q 1263 -91 848 271 
Q 434 634 434 1313 
Q 434 1759 690 2068 
Q 947 2378 1403 2484 
z
M 1172 3481 
Q 1172 3119 1398 2916 
Q 1625 2713 2034 2713 
Q 2441 2713 2670 2916 
Q 2900 3119 2900 3481 
Q 2900 3844 2670 4047 
Q 2441 4250 2034 4250 
Q 1625 4250 1398 4047 
Q 1172 3844 1172 3481 
z
" transform="scale(0.015625)"/>
       </defs>
       <use xlink:href="#DejaVuSans-38"/>
       <use xlink:href="#DejaVuSans-30" x="63.623047"/>
       <use xlink:href="#DejaVuSans-30" x="127.246094"/>
      </g>
     </g>
    </g>
    <g id="ytick_3">
     <g id="line2d_23">
      <path d="M 108 239.814847 
L 777.6 239.814847 
" clip-path="url(#p6ce01cffeb)" style="fill: none; stroke-dasharray: 5.12,1.28,0.8,1.28; stroke-dashoffset: 0; stroke: #b0b0b0; stroke-width: 0.8"/>
     </g>
     <g id="line2d_24">
      <g>
       <use xlink:href="#m67f3b084ba" x="108" y="239.814847" style="fill: #a9a9a9; stroke: #a9a9a9; stroke-width: 0.8"/>
      </g>
     </g>
     <g id="text_12">
      <!-- 1600 -->
      <g style="fill: #a9a9a9" transform="translate(75.55 243.614066) scale(0.1 -0.1)">
       <defs>
        <path id="DejaVuSans-36" d="M 2113 2584 
Q 1688 2584 1439 2293 
Q 1191 2003 1191 1497 
Q 1191 994 1439 701 
Q 1688 409 2113 409 
Q 2538 409 2786 701 
Q 3034 994 3034 1497 
Q 3034 2003 2786 2293 
Q 2538 2584 2113 2584 
z
M 3366 4563 
L 3366 3988 
Q 3128 4100 2886 4159 
Q 2644 4219 2406 4219 
Q 1781 4219 1451 3797 
Q 1122 3375 1075 2522 
Q 1259 2794 1537 2939 
Q 1816 3084 2150 3084 
Q 2853 3084 3261 2657 
Q 3669 2231 3669 1497 
Q 3669 778 3244 343 
Q 2819 -91 2113 -91 
Q 1303 -91 875 529 
Q 447 1150 447 2328 
Q 447 3434 972 4092 
Q 1497 4750 2381 4750 
Q 2619 4750 2861 4703 
Q 3103 4656 3366 4563 
z
" transform="scale(0.015625)"/>
       </defs>
       <use xlink:href="#DejaVuSans-31"/>
       <use xlink:href="#DejaVuSans-36" x="63.623047"/>
       <use xlink:href="#DejaVuSans-30" x="127.246094"/>
       <use xlink:href="#DejaVuSans-30" x="190.869141"/>
      </g>
     </g>
    </g>
    <g id="ytick_4">
     <g id="line2d_25">
      <path d="M 108 205.801012 
L 777.6 205.801012 
" clip-path="url(#p6ce01cffeb)" style="fill: none; stroke-dasharray: 5.12,1.28,0.8,1.28; stroke-dashoffset: 0; stroke: #b0b0b0; stroke-width: 0.8"/>
     </g>
     <g id="line2d_26">
      <g>
       <use xlink:href="#m67f3b084ba" x="108" y="205.801012" style="fill: #a9a9a9; stroke: #a9a9a9; stroke-width: 0.8"/>
      </g>
     </g>
     <g id="text_13">
      <!-- 2400 -->
      <g style="fill: #a9a9a9" transform="translate(75.55 209.600231) scale(0.1 -0.1)">
       <use xlink:href="#DejaVuSans-32"/>
       <use xlink:href="#DejaVuSans-34" x="63.623047"/>
       <use xlink:href="#DejaVuSans-30" x="127.246094"/>
       <use xlink:href="#DejaVuSans-30" x="190.869141"/>
      </g>
     </g>
    </g>
    <g id="ytick_5">
     <g id="line2d_27">
      <path d="M 108 171.787177 
L 777.6 171.787177 
" clip-path="url(#p6ce01cffeb)" style="fill: none; stroke-dasharray: 5.12,1.28,0.8,1.28; stroke-dashoffset: 0; stroke: #b0b0b0; stroke-width: 0.8"/>
     </g>
     <g id="line2d_28">
      <g>
       <use xlink:href="#m67f3b084ba" x="108" y="171.787177" style="fill: #a9a9a9; stroke: #a9a9a9; stroke-width: 0.8"/>
      </g>
     </g>
     <g id="text_14">
      <!-- 3200 -->
      <g style="fill: #a9a9a9" transform="translate(75.55 175.586396) scale(0.1 -0.1)">
       <use xlink:href="#DejaVuSans-33"/>
       <use xlink:href="#DejaVuSans-32" x="63.623047"/>
       <use xlink:href="#DejaVuSans-30" x="127.246094"/>
       <use xlink:href="#DejaVuSans-30" x="190.869141"/>
      </g>
     </g>
    </g>
    <g id="ytick_6">
     <g id="line2d_29">
      <path d="M 108 137.773342 
L 777.6 137.773342 
" clip-path="url(#p6ce01cffeb)" style="fill: none; stroke-dasharray: 5.12,1.28,0.8,1.28; stroke-dashoffset: 0; stroke: #b0b0b0; stroke-width: 0.8"/>
     </g>
     <g id="line2d_30">
      <g>
       <use xlink:href="#m67f3b084ba" x="108" y="137.773342" style="fill: #a9a9a9; stroke: #a9a9a9; stroke-width: 0.8"/>
      </g>
     </g>
     <g id="text_15">
      <!-- 4000 -->
      <g style="fill: #a9a9a9" transform="translate(75.55 141.572561) scale(0.1 -0.1)">
       <use xlink:href="#DejaVuSans-34"/>
       <use xlink:href="#DejaVuSans-30" x="63.623047"/>
       <use xlink:href="#DejaVuSans-30" x="127.246094"/>
       <use xlink:href="#DejaVuSans-30" x="190.869141"/>
      </g>
     </g>
    </g>
    <g id="ytick_7">
     <g id="line2d_31">
      <path d="M 108 103.759507 
L 777.6 103.759507 
" clip-path="url(#p6ce01cffeb)" style="fill: none; stroke-dasharray: 5.12,1.28,0.8,1.28; stroke-dashoffset: 0; stroke: #b0b0b0; stroke-width: 0.8"/>
     </g>
     <g id="line2d_32">
      <g>
       <use xlink:href="#m67f3b084ba" x="108" y="103.759507" style="fill: #a9a9a9; stroke: #a9a9a9; stroke-width: 0.8"/>
      </g>
     </g>
     <g id="text_16">
      <!-- 4800 -->
      <g style="fill: #a9a9a9" transform="translate(75.55 107.558726) scale(0.1 -0.1)">
       <use xlink:href="#DejaVuSans-34"/>
       <use xlink:href="#DejaVuSans-38" x="63.623047"/>
       <use xlink:href="#DejaVuSans-30" x="127.246094"/>
       <use xlink:href="#DejaVuSans-30" x="190.869141"/>
      </g>
     </g>
    </g>
    <g id="ytick_8">
     <g id="line2d_33">
      <path d="M 108 69.745672 
L 777.6 69.745672 
" clip-path="url(#p6ce01cffeb)" style="fill: none; stroke-dasharray: 5.12,1.28,0.8,1.28; stroke-dashoffset: 0; stroke: #b0b0b0; stroke-width: 0.8"/>
     </g>
     <g id="line2d_34">
      <g>
       <use xlink:href="#m67f3b084ba" x="108" y="69.745672" style="fill: #a9a9a9; stroke: #a9a9a9; stroke-width: 0.8"/>
      </g>
     </g>
     <g id="text_17">
      <!-- 5600 -->
      <g style="fill: #a9a9a9" transform="translate(75.55 73.544891) scale(0.1 -0.1)">
       <use xlink:href="#DejaVuSans-35"/>
       <use xlink:href="#DejaVuSans-36" x="63.623047"/>
       <use xlink:href="#DejaVuSans-30" x="127.246094"/>
       <use xlink:href="#DejaVuSans-30" x="190.869141"/>
      </g>
     </g>
    </g>
   </g>
   <g id="line2d_35">
    <path d="M 138.436364 307.714965 
L 142.096047 307.417344 
L 142.705994 307.162241 
L 144.535835 306.949654 
L 148.195518 306.22686 
L 151.855201 305.929239 
L 152.465148 305.631618 
L 153.075096 305.461549 
L 153.685043 304.696238 
L 154.29499 304.271065 
L 154.904937 302.953029 
L 155.514884 302.867994 
L 156.124831 302.400304 
L 157.344726 301.805062 
L 159.784514 299.934301 
L 161.004409 299.424093 
L 161.614356 298.99892 
L 164.054145 297.935988 
L 164.664092 297.000607 
L 165.883986 296.150262 
L 166.493933 295.85264 
L 172.593405 295.002295 
L 173.203352 294.704674 
L 177.472982 294.364535 
L 179.302824 293.896845 
L 184.792348 293.174051 
L 185.402296 292.833913 
L 186.012243 292.748878 
L 186.62219 292.493774 
L 187.842084 292.281188 
L 188.452031 292.23867 
L 189.671926 291.983567 
L 190.281873 291.941049 
L 192.721662 291.345807 
L 194.551503 291.175738 
L 195.771397 291.048186 
L 196.381345 290.878117 
L 196.991292 290.8356 
L 198.821133 290.282875 
L 200.041028 290.19784 
L 201.260922 290.027771 
L 202.480816 289.772667 
L 203.090763 289.602598 
L 203.700711 288.79477 
L 205.530552 288.114493 
L 207.360394 287.646803 
L 207.970341 287.349182 
L 208.580288 287.306664 
L 211.630024 286.456319 
L 212.849918 286.371284 
L 214.069812 286.11618 
L 216.509601 285.520938 
L 217.119548 285.478421 
L 218.339443 284.925696 
L 218.94939 284.840661 
L 219.559337 284.54304 
L 225.658809 283.650177 
L 228.708544 282.799831 
L 229.318492 282.417176 
L 231.75828 281.779416 
L 232.978175 281.056622 
L 233.588122 280.631449 
L 235.417963 280.291311 
L 239.077646 279.185861 
L 240.297541 278.803206 
L 240.907488 278.718171 
L 242.127382 278.378033 
L 243.347276 278.080412 
L 243.957224 277.995377 
L 245.177118 277.48517 
L 245.787065 277.357618 
L 246.397012 277.102514 
L 247.006959 277.017479 
L 247.616907 276.719858 
L 248.226854 276.549789 
L 249.446748 276.464755 
L 250.666642 276.039582 
L 251.886537 275.954547 
L 252.496484 275.656926 
L 253.716378 275.486857 
L 254.326325 275.27427 
L 255.54622 275.231753 
L 257.986008 274.934132 
L 259.205903 274.33889 
L 265.915322 271.490231 
L 266.525269 271.150093 
L 267.135216 270.512333 
L 268.35511 268.68409 
L 268.965057 268.514021 
L 269.575005 268.514021 
L 270.794899 267.621157 
L 271.404846 267.451088 
L 272.014793 267.153467 
L 272.62474 267.025915 
L 273.234688 266.47319 
L 273.844635 266.303121 
L 275.674476 265.410258 
L 276.894371 263.709566 
L 277.504318 263.326911 
L 278.114265 262.306496 
L 278.724212 261.668736 
L 279.334159 261.371115 
L 279.944106 261.201046 
L 282.383895 259.755458 
L 283.603789 258.77756 
L 284.213737 258.394905 
L 284.823684 257.502042 
L 285.433631 256.141488 
L 286.043578 255.248625 
L 286.653525 254.780935 
L 287.263472 254.525831 
L 289.703261 252.399966 
L 290.923155 251.422069 
L 291.533103 250.911861 
L 292.14305 250.104032 
L 293.362944 249.0411 
L 295.802733 247.46796 
L 296.41268 246.957753 
L 297.022627 246.830201 
L 297.632574 246.575097 
L 299.462416 245.554682 
L 300.68231 244.95944 
L 301.902204 243.811473 
L 302.512152 243.088679 
L 303.732046 242.238333 
L 304.341993 242.068264 
L 304.95194 241.770643 
L 306.171835 240.962814 
L 306.781782 240.622676 
L 307.391729 240.537641 
L 312.271306 237.603948 
L 312.881253 237.26381 
L 313.491201 237.051223 
L 315.321042 235.860739 
L 317.150884 235.308014 
L 317.760831 234.882841 
L 318.370778 234.755289 
L 319.590672 234.330116 
L 321.420514 233.607322 
L 323.250355 232.927046 
L 324.47025 232.714459 
L 325.690144 231.651527 
L 327.519985 230.801181 
L 328.73988 230.078387 
L 329.959774 229.738249 
L 330.569721 229.355593 
L 331.179668 229.185524 
L 333.00951 228.037557 
L 336.059246 227.314763 
L 337.889087 226.251831 
L 338.499034 226.166796 
L 339.108982 225.95421 
L 340.328876 225.699106 
L 342.158717 224.338552 
L 343.988559 223.913379 
L 344.598506 223.700793 
L 345.208453 223.233103 
L 348.868136 222.042619 
L 349.478083 222.000101 
L 350.088031 221.830032 
L 351.307925 221.319825 
L 355.577555 219.831719 
L 356.797449 219.66165 
L 357.407397 219.491581 
L 358.017344 219.19396 
L 358.627291 219.066408 
L 360.457132 218.216062 
L 362.286974 217.323199 
L 362.896921 216.898026 
L 363.506868 216.727957 
L 365.33671 215.750059 
L 366.556604 215.452438 
L 367.776498 214.814679 
L 368.996393 214.47454 
L 369.60634 214.389506 
L 370.826234 213.666712 
L 371.436181 213.53916 
L 372.656076 213.028952 
L 373.266023 212.9014 
L 373.87597 212.561262 
L 376.315759 212.178606 
L 377.535653 211.583364 
L 378.1456 211.073157 
L 378.755547 210.010224 
L 380.585389 209.670086 
L 383.025178 208.394567 
L 383.635125 208.267015 
L 387.904755 206.226185 
L 389.124649 205.886047 
L 390.344544 205.630943 
L 391.564438 205.035701 
L 392.174385 204.780597 
L 392.784332 204.695563 
L 395.224121 203.63263 
L 397.053962 202.484663 
L 397.66391 202.399629 
L 398.273857 202.187042 
L 398.883804 202.144525 
L 401.93354 201.379214 
L 402.543487 200.911524 
L 403.763381 200.486351 
L 405.593223 199.891108 
L 406.20317 199.508453 
L 406.813117 199.338384 
L 407.423064 198.913211 
L 408.033011 198.658107 
L 409.252906 198.020348 
L 411.692694 197.255036 
L 412.302642 196.957415 
L 414.132483 195.554345 
L 414.74243 195.426793 
L 415.962325 194.491412 
L 416.572272 194.36386 
L 417.182219 193.42848 
L 417.792166 193.173376 
L 418.402113 192.705686 
L 419.01206 192.620651 
L 420.231955 191.897857 
L 420.841902 191.770305 
L 421.451849 191.515202 
L 422.061796 191.047511 
L 422.671743 190.834925 
L 424.501585 189.601923 
L 426.941374 188.368922 
L 427.551321 188.283887 
L 428.771215 187.731162 
L 429.381162 187.391024 
L 429.991109 186.370609 
L 430.601057 185.817884 
L 431.211004 185.477746 
L 431.820951 185.350194 
L 433.040845 184.584883 
L 433.650792 184.457331 
L 434.870687 183.862089 
L 436.700528 183.096777 
L 437.920423 182.246432 
L 439.140317 180.970913 
L 442.190053 178.760013 
L 443.409947 177.782116 
L 444.019894 177.527012 
L 444.629842 176.846735 
L 445.239789 176.379045 
L 446.459683 175.953872 
L 447.679577 175.146044 
L 448.289525 174.848422 
L 448.899472 174.678353 
L 449.509419 174.25318 
L 450.119366 174.125628 
L 451.949208 173.147731 
L 453.169102 172.424937 
L 459.268574 170.256555 
L 459.878521 169.70383 
L 461.708362 169.023553 
L 462.928257 168.640898 
L 463.538204 168.173207 
L 466.58794 166.600067 
L 467.807834 164.261616 
L 469.027728 162.816028 
L 470.247623 162.093234 
L 472.077464 161.37044 
L 472.687411 161.285406 
L 473.297358 160.945267 
L 475.1272 160.392543 
L 477.566989 159.287093 
L 478.176936 158.904437 
L 479.39683 158.479264 
L 483.056513 156.3534 
L 483.66646 155.71564 
L 484.886355 155.077881 
L 485.496302 154.737743 
L 486.106249 154.525156 
L 486.716196 154.099983 
L 487.93609 153.504741 
L 489.765932 152.526843 
L 490.375879 152.356774 
L 490.985826 151.889084 
L 494.035562 150.911186 
L 494.645509 150.741117 
L 495.255456 150.443496 
L 495.865404 150.018323 
L 497.085298 149.678185 
L 498.305192 149.210494 
L 498.915139 148.742804 
L 500.135034 148.360148 
L 500.744981 148.062527 
L 501.354928 147.892458 
L 502.574822 147.042112 
L 503.794717 146.531905 
L 505.014611 145.596524 
L 506.234505 145.171351 
L 506.844453 144.661144 
L 507.4544 144.576109 
L 508.674294 143.683246 
L 509.894188 143.088004 
L 510.504136 142.8329 
L 511.114083 142.237658 
L 514.773766 140.919622 
L 516.603607 140.111793 
L 518.433449 139.559069 
L 519.653343 139.388999 
L 520.26329 139.133896 
L 520.873237 139.048861 
L 522.093132 138.538654 
L 522.703079 138.496136 
L 525.142868 137.603273 
L 526.972709 136.370272 
L 527.582656 136.115168 
L 528.802551 135.477408 
L 529.412498 135.264822 
L 531.852286 133.819234 
L 532.462234 133.436578 
L 533.682128 133.138957 
L 535.511969 132.118542 
L 537.341811 131.5233 
L 537.951758 131.268196 
L 539.171652 130.970575 
L 542.221388 129.992678 
L 544.05123 129.695057 
L 546.491018 128.929745 
L 547.100966 128.674641 
L 547.710913 128.589607 
L 548.32086 128.291986 
L 549.540754 128.036882 
L 550.760649 127.611709 
L 551.370596 127.399123 
L 552.59049 127.271571 
L 553.810384 126.97395 
L 555.640226 126.676329 
L 556.250173 126.463742 
L 557.470067 126.33619 
L 560.519803 125.570879 
L 561.739698 125.273258 
L 562.349645 124.93312 
L 565.399381 124.167808 
L 566.009328 124.040256 
L 567.229222 123.615084 
L 569.059064 122.977324 
L 569.669011 122.89229 
L 571.498852 122.25453 
L 572.108799 122.25453 
L 573.328694 121.829357 
L 573.938641 121.234115 
L 574.548588 120.936494 
L 575.768482 120.553838 
L 578.208271 119.618458 
L 578.818218 119.490906 
L 579.428165 119.10825 
L 580.038113 118.980698 
L 580.64806 118.64056 
L 583.697796 117.747697 
L 584.307743 117.365041 
L 584.91769 117.237489 
L 585.527637 116.727282 
L 587.357479 116.387144 
L 588.577373 115.706867 
L 589.18732 115.02659 
L 590.407214 114.771486 
L 594.676845 113.793589 
L 595.286792 113.623519 
L 596.506686 113.581002 
L 597.116633 113.283381 
L 599.556422 112.858208 
L 600.166369 112.603104 
L 601.996211 112.348001 
L 604.435999 111.582689 
L 606.265841 111.157516 
L 608.095682 110.689826 
L 609.925524 110.137101 
L 612.97526 109.244238 
L 613.585207 108.9041 
L 615.415048 108.26634 
L 616.024995 107.79865 
L 617.24489 107.458512 
L 617.854837 107.203408 
L 619.074731 106.86327 
L 621.51452 105.75782 
L 623.344361 105.630268 
L 625.78415 104.949992 
L 626.394097 104.567336 
L 627.613992 104.227198 
L 629.443833 103.291817 
L 630.05378 103.164265 
L 630.663727 102.866644 
L 631.273675 102.824127 
L 637.983093 100.57071 
L 640.422882 99.975468 
L 641.032829 99.805399 
L 642.252724 99.252674 
L 642.862671 99.16764 
L 644.082565 98.827501 
L 644.692512 98.359811 
L 645.302459 98.06219 
L 645.912407 97.339396 
L 646.522354 96.914223 
L 647.742248 96.531567 
L 648.352195 96.063877 
L 655.061614 93.300253 
L 656.281508 93.002632 
L 658.11135 92.152286 
L 659.331244 91.429492 
L 659.941191 91.30194 
L 660.551139 90.83425 
L 661.771033 90.239008 
L 662.990927 89.473697 
L 664.820769 88.623351 
L 665.430716 88.198178 
L 666.65061 87.773005 
L 667.870505 87.050211 
L 668.480452 86.795107 
L 669.090399 86.369934 
L 670.310293 85.944761 
L 670.92024 85.817209 
L 673.360029 84.71176 
L 676.409765 83.648827 
L 677.019712 83.60631 
L 677.629659 83.436241 
L 678.239606 83.053585 
L 678.849554 82.968551 
L 679.459501 82.755964 
L 681.289342 82.415826 
L 684.949025 80.545065 
L 685.558972 80.204927 
L 686.16892 80.119892 
L 687.998761 79.141994 
L 689.828603 78.461718 
L 691.658444 77.653889 
L 694.098233 76.675991 
L 694.70818 76.505922 
L 695.318127 76.123266 
L 696.538021 75.953197 
L 697.147969 75.570542 
L 697.757916 75.528024 
L 698.97781 75.145369 
L 700.197704 74.550127 
L 700.807652 74.465092 
L 701.417599 74.209988 
L 702.027546 74.082436 
L 703.857388 73.274608 
L 704.467335 73.147056 
L 705.077282 72.891952 
L 708.127018 72.169158 
L 709.956859 71.488881 
L 712.396648 70.085811 
L 713.616542 69.61812 
L 714.226489 69.235465 
L 715.446384 68.980361 
L 716.056331 68.640223 
L 716.666278 68.512671 
L 717.886172 67.832394 
L 721.545855 66.131702 
L 723.375697 65.53646 
L 724.595591 65.111287 
L 725.205538 64.898701 
L 726.425433 64.260941 
L 727.645327 63.878286 
L 728.255274 63.750734 
L 730.695063 62.602767 
L 731.30501 62.517732 
L 731.914957 62.305146 
L 733.744799 61.284731 
L 741.674112 57.968382 
L 742.284059 57.543209 
L 744.723848 56.73538 
L 745.333795 56.73538 
L 746.553689 56.182656 
L 747.163636 55.8 
L 747.163636 55.8 
" clip-path="url(#p6ce01cffeb)" style="fill: none; stroke: #1f77b4; stroke-width: 1.5; stroke-linecap: square"/>
   </g>
   <g id="line2d_36">
    <path d="M 139.046311 307.8 
L 140.876152 307.714965 
L 142.705994 307.672448 
L 146.365677 307.587414 
L 149.415413 307.459862 
L 151.855201 307.459862 
L 152.465148 307.289792 
L 154.904937 307.204758 
L 156.734779 306.992171 
L 158.56462 306.822102 
L 162.224303 306.652033 
L 162.83425 306.652033 
L 163.444197 306.524481 
L 165.883986 306.439447 
L 167.10388 306.354412 
L 171.983458 306.269377 
L 175.033194 306.141826 
L 182.35256 306.056791 
L 185.402296 305.929239 
L 189.061979 305.844204 
L 191.501767 305.75917 
L 196.991292 305.674135 
L 198.821133 305.631618 
L 200.650975 305.589101 
L 202.480816 305.376514 
L 206.140499 305.333997 
L 207.360394 305.248962 
L 211.630024 305.163928 
L 218.339443 304.781272 
L 222.609073 304.696238 
L 223.828967 304.611203 
L 225.658809 304.526168 
L 229.318492 304.356099 
L 231.75828 304.313582 
L 233.588122 304.143513 
L 243.347276 303.548271 
L 245.787065 303.463236 
L 250.056695 303.25065 
L 251.886537 303.165615 
L 257.986008 302.825477 
L 264.695427 302.740442 
L 267.135216 302.485338 
L 268.35511 302.400304 
L 276.284423 301.762544 
L 279.944106 301.294854 
L 282.383895 301.209819 
L 287.263472 300.57206 
L 290.923155 300.487025 
L 292.752997 300.316956 
L 293.972891 300.274439 
L 295.192786 300.146887 
L 297.022627 300.061853 
L 298.242521 299.891783 
L 301.292257 299.551645 
L 303.732046 299.46661 
L 304.95194 299.381576 
L 307.391729 299.296541 
L 308.611623 299.211507 
L 311.661359 298.913886 
L 312.271306 298.743816 
L 315.930989 298.573747 
L 318.980725 298.488713 
L 326.910038 298.021022 
L 328.73988 297.935988 
L 336.669193 297.468298 
L 340.938823 297.383263 
L 341.54877 297.255711 
L 346.428348 297.170677 
L 350.697978 296.95809 
L 357.407397 296.873056 
L 361.677027 296.660469 
L 366.556604 296.575434 
L 371.436181 296.320331 
L 375.705812 296.235296 
L 387.294808 295.512502 
L 392.174385 295.427468 
L 408.033011 294.407052 
L 411.692694 294.322018 
L 413.522536 294.279501 
L 415.352377 294.236983 
L 417.182219 294.066914 
L 422.061796 293.98188 
L 423.281691 293.769293 
L 424.501585 293.684258 
L 427.551321 293.556707 
L 428.771215 293.471672 
L 429.991109 293.386637 
L 435.480634 293.301603 
L 436.700528 293.174051 
L 439.140317 293.131534 
L 439.750264 293.003982 
L 440.970158 292.918947 
L 441.580106 292.791395 
L 443.409947 292.706361 
L 453.779049 292.068601 
L 455.608891 291.983567 
L 458.658626 291.856015 
L 467.197887 291.77098 
L 471.467517 291.558394 
L 476.347094 291.473359 
L 478.786883 291.388325 
L 481.226672 291.345807 
L 482.446566 291.218255 
L 484.886355 291.133221 
L 490.985826 290.793083 
L 494.645509 290.750565 
L 496.475351 290.580496 
L 498.305192 290.537979 
L 502.574822 290.452944 
L 505.014611 290.36791 
L 512.333977 290.282875 
L 515.383713 290.155323 
L 519.043396 290.070289 
L 520.873237 289.857702 
L 524.53292 289.815185 
L 526.362762 289.645116 
L 528.802551 289.560081 
L 536.121917 289.475046 
L 539.171652 289.347495 
L 549.540754 289.304977 
L 550.760649 289.219943 
L 552.59049 289.177425 
L 560.519803 289.092391 
L 561.739698 289.007356 
L 568.449116 288.922322 
L 570.888905 288.837287 
L 578.208271 288.79477 
L 579.428165 288.709735 
L 588.577373 288.667218 
L 590.407214 288.497149 
L 605.655894 288.412114 
L 607.485735 288.369597 
L 623.954309 288.284562 
L 626.394097 288.199528 
L 636.763199 288.114493 
L 637.983093 288.029458 
L 641.032829 287.944424 
L 642.862671 287.774355 
L 645.912407 287.68932 
L 648.352195 287.604285 
L 652.011878 287.519251 
L 653.84172 287.476734 
L 656.281508 287.391699 
L 658.11135 287.349182 
L 661.161086 287.264147 
L 662.38098 287.179113 
L 666.040663 287.094078 
L 669.090399 286.966526 
L 670.310293 286.924009 
L 671.530188 286.838974 
L 673.360029 286.796457 
L 675.799818 286.711422 
L 678.239606 286.626388 
L 686.16892 286.541353 
L 688.608708 286.456319 
L 693.488286 286.371284 
L 697.757916 286.158697 
L 703.24744 286.073663 
L 704.467335 285.988628 
L 715.446384 285.903594 
L 717.276225 285.861076 
L 720.325961 285.818559 
L 722.76575 285.563455 
L 724.595591 285.520938 
L 728.255274 285.435903 
L 734.964693 285.053248 
L 737.404482 284.968213 
L 739.84427 284.883179 
L 743.503953 284.798144 
L 744.723848 284.713109 
L 747.163636 284.670592 
L 747.163636 284.670592 
" clip-path="url(#p6ce01cffeb)" style="fill: none; stroke: #ff7f0e; stroke-width: 1.5; stroke-linecap: square"/>
   </g>
   <g id="patch_3">
    <path d="M 108 320.4 
L 108 43.2 
" style="fill: none; stroke: #a9a9a9; stroke-width: 0.8; stroke-linejoin: miter; stroke-linecap: square"/>
   </g>
   <g id="patch_4">
    <path d="M 777.6 320.4 
L 777.6 43.2 
" style="fill: none"/>
   </g>
   <g id="patch_5">
    <path d="M 108 320.4 
L 777.6 320.4 
" style="fill: none; stroke: #a9a9a9; stroke-width: 0.8; stroke-linejoin: miter; stroke-linecap: square"/>
   </g>
   <g id="patch_6">
    <path d="M 108 43.2 
L 777.6 43.2 
" style="fill: none"/>
   </g>
   <g id="text_18">
    <!-- get_subscribe history -->
    <g style="fill: #a9a9a9" transform="translate(378.6075 37.2) scale(0.12 -0.12)">
     <defs>
      <path id="DejaVuSans-67" d="M 2906 1791 
Q 2906 2416 2648 2759 
Q 2391 3103 1925 3103 
Q 1463 3103 1205 2759 
Q 947 2416 947 1791 
Q 947 1169 1205 825 
Q 1463 481 1925 481 
Q 2391 481 2648 825 
Q 2906 1169 2906 1791 
z
M 3481 434 
Q 3481 -459 3084 -895 
Q 2688 -1331 1869 -1331 
Q 1566 -1331 1297 -1286 
Q 1028 -1241 775 -1147 
L 775 -588 
Q 1028 -725 1275 -790 
Q 1522 -856 1778 -856 
Q 2344 -856 2625 -561 
Q 2906 -266 2906 331 
L 2906 616 
Q 2728 306 2450 153 
Q 2172 0 1784 0 
Q 1141 0 747 490 
Q 353 981 353 1791 
Q 353 2603 747 3093 
Q 1141 3584 1784 3584 
Q 2172 3584 2450 3431 
Q 2728 3278 2906 2969 
L 2906 3500 
L 3481 3500 
L 3481 434 
z
" transform="scale(0.015625)"/>
      <path id="DejaVuSans-65" d="M 3597 1894 
L 3597 1613 
L 953 1613 
Q 991 1019 1311 708 
Q 1631 397 2203 397 
Q 2534 397 2845 478 
Q 3156 559 3463 722 
L 3463 178 
Q 3153 47 2828 -22 
Q 2503 -91 2169 -91 
Q 1331 -91 842 396 
Q 353 884 353 1716 
Q 353 2575 817 3079 
Q 1281 3584 2069 3584 
Q 2775 3584 3186 3129 
Q 3597 2675 3597 1894 
z
M 3022 2063 
Q 3016 2534 2758 2815 
Q 2500 3097 2075 3097 
Q 1594 3097 1305 2825 
Q 1016 2553 972 2059 
L 3022 2063 
z
" transform="scale(0.015625)"/>
      <path id="DejaVuSans-74" d="M 1172 4494 
L 1172 3500 
L 2356 3500 
L 2356 3053 
L 1172 3053 
L 1172 1153 
Q 1172 725 1289 603 
Q 1406 481 1766 481 
L 2356 481 
L 2356 0 
L 1766 0 
Q 1100 0 847 248 
Q 594 497 594 1153 
L 594 3053 
L 172 3053 
L 172 3500 
L 594 3500 
L 594 4494 
L 1172 4494 
z
" transform="scale(0.015625)"/>
      <path id="DejaVuSans-5f" d="M 3263 -1063 
L 3263 -1509 
L -63 -1509 
L -63 -1063 
L 3263 -1063 
z
" transform="scale(0.015625)"/>
      <path id="DejaVuSans-73" d="M 2834 3397 
L 2834 2853 
Q 2591 2978 2328 3040 
Q 2066 3103 1784 3103 
Q 1356 3103 1142 2972 
Q 928 2841 928 2578 
Q 928 2378 1081 2264 
Q 1234 2150 1697 2047 
L 1894 2003 
Q 2506 1872 2764 1633 
Q 3022 1394 3022 966 
Q 3022 478 2636 193 
Q 2250 -91 1575 -91 
Q 1294 -91 989 -36 
Q 684 19 347 128 
L 347 722 
Q 666 556 975 473 
Q 1284 391 1588 391 
Q 1994 391 2212 530 
Q 2431 669 2431 922 
Q 2431 1156 2273 1281 
Q 2116 1406 1581 1522 
L 1381 1569 
Q 847 1681 609 1914 
Q 372 2147 372 2553 
Q 372 3047 722 3315 
Q 1072 3584 1716 3584 
Q 2034 3584 2315 3537 
Q 2597 3491 2834 3397 
z
" transform="scale(0.015625)"/>
      <path id="DejaVuSans-75" d="M 544 1381 
L 544 3500 
L 1119 3500 
L 1119 1403 
Q 1119 906 1312 657 
Q 1506 409 1894 409 
Q 2359 409 2629 706 
Q 2900 1003 2900 1516 
L 2900 3500 
L 3475 3500 
L 3475 0 
L 2900 0 
L 2900 538 
Q 2691 219 2414 64 
Q 2138 -91 1772 -91 
Q 1169 -91 856 284 
Q 544 659 544 1381 
z
M 1991 3584 
L 1991 3584 
z
" transform="scale(0.015625)"/>
      <path id="DejaVuSans-62" d="M 3116 1747 
Q 3116 2381 2855 2742 
Q 2594 3103 2138 3103 
Q 1681 3103 1420 2742 
Q 1159 2381 1159 1747 
Q 1159 1113 1420 752 
Q 1681 391 2138 391 
Q 2594 391 2855 752 
Q 3116 1113 3116 1747 
z
M 1159 2969 
Q 1341 3281 1617 3432 
Q 1894 3584 2278 3584 
Q 2916 3584 3314 3078 
Q 3713 2572 3713 1747 
Q 3713 922 3314 415 
Q 2916 -91 2278 -91 
Q 1894 -91 1617 61 
Q 1341 213 1159 525 
L 1159 0 
L 581 0 
L 581 4863 
L 1159 4863 
L 1159 2969 
z
" transform="scale(0.015625)"/>
      <path id="DejaVuSans-63" d="M 3122 3366 
L 3122 2828 
Q 2878 2963 2633 3030 
Q 2388 3097 2138 3097 
Q 1578 3097 1268 2742 
Q 959 2388 959 1747 
Q 959 1106 1268 751 
Q 1578 397 2138 397 
Q 2388 397 2633 464 
Q 2878 531 3122 666 
L 3122 134 
Q 2881 22 2623 -34 
Q 2366 -91 2075 -91 
Q 1284 -91 818 406 
Q 353 903 353 1747 
Q 353 2603 823 3093 
Q 1294 3584 2113 3584 
Q 2378 3584 2631 3529 
Q 2884 3475 3122 3366 
z
" transform="scale(0.015625)"/>
      <path id="DejaVuSans-72" d="M 2631 2963 
Q 2534 3019 2420 3045 
Q 2306 3072 2169 3072 
Q 1681 3072 1420 2755 
Q 1159 2438 1159 1844 
L 1159 0 
L 581 0 
L 581 3500 
L 1159 3500 
L 1159 2956 
Q 1341 3275 1631 3429 
Q 1922 3584 2338 3584 
Q 2397 3584 2469 3576 
Q 2541 3569 2628 3553 
L 2631 2963 
z
" transform="scale(0.015625)"/>
      <path id="DejaVuSans-69" d="M 603 3500 
L 1178 3500 
L 1178 0 
L 603 0 
L 603 3500 
z
M 603 4863 
L 1178 4863 
L 1178 4134 
L 603 4134 
L 603 4863 
z
" transform="scale(0.015625)"/>
      <path id="DejaVuSans-20" transform="scale(0.015625)"/>
      <path id="DejaVuSans-68" d="M 3513 2113 
L 3513 0 
L 2938 0 
L 2938 2094 
Q 2938 2591 2744 2837 
Q 2550 3084 2163 3084 
Q 1697 3084 1428 2787 
Q 1159 2491 1159 1978 
L 1159 0 
L 581 0 
L 581 4863 
L 1159 4863 
L 1159 2956 
Q 1366 3272 1645 3428 
Q 1925 3584 2291 3584 
Q 2894 3584 3203 3211 
Q 3513 2838 3513 2113 
z
" transform="scale(0.015625)"/>
      <path id="DejaVuSans-6f" d="M 1959 3097 
Q 1497 3097 1228 2736 
Q 959 2375 959 1747 
Q 959 1119 1226 758 
Q 1494 397 1959 397 
Q 2419 397 2687 759 
Q 2956 1122 2956 1747 
Q 2956 2369 2687 2733 
Q 2419 3097 1959 3097 
z
M 1959 3584 
Q 2709 3584 3137 3096 
Q 3566 2609 3566 1747 
Q 3566 888 3137 398 
Q 2709 -91 1959 -91 
Q 1206 -91 779 398 
Q 353 888 353 1747 
Q 353 2609 779 3096 
Q 1206 3584 1959 3584 
z
" transform="scale(0.015625)"/>
      <path id="DejaVuSans-79" d="M 2059 -325 
Q 1816 -950 1584 -1140 
Q 1353 -1331 966 -1331 
L 506 -1331 
L 506 -850 
L 844 -850 
Q 1081 -850 1212 -737 
Q 1344 -625 1503 -206 
L 1606 56 
L 191 3500 
L 800 3500 
L 1894 763 
L 2988 3500 
L 3597 3500 
L 2059 -325 
z
" transform="scale(0.015625)"/>
     </defs>
     <use xlink:href="#DejaVuSans-67"/>
     <use xlink:href="#DejaVuSans-65" x="63.476562"/>
     <use xlink:href="#DejaVuSans-74" x="125"/>
     <use xlink:href="#DejaVuSans-5f" x="164.208984"/>
     <use xlink:href="#DejaVuSans-73" x="214.208984"/>
     <use xlink:href="#DejaVuSans-75" x="266.308594"/>
     <use xlink:href="#DejaVuSans-62" x="329.6875"/>
     <use xlink:href="#DejaVuSans-73" x="393.164062"/>
     <use xlink:href="#DejaVuSans-63" x="445.263672"/>
     <use xlink:href="#DejaVuSans-72" x="500.244141"/>
     <use xlink:href="#DejaVuSans-69" x="541.357422"/>
     <use xlink:href="#DejaVuSans-62" x="569.140625"/>
     <use xlink:href="#DejaVuSans-65" x="632.617188"/>
     <use xlink:href="#DejaVuSans-20" x="694.140625"/>
     <use xlink:href="#DejaVuSans-68" x="725.927734"/>
     <use xlink:href="#DejaVuSans-69" x="789.306641"/>
     <use xlink:href="#DejaVuSans-73" x="817.089844"/>
     <use xlink:href="#DejaVuSans-74" x="869.189453"/>
     <use xlink:href="#DejaVuSans-6f" x="908.398438"/>
     <use xlink:href="#DejaVuSans-72" x="969.580078"/>
     <use xlink:href="#DejaVuSans-79" x="1010.693359"/>
    </g>
   </g>
   <g id="legend_1">
    <g id="line2d_37">
     <path d="M 815.08 328.498438 
L 825.08 328.498438 
L 835.08 328.498438 
" style="fill: none; stroke: #1f77b4; stroke-width: 1.5; stroke-linecap: square"/>
    </g>
    <g id="text_19">
     <!-- star -->
     <g style="fill: #a9a9a9" transform="translate(843.08 331.998438) scale(0.1 -0.1)">
      <defs>
       <path id="DejaVuSans-61" d="M 2194 1759 
Q 1497 1759 1228 1600 
Q 959 1441 959 1056 
Q 959 750 1161 570 
Q 1363 391 1709 391 
Q 2188 391 2477 730 
Q 2766 1069 2766 1631 
L 2766 1759 
L 2194 1759 
z
M 3341 1997 
L 3341 0 
L 2766 0 
L 2766 531 
Q 2569 213 2275 61 
Q 1981 -91 1556 -91 
Q 1019 -91 701 211 
Q 384 513 384 1019 
Q 384 1609 779 1909 
Q 1175 2209 1959 2209 
L 2766 2209 
L 2766 2266 
Q 2766 2663 2505 2880 
Q 2244 3097 1772 3097 
Q 1472 3097 1187 3025 
Q 903 2953 641 2809 
L 641 3341 
Q 956 3463 1253 3523 
Q 1550 3584 1831 3584 
Q 2591 3584 2966 3190 
Q 3341 2797 3341 1997 
z
" transform="scale(0.015625)"/>
      </defs>
      <use xlink:href="#DejaVuSans-73"/>
      <use xlink:href="#DejaVuSans-74" x="52.099609"/>
      <use xlink:href="#DejaVuSans-61" x="91.308594"/>
      <use xlink:href="#DejaVuSans-72" x="152.587891"/>
     </g>
    </g>
    <g id="line2d_38">
     <path d="M 815.08 343.176562 
L 825.08 343.176562 
L 835.08 343.176562 
" style="fill: none; stroke: #ff7f0e; stroke-width: 1.5; stroke-linecap: square"/>
    </g>
    <g id="text_20">
     <!-- fork -->
     <g style="fill: #a9a9a9" transform="translate(843.08 346.676562) scale(0.1 -0.1)">
      <defs>
       <path id="DejaVuSans-66" d="M 2375 4863 
L 2375 4384 
L 1825 4384 
Q 1516 4384 1395 4259 
Q 1275 4134 1275 3809 
L 1275 3500 
L 2222 3500 
L 2222 3053 
L 1275 3053 
L 1275 0 
L 697 0 
L 697 3053 
L 147 3053 
L 147 3500 
L 697 3500 
L 697 3744 
Q 697 4328 969 4595 
Q 1241 4863 1831 4863 
L 2375 4863 
z
" transform="scale(0.015625)"/>
       <path id="DejaVuSans-6b" d="M 581 4863 
L 1159 4863 
L 1159 1991 
L 2875 3500 
L 3609 3500 
L 1753 1863 
L 3688 0 
L 2938 0 
L 1159 1709 
L 1159 0 
L 581 0 
L 581 4863 
z
" transform="scale(0.015625)"/>
      </defs>
      <use xlink:href="#DejaVuSans-66"/>
      <use xlink:href="#DejaVuSans-6f" x="35.205078"/>
      <use xlink:href="#DejaVuSans-72" x="96.386719"/>
      <use xlink:href="#DejaVuSans-6b" x="137.5"/>
     </g>
    </g>
   </g>
  </g>
 </g>
 <defs>
  <clipPath id="p6ce01cffeb">
   <rect x="108" y="43.2" width="669.6" height="277.2"/>
  </clipPath>
 </defs>
</svg>
