<?xml version="1.0" encoding="utf-8" standalone="no"?>
<!DOCTYPE svg PUBLIC "-//W3C//DTD SVG 1.1//EN"
  "http://www.w3.org/Graphics/SVG/1.1/DTD/svg11.dtd">
<svg xmlns:xlink="http://www.w3.org/1999/xlink" width="864pt" height="360pt" viewBox="0 0 864 360" xmlns="http://www.w3.org/2000/svg" version="1.1">
 <metadata>
  <rdf:RDF xmlns:dc="http://purl.org/dc/elements/1.1/" xmlns:cc="http://creativecommons.org/ns#" xmlns:rdf="http://www.w3.org/1999/02/22-rdf-syntax-ns#">
   <cc:Work>
    <dc:type rdf:resource="http://purl.org/dc/dcmitype/StillImage"/>
    <dc:date>2024-04-17T08:11:14.129790</dc:date>
    <dc:format>image/svg+xml</dc:format>
    <dc:creator>
     <cc:Agent>
      <dc:title>Matplotlib v3.8.4, https://matplotlib.org/</dc:title>
     </cc:Agent>
    </dc:creator>
   </cc:Work>
  </rdf:RDF>
 </metadata>
 <defs>
  <style type="text/css">*{stroke-linejoin: round; stroke-linecap: butt}</style>
 </defs>
 <g id="figure_1">
  <g id="patch_1">
   <path d="M 0 360 
L 864 360 
L 864 0 
L 0 0 
L 0 360 
z
" style="fill: none; opacity: 0"/>
  </g>
  <g id="axes_1">
   <g id="patch_2">
    <path d="M 108 320.4 
L 777.6 320.4 
L 777.6 43.2 
L 108 43.2 
L 108 320.4 
z
" style="fill: none; opacity: 0"/>
   </g>
   <g id="matplotlib.axis_1">
    <g id="xtick_1">
     <g id="line2d_1">
      <path d="M 162.224303 320.4 
L 162.224303 43.2 
" clip-path="url(#pd0d75d7dca)" style="fill: none; stroke-dasharray: 5.12,1.28,0.8,1.28; stroke-dashoffset: 0; stroke: #b0b0b0; stroke-width: 0.8"/>
     </g>
     <g id="line2d_2">
      <defs>
       <path id="mb93b45ab1c" d="M 0 0 
L 0 3.5 
" style="stroke: #a9a9a9; stroke-width: 0.8"/>
      </defs>
      <g>
       <use xlink:href="#mb93b45ab1c" x="162.224303" y="320.4" style="fill: #a9a9a9; stroke: #a9a9a9; stroke-width: 0.8"/>
      </g>
     </g>
     <g id="text_1">
      <!-- 2021-09 -->
      <g style="fill: #a9a9a9" transform="translate(141.332897 334.998438) scale(0.1 -0.1)">
       <defs>
        <path id="DejaVuSans-32" d="M 1228 531 
L 3431 531 
L 3431 0 
L 469 0 
L 469 531 
Q 828 903 1448 1529 
Q 2069 2156 2228 2338 
Q 2531 2678 2651 2914 
Q 2772 3150 2772 3378 
Q 2772 3750 2511 3984 
Q 2250 4219 1831 4219 
Q 1534 4219 1204 4116 
Q 875 4013 500 3803 
L 500 4441 
Q 881 4594 1212 4672 
Q 1544 4750 1819 4750 
Q 2544 4750 2975 4387 
Q 3406 4025 3406 3419 
Q 3406 3131 3298 2873 
Q 3191 2616 2906 2266 
Q 2828 2175 2409 1742 
Q 1991 1309 1228 531 
z
" transform="scale(0.015625)"/>
        <path id="DejaVuSans-30" d="M 2034 4250 
Q 1547 4250 1301 3770 
Q 1056 3291 1056 2328 
Q 1056 1369 1301 889 
Q 1547 409 2034 409 
Q 2525 409 2770 889 
Q 3016 1369 3016 2328 
Q 3016 3291 2770 3770 
Q 2525 4250 2034 4250 
z
M 2034 4750 
Q 2819 4750 3233 4129 
Q 3647 3509 3647 2328 
Q 3647 1150 3233 529 
Q 2819 -91 2034 -91 
Q 1250 -91 836 529 
Q 422 1150 422 2328 
Q 422 3509 836 4129 
Q 1250 4750 2034 4750 
z
" transform="scale(0.015625)"/>
        <path id="DejaVuSans-31" d="M 794 531 
L 1825 531 
L 1825 4091 
L 703 3866 
L 703 4441 
L 1819 4666 
L 2450 4666 
L 2450 531 
L 3481 531 
L 3481 0 
L 794 0 
L 794 531 
z
" transform="scale(0.015625)"/>
        <path id="DejaVuSans-2d" d="M 313 2009 
L 1997 2009 
L 1997 1497 
L 313 1497 
L 313 2009 
z
" transform="scale(0.015625)"/>
        <path id="DejaVuSans-39" d="M 703 97 
L 703 672 
Q 941 559 1184 500 
Q 1428 441 1663 441 
Q 2288 441 2617 861 
Q 2947 1281 2994 2138 
Q 2813 1869 2534 1725 
Q 2256 1581 1919 1581 
Q 1219 1581 811 2004 
Q 403 2428 403 3163 
Q 403 3881 828 4315 
Q 1253 4750 1959 4750 
Q 2769 4750 3195 4129 
Q 3622 3509 3622 2328 
Q 3622 1225 3098 567 
Q 2575 -91 1691 -91 
Q 1453 -91 1209 -44 
Q 966 3 703 97 
z
M 1959 2075 
Q 2384 2075 2632 2365 
Q 2881 2656 2881 3163 
Q 2881 3666 2632 3958 
Q 2384 4250 1959 4250 
Q 1534 4250 1286 3958 
Q 1038 3666 1038 3163 
Q 1038 2656 1286 2365 
Q 1534 2075 1959 2075 
z
" transform="scale(0.015625)"/>
       </defs>
       <use xlink:href="#DejaVuSans-32"/>
       <use xlink:href="#DejaVuSans-30" x="63.623047"/>
       <use xlink:href="#DejaVuSans-32" x="127.246094"/>
       <use xlink:href="#DejaVuSans-31" x="190.869141"/>
       <use xlink:href="#DejaVuSans-2d" x="254.492188"/>
       <use xlink:href="#DejaVuSans-30" x="290.576172"/>
       <use xlink:href="#DejaVuSans-39" x="354.199219"/>
      </g>
     </g>
    </g>
    <g id="xtick_2">
     <g id="line2d_3">
      <path d="M 236.637858 320.4 
L 236.637858 43.2 
" clip-path="url(#pd0d75d7dca)" style="fill: none; stroke-dasharray: 5.12,1.28,0.8,1.28; stroke-dashoffset: 0; stroke: #b0b0b0; stroke-width: 0.8"/>
     </g>
     <g id="line2d_4">
      <g>
       <use xlink:href="#mb93b45ab1c" x="236.637858" y="320.4" style="fill: #a9a9a9; stroke: #a9a9a9; stroke-width: 0.8"/>
      </g>
     </g>
     <g id="text_2">
      <!-- 2022-01 -->
      <g style="fill: #a9a9a9" transform="translate(215.746451 334.998438) scale(0.1 -0.1)">
       <use xlink:href="#DejaVuSans-32"/>
       <use xlink:href="#DejaVuSans-30" x="63.623047"/>
       <use xlink:href="#DejaVuSans-32" x="127.246094"/>
       <use xlink:href="#DejaVuSans-32" x="190.869141"/>
       <use xlink:href="#DejaVuSans-2d" x="254.492188"/>
       <use xlink:href="#DejaVuSans-30" x="290.576172"/>
       <use xlink:href="#DejaVuSans-31" x="354.199219"/>
      </g>
     </g>
    </g>
    <g id="xtick_3">
     <g id="line2d_5">
      <path d="M 309.831518 320.4 
L 309.831518 43.2 
" clip-path="url(#pd0d75d7dca)" style="fill: none; stroke-dasharray: 5.12,1.28,0.8,1.28; stroke-dashoffset: 0; stroke: #b0b0b0; stroke-width: 0.8"/>
     </g>
     <g id="line2d_6">
      <g>
       <use xlink:href="#mb93b45ab1c" x="309.831518" y="320.4" style="fill: #a9a9a9; stroke: #a9a9a9; stroke-width: 0.8"/>
      </g>
     </g>
     <g id="text_3">
      <!-- 2022-05 -->
      <g style="fill: #a9a9a9" transform="translate(288.940111 334.998438) scale(0.1 -0.1)">
       <defs>
        <path id="DejaVuSans-35" d="M 691 4666 
L 3169 4666 
L 3169 4134 
L 1269 4134 
L 1269 2991 
Q 1406 3038 1543 3061 
Q 1681 3084 1819 3084 
Q 2600 3084 3056 2656 
Q 3513 2228 3513 1497 
Q 3513 744 3044 326 
Q 2575 -91 1722 -91 
Q 1428 -91 1123 -41 
Q 819 9 494 109 
L 494 744 
Q 775 591 1075 516 
Q 1375 441 1709 441 
Q 2250 441 2565 725 
Q 2881 1009 2881 1497 
Q 2881 1984 2565 2268 
Q 2250 2553 1709 2553 
Q 1456 2553 1204 2497 
Q 953 2441 691 2322 
L 691 4666 
z
" transform="scale(0.015625)"/>
       </defs>
       <use xlink:href="#DejaVuSans-32"/>
       <use xlink:href="#DejaVuSans-30" x="63.623047"/>
       <use xlink:href="#DejaVuSans-32" x="127.246094"/>
       <use xlink:href="#DejaVuSans-32" x="190.869141"/>
       <use xlink:href="#DejaVuSans-2d" x="254.492188"/>
       <use xlink:href="#DejaVuSans-30" x="290.576172"/>
       <use xlink:href="#DejaVuSans-35" x="354.199219"/>
      </g>
     </g>
    </g>
    <g id="xtick_4">
     <g id="line2d_7">
      <path d="M 384.855019 320.4 
L 384.855019 43.2 
" clip-path="url(#pd0d75d7dca)" style="fill: none; stroke-dasharray: 5.12,1.28,0.8,1.28; stroke-dashoffset: 0; stroke: #b0b0b0; stroke-width: 0.8"/>
     </g>
     <g id="line2d_8">
      <g>
       <use xlink:href="#mb93b45ab1c" x="384.855019" y="320.4" style="fill: #a9a9a9; stroke: #a9a9a9; stroke-width: 0.8"/>
      </g>
     </g>
     <g id="text_4">
      <!-- 2022-09 -->
      <g style="fill: #a9a9a9" transform="translate(363.963613 334.998438) scale(0.1 -0.1)">
       <use xlink:href="#DejaVuSans-32"/>
       <use xlink:href="#DejaVuSans-30" x="63.623047"/>
       <use xlink:href="#DejaVuSans-32" x="127.246094"/>
       <use xlink:href="#DejaVuSans-32" x="190.869141"/>
       <use xlink:href="#DejaVuSans-2d" x="254.492188"/>
       <use xlink:href="#DejaVuSans-30" x="290.576172"/>
       <use xlink:href="#DejaVuSans-39" x="354.199219"/>
      </g>
     </g>
    </g>
    <g id="xtick_5">
     <g id="line2d_9">
      <path d="M 459.268574 320.4 
L 459.268574 43.2 
" clip-path="url(#pd0d75d7dca)" style="fill: none; stroke-dasharray: 5.12,1.28,0.8,1.28; stroke-dashoffset: 0; stroke: #b0b0b0; stroke-width: 0.8"/>
     </g>
     <g id="line2d_10">
      <g>
       <use xlink:href="#mb93b45ab1c" x="459.268574" y="320.4" style="fill: #a9a9a9; stroke: #a9a9a9; stroke-width: 0.8"/>
      </g>
     </g>
     <g id="text_5">
      <!-- 2023-01 -->
      <g style="fill: #a9a9a9" transform="translate(438.377167 334.998438) scale(0.1 -0.1)">
       <defs>
        <path id="DejaVuSans-33" d="M 2597 2516 
Q 3050 2419 3304 2112 
Q 3559 1806 3559 1356 
Q 3559 666 3084 287 
Q 2609 -91 1734 -91 
Q 1441 -91 1130 -33 
Q 819 25 488 141 
L 488 750 
Q 750 597 1062 519 
Q 1375 441 1716 441 
Q 2309 441 2620 675 
Q 2931 909 2931 1356 
Q 2931 1769 2642 2001 
Q 2353 2234 1838 2234 
L 1294 2234 
L 1294 2753 
L 1863 2753 
Q 2328 2753 2575 2939 
Q 2822 3125 2822 3475 
Q 2822 3834 2567 4026 
Q 2313 4219 1838 4219 
Q 1578 4219 1281 4162 
Q 984 4106 628 3988 
L 628 4550 
Q 988 4650 1302 4700 
Q 1616 4750 1894 4750 
Q 2613 4750 3031 4423 
Q 3450 4097 3450 3541 
Q 3450 3153 3228 2886 
Q 3006 2619 2597 2516 
z
" transform="scale(0.015625)"/>
       </defs>
       <use xlink:href="#DejaVuSans-32"/>
       <use xlink:href="#DejaVuSans-30" x="63.623047"/>
       <use xlink:href="#DejaVuSans-32" x="127.246094"/>
       <use xlink:href="#DejaVuSans-33" x="190.869141"/>
       <use xlink:href="#DejaVuSans-2d" x="254.492188"/>
       <use xlink:href="#DejaVuSans-30" x="290.576172"/>
       <use xlink:href="#DejaVuSans-31" x="354.199219"/>
      </g>
     </g>
    </g>
    <g id="xtick_6">
     <g id="line2d_11">
      <path d="M 532.462234 320.4 
L 532.462234 43.2 
" clip-path="url(#pd0d75d7dca)" style="fill: none; stroke-dasharray: 5.12,1.28,0.8,1.28; stroke-dashoffset: 0; stroke: #b0b0b0; stroke-width: 0.8"/>
     </g>
     <g id="line2d_12">
      <g>
       <use xlink:href="#mb93b45ab1c" x="532.462234" y="320.4" style="fill: #a9a9a9; stroke: #a9a9a9; stroke-width: 0.8"/>
      </g>
     </g>
     <g id="text_6">
      <!-- 2023-05 -->
      <g style="fill: #a9a9a9" transform="translate(511.570827 334.998438) scale(0.1 -0.1)">
       <use xlink:href="#DejaVuSans-32"/>
       <use xlink:href="#DejaVuSans-30" x="63.623047"/>
       <use xlink:href="#DejaVuSans-32" x="127.246094"/>
       <use xlink:href="#DejaVuSans-33" x="190.869141"/>
       <use xlink:href="#DejaVuSans-2d" x="254.492188"/>
       <use xlink:href="#DejaVuSans-30" x="290.576172"/>
       <use xlink:href="#DejaVuSans-35" x="354.199219"/>
      </g>
     </g>
    </g>
    <g id="xtick_7">
     <g id="line2d_13">
      <path d="M 607.485735 320.4 
L 607.485735 43.2 
" clip-path="url(#pd0d75d7dca)" style="fill: none; stroke-dasharray: 5.12,1.28,0.8,1.28; stroke-dashoffset: 0; stroke: #b0b0b0; stroke-width: 0.8"/>
     </g>
     <g id="line2d_14">
      <g>
       <use xlink:href="#mb93b45ab1c" x="607.485735" y="320.4" style="fill: #a9a9a9; stroke: #a9a9a9; stroke-width: 0.8"/>
      </g>
     </g>
     <g id="text_7">
      <!-- 2023-09 -->
      <g style="fill: #a9a9a9" transform="translate(586.594329 334.998438) scale(0.1 -0.1)">
       <use xlink:href="#DejaVuSans-32"/>
       <use xlink:href="#DejaVuSans-30" x="63.623047"/>
       <use xlink:href="#DejaVuSans-32" x="127.246094"/>
       <use xlink:href="#DejaVuSans-33" x="190.869141"/>
       <use xlink:href="#DejaVuSans-2d" x="254.492188"/>
       <use xlink:href="#DejaVuSans-30" x="290.576172"/>
       <use xlink:href="#DejaVuSans-39" x="354.199219"/>
      </g>
     </g>
    </g>
    <g id="xtick_8">
     <g id="line2d_15">
      <path d="M 681.899289 320.4 
L 681.899289 43.2 
" clip-path="url(#pd0d75d7dca)" style="fill: none; stroke-dasharray: 5.12,1.28,0.8,1.28; stroke-dashoffset: 0; stroke: #b0b0b0; stroke-width: 0.8"/>
     </g>
     <g id="line2d_16">
      <g>
       <use xlink:href="#mb93b45ab1c" x="681.899289" y="320.4" style="fill: #a9a9a9; stroke: #a9a9a9; stroke-width: 0.8"/>
      </g>
     </g>
     <g id="text_8">
      <!-- 2024-01 -->
      <g style="fill: #a9a9a9" transform="translate(661.007883 334.998438) scale(0.1 -0.1)">
       <defs>
        <path id="DejaVuSans-34" d="M 2419 4116 
L 825 1625 
L 2419 1625 
L 2419 4116 
z
M 2253 4666 
L 3047 4666 
L 3047 1625 
L 3713 1625 
L 3713 1100 
L 3047 1100 
L 3047 0 
L 2419 0 
L 2419 1100 
L 313 1100 
L 313 1709 
L 2253 4666 
z
" transform="scale(0.015625)"/>
       </defs>
       <use xlink:href="#DejaVuSans-32"/>
       <use xlink:href="#DejaVuSans-30" x="63.623047"/>
       <use xlink:href="#DejaVuSans-32" x="127.246094"/>
       <use xlink:href="#DejaVuSans-34" x="190.869141"/>
       <use xlink:href="#DejaVuSans-2d" x="254.492188"/>
       <use xlink:href="#DejaVuSans-30" x="290.576172"/>
       <use xlink:href="#DejaVuSans-31" x="354.199219"/>
      </g>
     </g>
    </g>
    <g id="xtick_9">
     <g id="line2d_17">
      <path d="M 755.702897 320.4 
L 755.702897 43.2 
" clip-path="url(#pd0d75d7dca)" style="fill: none; stroke-dasharray: 5.12,1.28,0.8,1.28; stroke-dashoffset: 0; stroke: #b0b0b0; stroke-width: 0.8"/>
     </g>
     <g id="line2d_18">
      <g>
       <use xlink:href="#mb93b45ab1c" x="755.702897" y="320.4" style="fill: #a9a9a9; stroke: #a9a9a9; stroke-width: 0.8"/>
      </g>
     </g>
     <g id="text_9">
      <!-- 2024-05 -->
      <g style="fill: #a9a9a9" transform="translate(734.81149 334.998438) scale(0.1 -0.1)">
       <use xlink:href="#DejaVuSans-32"/>
       <use xlink:href="#DejaVuSans-30" x="63.623047"/>
       <use xlink:href="#DejaVuSans-32" x="127.246094"/>
       <use xlink:href="#DejaVuSans-34" x="190.869141"/>
       <use xlink:href="#DejaVuSans-2d" x="254.492188"/>
       <use xlink:href="#DejaVuSans-30" x="290.576172"/>
       <use xlink:href="#DejaVuSans-35" x="354.199219"/>
      </g>
     </g>
    </g>
   </g>
   <g id="matplotlib.axis_2">
    <g id="ytick_1">
     <g id="line2d_19">
      <path d="M 108 307.842582 
L 777.6 307.842582 
" clip-path="url(#pd0d75d7dca)" style="fill: none; stroke-dasharray: 5.12,1.28,0.8,1.28; stroke-dashoffset: 0; stroke: #b0b0b0; stroke-width: 0.8"/>
     </g>
     <g id="line2d_20">
      <defs>
       <path id="ma7c09c08d2" d="M 0 0 
L -3.5 0 
" style="stroke: #a9a9a9; stroke-width: 0.8"/>
      </defs>
      <g>
       <use xlink:href="#ma7c09c08d2" x="108" y="307.842582" style="fill: #a9a9a9; stroke: #a9a9a9; stroke-width: 0.8"/>
      </g>
     </g>
     <g id="text_10">
      <!-- 0 -->
      <g style="fill: #a9a9a9" transform="translate(94.6375 311.641801) scale(0.1 -0.1)">
       <use xlink:href="#DejaVuSans-30"/>
      </g>
     </g>
    </g>
    <g id="ytick_2">
     <g id="line2d_21">
      <path d="M 108 273.777019 
L 777.6 273.777019 
" clip-path="url(#pd0d75d7dca)" style="fill: none; stroke-dasharray: 5.12,1.28,0.8,1.28; stroke-dashoffset: 0; stroke: #b0b0b0; stroke-width: 0.8"/>
     </g>
     <g id="line2d_22">
      <g>
       <use xlink:href="#ma7c09c08d2" x="108" y="273.777019" style="fill: #a9a9a9; stroke: #a9a9a9; stroke-width: 0.8"/>
      </g>
     </g>
     <g id="text_11">
      <!-- 800 -->
      <g style="fill: #a9a9a9" transform="translate(81.9125 277.576238) scale(0.1 -0.1)">
       <defs>
        <path id="DejaVuSans-38" d="M 2034 2216 
Q 1584 2216 1326 1975 
Q 1069 1734 1069 1313 
Q 1069 891 1326 650 
Q 1584 409 2034 409 
Q 2484 409 2743 651 
Q 3003 894 3003 1313 
Q 3003 1734 2745 1975 
Q 2488 2216 2034 2216 
z
M 1403 2484 
Q 997 2584 770 2862 
Q 544 3141 544 3541 
Q 544 4100 942 4425 
Q 1341 4750 2034 4750 
Q 2731 4750 3128 4425 
Q 3525 4100 3525 3541 
Q 3525 3141 3298 2862 
Q 3072 2584 2669 2484 
Q 3125 2378 3379 2068 
Q 3634 1759 3634 1313 
Q 3634 634 3220 271 
Q 2806 -91 2034 -91 
Q 1263 -91 848 271 
Q 434 634 434 1313 
Q 434 1759 690 2068 
Q 947 2378 1403 2484 
z
M 1172 3481 
Q 1172 3119 1398 2916 
Q 1625 2713 2034 2713 
Q 2441 2713 2670 2916 
Q 2900 3119 2900 3481 
Q 2900 3844 2670 4047 
Q 2441 4250 2034 4250 
Q 1625 4250 1398 4047 
Q 1172 3844 1172 3481 
z
" transform="scale(0.015625)"/>
       </defs>
       <use xlink:href="#DejaVuSans-38"/>
       <use xlink:href="#DejaVuSans-30" x="63.623047"/>
       <use xlink:href="#DejaVuSans-30" x="127.246094"/>
      </g>
     </g>
    </g>
    <g id="ytick_3">
     <g id="line2d_23">
      <path d="M 108 239.711457 
L 777.6 239.711457 
" clip-path="url(#pd0d75d7dca)" style="fill: none; stroke-dasharray: 5.12,1.28,0.8,1.28; stroke-dashoffset: 0; stroke: #b0b0b0; stroke-width: 0.8"/>
     </g>
     <g id="line2d_24">
      <g>
       <use xlink:href="#ma7c09c08d2" x="108" y="239.711457" style="fill: #a9a9a9; stroke: #a9a9a9; stroke-width: 0.8"/>
      </g>
     </g>
     <g id="text_12">
      <!-- 1600 -->
      <g style="fill: #a9a9a9" transform="translate(75.55 243.510675) scale(0.1 -0.1)">
       <defs>
        <path id="DejaVuSans-36" d="M 2113 2584 
Q 1688 2584 1439 2293 
Q 1191 2003 1191 1497 
Q 1191 994 1439 701 
Q 1688 409 2113 409 
Q 2538 409 2786 701 
Q 3034 994 3034 1497 
Q 3034 2003 2786 2293 
Q 2538 2584 2113 2584 
z
M 3366 4563 
L 3366 3988 
Q 3128 4100 2886 4159 
Q 2644 4219 2406 4219 
Q 1781 4219 1451 3797 
Q 1122 3375 1075 2522 
Q 1259 2794 1537 2939 
Q 1816 3084 2150 3084 
Q 2853 3084 3261 2657 
Q 3669 2231 3669 1497 
Q 3669 778 3244 343 
Q 2819 -91 2113 -91 
Q 1303 -91 875 529 
Q 447 1150 447 2328 
Q 447 3434 972 4092 
Q 1497 4750 2381 4750 
Q 2619 4750 2861 4703 
Q 3103 4656 3366 4563 
z
" transform="scale(0.015625)"/>
       </defs>
       <use xlink:href="#DejaVuSans-31"/>
       <use xlink:href="#DejaVuSans-36" x="63.623047"/>
       <use xlink:href="#DejaVuSans-30" x="127.246094"/>
       <use xlink:href="#DejaVuSans-30" x="190.869141"/>
      </g>
     </g>
    </g>
    <g id="ytick_4">
     <g id="line2d_25">
      <path d="M 108 205.645894 
L 777.6 205.645894 
" clip-path="url(#pd0d75d7dca)" style="fill: none; stroke-dasharray: 5.12,1.28,0.8,1.28; stroke-dashoffset: 0; stroke: #b0b0b0; stroke-width: 0.8"/>
     </g>
     <g id="line2d_26">
      <g>
       <use xlink:href="#ma7c09c08d2" x="108" y="205.645894" style="fill: #a9a9a9; stroke: #a9a9a9; stroke-width: 0.8"/>
      </g>
     </g>
     <g id="text_13">
      <!-- 2400 -->
      <g style="fill: #a9a9a9" transform="translate(75.55 209.445113) scale(0.1 -0.1)">
       <use xlink:href="#DejaVuSans-32"/>
       <use xlink:href="#DejaVuSans-34" x="63.623047"/>
       <use xlink:href="#DejaVuSans-30" x="127.246094"/>
       <use xlink:href="#DejaVuSans-30" x="190.869141"/>
      </g>
     </g>
    </g>
    <g id="ytick_5">
     <g id="line2d_27">
      <path d="M 108 171.580331 
L 777.6 171.580331 
" clip-path="url(#pd0d75d7dca)" style="fill: none; stroke-dasharray: 5.12,1.28,0.8,1.28; stroke-dashoffset: 0; stroke: #b0b0b0; stroke-width: 0.8"/>
     </g>
     <g id="line2d_28">
      <g>
       <use xlink:href="#ma7c09c08d2" x="108" y="171.580331" style="fill: #a9a9a9; stroke: #a9a9a9; stroke-width: 0.8"/>
      </g>
     </g>
     <g id="text_14">
      <!-- 3200 -->
      <g style="fill: #a9a9a9" transform="translate(75.55 175.37955) scale(0.1 -0.1)">
       <use xlink:href="#DejaVuSans-33"/>
       <use xlink:href="#DejaVuSans-32" x="63.623047"/>
       <use xlink:href="#DejaVuSans-30" x="127.246094"/>
       <use xlink:href="#DejaVuSans-30" x="190.869141"/>
      </g>
     </g>
    </g>
    <g id="ytick_6">
     <g id="line2d_29">
      <path d="M 108 137.514769 
L 777.6 137.514769 
" clip-path="url(#pd0d75d7dca)" style="fill: none; stroke-dasharray: 5.12,1.28,0.8,1.28; stroke-dashoffset: 0; stroke: #b0b0b0; stroke-width: 0.8"/>
     </g>
     <g id="line2d_30">
      <g>
       <use xlink:href="#ma7c09c08d2" x="108" y="137.514769" style="fill: #a9a9a9; stroke: #a9a9a9; stroke-width: 0.8"/>
      </g>
     </g>
     <g id="text_15">
      <!-- 4000 -->
      <g style="fill: #a9a9a9" transform="translate(75.55 141.313987) scale(0.1 -0.1)">
       <use xlink:href="#DejaVuSans-34"/>
       <use xlink:href="#DejaVuSans-30" x="63.623047"/>
       <use xlink:href="#DejaVuSans-30" x="127.246094"/>
       <use xlink:href="#DejaVuSans-30" x="190.869141"/>
      </g>
     </g>
    </g>
    <g id="ytick_7">
     <g id="line2d_31">
      <path d="M 108 103.449206 
L 777.6 103.449206 
" clip-path="url(#pd0d75d7dca)" style="fill: none; stroke-dasharray: 5.12,1.28,0.8,1.28; stroke-dashoffset: 0; stroke: #b0b0b0; stroke-width: 0.8"/>
     </g>
     <g id="line2d_32">
      <g>
       <use xlink:href="#ma7c09c08d2" x="108" y="103.449206" style="fill: #a9a9a9; stroke: #a9a9a9; stroke-width: 0.8"/>
      </g>
     </g>
     <g id="text_16">
      <!-- 4800 -->
      <g style="fill: #a9a9a9" transform="translate(75.55 107.248425) scale(0.1 -0.1)">
       <use xlink:href="#DejaVuSans-34"/>
       <use xlink:href="#DejaVuSans-38" x="63.623047"/>
       <use xlink:href="#DejaVuSans-30" x="127.246094"/>
       <use xlink:href="#DejaVuSans-30" x="190.869141"/>
      </g>
     </g>
    </g>
    <g id="ytick_8">
     <g id="line2d_33">
      <path d="M 108 69.383643 
L 777.6 69.383643 
" clip-path="url(#pd0d75d7dca)" style="fill: none; stroke-dasharray: 5.12,1.28,0.8,1.28; stroke-dashoffset: 0; stroke: #b0b0b0; stroke-width: 0.8"/>
     </g>
     <g id="line2d_34">
      <g>
       <use xlink:href="#ma7c09c08d2" x="108" y="69.383643" style="fill: #a9a9a9; stroke: #a9a9a9; stroke-width: 0.8"/>
      </g>
     </g>
     <g id="text_17">
      <!-- 5600 -->
      <g style="fill: #a9a9a9" transform="translate(75.55 73.182862) scale(0.1 -0.1)">
       <use xlink:href="#DejaVuSans-35"/>
       <use xlink:href="#DejaVuSans-36" x="63.623047"/>
       <use xlink:href="#DejaVuSans-30" x="127.246094"/>
       <use xlink:href="#DejaVuSans-30" x="190.869141"/>
      </g>
     </g>
    </g>
   </g>
   <g id="line2d_35">
    <path d="M 138.436364 307.714836 
L 142.096047 307.416762 
L 142.705994 307.161271 
L 144.535835 306.948361 
L 148.195518 306.224468 
L 151.855201 305.926394 
L 152.465148 305.62832 
L 153.075096 305.457993 
L 153.685043 304.691517 
L 154.29499 304.265698 
L 154.904937 302.945657 
L 155.514884 302.860493 
L 156.124831 302.392092 
L 157.344726 301.795945 
L 159.784514 299.922339 
L 161.004409 299.411355 
L 161.614356 298.985536 
L 164.054145 297.920987 
L 164.664092 296.984184 
L 165.883986 296.132545 
L 166.493933 295.834471 
L 172.593405 294.982832 
L 173.203352 294.684758 
L 177.472982 294.344103 
L 179.302824 293.875701 
L 184.792348 293.151808 
L 185.402296 292.811152 
L 186.012243 292.725989 
L 186.62219 292.470497 
L 187.842084 292.257587 
L 188.452031 292.215005 
L 189.671926 291.959513 
L 190.281873 291.916931 
L 192.721662 291.320784 
L 194.551503 291.150456 
L 195.771397 291.02271 
L 196.381345 290.852383 
L 196.991292 290.809801 
L 198.821133 290.256235 
L 200.041028 290.171071 
L 201.260922 290.000743 
L 202.480816 289.745252 
L 203.090763 289.574924 
L 203.700711 288.765867 
L 205.530552 288.084556 
L 207.360394 287.616154 
L 207.970341 287.31808 
L 208.580288 287.275498 
L 211.630024 286.423859 
L 212.849918 286.338696 
L 214.069812 286.083204 
L 216.509601 285.487056 
L 217.119548 285.444474 
L 218.339443 284.890909 
L 218.94939 284.805745 
L 219.559337 284.507672 
L 225.658809 283.61345 
L 228.708544 282.761811 
L 229.318492 282.378574 
L 231.75828 281.739845 
L 232.978175 281.015951 
L 233.588122 280.590132 
L 235.417963 280.249476 
L 239.077646 279.142345 
L 240.297541 278.759108 
L 240.907488 278.673944 
L 242.127382 278.333288 
L 243.347276 278.035215 
L 243.957224 277.950051 
L 245.177118 277.439067 
L 245.787065 277.311321 
L 246.397012 277.05583 
L 247.006959 276.970666 
L 247.616907 276.672592 
L 248.226854 276.502264 
L 249.446748 276.4171 
L 250.666642 275.991281 
L 251.886537 275.906117 
L 252.496484 275.608043 
L 253.716378 275.437715 
L 254.326325 275.224806 
L 255.54622 275.182224 
L 257.986008 274.88415 
L 259.205903 274.288003 
L 265.915322 271.435012 
L 266.525269 271.094356 
L 267.135216 270.455627 
L 268.35511 268.624603 
L 268.965057 268.454275 
L 269.575005 268.454275 
L 270.794899 267.560054 
L 271.404846 267.389726 
L 272.014793 267.091653 
L 272.62474 266.963907 
L 273.234688 266.410341 
L 273.844635 266.240014 
L 275.674476 265.345792 
L 276.894371 263.642514 
L 277.504318 263.259277 
L 278.114265 262.23731 
L 278.724212 261.598581 
L 279.334159 261.300507 
L 279.944106 261.130179 
L 282.383895 259.682393 
L 283.603789 258.703008 
L 284.213737 258.31977 
L 284.823684 257.425549 
L 285.433631 256.062927 
L 286.043578 255.168706 
L 286.653525 254.700304 
L 287.263472 254.444812 
L 289.703261 252.315715 
L 290.923155 251.33633 
L 291.533103 250.825346 
L 292.14305 250.016289 
L 293.362944 248.95174 
L 295.802733 247.376208 
L 296.41268 246.865225 
L 297.022627 246.737479 
L 297.632574 246.481987 
L 299.462416 245.46002 
L 300.68231 244.863873 
L 301.902204 243.71416 
L 302.512152 242.990267 
L 303.732046 242.138628 
L 304.341993 241.9683 
L 304.95194 241.670226 
L 306.171835 240.861169 
L 306.781782 240.520514 
L 307.391729 240.43535 
L 312.271306 237.497195 
L 312.881253 237.156539 
L 313.491201 236.94363 
L 315.321042 235.751335 
L 317.150884 235.19777 
L 317.760831 234.77195 
L 318.370778 234.644204 
L 319.590672 234.218385 
L 321.420514 233.494491 
L 323.250355 232.81318 
L 324.47025 232.60027 
L 325.690144 231.535722 
L 327.519985 230.684082 
L 328.73988 229.960189 
L 329.959774 229.619534 
L 330.569721 229.236296 
L 331.179668 229.065968 
L 333.00951 227.916255 
L 336.059246 227.192362 
L 337.889087 226.127813 
L 338.499034 226.04265 
L 339.108982 225.82974 
L 340.328876 225.574248 
L 342.158717 224.211626 
L 343.988559 223.785806 
L 344.598506 223.572896 
L 345.208453 223.104495 
L 348.868136 221.9122 
L 349.478083 221.869618 
L 350.088031 221.69929 
L 351.307925 221.188307 
L 355.577555 219.697938 
L 356.797449 219.527611 
L 357.407397 219.357283 
L 358.017344 219.059209 
L 358.627291 218.931463 
L 360.457132 218.079824 
L 362.286974 217.185603 
L 362.896921 216.759784 
L 363.506868 216.589456 
L 365.33671 215.610071 
L 366.556604 215.311997 
L 367.776498 214.673268 
L 368.996393 214.332612 
L 369.60634 214.247448 
L 370.826234 213.523555 
L 371.436181 213.395809 
L 372.656076 212.884826 
L 373.266023 212.75708 
L 373.87597 212.416424 
L 376.315759 212.033187 
L 377.535653 211.43704 
L 378.1456 210.926056 
L 378.755547 209.861507 
L 380.585389 209.520852 
L 383.025178 208.243393 
L 383.635125 208.115647 
L 387.904755 206.071713 
L 389.124649 205.731058 
L 390.344544 205.475566 
L 391.564438 204.879419 
L 392.174385 204.623927 
L 392.784332 204.538763 
L 395.224121 203.474214 
L 397.053962 202.324502 
L 397.66391 202.239338 
L 398.273857 202.026428 
L 398.883804 201.983846 
L 401.93354 201.217371 
L 402.543487 200.748969 
L 403.763381 200.32315 
L 405.593223 199.727002 
L 406.20317 199.343765 
L 406.813117 199.173437 
L 407.423064 198.747617 
L 408.033011 198.492126 
L 409.252906 197.853396 
L 411.692694 197.086921 
L 412.302642 196.788848 
L 414.132483 195.383643 
L 414.74243 195.255897 
L 415.962325 194.319094 
L 416.572272 194.191348 
L 417.182219 193.254545 
L 417.792166 192.999054 
L 418.402113 192.530652 
L 419.01206 192.445488 
L 420.231955 191.721595 
L 420.841902 191.593849 
L 421.451849 191.338358 
L 422.061796 190.869956 
L 422.671743 190.657046 
L 424.501585 189.42217 
L 426.941374 188.187293 
L 427.551321 188.102129 
L 428.771215 187.548564 
L 429.381162 187.207908 
L 429.991109 186.185941 
L 430.601057 185.632376 
L 431.211004 185.29172 
L 431.820951 185.163974 
L 433.040845 184.397499 
L 433.650792 184.269753 
L 434.870687 183.673606 
L 436.700528 182.907131 
L 437.920423 182.055492 
L 439.140317 180.778033 
L 442.190053 178.563772 
L 443.409947 177.584387 
L 444.019894 177.328895 
L 444.629842 176.647584 
L 445.239789 176.179182 
L 446.459683 175.753363 
L 447.679577 174.944306 
L 448.289525 174.646232 
L 448.899472 174.475904 
L 449.509419 174.050084 
L 450.119366 173.922339 
L 451.949208 172.942954 
L 453.169102 172.21906 
L 459.268574 170.047381 
L 459.878521 169.493815 
L 461.708362 168.812504 
L 462.928257 168.429267 
L 463.538204 167.960865 
L 466.58794 166.385333 
L 467.807834 164.043325 
L 469.027728 162.595539 
L 470.247623 161.871646 
L 472.077464 161.147753 
L 472.687411 161.062589 
L 473.297358 160.721933 
L 475.1272 160.168368 
L 477.566989 159.061237 
L 478.176936 158.677999 
L 479.39683 158.25218 
L 483.056513 156.123082 
L 483.66646 155.484353 
L 484.886355 154.845624 
L 485.496302 154.504968 
L 486.106249 154.292058 
L 486.716196 153.866239 
L 487.93609 153.270091 
L 489.765932 152.290706 
L 490.375879 152.120379 
L 490.985826 151.651977 
L 494.035562 150.672592 
L 494.645509 150.502264 
L 495.255456 150.204191 
L 495.865404 149.778371 
L 497.085298 149.437715 
L 498.305192 148.969314 
L 498.915139 148.500912 
L 500.135034 148.117675 
L 500.744981 147.819601 
L 501.354928 147.649273 
L 502.574822 146.797634 
L 503.794717 146.286651 
L 505.014611 145.349848 
L 506.234505 144.924028 
L 506.844453 144.413045 
L 507.4544 144.327881 
L 508.674294 143.43366 
L 509.894188 142.837513 
L 510.504136 142.582021 
L 511.114083 141.985874 
L 514.773766 140.665833 
L 516.603607 139.856776 
L 518.433449 139.303211 
L 519.653343 139.132883 
L 520.26329 138.877391 
L 520.873237 138.792227 
L 522.093132 138.281244 
L 522.703079 138.238662 
L 525.142868 137.344441 
L 526.972709 136.109564 
L 527.582656 135.854072 
L 528.802551 135.215343 
L 529.412498 135.002433 
L 531.852286 133.554647 
L 532.462234 133.171409 
L 533.682128 132.873336 
L 535.511969 131.851369 
L 537.341811 131.255221 
L 537.951758 130.99973 
L 539.171652 130.701656 
L 542.221388 129.722271 
L 544.05123 129.424197 
L 546.491018 128.657722 
L 547.100966 128.40223 
L 547.710913 128.317067 
L 548.32086 128.018993 
L 549.540754 127.763501 
L 550.760649 127.337682 
L 551.370596 127.124772 
L 552.59049 126.997026 
L 553.810384 126.698952 
L 555.640226 126.400879 
L 556.250173 126.187969 
L 557.470067 126.060223 
L 560.519803 125.293748 
L 561.739698 124.995674 
L 562.349645 124.655019 
L 565.399381 123.888543 
L 566.009328 123.760798 
L 567.229222 123.334978 
L 569.059064 122.696249 
L 569.669011 122.611085 
L 571.498852 121.972356 
L 572.108799 121.972356 
L 573.328694 121.546536 
L 573.938641 120.950389 
L 574.548588 120.652315 
L 575.768482 120.269077 
L 578.208271 119.332274 
L 578.818218 119.204529 
L 579.428165 118.821291 
L 580.038113 118.693545 
L 580.64806 118.352889 
L 583.697796 117.458668 
L 584.307743 117.075431 
L 584.91769 116.947685 
L 585.527637 116.436702 
L 587.357479 116.096046 
L 588.577373 115.414735 
L 589.18732 114.733423 
L 590.407214 114.477932 
L 594.676845 113.498547 
L 595.286792 113.328219 
L 596.506686 113.285637 
L 597.116633 112.987563 
L 599.556422 112.561744 
L 600.166369 112.306252 
L 601.996211 112.05076 
L 604.435999 111.284285 
L 606.265841 110.858466 
L 608.095682 110.390064 
L 609.925524 109.836499 
L 612.97526 108.942278 
L 613.585207 108.601622 
L 615.415048 107.962893 
L 616.024995 107.494491 
L 617.24489 107.153836 
L 617.854837 106.898344 
L 619.074731 106.557688 
L 621.51452 105.450558 
L 623.344361 105.322812 
L 625.78415 104.641501 
L 626.394097 104.258263 
L 627.613992 103.917607 
L 629.443833 102.980804 
L 630.05378 102.853058 
L 630.663727 102.554985 
L 631.273675 102.512403 
L 637.983093 100.255559 
L 640.422882 99.659412 
L 641.032829 99.489084 
L 642.252724 98.935519 
L 642.862671 98.850355 
L 644.082565 98.509699 
L 644.692512 98.041298 
L 645.302459 97.743224 
L 645.912407 97.019331 
L 646.522354 96.593511 
L 647.742248 96.210274 
L 648.352195 95.741872 
L 655.061614 92.974045 
L 656.281508 92.675972 
L 658.11135 91.824333 
L 659.331244 91.100439 
L 659.941191 90.972693 
L 660.551139 90.504292 
L 661.771033 89.908145 
L 662.990927 89.141669 
L 664.820769 88.29003 
L 665.430716 87.864211 
L 666.65061 87.438391 
L 667.870505 86.714498 
L 668.480452 86.459006 
L 669.090399 86.033187 
L 670.310293 85.607367 
L 670.92024 85.479621 
L 673.360029 84.372491 
L 676.409765 83.307942 
L 677.019712 83.26536 
L 677.629659 83.095032 
L 678.239606 82.711795 
L 678.849554 82.626631 
L 679.459501 82.413721 
L 681.289342 82.073065 
L 684.949025 80.199459 
L 685.558972 79.858804 
L 686.16892 79.77364 
L 687.998761 78.794255 
L 689.828603 78.112944 
L 691.658444 77.303886 
L 694.098233 76.324502 
L 694.70818 76.154174 
L 695.318127 75.770936 
L 696.538021 75.600608 
L 697.147969 75.217371 
L 697.757916 75.174789 
L 698.97781 74.791551 
L 700.197704 74.195404 
L 700.807652 74.11024 
L 701.417599 73.854748 
L 702.027546 73.727002 
L 703.857388 72.917945 
L 704.467335 72.790199 
L 705.077282 72.534708 
L 708.127018 71.810814 
L 709.956859 71.129503 
L 712.396648 69.724299 
L 713.616542 69.255897 
L 714.226489 68.87266 
L 715.446384 68.617168 
L 716.056331 68.276512 
L 716.666278 68.148766 
L 717.886172 67.467455 
L 721.545855 65.764177 
L 723.375697 65.16803 
L 724.595591 64.74221 
L 725.205538 64.5293 
L 726.425433 63.890571 
L 727.645327 63.507334 
L 728.255274 63.379588 
L 730.695063 62.229875 
L 731.30501 62.144711 
L 731.914957 61.931801 
L 733.744799 60.909834 
L 741.674112 57.588442 
L 742.284059 57.162623 
L 744.723848 56.353565 
L 745.333795 56.353565 
L 746.553689 55.8 
L 747.163636 55.8 
L 747.163636 55.8 
" clip-path="url(#pd0d75d7dca)" style="fill: none; stroke: #1f77b4; stroke-width: 1.5; stroke-linecap: square"/>
   </g>
   <g id="line2d_36">
    <path d="M 139.046311 307.8 
L 140.876152 307.714836 
L 142.705994 307.672254 
L 146.365677 307.58709 
L 149.415413 307.459344 
L 151.855201 307.459344 
L 152.465148 307.289017 
L 154.904937 307.203853 
L 156.734779 306.990943 
L 158.56462 306.820615 
L 162.224303 306.650287 
L 162.83425 306.650287 
L 163.444197 306.522541 
L 165.883986 306.437377 
L 167.10388 306.352214 
L 171.983458 306.26705 
L 175.033194 306.139304 
L 182.35256 306.05414 
L 185.402296 305.926394 
L 189.061979 305.84123 
L 191.501767 305.756066 
L 196.991292 305.670902 
L 198.821133 305.62832 
L 200.650975 305.585738 
L 202.480816 305.372829 
L 206.140499 305.330247 
L 207.360394 305.245083 
L 211.630024 305.159919 
L 218.339443 304.776681 
L 222.609073 304.691517 
L 223.828967 304.606353 
L 225.658809 304.52119 
L 229.318492 304.350862 
L 231.75828 304.30828 
L 233.588122 304.137952 
L 243.347276 303.541805 
L 245.787065 303.456641 
L 250.056695 303.243731 
L 251.886537 303.158567 
L 257.986008 302.817911 
L 264.695427 302.732748 
L 267.135216 302.477256 
L 268.35511 302.392092 
L 276.284423 301.753363 
L 279.944106 301.284961 
L 282.383895 301.199797 
L 287.263472 300.561068 
L 290.923155 300.475904 
L 292.752997 300.305576 
L 293.972891 300.262994 
L 295.192786 300.135248 
L 297.022627 300.050084 
L 298.242521 299.879757 
L 301.292257 299.539101 
L 303.732046 299.453937 
L 304.95194 299.368773 
L 307.391729 299.283609 
L 308.611623 299.198445 
L 311.661359 298.900372 
L 312.271306 298.730044 
L 315.930989 298.559716 
L 318.980725 298.474552 
L 326.910038 298.006151 
L 328.73988 297.920987 
L 336.669193 297.452585 
L 340.938823 297.367421 
L 341.54877 297.239676 
L 346.428348 297.154512 
L 350.697978 296.941602 
L 357.407397 296.856438 
L 361.677027 296.643528 
L 366.556604 296.558364 
L 371.436181 296.302873 
L 375.705812 296.217709 
L 387.294808 295.493815 
L 392.174385 295.408652 
L 408.033011 294.386685 
L 411.692694 294.301521 
L 413.522536 294.258939 
L 415.352377 294.216357 
L 417.182219 294.046029 
L 422.061796 293.960865 
L 423.281691 293.747955 
L 424.501585 293.662791 
L 427.551321 293.535046 
L 428.771215 293.449882 
L 429.991109 293.364718 
L 435.480634 293.279554 
L 436.700528 293.151808 
L 439.140317 293.109226 
L 439.750264 292.98148 
L 440.970158 292.896316 
L 441.580106 292.76857 
L 443.409947 292.683407 
L 453.779049 292.044677 
L 455.608891 291.959513 
L 458.658626 291.831767 
L 467.197887 291.746604 
L 471.467517 291.533694 
L 476.347094 291.44853 
L 478.786883 291.363366 
L 481.226672 291.320784 
L 482.446566 291.193038 
L 484.886355 291.107874 
L 490.985826 290.767219 
L 494.645509 290.724637 
L 496.475351 290.554309 
L 498.305192 290.511727 
L 502.574822 290.426563 
L 505.014611 290.341399 
L 512.333977 290.256235 
L 515.383713 290.128489 
L 519.043396 290.043325 
L 520.873237 289.830416 
L 524.53292 289.787834 
L 526.362762 289.617506 
L 528.802551 289.532342 
L 536.121917 289.447178 
L 539.171652 289.319432 
L 549.540754 289.27685 
L 550.760649 289.191686 
L 552.59049 289.149104 
L 560.519803 289.063941 
L 561.739698 288.978777 
L 568.449116 288.893613 
L 570.888905 288.808449 
L 578.208271 288.765867 
L 579.428165 288.680703 
L 588.577373 288.638121 
L 590.407214 288.467793 
L 605.655894 288.382629 
L 607.485735 288.340047 
L 623.954309 288.254883 
L 626.394097 288.169719 
L 636.763199 288.084556 
L 637.983093 287.999392 
L 641.032829 287.914228 
L 642.862671 287.7439 
L 645.912407 287.658736 
L 648.352195 287.573572 
L 652.011878 287.488408 
L 653.84172 287.445826 
L 656.281508 287.360662 
L 658.11135 287.31808 
L 661.161086 287.232917 
L 662.38098 287.147753 
L 666.040663 287.062589 
L 669.090399 286.934843 
L 670.310293 286.892261 
L 671.530188 286.807097 
L 673.360029 286.764515 
L 675.799818 286.679351 
L 678.239606 286.594187 
L 686.16892 286.509023 
L 688.608708 286.423859 
L 693.488286 286.338696 
L 697.757916 286.125786 
L 703.24744 286.040622 
L 704.467335 285.955458 
L 715.446384 285.870294 
L 717.276225 285.827712 
L 720.325961 285.78513 
L 722.76575 285.529638 
L 724.595591 285.487056 
L 728.255274 285.401893 
L 734.964693 285.018655 
L 737.404482 284.933491 
L 739.84427 284.848327 
L 743.503953 284.763163 
L 744.723848 284.677999 
L 747.163636 284.677999 
L 747.163636 284.677999 
" clip-path="url(#pd0d75d7dca)" style="fill: none; stroke: #ff7f0e; stroke-width: 1.5; stroke-linecap: square"/>
   </g>
   <g id="patch_3">
    <path d="M 108 320.4 
L 108 43.2 
" style="fill: none; stroke: #a9a9a9; stroke-width: 0.8; stroke-linejoin: miter; stroke-linecap: square"/>
   </g>
   <g id="patch_4">
    <path d="M 777.6 320.4 
L 777.6 43.2 
" style="fill: none"/>
   </g>
   <g id="patch_5">
    <path d="M 108 320.4 
L 777.6 320.4 
" style="fill: none; stroke: #a9a9a9; stroke-width: 0.8; stroke-linejoin: miter; stroke-linecap: square"/>
   </g>
   <g id="patch_6">
    <path d="M 108 43.2 
L 777.6 43.2 
" style="fill: none"/>
   </g>
   <g id="text_18">
    <!-- get_subscribe history -->
    <g style="fill: #a9a9a9" transform="translate(378.6075 37.2) scale(0.12 -0.12)">
     <defs>
      <path id="DejaVuSans-67" d="M 2906 1791 
Q 2906 2416 2648 2759 
Q 2391 3103 1925 3103 
Q 1463 3103 1205 2759 
Q 947 2416 947 1791 
Q 947 1169 1205 825 
Q 1463 481 1925 481 
Q 2391 481 2648 825 
Q 2906 1169 2906 1791 
z
M 3481 434 
Q 3481 -459 3084 -895 
Q 2688 -1331 1869 -1331 
Q 1566 -1331 1297 -1286 
Q 1028 -1241 775 -1147 
L 775 -588 
Q 1028 -725 1275 -790 
Q 1522 -856 1778 -856 
Q 2344 -856 2625 -561 
Q 2906 -266 2906 331 
L 2906 616 
Q 2728 306 2450 153 
Q 2172 0 1784 0 
Q 1141 0 747 490 
Q 353 981 353 1791 
Q 353 2603 747 3093 
Q 1141 3584 1784 3584 
Q 2172 3584 2450 3431 
Q 2728 3278 2906 2969 
L 2906 3500 
L 3481 3500 
L 3481 434 
z
" transform="scale(0.015625)"/>
      <path id="DejaVuSans-65" d="M 3597 1894 
L 3597 1613 
L 953 1613 
Q 991 1019 1311 708 
Q 1631 397 2203 397 
Q 2534 397 2845 478 
Q 3156 559 3463 722 
L 3463 178 
Q 3153 47 2828 -22 
Q 2503 -91 2169 -91 
Q 1331 -91 842 396 
Q 353 884 353 1716 
Q 353 2575 817 3079 
Q 1281 3584 2069 3584 
Q 2775 3584 3186 3129 
Q 3597 2675 3597 1894 
z
M 3022 2063 
Q 3016 2534 2758 2815 
Q 2500 3097 2075 3097 
Q 1594 3097 1305 2825 
Q 1016 2553 972 2059 
L 3022 2063 
z
" transform="scale(0.015625)"/>
      <path id="DejaVuSans-74" d="M 1172 4494 
L 1172 3500 
L 2356 3500 
L 2356 3053 
L 1172 3053 
L 1172 1153 
Q 1172 725 1289 603 
Q 1406 481 1766 481 
L 2356 481 
L 2356 0 
L 1766 0 
Q 1100 0 847 248 
Q 594 497 594 1153 
L 594 3053 
L 172 3053 
L 172 3500 
L 594 3500 
L 594 4494 
L 1172 4494 
z
" transform="scale(0.015625)"/>
      <path id="DejaVuSans-5f" d="M 3263 -1063 
L 3263 -1509 
L -63 -1509 
L -63 -1063 
L 3263 -1063 
z
" transform="scale(0.015625)"/>
      <path id="DejaVuSans-73" d="M 2834 3397 
L 2834 2853 
Q 2591 2978 2328 3040 
Q 2066 3103 1784 3103 
Q 1356 3103 1142 2972 
Q 928 2841 928 2578 
Q 928 2378 1081 2264 
Q 1234 2150 1697 2047 
L 1894 2003 
Q 2506 1872 2764 1633 
Q 3022 1394 3022 966 
Q 3022 478 2636 193 
Q 2250 -91 1575 -91 
Q 1294 -91 989 -36 
Q 684 19 347 128 
L 347 722 
Q 666 556 975 473 
Q 1284 391 1588 391 
Q 1994 391 2212 530 
Q 2431 669 2431 922 
Q 2431 1156 2273 1281 
Q 2116 1406 1581 1522 
L 1381 1569 
Q 847 1681 609 1914 
Q 372 2147 372 2553 
Q 372 3047 722 3315 
Q 1072 3584 1716 3584 
Q 2034 3584 2315 3537 
Q 2597 3491 2834 3397 
z
" transform="scale(0.015625)"/>
      <path id="DejaVuSans-75" d="M 544 1381 
L 544 3500 
L 1119 3500 
L 1119 1403 
Q 1119 906 1312 657 
Q 1506 409 1894 409 
Q 2359 409 2629 706 
Q 2900 1003 2900 1516 
L 2900 3500 
L 3475 3500 
L 3475 0 
L 2900 0 
L 2900 538 
Q 2691 219 2414 64 
Q 2138 -91 1772 -91 
Q 1169 -91 856 284 
Q 544 659 544 1381 
z
M 1991 3584 
L 1991 3584 
z
" transform="scale(0.015625)"/>
      <path id="DejaVuSans-62" d="M 3116 1747 
Q 3116 2381 2855 2742 
Q 2594 3103 2138 3103 
Q 1681 3103 1420 2742 
Q 1159 2381 1159 1747 
Q 1159 1113 1420 752 
Q 1681 391 2138 391 
Q 2594 391 2855 752 
Q 3116 1113 3116 1747 
z
M 1159 2969 
Q 1341 3281 1617 3432 
Q 1894 3584 2278 3584 
Q 2916 3584 3314 3078 
Q 3713 2572 3713 1747 
Q 3713 922 3314 415 
Q 2916 -91 2278 -91 
Q 1894 -91 1617 61 
Q 1341 213 1159 525 
L 1159 0 
L 581 0 
L 581 4863 
L 1159 4863 
L 1159 2969 
z
" transform="scale(0.015625)"/>
      <path id="DejaVuSans-63" d="M 3122 3366 
L 3122 2828 
Q 2878 2963 2633 3030 
Q 2388 3097 2138 3097 
Q 1578 3097 1268 2742 
Q 959 2388 959 1747 
Q 959 1106 1268 751 
Q 1578 397 2138 397 
Q 2388 397 2633 464 
Q 2878 531 3122 666 
L 3122 134 
Q 2881 22 2623 -34 
Q 2366 -91 2075 -91 
Q 1284 -91 818 406 
Q 353 903 353 1747 
Q 353 2603 823 3093 
Q 1294 3584 2113 3584 
Q 2378 3584 2631 3529 
Q 2884 3475 3122 3366 
z
" transform="scale(0.015625)"/>
      <path id="DejaVuSans-72" d="M 2631 2963 
Q 2534 3019 2420 3045 
Q 2306 3072 2169 3072 
Q 1681 3072 1420 2755 
Q 1159 2438 1159 1844 
L 1159 0 
L 581 0 
L 581 3500 
L 1159 3500 
L 1159 2956 
Q 1341 3275 1631 3429 
Q 1922 3584 2338 3584 
Q 2397 3584 2469 3576 
Q 2541 3569 2628 3553 
L 2631 2963 
z
" transform="scale(0.015625)"/>
      <path id="DejaVuSans-69" d="M 603 3500 
L 1178 3500 
L 1178 0 
L 603 0 
L 603 3500 
z
M 603 4863 
L 1178 4863 
L 1178 4134 
L 603 4134 
L 603 4863 
z
" transform="scale(0.015625)"/>
      <path id="DejaVuSans-20" transform="scale(0.015625)"/>
      <path id="DejaVuSans-68" d="M 3513 2113 
L 3513 0 
L 2938 0 
L 2938 2094 
Q 2938 2591 2744 2837 
Q 2550 3084 2163 3084 
Q 1697 3084 1428 2787 
Q 1159 2491 1159 1978 
L 1159 0 
L 581 0 
L 581 4863 
L 1159 4863 
L 1159 2956 
Q 1366 3272 1645 3428 
Q 1925 3584 2291 3584 
Q 2894 3584 3203 3211 
Q 3513 2838 3513 2113 
z
" transform="scale(0.015625)"/>
      <path id="DejaVuSans-6f" d="M 1959 3097 
Q 1497 3097 1228 2736 
Q 959 2375 959 1747 
Q 959 1119 1226 758 
Q 1494 397 1959 397 
Q 2419 397 2687 759 
Q 2956 1122 2956 1747 
Q 2956 2369 2687 2733 
Q 2419 3097 1959 3097 
z
M 1959 3584 
Q 2709 3584 3137 3096 
Q 3566 2609 3566 1747 
Q 3566 888 3137 398 
Q 2709 -91 1959 -91 
Q 1206 -91 779 398 
Q 353 888 353 1747 
Q 353 2609 779 3096 
Q 1206 3584 1959 3584 
z
" transform="scale(0.015625)"/>
      <path id="DejaVuSans-79" d="M 2059 -325 
Q 1816 -950 1584 -1140 
Q 1353 -1331 966 -1331 
L 506 -1331 
L 506 -850 
L 844 -850 
Q 1081 -850 1212 -737 
Q 1344 -625 1503 -206 
L 1606 56 
L 191 3500 
L 800 3500 
L 1894 763 
L 2988 3500 
L 3597 3500 
L 2059 -325 
z
" transform="scale(0.015625)"/>
     </defs>
     <use xlink:href="#DejaVuSans-67"/>
     <use xlink:href="#DejaVuSans-65" x="63.476562"/>
     <use xlink:href="#DejaVuSans-74" x="125"/>
     <use xlink:href="#DejaVuSans-5f" x="164.208984"/>
     <use xlink:href="#DejaVuSans-73" x="214.208984"/>
     <use xlink:href="#DejaVuSans-75" x="266.308594"/>
     <use xlink:href="#DejaVuSans-62" x="329.6875"/>
     <use xlink:href="#DejaVuSans-73" x="393.164062"/>
     <use xlink:href="#DejaVuSans-63" x="445.263672"/>
     <use xlink:href="#DejaVuSans-72" x="500.244141"/>
     <use xlink:href="#DejaVuSans-69" x="541.357422"/>
     <use xlink:href="#DejaVuSans-62" x="569.140625"/>
     <use xlink:href="#DejaVuSans-65" x="632.617188"/>
     <use xlink:href="#DejaVuSans-20" x="694.140625"/>
     <use xlink:href="#DejaVuSans-68" x="725.927734"/>
     <use xlink:href="#DejaVuSans-69" x="789.306641"/>
     <use xlink:href="#DejaVuSans-73" x="817.089844"/>
     <use xlink:href="#DejaVuSans-74" x="869.189453"/>
     <use xlink:href="#DejaVuSans-6f" x="908.398438"/>
     <use xlink:href="#DejaVuSans-72" x="969.580078"/>
     <use xlink:href="#DejaVuSans-79" x="1010.693359"/>
    </g>
   </g>
   <g id="legend_1">
    <g id="line2d_37">
     <path d="M 815.08 328.498438 
L 825.08 328.498438 
L 835.08 328.498438 
" style="fill: none; stroke: #1f77b4; stroke-width: 1.5; stroke-linecap: square"/>
    </g>
    <g id="text_19">
     <!-- star -->
     <g style="fill: #a9a9a9" transform="translate(843.08 331.998438) scale(0.1 -0.1)">
      <defs>
       <path id="DejaVuSans-61" d="M 2194 1759 
Q 1497 1759 1228 1600 
Q 959 1441 959 1056 
Q 959 750 1161 570 
Q 1363 391 1709 391 
Q 2188 391 2477 730 
Q 2766 1069 2766 1631 
L 2766 1759 
L 2194 1759 
z
M 3341 1997 
L 3341 0 
L 2766 0 
L 2766 531 
Q 2569 213 2275 61 
Q 1981 -91 1556 -91 
Q 1019 -91 701 211 
Q 384 513 384 1019 
Q 384 1609 779 1909 
Q 1175 2209 1959 2209 
L 2766 2209 
L 2766 2266 
Q 2766 2663 2505 2880 
Q 2244 3097 1772 3097 
Q 1472 3097 1187 3025 
Q 903 2953 641 2809 
L 641 3341 
Q 956 3463 1253 3523 
Q 1550 3584 1831 3584 
Q 2591 3584 2966 3190 
Q 3341 2797 3341 1997 
z
" transform="scale(0.015625)"/>
      </defs>
      <use xlink:href="#DejaVuSans-73"/>
      <use xlink:href="#DejaVuSans-74" x="52.099609"/>
      <use xlink:href="#DejaVuSans-61" x="91.308594"/>
      <use xlink:href="#DejaVuSans-72" x="152.587891"/>
     </g>
    </g>
    <g id="line2d_38">
     <path d="M 815.08 343.176562 
L 825.08 343.176562 
L 835.08 343.176562 
" style="fill: none; stroke: #ff7f0e; stroke-width: 1.5; stroke-linecap: square"/>
    </g>
    <g id="text_20">
     <!-- fork -->
     <g style="fill: #a9a9a9" transform="translate(843.08 346.676562) scale(0.1 -0.1)">
      <defs>
       <path id="DejaVuSans-66" d="M 2375 4863 
L 2375 4384 
L 1825 4384 
Q 1516 4384 1395 4259 
Q 1275 4134 1275 3809 
L 1275 3500 
L 2222 3500 
L 2222 3053 
L 1275 3053 
L 1275 0 
L 697 0 
L 697 3053 
L 147 3053 
L 147 3500 
L 697 3500 
L 697 3744 
Q 697 4328 969 4595 
Q 1241 4863 1831 4863 
L 2375 4863 
z
" transform="scale(0.015625)"/>
       <path id="DejaVuSans-6b" d="M 581 4863 
L 1159 4863 
L 1159 1991 
L 2875 3500 
L 3609 3500 
L 1753 1863 
L 3688 0 
L 2938 0 
L 1159 1709 
L 1159 0 
L 581 0 
L 581 4863 
z
" transform="scale(0.015625)"/>
      </defs>
      <use xlink:href="#DejaVuSans-66"/>
      <use xlink:href="#DejaVuSans-6f" x="35.205078"/>
      <use xlink:href="#DejaVuSans-72" x="96.386719"/>
      <use xlink:href="#DejaVuSans-6b" x="137.5"/>
     </g>
    </g>
   </g>
  </g>
 </g>
 <defs>
  <clipPath id="pd0d75d7dca">
   <rect x="108" y="43.2" width="669.6" height="277.2"/>
  </clipPath>
 </defs>
</svg>
