<?xml version="1.0" encoding="utf-8" standalone="no"?>
<!DOCTYPE svg PUBLIC "-//W3C//DTD SVG 1.1//EN"
  "http://www.w3.org/Graphics/SVG/1.1/DTD/svg11.dtd">
<svg xmlns:xlink="http://www.w3.org/1999/xlink" width="864pt" height="360pt" viewBox="0 0 864 360" xmlns="http://www.w3.org/2000/svg" version="1.1">
 <metadata>
  <rdf:RDF xmlns:dc="http://purl.org/dc/elements/1.1/" xmlns:cc="http://creativecommons.org/ns#" xmlns:rdf="http://www.w3.org/1999/02/22-rdf-syntax-ns#">
   <cc:Work>
    <dc:type rdf:resource="http://purl.org/dc/dcmitype/StillImage"/>
    <dc:date>2024-04-16T20:04:44.701087</dc:date>
    <dc:format>image/svg+xml</dc:format>
    <dc:creator>
     <cc:Agent>
      <dc:title>Matplotlib v3.8.4, https://matplotlib.org/</dc:title>
     </cc:Agent>
    </dc:creator>
   </cc:Work>
  </rdf:RDF>
 </metadata>
 <defs>
  <style type="text/css">*{stroke-linejoin: round; stroke-linecap: butt}</style>
 </defs>
 <g id="figure_1">
  <g id="patch_1">
   <path d="M 0 360 
L 864 360 
L 864 0 
L 0 0 
L 0 360 
z
" style="fill: none; opacity: 0"/>
  </g>
  <g id="axes_1">
   <g id="patch_2">
    <path d="M 108 320.4 
L 777.6 320.4 
L 777.6 43.2 
L 108 43.2 
L 108 320.4 
z
" style="fill: none; opacity: 0"/>
   </g>
   <g id="matplotlib.axis_1">
    <g id="xtick_1">
     <g id="line2d_1">
      <path d="M 162.248163 320.4 
L 162.248163 43.2 
" clip-path="url(#paf65b735ac)" style="fill: none; stroke-dasharray: 5.12,1.28,0.8,1.28; stroke-dashoffset: 0; stroke: #b0b0b0; stroke-width: 0.8"/>
     </g>
     <g id="line2d_2">
      <defs>
       <path id="m81007b1e87" d="M 0 0 
L 0 3.5 
" style="stroke: #a9a9a9; stroke-width: 0.8"/>
      </defs>
      <g>
       <use xlink:href="#m81007b1e87" x="162.248163" y="320.4" style="fill: #a9a9a9; stroke: #a9a9a9; stroke-width: 0.8"/>
      </g>
     </g>
     <g id="text_1">
      <!-- 2021-09 -->
      <g style="fill: #a9a9a9" transform="translate(141.356756 334.998438) scale(0.1 -0.1)">
       <defs>
        <path id="DejaVuSans-32" d="M 1228 531 
L 3431 531 
L 3431 0 
L 469 0 
L 469 531 
Q 828 903 1448 1529 
Q 2069 2156 2228 2338 
Q 2531 2678 2651 2914 
Q 2772 3150 2772 3378 
Q 2772 3750 2511 3984 
Q 2250 4219 1831 4219 
Q 1534 4219 1204 4116 
Q 875 4013 500 3803 
L 500 4441 
Q 881 4594 1212 4672 
Q 1544 4750 1819 4750 
Q 2544 4750 2975 4387 
Q 3406 4025 3406 3419 
Q 3406 3131 3298 2873 
Q 3191 2616 2906 2266 
Q 2828 2175 2409 1742 
Q 1991 1309 1228 531 
z
" transform="scale(0.015625)"/>
        <path id="DejaVuSans-30" d="M 2034 4250 
Q 1547 4250 1301 3770 
Q 1056 3291 1056 2328 
Q 1056 1369 1301 889 
Q 1547 409 2034 409 
Q 2525 409 2770 889 
Q 3016 1369 3016 2328 
Q 3016 3291 2770 3770 
Q 2525 4250 2034 4250 
z
M 2034 4750 
Q 2819 4750 3233 4129 
Q 3647 3509 3647 2328 
Q 3647 1150 3233 529 
Q 2819 -91 2034 -91 
Q 1250 -91 836 529 
Q 422 1150 422 2328 
Q 422 3509 836 4129 
Q 1250 4750 2034 4750 
z
" transform="scale(0.015625)"/>
        <path id="DejaVuSans-31" d="M 794 531 
L 1825 531 
L 1825 4091 
L 703 3866 
L 703 4441 
L 1819 4666 
L 2450 4666 
L 2450 531 
L 3481 531 
L 3481 0 
L 794 0 
L 794 531 
z
" transform="scale(0.015625)"/>
        <path id="DejaVuSans-2d" d="M 313 2009 
L 1997 2009 
L 1997 1497 
L 313 1497 
L 313 2009 
z
" transform="scale(0.015625)"/>
        <path id="DejaVuSans-39" d="M 703 97 
L 703 672 
Q 941 559 1184 500 
Q 1428 441 1663 441 
Q 2288 441 2617 861 
Q 2947 1281 2994 2138 
Q 2813 1869 2534 1725 
Q 2256 1581 1919 1581 
Q 1219 1581 811 2004 
Q 403 2428 403 3163 
Q 403 3881 828 4315 
Q 1253 4750 1959 4750 
Q 2769 4750 3195 4129 
Q 3622 3509 3622 2328 
Q 3622 1225 3098 567 
Q 2575 -91 1691 -91 
Q 1453 -91 1209 -44 
Q 966 3 703 97 
z
M 1959 2075 
Q 2384 2075 2632 2365 
Q 2881 2656 2881 3163 
Q 2881 3666 2632 3958 
Q 2384 4250 1959 4250 
Q 1534 4250 1286 3958 
Q 1038 3666 1038 3163 
Q 1038 2656 1286 2365 
Q 1534 2075 1959 2075 
z
" transform="scale(0.015625)"/>
       </defs>
       <use xlink:href="#DejaVuSans-32"/>
       <use xlink:href="#DejaVuSans-30" x="63.623047"/>
       <use xlink:href="#DejaVuSans-32" x="127.246094"/>
       <use xlink:href="#DejaVuSans-31" x="190.869141"/>
       <use xlink:href="#DejaVuSans-2d" x="254.492188"/>
       <use xlink:href="#DejaVuSans-30" x="290.576172"/>
       <use xlink:href="#DejaVuSans-39" x="354.199219"/>
      </g>
     </g>
    </g>
    <g id="xtick_2">
     <g id="line2d_3">
      <path d="M 236.736355 320.4 
L 236.736355 43.2 
" clip-path="url(#paf65b735ac)" style="fill: none; stroke-dasharray: 5.12,1.28,0.8,1.28; stroke-dashoffset: 0; stroke: #b0b0b0; stroke-width: 0.8"/>
     </g>
     <g id="line2d_4">
      <g>
       <use xlink:href="#m81007b1e87" x="236.736355" y="320.4" style="fill: #a9a9a9; stroke: #a9a9a9; stroke-width: 0.8"/>
      </g>
     </g>
     <g id="text_2">
      <!-- 2022-01 -->
      <g style="fill: #a9a9a9" transform="translate(215.844948 334.998438) scale(0.1 -0.1)">
       <use xlink:href="#DejaVuSans-32"/>
       <use xlink:href="#DejaVuSans-30" x="63.623047"/>
       <use xlink:href="#DejaVuSans-32" x="127.246094"/>
       <use xlink:href="#DejaVuSans-32" x="190.869141"/>
       <use xlink:href="#DejaVuSans-2d" x="254.492188"/>
       <use xlink:href="#DejaVuSans-30" x="290.576172"/>
       <use xlink:href="#DejaVuSans-31" x="354.199219"/>
      </g>
     </g>
    </g>
    <g id="xtick_3">
     <g id="line2d_5">
      <path d="M 310.003428 320.4 
L 310.003428 43.2 
" clip-path="url(#paf65b735ac)" style="fill: none; stroke-dasharray: 5.12,1.28,0.8,1.28; stroke-dashoffset: 0; stroke: #b0b0b0; stroke-width: 0.8"/>
     </g>
     <g id="line2d_6">
      <g>
       <use xlink:href="#m81007b1e87" x="310.003428" y="320.4" style="fill: #a9a9a9; stroke: #a9a9a9; stroke-width: 0.8"/>
      </g>
     </g>
     <g id="text_3">
      <!-- 2022-05 -->
      <g style="fill: #a9a9a9" transform="translate(289.112022 334.998438) scale(0.1 -0.1)">
       <defs>
        <path id="DejaVuSans-35" d="M 691 4666 
L 3169 4666 
L 3169 4134 
L 1269 4134 
L 1269 2991 
Q 1406 3038 1543 3061 
Q 1681 3084 1819 3084 
Q 2600 3084 3056 2656 
Q 3513 2228 3513 1497 
Q 3513 744 3044 326 
Q 2575 -91 1722 -91 
Q 1428 -91 1123 -41 
Q 819 9 494 109 
L 494 744 
Q 775 591 1075 516 
Q 1375 441 1709 441 
Q 2250 441 2565 725 
Q 2881 1009 2881 1497 
Q 2881 1984 2565 2268 
Q 2250 2553 1709 2553 
Q 1456 2553 1204 2497 
Q 953 2441 691 2322 
L 691 4666 
z
" transform="scale(0.015625)"/>
       </defs>
       <use xlink:href="#DejaVuSans-32"/>
       <use xlink:href="#DejaVuSans-30" x="63.623047"/>
       <use xlink:href="#DejaVuSans-32" x="127.246094"/>
       <use xlink:href="#DejaVuSans-32" x="190.869141"/>
       <use xlink:href="#DejaVuSans-2d" x="254.492188"/>
       <use xlink:href="#DejaVuSans-30" x="290.576172"/>
       <use xlink:href="#DejaVuSans-35" x="354.199219"/>
      </g>
     </g>
    </g>
    <g id="xtick_4">
     <g id="line2d_7">
      <path d="M 385.102179 320.4 
L 385.102179 43.2 
" clip-path="url(#paf65b735ac)" style="fill: none; stroke-dasharray: 5.12,1.28,0.8,1.28; stroke-dashoffset: 0; stroke: #b0b0b0; stroke-width: 0.8"/>
     </g>
     <g id="line2d_8">
      <g>
       <use xlink:href="#m81007b1e87" x="385.102179" y="320.4" style="fill: #a9a9a9; stroke: #a9a9a9; stroke-width: 0.8"/>
      </g>
     </g>
     <g id="text_4">
      <!-- 2022-09 -->
      <g style="fill: #a9a9a9" transform="translate(364.210773 334.998438) scale(0.1 -0.1)">
       <use xlink:href="#DejaVuSans-32"/>
       <use xlink:href="#DejaVuSans-30" x="63.623047"/>
       <use xlink:href="#DejaVuSans-32" x="127.246094"/>
       <use xlink:href="#DejaVuSans-32" x="190.869141"/>
       <use xlink:href="#DejaVuSans-2d" x="254.492188"/>
       <use xlink:href="#DejaVuSans-30" x="290.576172"/>
       <use xlink:href="#DejaVuSans-39" x="354.199219"/>
      </g>
     </g>
    </g>
    <g id="xtick_5">
     <g id="line2d_9">
      <path d="M 459.590371 320.4 
L 459.590371 43.2 
" clip-path="url(#paf65b735ac)" style="fill: none; stroke-dasharray: 5.12,1.28,0.8,1.28; stroke-dashoffset: 0; stroke: #b0b0b0; stroke-width: 0.8"/>
     </g>
     <g id="line2d_10">
      <g>
       <use xlink:href="#m81007b1e87" x="459.590371" y="320.4" style="fill: #a9a9a9; stroke: #a9a9a9; stroke-width: 0.8"/>
      </g>
     </g>
     <g id="text_5">
      <!-- 2023-01 -->
      <g style="fill: #a9a9a9" transform="translate(438.698965 334.998438) scale(0.1 -0.1)">
       <defs>
        <path id="DejaVuSans-33" d="M 2597 2516 
Q 3050 2419 3304 2112 
Q 3559 1806 3559 1356 
Q 3559 666 3084 287 
Q 2609 -91 1734 -91 
Q 1441 -91 1130 -33 
Q 819 25 488 141 
L 488 750 
Q 750 597 1062 519 
Q 1375 441 1716 441 
Q 2309 441 2620 675 
Q 2931 909 2931 1356 
Q 2931 1769 2642 2001 
Q 2353 2234 1838 2234 
L 1294 2234 
L 1294 2753 
L 1863 2753 
Q 2328 2753 2575 2939 
Q 2822 3125 2822 3475 
Q 2822 3834 2567 4026 
Q 2313 4219 1838 4219 
Q 1578 4219 1281 4162 
Q 984 4106 628 3988 
L 628 4550 
Q 988 4650 1302 4700 
Q 1616 4750 1894 4750 
Q 2613 4750 3031 4423 
Q 3450 4097 3450 3541 
Q 3450 3153 3228 2886 
Q 3006 2619 2597 2516 
z
" transform="scale(0.015625)"/>
       </defs>
       <use xlink:href="#DejaVuSans-32"/>
       <use xlink:href="#DejaVuSans-30" x="63.623047"/>
       <use xlink:href="#DejaVuSans-32" x="127.246094"/>
       <use xlink:href="#DejaVuSans-33" x="190.869141"/>
       <use xlink:href="#DejaVuSans-2d" x="254.492188"/>
       <use xlink:href="#DejaVuSans-30" x="290.576172"/>
       <use xlink:href="#DejaVuSans-31" x="354.199219"/>
      </g>
     </g>
    </g>
    <g id="xtick_6">
     <g id="line2d_11">
      <path d="M 532.857445 320.4 
L 532.857445 43.2 
" clip-path="url(#paf65b735ac)" style="fill: none; stroke-dasharray: 5.12,1.28,0.8,1.28; stroke-dashoffset: 0; stroke: #b0b0b0; stroke-width: 0.8"/>
     </g>
     <g id="line2d_12">
      <g>
       <use xlink:href="#m81007b1e87" x="532.857445" y="320.4" style="fill: #a9a9a9; stroke: #a9a9a9; stroke-width: 0.8"/>
      </g>
     </g>
     <g id="text_6">
      <!-- 2023-05 -->
      <g style="fill: #a9a9a9" transform="translate(511.966039 334.998438) scale(0.1 -0.1)">
       <use xlink:href="#DejaVuSans-32"/>
       <use xlink:href="#DejaVuSans-30" x="63.623047"/>
       <use xlink:href="#DejaVuSans-32" x="127.246094"/>
       <use xlink:href="#DejaVuSans-33" x="190.869141"/>
       <use xlink:href="#DejaVuSans-2d" x="254.492188"/>
       <use xlink:href="#DejaVuSans-30" x="290.576172"/>
       <use xlink:href="#DejaVuSans-35" x="354.199219"/>
      </g>
     </g>
    </g>
    <g id="xtick_7">
     <g id="line2d_13">
      <path d="M 607.956196 320.4 
L 607.956196 43.2 
" clip-path="url(#paf65b735ac)" style="fill: none; stroke-dasharray: 5.12,1.28,0.8,1.28; stroke-dashoffset: 0; stroke: #b0b0b0; stroke-width: 0.8"/>
     </g>
     <g id="line2d_14">
      <g>
       <use xlink:href="#m81007b1e87" x="607.956196" y="320.4" style="fill: #a9a9a9; stroke: #a9a9a9; stroke-width: 0.8"/>
      </g>
     </g>
     <g id="text_7">
      <!-- 2023-09 -->
      <g style="fill: #a9a9a9" transform="translate(587.06479 334.998438) scale(0.1 -0.1)">
       <use xlink:href="#DejaVuSans-32"/>
       <use xlink:href="#DejaVuSans-30" x="63.623047"/>
       <use xlink:href="#DejaVuSans-32" x="127.246094"/>
       <use xlink:href="#DejaVuSans-33" x="190.869141"/>
       <use xlink:href="#DejaVuSans-2d" x="254.492188"/>
       <use xlink:href="#DejaVuSans-30" x="290.576172"/>
       <use xlink:href="#DejaVuSans-39" x="354.199219"/>
      </g>
     </g>
    </g>
    <g id="xtick_8">
     <g id="line2d_15">
      <path d="M 682.444388 320.4 
L 682.444388 43.2 
" clip-path="url(#paf65b735ac)" style="fill: none; stroke-dasharray: 5.12,1.28,0.8,1.28; stroke-dashoffset: 0; stroke: #b0b0b0; stroke-width: 0.8"/>
     </g>
     <g id="line2d_16">
      <g>
       <use xlink:href="#m81007b1e87" x="682.444388" y="320.4" style="fill: #a9a9a9; stroke: #a9a9a9; stroke-width: 0.8"/>
      </g>
     </g>
     <g id="text_8">
      <!-- 2024-01 -->
      <g style="fill: #a9a9a9" transform="translate(661.552981 334.998438) scale(0.1 -0.1)">
       <defs>
        <path id="DejaVuSans-34" d="M 2419 4116 
L 825 1625 
L 2419 1625 
L 2419 4116 
z
M 2253 4666 
L 3047 4666 
L 3047 1625 
L 3713 1625 
L 3713 1100 
L 3047 1100 
L 3047 0 
L 2419 0 
L 2419 1100 
L 313 1100 
L 313 1709 
L 2253 4666 
z
" transform="scale(0.015625)"/>
       </defs>
       <use xlink:href="#DejaVuSans-32"/>
       <use xlink:href="#DejaVuSans-30" x="63.623047"/>
       <use xlink:href="#DejaVuSans-32" x="127.246094"/>
       <use xlink:href="#DejaVuSans-34" x="190.869141"/>
       <use xlink:href="#DejaVuSans-2d" x="254.492188"/>
       <use xlink:href="#DejaVuSans-30" x="290.576172"/>
       <use xlink:href="#DejaVuSans-31" x="354.199219"/>
      </g>
     </g>
    </g>
    <g id="xtick_9">
     <g id="line2d_17">
      <path d="M 756.322021 320.4 
L 756.322021 43.2 
" clip-path="url(#paf65b735ac)" style="fill: none; stroke-dasharray: 5.12,1.28,0.8,1.28; stroke-dashoffset: 0; stroke: #b0b0b0; stroke-width: 0.8"/>
     </g>
     <g id="line2d_18">
      <g>
       <use xlink:href="#m81007b1e87" x="756.322021" y="320.4" style="fill: #a9a9a9; stroke: #a9a9a9; stroke-width: 0.8"/>
      </g>
     </g>
     <g id="text_9">
      <!-- 2024-05 -->
      <g style="fill: #a9a9a9" transform="translate(735.430614 334.998438) scale(0.1 -0.1)">
       <use xlink:href="#DejaVuSans-32"/>
       <use xlink:href="#DejaVuSans-30" x="63.623047"/>
       <use xlink:href="#DejaVuSans-32" x="127.246094"/>
       <use xlink:href="#DejaVuSans-34" x="190.869141"/>
       <use xlink:href="#DejaVuSans-2d" x="254.492188"/>
       <use xlink:href="#DejaVuSans-30" x="290.576172"/>
       <use xlink:href="#DejaVuSans-35" x="354.199219"/>
      </g>
     </g>
    </g>
   </g>
   <g id="matplotlib.axis_2">
    <g id="ytick_1">
     <g id="line2d_19">
      <path d="M 108 307.842596 
L 777.6 307.842596 
" clip-path="url(#paf65b735ac)" style="fill: none; stroke-dasharray: 5.12,1.28,0.8,1.28; stroke-dashoffset: 0; stroke: #b0b0b0; stroke-width: 0.8"/>
     </g>
     <g id="line2d_20">
      <defs>
       <path id="m79355667be" d="M 0 0 
L -3.5 0 
" style="stroke: #a9a9a9; stroke-width: 0.8"/>
      </defs>
      <g>
       <use xlink:href="#m79355667be" x="108" y="307.842596" style="fill: #a9a9a9; stroke: #a9a9a9; stroke-width: 0.8"/>
      </g>
     </g>
     <g id="text_10">
      <!-- 0 -->
      <g style="fill: #a9a9a9" transform="translate(94.6375 311.641815) scale(0.1 -0.1)">
       <use xlink:href="#DejaVuSans-30"/>
      </g>
     </g>
    </g>
    <g id="ytick_2">
     <g id="line2d_21">
      <path d="M 108 273.765517 
L 777.6 273.765517 
" clip-path="url(#paf65b735ac)" style="fill: none; stroke-dasharray: 5.12,1.28,0.8,1.28; stroke-dashoffset: 0; stroke: #b0b0b0; stroke-width: 0.8"/>
     </g>
     <g id="line2d_22">
      <g>
       <use xlink:href="#m79355667be" x="108" y="273.765517" style="fill: #a9a9a9; stroke: #a9a9a9; stroke-width: 0.8"/>
      </g>
     </g>
     <g id="text_11">
      <!-- 800 -->
      <g style="fill: #a9a9a9" transform="translate(81.9125 277.564736) scale(0.1 -0.1)">
       <defs>
        <path id="DejaVuSans-38" d="M 2034 2216 
Q 1584 2216 1326 1975 
Q 1069 1734 1069 1313 
Q 1069 891 1326 650 
Q 1584 409 2034 409 
Q 2484 409 2743 651 
Q 3003 894 3003 1313 
Q 3003 1734 2745 1975 
Q 2488 2216 2034 2216 
z
M 1403 2484 
Q 997 2584 770 2862 
Q 544 3141 544 3541 
Q 544 4100 942 4425 
Q 1341 4750 2034 4750 
Q 2731 4750 3128 4425 
Q 3525 4100 3525 3541 
Q 3525 3141 3298 2862 
Q 3072 2584 2669 2484 
Q 3125 2378 3379 2068 
Q 3634 1759 3634 1313 
Q 3634 634 3220 271 
Q 2806 -91 2034 -91 
Q 1263 -91 848 271 
Q 434 634 434 1313 
Q 434 1759 690 2068 
Q 947 2378 1403 2484 
z
M 1172 3481 
Q 1172 3119 1398 2916 
Q 1625 2713 2034 2713 
Q 2441 2713 2670 2916 
Q 2900 3119 2900 3481 
Q 2900 3844 2670 4047 
Q 2441 4250 2034 4250 
Q 1625 4250 1398 4047 
Q 1172 3844 1172 3481 
z
" transform="scale(0.015625)"/>
       </defs>
       <use xlink:href="#DejaVuSans-38"/>
       <use xlink:href="#DejaVuSans-30" x="63.623047"/>
       <use xlink:href="#DejaVuSans-30" x="127.246094"/>
      </g>
     </g>
    </g>
    <g id="ytick_3">
     <g id="line2d_23">
      <path d="M 108 239.688438 
L 777.6 239.688438 
" clip-path="url(#paf65b735ac)" style="fill: none; stroke-dasharray: 5.12,1.28,0.8,1.28; stroke-dashoffset: 0; stroke: #b0b0b0; stroke-width: 0.8"/>
     </g>
     <g id="line2d_24">
      <g>
       <use xlink:href="#m79355667be" x="108" y="239.688438" style="fill: #a9a9a9; stroke: #a9a9a9; stroke-width: 0.8"/>
      </g>
     </g>
     <g id="text_12">
      <!-- 1600 -->
      <g style="fill: #a9a9a9" transform="translate(75.55 243.487657) scale(0.1 -0.1)">
       <defs>
        <path id="DejaVuSans-36" d="M 2113 2584 
Q 1688 2584 1439 2293 
Q 1191 2003 1191 1497 
Q 1191 994 1439 701 
Q 1688 409 2113 409 
Q 2538 409 2786 701 
Q 3034 994 3034 1497 
Q 3034 2003 2786 2293 
Q 2538 2584 2113 2584 
z
M 3366 4563 
L 3366 3988 
Q 3128 4100 2886 4159 
Q 2644 4219 2406 4219 
Q 1781 4219 1451 3797 
Q 1122 3375 1075 2522 
Q 1259 2794 1537 2939 
Q 1816 3084 2150 3084 
Q 2853 3084 3261 2657 
Q 3669 2231 3669 1497 
Q 3669 778 3244 343 
Q 2819 -91 2113 -91 
Q 1303 -91 875 529 
Q 447 1150 447 2328 
Q 447 3434 972 4092 
Q 1497 4750 2381 4750 
Q 2619 4750 2861 4703 
Q 3103 4656 3366 4563 
z
" transform="scale(0.015625)"/>
       </defs>
       <use xlink:href="#DejaVuSans-31"/>
       <use xlink:href="#DejaVuSans-36" x="63.623047"/>
       <use xlink:href="#DejaVuSans-30" x="127.246094"/>
       <use xlink:href="#DejaVuSans-30" x="190.869141"/>
      </g>
     </g>
    </g>
    <g id="ytick_4">
     <g id="line2d_25">
      <path d="M 108 205.611359 
L 777.6 205.611359 
" clip-path="url(#paf65b735ac)" style="fill: none; stroke-dasharray: 5.12,1.28,0.8,1.28; stroke-dashoffset: 0; stroke: #b0b0b0; stroke-width: 0.8"/>
     </g>
     <g id="line2d_26">
      <g>
       <use xlink:href="#m79355667be" x="108" y="205.611359" style="fill: #a9a9a9; stroke: #a9a9a9; stroke-width: 0.8"/>
      </g>
     </g>
     <g id="text_13">
      <!-- 2400 -->
      <g style="fill: #a9a9a9" transform="translate(75.55 209.410578) scale(0.1 -0.1)">
       <use xlink:href="#DejaVuSans-32"/>
       <use xlink:href="#DejaVuSans-34" x="63.623047"/>
       <use xlink:href="#DejaVuSans-30" x="127.246094"/>
       <use xlink:href="#DejaVuSans-30" x="190.869141"/>
      </g>
     </g>
    </g>
    <g id="ytick_5">
     <g id="line2d_27">
      <path d="M 108 171.53428 
L 777.6 171.53428 
" clip-path="url(#paf65b735ac)" style="fill: none; stroke-dasharray: 5.12,1.28,0.8,1.28; stroke-dashoffset: 0; stroke: #b0b0b0; stroke-width: 0.8"/>
     </g>
     <g id="line2d_28">
      <g>
       <use xlink:href="#m79355667be" x="108" y="171.53428" style="fill: #a9a9a9; stroke: #a9a9a9; stroke-width: 0.8"/>
      </g>
     </g>
     <g id="text_14">
      <!-- 3200 -->
      <g style="fill: #a9a9a9" transform="translate(75.55 175.333499) scale(0.1 -0.1)">
       <use xlink:href="#DejaVuSans-33"/>
       <use xlink:href="#DejaVuSans-32" x="63.623047"/>
       <use xlink:href="#DejaVuSans-30" x="127.246094"/>
       <use xlink:href="#DejaVuSans-30" x="190.869141"/>
      </g>
     </g>
    </g>
    <g id="ytick_6">
     <g id="line2d_29">
      <path d="M 108 137.457201 
L 777.6 137.457201 
" clip-path="url(#paf65b735ac)" style="fill: none; stroke-dasharray: 5.12,1.28,0.8,1.28; stroke-dashoffset: 0; stroke: #b0b0b0; stroke-width: 0.8"/>
     </g>
     <g id="line2d_30">
      <g>
       <use xlink:href="#m79355667be" x="108" y="137.457201" style="fill: #a9a9a9; stroke: #a9a9a9; stroke-width: 0.8"/>
      </g>
     </g>
     <g id="text_15">
      <!-- 4000 -->
      <g style="fill: #a9a9a9" transform="translate(75.55 141.25642) scale(0.1 -0.1)">
       <use xlink:href="#DejaVuSans-34"/>
       <use xlink:href="#DejaVuSans-30" x="63.623047"/>
       <use xlink:href="#DejaVuSans-30" x="127.246094"/>
       <use xlink:href="#DejaVuSans-30" x="190.869141"/>
      </g>
     </g>
    </g>
    <g id="ytick_7">
     <g id="line2d_31">
      <path d="M 108 103.380122 
L 777.6 103.380122 
" clip-path="url(#paf65b735ac)" style="fill: none; stroke-dasharray: 5.12,1.28,0.8,1.28; stroke-dashoffset: 0; stroke: #b0b0b0; stroke-width: 0.8"/>
     </g>
     <g id="line2d_32">
      <g>
       <use xlink:href="#m79355667be" x="108" y="103.380122" style="fill: #a9a9a9; stroke: #a9a9a9; stroke-width: 0.8"/>
      </g>
     </g>
     <g id="text_16">
      <!-- 4800 -->
      <g style="fill: #a9a9a9" transform="translate(75.55 107.17934) scale(0.1 -0.1)">
       <use xlink:href="#DejaVuSans-34"/>
       <use xlink:href="#DejaVuSans-38" x="63.623047"/>
       <use xlink:href="#DejaVuSans-30" x="127.246094"/>
       <use xlink:href="#DejaVuSans-30" x="190.869141"/>
      </g>
     </g>
    </g>
    <g id="ytick_8">
     <g id="line2d_33">
      <path d="M 108 69.303043 
L 777.6 69.303043 
" clip-path="url(#paf65b735ac)" style="fill: none; stroke-dasharray: 5.12,1.28,0.8,1.28; stroke-dashoffset: 0; stroke: #b0b0b0; stroke-width: 0.8"/>
     </g>
     <g id="line2d_34">
      <g>
       <use xlink:href="#m79355667be" x="108" y="69.303043" style="fill: #a9a9a9; stroke: #a9a9a9; stroke-width: 0.8"/>
      </g>
     </g>
     <g id="text_17">
      <!-- 5600 -->
      <g style="fill: #a9a9a9" transform="translate(75.55 73.102261) scale(0.1 -0.1)">
       <use xlink:href="#DejaVuSans-35"/>
       <use xlink:href="#DejaVuSans-36" x="63.623047"/>
       <use xlink:href="#DejaVuSans-30" x="127.246094"/>
       <use xlink:href="#DejaVuSans-30" x="190.869141"/>
      </g>
     </g>
    </g>
   </g>
   <g id="line2d_35">
    <path d="M 138.436364 307.714807 
L 142.099717 307.416633 
L 142.710276 307.161055 
L 144.541953 306.948073 
L 148.205307 306.223935 
L 151.868661 305.925761 
L 152.479219 305.627586 
L 153.089778 305.457201 
L 153.700337 304.690467 
L 154.310896 304.264503 
L 154.921455 302.944016 
L 155.532014 302.858824 
L 156.142573 302.390264 
L 157.363691 301.793915 
L 159.805927 299.919675 
L 161.027045 299.408519 
L 161.637604 298.982556 
L 164.07984 297.917647 
L 164.690398 296.980527 
L 165.911516 296.1286 
L 166.522075 295.830426 
L 172.627665 294.978499 
L 173.238224 294.680325 
L 177.512136 294.339554 
L 179.343813 293.870994 
L 184.838844 293.146856 
L 185.449403 292.806085 
L 186.059962 292.720892 
L 186.670521 292.465314 
L 187.891639 292.252333 
L 188.502198 292.209736 
L 189.723315 291.954158 
L 190.333874 291.911562 
L 192.77611 291.315213 
L 194.607787 291.144828 
L 195.828905 291.017039 
L 196.439464 290.846653 
L 197.050023 290.804057 
L 198.8817 290.250304 
L 200.102818 290.165112 
L 201.323935 289.994726 
L 202.545053 289.739148 
L 203.155612 289.568763 
L 203.766171 288.759432 
L 205.597848 288.07789 
L 207.429525 287.609331 
L 208.040084 287.311156 
L 208.650643 287.26856 
L 211.703438 286.416633 
L 212.924555 286.33144 
L 214.145673 286.075862 
L 216.587909 285.479513 
L 217.198468 285.436917 
L 218.419586 284.883164 
L 219.030145 284.797972 
L 219.640704 284.499797 
L 225.746293 283.605274 
L 228.799088 282.753347 
L 229.409647 282.36998 
L 231.851883 281.731034 
L 233.073001 281.006897 
L 233.68356 280.580933 
L 235.515237 280.240162 
L 239.17859 279.132657 
L 240.399708 278.74929 
L 241.010267 278.664097 
L 242.231385 278.323327 
L 243.452503 278.025152 
L 244.063062 277.939959 
L 245.28418 277.428803 
L 245.894739 277.301014 
L 246.505298 277.045436 
L 247.115857 276.960243 
L 247.726416 276.662069 
L 248.336975 276.491684 
L 249.558092 276.406491 
L 250.77921 275.980527 
L 252.000328 275.895335 
L 252.610887 275.59716 
L 253.832005 275.426775 
L 254.442564 275.213793 
L 255.663682 275.171197 
L 258.105918 274.873022 
L 259.327036 274.276673 
L 266.043184 271.422718 
L 266.653743 271.081947 
L 267.264302 270.443002 
L 268.48542 268.611359 
L 269.095979 268.440974 
L 269.706538 268.440974 
L 270.927656 267.54645 
L 271.538215 267.376065 
L 272.148774 267.07789 
L 272.759333 266.950101 
L 273.369891 266.396349 
L 273.98045 266.225963 
L 275.812127 265.33144 
L 277.033245 263.627586 
L 277.643804 263.244219 
L 278.254363 262.221907 
L 278.864922 261.582961 
L 279.475481 261.284787 
L 280.08604 261.114402 
L 282.528276 259.666126 
L 283.749394 258.68641 
L 284.359953 258.303043 
L 284.970512 257.408519 
L 285.58107 256.045436 
L 286.191629 255.150913 
L 286.802188 254.682353 
L 287.412747 254.426775 
L 289.854983 252.296957 
L 291.076101 251.317241 
L 291.68666 250.806085 
L 292.297219 249.996755 
L 293.518337 248.931846 
L 295.960573 247.355781 
L 296.571132 246.844625 
L 297.181691 246.716836 
L 297.792249 246.461258 
L 299.623926 245.438945 
L 300.845044 244.842596 
L 302.066162 243.692495 
L 302.676721 242.968357 
L 303.897839 242.11643 
L 304.508398 241.946045 
L 305.118957 241.64787 
L 306.340075 240.83854 
L 306.950634 240.497769 
L 307.561193 240.412576 
L 312.445664 237.473428 
L 313.056223 237.132657 
L 313.666782 236.919675 
L 315.498459 235.726978 
L 317.330136 235.173225 
L 317.940695 234.747262 
L 318.551254 234.619473 
L 319.772372 234.193509 
L 321.604049 233.469371 
L 323.435725 232.78783 
L 324.656843 232.574848 
L 325.877961 231.509939 
L 327.709638 230.658012 
L 328.930756 229.933874 
L 330.151874 229.593103 
L 330.762433 229.209736 
L 331.372992 229.039351 
L 333.204669 227.889249 
L 336.257463 227.165112 
L 338.08914 226.100203 
L 338.699699 226.01501 
L 339.310258 225.802028 
L 340.531376 225.54645 
L 342.363053 224.183367 
L 344.19473 223.757404 
L 344.805289 223.544422 
L 345.415848 223.075862 
L 349.079201 221.883164 
L 349.68976 221.840568 
L 350.300319 221.670183 
L 351.521437 221.159026 
L 355.79535 219.668154 
L 357.016468 219.497769 
L 357.627027 219.327383 
L 358.237585 219.029209 
L 358.848144 218.90142 
L 360.679821 218.049493 
L 362.511498 217.15497 
L 363.122057 216.729006 
L 363.732616 216.558621 
L 365.564293 215.578905 
L 366.785411 215.28073 
L 368.006529 214.641785 
L 369.227647 214.301014 
L 369.838206 214.215822 
L 371.059323 213.491684 
L 371.669882 213.363895 
L 372.891 212.852738 
L 373.501559 212.724949 
L 374.112118 212.384178 
L 376.554354 212.000811 
L 377.775472 211.404462 
L 378.386031 210.893306 
L 378.99659 209.828398 
L 380.828267 209.487627 
L 383.270502 208.209736 
L 383.881061 208.081947 
L 388.154974 206.037323 
L 389.376092 205.696552 
L 390.59721 205.440974 
L 391.818328 204.844625 
L 392.428887 204.589047 
L 393.039446 204.503854 
L 395.481681 203.438945 
L 397.313358 202.288844 
L 397.923917 202.203651 
L 398.534476 201.990669 
L 399.145035 201.948073 
L 402.19783 201.181339 
L 402.808389 200.712779 
L 404.029507 200.286815 
L 405.861184 199.690467 
L 406.471743 199.307099 
L 407.082301 199.136714 
L 407.69286 198.710751 
L 408.303419 198.455172 
L 409.524537 197.816227 
L 411.966773 197.049493 
L 412.577332 196.751318 
L 414.409009 195.345639 
L 415.019568 195.21785 
L 416.240686 194.28073 
L 416.851245 194.152941 
L 417.461804 193.215822 
L 418.072363 192.960243 
L 418.682921 192.491684 
L 419.29348 192.406491 
L 420.514598 191.682353 
L 421.125157 191.554564 
L 421.735716 191.298986 
L 422.346275 190.830426 
L 422.956834 190.617444 
L 424.788511 189.38215 
L 427.230747 188.146856 
L 427.841306 188.061663 
L 429.062424 187.507911 
L 429.672983 187.16714 
L 430.283542 186.144828 
L 430.8941 185.591075 
L 431.504659 185.250304 
L 432.115218 185.122515 
L 433.336336 184.355781 
L 433.946895 184.227992 
L 435.168013 183.631643 
L 436.99969 182.864909 
L 438.220808 182.012982 
L 439.441926 180.735091 
L 442.494721 178.520081 
L 443.715838 177.540365 
L 444.326397 177.284787 
L 444.936956 176.603245 
L 445.547515 176.134686 
L 446.768633 175.708722 
L 447.989751 174.899391 
L 448.60031 174.601217 
L 449.210869 174.430832 
L 449.821428 174.004868 
L 450.431987 173.877079 
L 452.263664 172.897363 
L 453.484782 172.173225 
L 459.590371 170.000811 
L 460.20093 169.447059 
L 462.032607 168.765517 
L 463.253725 168.38215 
L 463.864284 167.91359 
L 466.917079 166.337525 
L 468.138196 163.994726 
L 469.359314 162.54645 
L 470.580432 161.822312 
L 472.412109 161.098174 
L 473.022668 161.012982 
L 473.633227 160.672211 
L 475.464904 160.118458 
L 477.90714 159.010953 
L 478.517699 158.627586 
L 479.738816 158.201623 
L 483.40217 156.071805 
L 484.012729 155.43286 
L 485.233847 154.793915 
L 485.844406 154.453144 
L 486.454965 154.240162 
L 487.065524 153.814199 
L 488.286642 153.21785 
L 490.118319 152.238134 
L 490.728878 152.067748 
L 491.339436 151.599189 
L 494.392231 150.619473 
L 495.00279 150.449087 
L 495.613349 150.150913 
L 496.223908 149.724949 
L 497.445026 149.384178 
L 498.666144 148.915619 
L 499.276703 148.447059 
L 500.497821 148.063692 
L 501.10838 147.765517 
L 501.718939 147.595132 
L 502.940057 146.743205 
L 504.161174 146.232049 
L 505.382292 145.294929 
L 506.60341 144.868966 
L 507.213969 144.357809 
L 507.824528 144.272617 
L 509.045646 143.378093 
L 510.266764 142.781744 
L 510.877323 142.526166 
L 511.487882 141.929817 
L 515.151236 140.609331 
L 516.982912 139.8 
L 518.814589 139.246247 
L 520.035707 139.075862 
L 520.646266 138.820284 
L 521.256825 138.735091 
L 522.477943 138.223935 
L 523.088502 138.181339 
L 525.530738 137.286815 
L 527.362415 136.051521 
L 527.972973 135.795943 
L 529.194091 135.156998 
L 529.80465 134.944016 
L 532.246886 133.49574 
L 532.857445 133.112373 
L 534.078563 132.814199 
L 535.91024 131.791886 
L 537.741917 131.195538 
L 538.352476 130.939959 
L 539.573594 130.641785 
L 542.626388 129.662069 
L 544.458065 129.363895 
L 546.900301 128.59716 
L 547.51086 128.341582 
L 548.121419 128.256389 
L 548.731978 127.958215 
L 549.953096 127.702637 
L 551.174214 127.276673 
L 551.784772 127.063692 
L 553.00589 126.935903 
L 554.227008 126.637728 
L 556.058685 126.339554 
L 556.669244 126.126572 
L 557.890362 125.998783 
L 560.943157 125.232049 
L 562.164275 124.933874 
L 562.774834 124.593103 
L 565.827628 123.826369 
L 566.438187 123.69858 
L 567.659305 123.272617 
L 569.490982 122.633671 
L 570.101541 122.548479 
L 571.933218 121.909533 
L 572.543777 121.909533 
L 573.764895 121.48357 
L 574.375454 120.887221 
L 574.986013 120.589047 
L 576.20713 120.20568 
L 578.649366 119.26856 
L 579.259925 119.140771 
L 579.870484 118.757404 
L 580.481043 118.629615 
L 581.091602 118.288844 
L 584.144397 117.39432 
L 584.754956 117.010953 
L 585.365515 116.883164 
L 585.976074 116.372008 
L 587.807751 116.031237 
L 589.028868 115.349696 
L 589.639427 114.668154 
L 590.860545 114.412576 
L 595.134458 113.43286 
L 595.745017 113.262475 
L 596.966135 113.219878 
L 597.576694 112.921704 
L 600.01893 112.49574 
L 600.629488 112.240162 
L 602.461165 111.984584 
L 604.903401 111.21785 
L 606.735078 110.791886 
L 608.566755 110.323327 
L 610.398432 109.769574 
L 613.451226 108.875051 
L 614.061785 108.53428 
L 615.893462 107.895335 
L 616.504021 107.426775 
L 617.725139 107.086004 
L 618.335698 106.830426 
L 619.556816 106.489655 
L 621.999052 105.38215 
L 623.830729 105.254361 
L 626.272964 104.572819 
L 626.883523 104.189452 
L 628.104641 103.848682 
L 629.936318 102.911562 
L 630.546877 102.783773 
L 631.157436 102.485598 
L 631.767995 102.443002 
L 638.484143 100.185396 
L 640.926379 99.589047 
L 641.536938 99.418661 
L 642.758056 98.864909 
L 643.368615 98.779716 
L 644.589733 98.438945 
L 645.200292 97.970385 
L 645.810851 97.672211 
L 646.42141 96.948073 
L 647.031969 96.52211 
L 648.253087 96.138742 
L 648.863645 95.670183 
L 655.579794 92.90142 
L 656.800912 92.603245 
L 658.632589 91.751318 
L 659.853707 91.027181 
L 660.464266 90.899391 
L 661.074824 90.430832 
L 662.295942 89.834483 
L 663.51706 89.067748 
L 665.348737 88.215822 
L 665.959296 87.789858 
L 667.180414 87.363895 
L 668.401532 86.639757 
L 669.012091 86.384178 
L 669.62265 85.958215 
L 670.843768 85.532252 
L 671.454327 85.404462 
L 673.896562 84.296957 
L 676.949357 83.232049 
L 677.559916 83.189452 
L 678.170475 83.019067 
L 678.781034 82.6357 
L 679.391593 82.550507 
L 680.002152 82.337525 
L 681.833829 81.996755 
L 685.497182 80.122515 
L 686.107741 79.781744 
L 686.7183 79.696552 
L 688.549977 78.716836 
L 690.381654 78.035294 
L 692.213331 77.225963 
L 694.655567 76.246247 
L 695.266126 76.075862 
L 695.876685 75.692495 
L 697.097802 75.52211 
L 697.708361 75.138742 
L 698.31892 75.096146 
L 699.540038 74.712779 
L 700.761156 74.11643 
L 701.371715 74.031237 
L 701.982274 73.775659 
L 702.592833 73.64787 
L 704.42451 72.83854 
L 705.035069 72.710751 
L 705.645628 72.455172 
L 708.698423 71.731034 
L 710.530099 71.049493 
L 712.972335 69.643813 
L 714.193453 69.175254 
L 714.804012 68.791886 
L 716.02513 68.536308 
L 716.635689 68.195538 
L 717.246248 68.067748 
L 718.467366 67.386207 
L 722.130719 65.682353 
L 723.962396 65.086004 
L 725.183514 64.660041 
L 725.794073 64.447059 
L 727.015191 63.808114 
L 728.236309 63.424746 
L 728.846868 63.296957 
L 731.289104 62.146856 
L 731.899663 62.061663 
L 732.510222 61.848682 
L 734.341898 60.826369 
L 742.279165 57.503854 
L 742.889724 57.07789 
L 745.33196 56.26856 
L 745.942518 56.26856 
L 747.163636 55.8 
L 747.163636 55.8 
" clip-path="url(#paf65b735ac)" style="fill: none; stroke: #1f77b4; stroke-width: 1.5; stroke-linecap: square"/>
   </g>
   <g id="line2d_36">
    <path d="M 139.046923 307.8 
L 140.878599 307.714807 
L 142.710276 307.672211 
L 146.37363 307.587018 
L 149.426425 307.459229 
L 151.868661 307.459229 
L 152.479219 307.288844 
L 154.921455 307.203651 
L 156.753132 306.990669 
L 158.584809 306.820284 
L 162.248163 306.649899 
L 162.858722 306.649899 
L 163.469281 306.52211 
L 165.911516 306.436917 
L 167.132634 306.351724 
L 172.017106 306.266531 
L 175.069901 306.138742 
L 182.396608 306.05355 
L 185.449403 305.925761 
L 189.112756 305.840568 
L 191.554992 305.755375 
L 197.050023 305.670183 
L 198.8817 305.627586 
L 200.713376 305.58499 
L 202.545053 305.372008 
L 206.208407 305.329412 
L 207.429525 305.244219 
L 211.703438 305.159026 
L 218.419586 304.775659 
L 222.693499 304.690467 
L 223.914617 304.605274 
L 225.746293 304.520081 
L 229.409647 304.349696 
L 231.851883 304.307099 
L 233.68356 304.136714 
L 243.452503 303.540365 
L 245.894739 303.455172 
L 250.168651 303.242191 
L 252.000328 303.156998 
L 258.105918 302.816227 
L 264.822066 302.731034 
L 267.264302 302.475456 
L 268.48542 302.390264 
L 276.422686 301.751318 
L 280.08604 301.282759 
L 282.528276 301.197566 
L 287.412747 300.558621 
L 291.076101 300.473428 
L 292.907778 300.303043 
L 294.128896 300.260446 
L 295.350014 300.132657 
L 297.181691 300.047465 
L 298.402808 299.877079 
L 301.455603 299.536308 
L 303.897839 299.451116 
L 305.118957 299.365923 
L 307.561193 299.28073 
L 308.782311 299.195538 
L 311.835105 298.897363 
L 312.445664 298.726978 
L 316.109018 298.556592 
L 319.161813 298.4714 
L 327.099079 298.00284 
L 328.930756 297.917647 
L 336.868022 297.449087 
L 341.141935 297.363895 
L 341.752494 297.236105 
L 346.636965 297.150913 
L 350.910878 296.937931 
L 357.627027 296.852738 
L 361.900939 296.639757 
L 366.785411 296.554564 
L 371.669882 296.298986 
L 375.943795 296.213793 
L 387.544415 295.489655 
L 392.428887 295.404462 
L 408.303419 294.38215 
L 411.966773 294.296957 
L 413.79845 294.254361 
L 415.630127 294.211765 
L 417.461804 294.041379 
L 422.346275 293.956187 
L 423.567393 293.743205 
L 424.788511 293.658012 
L 427.841306 293.530223 
L 429.062424 293.44503 
L 430.283542 293.359838 
L 435.778572 293.274645 
L 436.99969 293.146856 
L 439.441926 293.10426 
L 440.052485 292.976471 
L 441.273603 292.891278 
L 441.884162 292.763489 
L 443.715838 292.678296 
L 454.095341 292.039351 
L 455.927017 291.954158 
L 458.979812 291.826369 
L 467.527637 291.741176 
L 471.80155 291.528195 
L 476.686022 291.443002 
L 479.128257 291.357809 
L 481.570493 291.315213 
L 482.791611 291.187424 
L 485.233847 291.102231 
L 491.339436 290.76146 
L 495.00279 290.718864 
L 496.834467 290.548479 
L 498.666144 290.505882 
L 502.940057 290.42069 
L 505.382292 290.335497 
L 512.709 290.250304 
L 515.761794 290.122515 
L 519.425148 290.037323 
L 521.256825 289.824341 
L 524.920179 289.781744 
L 526.751856 289.611359 
L 529.194091 289.526166 
L 536.520799 289.440974 
L 539.573594 289.313185 
L 549.953096 289.270588 
L 551.174214 289.185396 
L 553.00589 289.142799 
L 560.943157 289.057606 
L 562.164275 288.972414 
L 568.880423 288.887221 
L 571.322659 288.802028 
L 578.649366 288.759432 
L 579.870484 288.674239 
L 589.028868 288.631643 
L 590.860545 288.461258 
L 606.124519 288.376065 
L 607.956196 288.333469 
L 624.441287 288.248276 
L 626.883523 288.163083 
L 637.263025 288.07789 
L 638.484143 287.992698 
L 641.536938 287.907505 
L 643.368615 287.73712 
L 646.42141 287.651927 
L 648.863645 287.566734 
L 652.526999 287.481542 
L 654.358676 287.438945 
L 656.800912 287.353753 
L 658.632589 287.311156 
L 661.685383 287.225963 
L 662.906501 287.140771 
L 666.569855 287.055578 
L 669.62265 286.927789 
L 670.843768 286.885193 
L 672.064886 286.8 
L 673.896562 286.757404 
L 676.338798 286.672211 
L 678.781034 286.587018 
L 686.7183 286.501826 
L 689.160536 286.416633 
L 694.045008 286.33144 
L 698.31892 286.118458 
L 703.813951 286.033266 
L 705.035069 285.948073 
L 716.02513 285.86288 
L 717.856807 285.820284 
L 720.909602 285.777688 
L 723.351837 285.52211 
L 725.183514 285.479513 
L 728.846868 285.39432 
L 735.563016 285.010953 
L 738.005252 284.925761 
L 740.447488 284.840568 
L 744.110842 284.755375 
L 745.33196 284.670183 
L 747.163636 284.670183 
L 747.163636 284.670183 
" clip-path="url(#paf65b735ac)" style="fill: none; stroke: #ff7f0e; stroke-width: 1.5; stroke-linecap: square"/>
   </g>
   <g id="patch_3">
    <path d="M 108 320.4 
L 108 43.2 
" style="fill: none; stroke: #a9a9a9; stroke-width: 0.8; stroke-linejoin: miter; stroke-linecap: square"/>
   </g>
   <g id="patch_4">
    <path d="M 777.6 320.4 
L 777.6 43.2 
" style="fill: none"/>
   </g>
   <g id="patch_5">
    <path d="M 108 320.4 
L 777.6 320.4 
" style="fill: none; stroke: #a9a9a9; stroke-width: 0.8; stroke-linejoin: miter; stroke-linecap: square"/>
   </g>
   <g id="patch_6">
    <path d="M 108 43.2 
L 777.6 43.2 
" style="fill: none"/>
   </g>
   <g id="text_18">
    <!-- get_subscribe history -->
    <g style="fill: #a9a9a9" transform="translate(378.6075 37.2) scale(0.12 -0.12)">
     <defs>
      <path id="DejaVuSans-67" d="M 2906 1791 
Q 2906 2416 2648 2759 
Q 2391 3103 1925 3103 
Q 1463 3103 1205 2759 
Q 947 2416 947 1791 
Q 947 1169 1205 825 
Q 1463 481 1925 481 
Q 2391 481 2648 825 
Q 2906 1169 2906 1791 
z
M 3481 434 
Q 3481 -459 3084 -895 
Q 2688 -1331 1869 -1331 
Q 1566 -1331 1297 -1286 
Q 1028 -1241 775 -1147 
L 775 -588 
Q 1028 -725 1275 -790 
Q 1522 -856 1778 -856 
Q 2344 -856 2625 -561 
Q 2906 -266 2906 331 
L 2906 616 
Q 2728 306 2450 153 
Q 2172 0 1784 0 
Q 1141 0 747 490 
Q 353 981 353 1791 
Q 353 2603 747 3093 
Q 1141 3584 1784 3584 
Q 2172 3584 2450 3431 
Q 2728 3278 2906 2969 
L 2906 3500 
L 3481 3500 
L 3481 434 
z
" transform="scale(0.015625)"/>
      <path id="DejaVuSans-65" d="M 3597 1894 
L 3597 1613 
L 953 1613 
Q 991 1019 1311 708 
Q 1631 397 2203 397 
Q 2534 397 2845 478 
Q 3156 559 3463 722 
L 3463 178 
Q 3153 47 2828 -22 
Q 2503 -91 2169 -91 
Q 1331 -91 842 396 
Q 353 884 353 1716 
Q 353 2575 817 3079 
Q 1281 3584 2069 3584 
Q 2775 3584 3186 3129 
Q 3597 2675 3597 1894 
z
M 3022 2063 
Q 3016 2534 2758 2815 
Q 2500 3097 2075 3097 
Q 1594 3097 1305 2825 
Q 1016 2553 972 2059 
L 3022 2063 
z
" transform="scale(0.015625)"/>
      <path id="DejaVuSans-74" d="M 1172 4494 
L 1172 3500 
L 2356 3500 
L 2356 3053 
L 1172 3053 
L 1172 1153 
Q 1172 725 1289 603 
Q 1406 481 1766 481 
L 2356 481 
L 2356 0 
L 1766 0 
Q 1100 0 847 248 
Q 594 497 594 1153 
L 594 3053 
L 172 3053 
L 172 3500 
L 594 3500 
L 594 4494 
L 1172 4494 
z
" transform="scale(0.015625)"/>
      <path id="DejaVuSans-5f" d="M 3263 -1063 
L 3263 -1509 
L -63 -1509 
L -63 -1063 
L 3263 -1063 
z
" transform="scale(0.015625)"/>
      <path id="DejaVuSans-73" d="M 2834 3397 
L 2834 2853 
Q 2591 2978 2328 3040 
Q 2066 3103 1784 3103 
Q 1356 3103 1142 2972 
Q 928 2841 928 2578 
Q 928 2378 1081 2264 
Q 1234 2150 1697 2047 
L 1894 2003 
Q 2506 1872 2764 1633 
Q 3022 1394 3022 966 
Q 3022 478 2636 193 
Q 2250 -91 1575 -91 
Q 1294 -91 989 -36 
Q 684 19 347 128 
L 347 722 
Q 666 556 975 473 
Q 1284 391 1588 391 
Q 1994 391 2212 530 
Q 2431 669 2431 922 
Q 2431 1156 2273 1281 
Q 2116 1406 1581 1522 
L 1381 1569 
Q 847 1681 609 1914 
Q 372 2147 372 2553 
Q 372 3047 722 3315 
Q 1072 3584 1716 3584 
Q 2034 3584 2315 3537 
Q 2597 3491 2834 3397 
z
" transform="scale(0.015625)"/>
      <path id="DejaVuSans-75" d="M 544 1381 
L 544 3500 
L 1119 3500 
L 1119 1403 
Q 1119 906 1312 657 
Q 1506 409 1894 409 
Q 2359 409 2629 706 
Q 2900 1003 2900 1516 
L 2900 3500 
L 3475 3500 
L 3475 0 
L 2900 0 
L 2900 538 
Q 2691 219 2414 64 
Q 2138 -91 1772 -91 
Q 1169 -91 856 284 
Q 544 659 544 1381 
z
M 1991 3584 
L 1991 3584 
z
" transform="scale(0.015625)"/>
      <path id="DejaVuSans-62" d="M 3116 1747 
Q 3116 2381 2855 2742 
Q 2594 3103 2138 3103 
Q 1681 3103 1420 2742 
Q 1159 2381 1159 1747 
Q 1159 1113 1420 752 
Q 1681 391 2138 391 
Q 2594 391 2855 752 
Q 3116 1113 3116 1747 
z
M 1159 2969 
Q 1341 3281 1617 3432 
Q 1894 3584 2278 3584 
Q 2916 3584 3314 3078 
Q 3713 2572 3713 1747 
Q 3713 922 3314 415 
Q 2916 -91 2278 -91 
Q 1894 -91 1617 61 
Q 1341 213 1159 525 
L 1159 0 
L 581 0 
L 581 4863 
L 1159 4863 
L 1159 2969 
z
" transform="scale(0.015625)"/>
      <path id="DejaVuSans-63" d="M 3122 3366 
L 3122 2828 
Q 2878 2963 2633 3030 
Q 2388 3097 2138 3097 
Q 1578 3097 1268 2742 
Q 959 2388 959 1747 
Q 959 1106 1268 751 
Q 1578 397 2138 397 
Q 2388 397 2633 464 
Q 2878 531 3122 666 
L 3122 134 
Q 2881 22 2623 -34 
Q 2366 -91 2075 -91 
Q 1284 -91 818 406 
Q 353 903 353 1747 
Q 353 2603 823 3093 
Q 1294 3584 2113 3584 
Q 2378 3584 2631 3529 
Q 2884 3475 3122 3366 
z
" transform="scale(0.015625)"/>
      <path id="DejaVuSans-72" d="M 2631 2963 
Q 2534 3019 2420 3045 
Q 2306 3072 2169 3072 
Q 1681 3072 1420 2755 
Q 1159 2438 1159 1844 
L 1159 0 
L 581 0 
L 581 3500 
L 1159 3500 
L 1159 2956 
Q 1341 3275 1631 3429 
Q 1922 3584 2338 3584 
Q 2397 3584 2469 3576 
Q 2541 3569 2628 3553 
L 2631 2963 
z
" transform="scale(0.015625)"/>
      <path id="DejaVuSans-69" d="M 603 3500 
L 1178 3500 
L 1178 0 
L 603 0 
L 603 3500 
z
M 603 4863 
L 1178 4863 
L 1178 4134 
L 603 4134 
L 603 4863 
z
" transform="scale(0.015625)"/>
      <path id="DejaVuSans-20" transform="scale(0.015625)"/>
      <path id="DejaVuSans-68" d="M 3513 2113 
L 3513 0 
L 2938 0 
L 2938 2094 
Q 2938 2591 2744 2837 
Q 2550 3084 2163 3084 
Q 1697 3084 1428 2787 
Q 1159 2491 1159 1978 
L 1159 0 
L 581 0 
L 581 4863 
L 1159 4863 
L 1159 2956 
Q 1366 3272 1645 3428 
Q 1925 3584 2291 3584 
Q 2894 3584 3203 3211 
Q 3513 2838 3513 2113 
z
" transform="scale(0.015625)"/>
      <path id="DejaVuSans-6f" d="M 1959 3097 
Q 1497 3097 1228 2736 
Q 959 2375 959 1747 
Q 959 1119 1226 758 
Q 1494 397 1959 397 
Q 2419 397 2687 759 
Q 2956 1122 2956 1747 
Q 2956 2369 2687 2733 
Q 2419 3097 1959 3097 
z
M 1959 3584 
Q 2709 3584 3137 3096 
Q 3566 2609 3566 1747 
Q 3566 888 3137 398 
Q 2709 -91 1959 -91 
Q 1206 -91 779 398 
Q 353 888 353 1747 
Q 353 2609 779 3096 
Q 1206 3584 1959 3584 
z
" transform="scale(0.015625)"/>
      <path id="DejaVuSans-79" d="M 2059 -325 
Q 1816 -950 1584 -1140 
Q 1353 -1331 966 -1331 
L 506 -1331 
L 506 -850 
L 844 -850 
Q 1081 -850 1212 -737 
Q 1344 -625 1503 -206 
L 1606 56 
L 191 3500 
L 800 3500 
L 1894 763 
L 2988 3500 
L 3597 3500 
L 2059 -325 
z
" transform="scale(0.015625)"/>
     </defs>
     <use xlink:href="#DejaVuSans-67"/>
     <use xlink:href="#DejaVuSans-65" x="63.476562"/>
     <use xlink:href="#DejaVuSans-74" x="125"/>
     <use xlink:href="#DejaVuSans-5f" x="164.208984"/>
     <use xlink:href="#DejaVuSans-73" x="214.208984"/>
     <use xlink:href="#DejaVuSans-75" x="266.308594"/>
     <use xlink:href="#DejaVuSans-62" x="329.6875"/>
     <use xlink:href="#DejaVuSans-73" x="393.164062"/>
     <use xlink:href="#DejaVuSans-63" x="445.263672"/>
     <use xlink:href="#DejaVuSans-72" x="500.244141"/>
     <use xlink:href="#DejaVuSans-69" x="541.357422"/>
     <use xlink:href="#DejaVuSans-62" x="569.140625"/>
     <use xlink:href="#DejaVuSans-65" x="632.617188"/>
     <use xlink:href="#DejaVuSans-20" x="694.140625"/>
     <use xlink:href="#DejaVuSans-68" x="725.927734"/>
     <use xlink:href="#DejaVuSans-69" x="789.306641"/>
     <use xlink:href="#DejaVuSans-73" x="817.089844"/>
     <use xlink:href="#DejaVuSans-74" x="869.189453"/>
     <use xlink:href="#DejaVuSans-6f" x="908.398438"/>
     <use xlink:href="#DejaVuSans-72" x="969.580078"/>
     <use xlink:href="#DejaVuSans-79" x="1010.693359"/>
    </g>
   </g>
   <g id="legend_1">
    <g id="line2d_37">
     <path d="M 815.08 328.498438 
L 825.08 328.498438 
L 835.08 328.498438 
" style="fill: none; stroke: #1f77b4; stroke-width: 1.5; stroke-linecap: square"/>
    </g>
    <g id="text_19">
     <!-- star -->
     <g style="fill: #a9a9a9" transform="translate(843.08 331.998438) scale(0.1 -0.1)">
      <defs>
       <path id="DejaVuSans-61" d="M 2194 1759 
Q 1497 1759 1228 1600 
Q 959 1441 959 1056 
Q 959 750 1161 570 
Q 1363 391 1709 391 
Q 2188 391 2477 730 
Q 2766 1069 2766 1631 
L 2766 1759 
L 2194 1759 
z
M 3341 1997 
L 3341 0 
L 2766 0 
L 2766 531 
Q 2569 213 2275 61 
Q 1981 -91 1556 -91 
Q 1019 -91 701 211 
Q 384 513 384 1019 
Q 384 1609 779 1909 
Q 1175 2209 1959 2209 
L 2766 2209 
L 2766 2266 
Q 2766 2663 2505 2880 
Q 2244 3097 1772 3097 
Q 1472 3097 1187 3025 
Q 903 2953 641 2809 
L 641 3341 
Q 956 3463 1253 3523 
Q 1550 3584 1831 3584 
Q 2591 3584 2966 3190 
Q 3341 2797 3341 1997 
z
" transform="scale(0.015625)"/>
      </defs>
      <use xlink:href="#DejaVuSans-73"/>
      <use xlink:href="#DejaVuSans-74" x="52.099609"/>
      <use xlink:href="#DejaVuSans-61" x="91.308594"/>
      <use xlink:href="#DejaVuSans-72" x="152.587891"/>
     </g>
    </g>
    <g id="line2d_38">
     <path d="M 815.08 343.176562 
L 825.08 343.176562 
L 835.08 343.176562 
" style="fill: none; stroke: #ff7f0e; stroke-width: 1.5; stroke-linecap: square"/>
    </g>
    <g id="text_20">
     <!-- fork -->
     <g style="fill: #a9a9a9" transform="translate(843.08 346.676562) scale(0.1 -0.1)">
      <defs>
       <path id="DejaVuSans-66" d="M 2375 4863 
L 2375 4384 
L 1825 4384 
Q 1516 4384 1395 4259 
Q 1275 4134 1275 3809 
L 1275 3500 
L 2222 3500 
L 2222 3053 
L 1275 3053 
L 1275 0 
L 697 0 
L 697 3053 
L 147 3053 
L 147 3500 
L 697 3500 
L 697 3744 
Q 697 4328 969 4595 
Q 1241 4863 1831 4863 
L 2375 4863 
z
" transform="scale(0.015625)"/>
       <path id="DejaVuSans-6b" d="M 581 4863 
L 1159 4863 
L 1159 1991 
L 2875 3500 
L 3609 3500 
L 1753 1863 
L 3688 0 
L 2938 0 
L 1159 1709 
L 1159 0 
L 581 0 
L 581 4863 
z
" transform="scale(0.015625)"/>
      </defs>
      <use xlink:href="#DejaVuSans-66"/>
      <use xlink:href="#DejaVuSans-6f" x="35.205078"/>
      <use xlink:href="#DejaVuSans-72" x="96.386719"/>
      <use xlink:href="#DejaVuSans-6b" x="137.5"/>
     </g>
    </g>
   </g>
  </g>
 </g>
 <defs>
  <clipPath id="paf65b735ac">
   <rect x="108" y="43.2" width="669.6" height="277.2"/>
  </clipPath>
 </defs>
</svg>
