<?xml version="1.0" encoding="utf-8" standalone="no"?>
<!DOCTYPE svg PUBLIC "-//W3C//DTD SVG 1.1//EN"
  "http://www.w3.org/Graphics/SVG/1.1/DTD/svg11.dtd">
<svg xmlns:xlink="http://www.w3.org/1999/xlink" width="864pt" height="360pt" viewBox="0 0 864 360" xmlns="http://www.w3.org/2000/svg" version="1.1">
 <metadata>
  <rdf:RDF xmlns:dc="http://purl.org/dc/elements/1.1/" xmlns:cc="http://creativecommons.org/ns#" xmlns:rdf="http://www.w3.org/1999/02/22-rdf-syntax-ns#">
   <cc:Work>
    <dc:type rdf:resource="http://purl.org/dc/dcmitype/StillImage"/>
    <dc:date>2024-04-15T10:29:02.826515</dc:date>
    <dc:format>image/svg+xml</dc:format>
    <dc:creator>
     <cc:Agent>
      <dc:title>Matplotlib v3.8.4, https://matplotlib.org/</dc:title>
     </cc:Agent>
    </dc:creator>
   </cc:Work>
  </rdf:RDF>
 </metadata>
 <defs>
  <style type="text/css">*{stroke-linejoin: round; stroke-linecap: butt}</style>
 </defs>
 <g id="figure_1">
  <g id="patch_1">
   <path d="M 0 360 
L 864 360 
L 864 0 
L 0 0 
L 0 360 
z
" style="fill: none; opacity: 0"/>
  </g>
  <g id="axes_1">
   <g id="patch_2">
    <path d="M 108 320.4 
L 777.6 320.4 
L 777.6 43.2 
L 108 43.2 
L 108 320.4 
z
" style="fill: none; opacity: 0"/>
   </g>
   <g id="matplotlib.axis_1">
    <g id="xtick_1">
     <g id="line2d_1">
      <path d="M 162.27207 320.4 
L 162.27207 43.2 
" clip-path="url(#p82370dc0e6)" style="fill: none; stroke-dasharray: 5.12,1.28,0.8,1.28; stroke-dashoffset: 0; stroke: #b0b0b0; stroke-width: 0.8"/>
     </g>
     <g id="line2d_2">
      <defs>
       <path id="m6e9af9948c" d="M 0 0 
L 0 3.5 
" style="stroke: #a9a9a9; stroke-width: 0.8"/>
      </defs>
      <g>
       <use xlink:href="#m6e9af9948c" x="162.27207" y="320.4" style="fill: #a9a9a9; stroke: #a9a9a9; stroke-width: 0.8"/>
      </g>
     </g>
     <g id="text_1">
      <!-- 2021-09 -->
      <g style="fill: #a9a9a9" transform="translate(141.380664 334.998438) scale(0.1 -0.1)">
       <defs>
        <path id="DejaVuSans-32" d="M 1228 531 
L 3431 531 
L 3431 0 
L 469 0 
L 469 531 
Q 828 903 1448 1529 
Q 2069 2156 2228 2338 
Q 2531 2678 2651 2914 
Q 2772 3150 2772 3378 
Q 2772 3750 2511 3984 
Q 2250 4219 1831 4219 
Q 1534 4219 1204 4116 
Q 875 4013 500 3803 
L 500 4441 
Q 881 4594 1212 4672 
Q 1544 4750 1819 4750 
Q 2544 4750 2975 4387 
Q 3406 4025 3406 3419 
Q 3406 3131 3298 2873 
Q 3191 2616 2906 2266 
Q 2828 2175 2409 1742 
Q 1991 1309 1228 531 
z
" transform="scale(0.015625)"/>
        <path id="DejaVuSans-30" d="M 2034 4250 
Q 1547 4250 1301 3770 
Q 1056 3291 1056 2328 
Q 1056 1369 1301 889 
Q 1547 409 2034 409 
Q 2525 409 2770 889 
Q 3016 1369 3016 2328 
Q 3016 3291 2770 3770 
Q 2525 4250 2034 4250 
z
M 2034 4750 
Q 2819 4750 3233 4129 
Q 3647 3509 3647 2328 
Q 3647 1150 3233 529 
Q 2819 -91 2034 -91 
Q 1250 -91 836 529 
Q 422 1150 422 2328 
Q 422 3509 836 4129 
Q 1250 4750 2034 4750 
z
" transform="scale(0.015625)"/>
        <path id="DejaVuSans-31" d="M 794 531 
L 1825 531 
L 1825 4091 
L 703 3866 
L 703 4441 
L 1819 4666 
L 2450 4666 
L 2450 531 
L 3481 531 
L 3481 0 
L 794 0 
L 794 531 
z
" transform="scale(0.015625)"/>
        <path id="DejaVuSans-2d" d="M 313 2009 
L 1997 2009 
L 1997 1497 
L 313 1497 
L 313 2009 
z
" transform="scale(0.015625)"/>
        <path id="DejaVuSans-39" d="M 703 97 
L 703 672 
Q 941 559 1184 500 
Q 1428 441 1663 441 
Q 2288 441 2617 861 
Q 2947 1281 2994 2138 
Q 2813 1869 2534 1725 
Q 2256 1581 1919 1581 
Q 1219 1581 811 2004 
Q 403 2428 403 3163 
Q 403 3881 828 4315 
Q 1253 4750 1959 4750 
Q 2769 4750 3195 4129 
Q 3622 3509 3622 2328 
Q 3622 1225 3098 567 
Q 2575 -91 1691 -91 
Q 1453 -91 1209 -44 
Q 966 3 703 97 
z
M 1959 2075 
Q 2384 2075 2632 2365 
Q 2881 2656 2881 3163 
Q 2881 3666 2632 3958 
Q 2384 4250 1959 4250 
Q 1534 4250 1286 3958 
Q 1038 3666 1038 3163 
Q 1038 2656 1286 2365 
Q 1534 2075 1959 2075 
z
" transform="scale(0.015625)"/>
       </defs>
       <use xlink:href="#DejaVuSans-32"/>
       <use xlink:href="#DejaVuSans-30" x="63.623047"/>
       <use xlink:href="#DejaVuSans-32" x="127.246094"/>
       <use xlink:href="#DejaVuSans-31" x="190.869141"/>
       <use xlink:href="#DejaVuSans-2d" x="254.492188"/>
       <use xlink:href="#DejaVuSans-30" x="290.576172"/>
       <use xlink:href="#DejaVuSans-39" x="354.199219"/>
      </g>
     </g>
    </g>
    <g id="xtick_2">
     <g id="line2d_3">
      <path d="M 236.835049 320.4 
L 236.835049 43.2 
" clip-path="url(#p82370dc0e6)" style="fill: none; stroke-dasharray: 5.12,1.28,0.8,1.28; stroke-dashoffset: 0; stroke: #b0b0b0; stroke-width: 0.8"/>
     </g>
     <g id="line2d_4">
      <g>
       <use xlink:href="#m6e9af9948c" x="236.835049" y="320.4" style="fill: #a9a9a9; stroke: #a9a9a9; stroke-width: 0.8"/>
      </g>
     </g>
     <g id="text_2">
      <!-- 2022-01 -->
      <g style="fill: #a9a9a9" transform="translate(215.943643 334.998438) scale(0.1 -0.1)">
       <use xlink:href="#DejaVuSans-32"/>
       <use xlink:href="#DejaVuSans-30" x="63.623047"/>
       <use xlink:href="#DejaVuSans-32" x="127.246094"/>
       <use xlink:href="#DejaVuSans-32" x="190.869141"/>
       <use xlink:href="#DejaVuSans-2d" x="254.492188"/>
       <use xlink:href="#DejaVuSans-30" x="290.576172"/>
       <use xlink:href="#DejaVuSans-31" x="354.199219"/>
      </g>
     </g>
    </g>
    <g id="xtick_3">
     <g id="line2d_5">
      <path d="M 310.175685 320.4 
L 310.175685 43.2 
" clip-path="url(#p82370dc0e6)" style="fill: none; stroke-dasharray: 5.12,1.28,0.8,1.28; stroke-dashoffset: 0; stroke: #b0b0b0; stroke-width: 0.8"/>
     </g>
     <g id="line2d_6">
      <g>
       <use xlink:href="#m6e9af9948c" x="310.175685" y="320.4" style="fill: #a9a9a9; stroke: #a9a9a9; stroke-width: 0.8"/>
      </g>
     </g>
     <g id="text_3">
      <!-- 2022-05 -->
      <g style="fill: #a9a9a9" transform="translate(289.284278 334.998438) scale(0.1 -0.1)">
       <defs>
        <path id="DejaVuSans-35" d="M 691 4666 
L 3169 4666 
L 3169 4134 
L 1269 4134 
L 1269 2991 
Q 1406 3038 1543 3061 
Q 1681 3084 1819 3084 
Q 2600 3084 3056 2656 
Q 3513 2228 3513 1497 
Q 3513 744 3044 326 
Q 2575 -91 1722 -91 
Q 1428 -91 1123 -41 
Q 819 9 494 109 
L 494 744 
Q 775 591 1075 516 
Q 1375 441 1709 441 
Q 2250 441 2565 725 
Q 2881 1009 2881 1497 
Q 2881 1984 2565 2268 
Q 2250 2553 1709 2553 
Q 1456 2553 1204 2497 
Q 953 2441 691 2322 
L 691 4666 
z
" transform="scale(0.015625)"/>
       </defs>
       <use xlink:href="#DejaVuSans-32"/>
       <use xlink:href="#DejaVuSans-30" x="63.623047"/>
       <use xlink:href="#DejaVuSans-32" x="127.246094"/>
       <use xlink:href="#DejaVuSans-32" x="190.869141"/>
       <use xlink:href="#DejaVuSans-2d" x="254.492188"/>
       <use xlink:href="#DejaVuSans-30" x="290.576172"/>
       <use xlink:href="#DejaVuSans-35" x="354.199219"/>
      </g>
     </g>
    </g>
    <g id="xtick_4">
     <g id="line2d_7">
      <path d="M 385.349836 320.4 
L 385.349836 43.2 
" clip-path="url(#p82370dc0e6)" style="fill: none; stroke-dasharray: 5.12,1.28,0.8,1.28; stroke-dashoffset: 0; stroke: #b0b0b0; stroke-width: 0.8"/>
     </g>
     <g id="line2d_8">
      <g>
       <use xlink:href="#m6e9af9948c" x="385.349836" y="320.4" style="fill: #a9a9a9; stroke: #a9a9a9; stroke-width: 0.8"/>
      </g>
     </g>
     <g id="text_4">
      <!-- 2022-09 -->
      <g style="fill: #a9a9a9" transform="translate(364.458429 334.998438) scale(0.1 -0.1)">
       <use xlink:href="#DejaVuSans-32"/>
       <use xlink:href="#DejaVuSans-30" x="63.623047"/>
       <use xlink:href="#DejaVuSans-32" x="127.246094"/>
       <use xlink:href="#DejaVuSans-32" x="190.869141"/>
       <use xlink:href="#DejaVuSans-2d" x="254.492188"/>
       <use xlink:href="#DejaVuSans-30" x="290.576172"/>
       <use xlink:href="#DejaVuSans-39" x="354.199219"/>
      </g>
     </g>
    </g>
    <g id="xtick_5">
     <g id="line2d_9">
      <path d="M 459.912815 320.4 
L 459.912815 43.2 
" clip-path="url(#p82370dc0e6)" style="fill: none; stroke-dasharray: 5.12,1.28,0.8,1.28; stroke-dashoffset: 0; stroke: #b0b0b0; stroke-width: 0.8"/>
     </g>
     <g id="line2d_10">
      <g>
       <use xlink:href="#m6e9af9948c" x="459.912815" y="320.4" style="fill: #a9a9a9; stroke: #a9a9a9; stroke-width: 0.8"/>
      </g>
     </g>
     <g id="text_5">
      <!-- 2023-01 -->
      <g style="fill: #a9a9a9" transform="translate(439.021409 334.998438) scale(0.1 -0.1)">
       <defs>
        <path id="DejaVuSans-33" d="M 2597 2516 
Q 3050 2419 3304 2112 
Q 3559 1806 3559 1356 
Q 3559 666 3084 287 
Q 2609 -91 1734 -91 
Q 1441 -91 1130 -33 
Q 819 25 488 141 
L 488 750 
Q 750 597 1062 519 
Q 1375 441 1716 441 
Q 2309 441 2620 675 
Q 2931 909 2931 1356 
Q 2931 1769 2642 2001 
Q 2353 2234 1838 2234 
L 1294 2234 
L 1294 2753 
L 1863 2753 
Q 2328 2753 2575 2939 
Q 2822 3125 2822 3475 
Q 2822 3834 2567 4026 
Q 2313 4219 1838 4219 
Q 1578 4219 1281 4162 
Q 984 4106 628 3988 
L 628 4550 
Q 988 4650 1302 4700 
Q 1616 4750 1894 4750 
Q 2613 4750 3031 4423 
Q 3450 4097 3450 3541 
Q 3450 3153 3228 2886 
Q 3006 2619 2597 2516 
z
" transform="scale(0.015625)"/>
       </defs>
       <use xlink:href="#DejaVuSans-32"/>
       <use xlink:href="#DejaVuSans-30" x="63.623047"/>
       <use xlink:href="#DejaVuSans-32" x="127.246094"/>
       <use xlink:href="#DejaVuSans-33" x="190.869141"/>
       <use xlink:href="#DejaVuSans-2d" x="254.492188"/>
       <use xlink:href="#DejaVuSans-30" x="290.576172"/>
       <use xlink:href="#DejaVuSans-31" x="354.199219"/>
      </g>
     </g>
    </g>
    <g id="xtick_6">
     <g id="line2d_11">
      <path d="M 533.25345 320.4 
L 533.25345 43.2 
" clip-path="url(#p82370dc0e6)" style="fill: none; stroke-dasharray: 5.12,1.28,0.8,1.28; stroke-dashoffset: 0; stroke: #b0b0b0; stroke-width: 0.8"/>
     </g>
     <g id="line2d_12">
      <g>
       <use xlink:href="#m6e9af9948c" x="533.25345" y="320.4" style="fill: #a9a9a9; stroke: #a9a9a9; stroke-width: 0.8"/>
      </g>
     </g>
     <g id="text_6">
      <!-- 2023-05 -->
      <g style="fill: #a9a9a9" transform="translate(512.362044 334.998438) scale(0.1 -0.1)">
       <use xlink:href="#DejaVuSans-32"/>
       <use xlink:href="#DejaVuSans-30" x="63.623047"/>
       <use xlink:href="#DejaVuSans-32" x="127.246094"/>
       <use xlink:href="#DejaVuSans-33" x="190.869141"/>
       <use xlink:href="#DejaVuSans-2d" x="254.492188"/>
       <use xlink:href="#DejaVuSans-30" x="290.576172"/>
       <use xlink:href="#DejaVuSans-35" x="354.199219"/>
      </g>
     </g>
    </g>
    <g id="xtick_7">
     <g id="line2d_13">
      <path d="M 608.427601 320.4 
L 608.427601 43.2 
" clip-path="url(#p82370dc0e6)" style="fill: none; stroke-dasharray: 5.12,1.28,0.8,1.28; stroke-dashoffset: 0; stroke: #b0b0b0; stroke-width: 0.8"/>
     </g>
     <g id="line2d_14">
      <g>
       <use xlink:href="#m6e9af9948c" x="608.427601" y="320.4" style="fill: #a9a9a9; stroke: #a9a9a9; stroke-width: 0.8"/>
      </g>
     </g>
     <g id="text_7">
      <!-- 2023-09 -->
      <g style="fill: #a9a9a9" transform="translate(587.536195 334.998438) scale(0.1 -0.1)">
       <use xlink:href="#DejaVuSans-32"/>
       <use xlink:href="#DejaVuSans-30" x="63.623047"/>
       <use xlink:href="#DejaVuSans-32" x="127.246094"/>
       <use xlink:href="#DejaVuSans-33" x="190.869141"/>
       <use xlink:href="#DejaVuSans-2d" x="254.492188"/>
       <use xlink:href="#DejaVuSans-30" x="290.576172"/>
       <use xlink:href="#DejaVuSans-39" x="354.199219"/>
      </g>
     </g>
    </g>
    <g id="xtick_8">
     <g id="line2d_15">
      <path d="M 682.990581 320.4 
L 682.990581 43.2 
" clip-path="url(#p82370dc0e6)" style="fill: none; stroke-dasharray: 5.12,1.28,0.8,1.28; stroke-dashoffset: 0; stroke: #b0b0b0; stroke-width: 0.8"/>
     </g>
     <g id="line2d_16">
      <g>
       <use xlink:href="#m6e9af9948c" x="682.990581" y="320.4" style="fill: #a9a9a9; stroke: #a9a9a9; stroke-width: 0.8"/>
      </g>
     </g>
     <g id="text_8">
      <!-- 2024-01 -->
      <g style="fill: #a9a9a9" transform="translate(662.099174 334.998438) scale(0.1 -0.1)">
       <defs>
        <path id="DejaVuSans-34" d="M 2419 4116 
L 825 1625 
L 2419 1625 
L 2419 4116 
z
M 2253 4666 
L 3047 4666 
L 3047 1625 
L 3713 1625 
L 3713 1100 
L 3047 1100 
L 3047 0 
L 2419 0 
L 2419 1100 
L 313 1100 
L 313 1709 
L 2253 4666 
z
" transform="scale(0.015625)"/>
       </defs>
       <use xlink:href="#DejaVuSans-32"/>
       <use xlink:href="#DejaVuSans-30" x="63.623047"/>
       <use xlink:href="#DejaVuSans-32" x="127.246094"/>
       <use xlink:href="#DejaVuSans-34" x="190.869141"/>
       <use xlink:href="#DejaVuSans-2d" x="254.492188"/>
       <use xlink:href="#DejaVuSans-30" x="290.576172"/>
       <use xlink:href="#DejaVuSans-31" x="354.199219"/>
      </g>
     </g>
    </g>
    <g id="xtick_9">
     <g id="line2d_17">
      <path d="M 756.942388 320.4 
L 756.942388 43.2 
" clip-path="url(#p82370dc0e6)" style="fill: none; stroke-dasharray: 5.12,1.28,0.8,1.28; stroke-dashoffset: 0; stroke: #b0b0b0; stroke-width: 0.8"/>
     </g>
     <g id="line2d_18">
      <g>
       <use xlink:href="#m6e9af9948c" x="756.942388" y="320.4" style="fill: #a9a9a9; stroke: #a9a9a9; stroke-width: 0.8"/>
      </g>
     </g>
     <g id="text_9">
      <!-- 2024-05 -->
      <g style="fill: #a9a9a9" transform="translate(736.050981 334.998438) scale(0.1 -0.1)">
       <use xlink:href="#DejaVuSans-32"/>
       <use xlink:href="#DejaVuSans-30" x="63.623047"/>
       <use xlink:href="#DejaVuSans-32" x="127.246094"/>
       <use xlink:href="#DejaVuSans-34" x="190.869141"/>
       <use xlink:href="#DejaVuSans-2d" x="254.492188"/>
       <use xlink:href="#DejaVuSans-30" x="290.576172"/>
       <use xlink:href="#DejaVuSans-35" x="354.199219"/>
      </g>
     </g>
    </g>
   </g>
   <g id="matplotlib.axis_2">
    <g id="ytick_1">
     <g id="line2d_19">
      <path d="M 108 307.842661 
L 777.6 307.842661 
" clip-path="url(#p82370dc0e6)" style="fill: none; stroke-dasharray: 5.12,1.28,0.8,1.28; stroke-dashoffset: 0; stroke: #b0b0b0; stroke-width: 0.8"/>
     </g>
     <g id="line2d_20">
      <defs>
       <path id="mdb1f3003a7" d="M 0 0 
L -3.5 0 
" style="stroke: #a9a9a9; stroke-width: 0.8"/>
      </defs>
      <g>
       <use xlink:href="#mdb1f3003a7" x="108" y="307.842661" style="fill: #a9a9a9; stroke: #a9a9a9; stroke-width: 0.8"/>
      </g>
     </g>
     <g id="text_10">
      <!-- 0 -->
      <g style="fill: #a9a9a9" transform="translate(94.6375 311.64188) scale(0.1 -0.1)">
       <use xlink:href="#DejaVuSans-30"/>
      </g>
     </g>
    </g>
    <g id="ytick_2">
     <g id="line2d_21">
      <path d="M 108 273.713662 
L 777.6 273.713662 
" clip-path="url(#p82370dc0e6)" style="fill: none; stroke-dasharray: 5.12,1.28,0.8,1.28; stroke-dashoffset: 0; stroke: #b0b0b0; stroke-width: 0.8"/>
     </g>
     <g id="line2d_22">
      <g>
       <use xlink:href="#mdb1f3003a7" x="108" y="273.713662" style="fill: #a9a9a9; stroke: #a9a9a9; stroke-width: 0.8"/>
      </g>
     </g>
     <g id="text_11">
      <!-- 800 -->
      <g style="fill: #a9a9a9" transform="translate(81.9125 277.512881) scale(0.1 -0.1)">
       <defs>
        <path id="DejaVuSans-38" d="M 2034 2216 
Q 1584 2216 1326 1975 
Q 1069 1734 1069 1313 
Q 1069 891 1326 650 
Q 1584 409 2034 409 
Q 2484 409 2743 651 
Q 3003 894 3003 1313 
Q 3003 1734 2745 1975 
Q 2488 2216 2034 2216 
z
M 1403 2484 
Q 997 2584 770 2862 
Q 544 3141 544 3541 
Q 544 4100 942 4425 
Q 1341 4750 2034 4750 
Q 2731 4750 3128 4425 
Q 3525 4100 3525 3541 
Q 3525 3141 3298 2862 
Q 3072 2584 2669 2484 
Q 3125 2378 3379 2068 
Q 3634 1759 3634 1313 
Q 3634 634 3220 271 
Q 2806 -91 2034 -91 
Q 1263 -91 848 271 
Q 434 634 434 1313 
Q 434 1759 690 2068 
Q 947 2378 1403 2484 
z
M 1172 3481 
Q 1172 3119 1398 2916 
Q 1625 2713 2034 2713 
Q 2441 2713 2670 2916 
Q 2900 3119 2900 3481 
Q 2900 3844 2670 4047 
Q 2441 4250 2034 4250 
Q 1625 4250 1398 4047 
Q 1172 3844 1172 3481 
z
" transform="scale(0.015625)"/>
       </defs>
       <use xlink:href="#DejaVuSans-38"/>
       <use xlink:href="#DejaVuSans-30" x="63.623047"/>
       <use xlink:href="#DejaVuSans-30" x="127.246094"/>
      </g>
     </g>
    </g>
    <g id="ytick_3">
     <g id="line2d_23">
      <path d="M 108 239.584662 
L 777.6 239.584662 
" clip-path="url(#p82370dc0e6)" style="fill: none; stroke-dasharray: 5.12,1.28,0.8,1.28; stroke-dashoffset: 0; stroke: #b0b0b0; stroke-width: 0.8"/>
     </g>
     <g id="line2d_24">
      <g>
       <use xlink:href="#mdb1f3003a7" x="108" y="239.584662" style="fill: #a9a9a9; stroke: #a9a9a9; stroke-width: 0.8"/>
      </g>
     </g>
     <g id="text_12">
      <!-- 1600 -->
      <g style="fill: #a9a9a9" transform="translate(75.55 243.383881) scale(0.1 -0.1)">
       <defs>
        <path id="DejaVuSans-36" d="M 2113 2584 
Q 1688 2584 1439 2293 
Q 1191 2003 1191 1497 
Q 1191 994 1439 701 
Q 1688 409 2113 409 
Q 2538 409 2786 701 
Q 3034 994 3034 1497 
Q 3034 2003 2786 2293 
Q 2538 2584 2113 2584 
z
M 3366 4563 
L 3366 3988 
Q 3128 4100 2886 4159 
Q 2644 4219 2406 4219 
Q 1781 4219 1451 3797 
Q 1122 3375 1075 2522 
Q 1259 2794 1537 2939 
Q 1816 3084 2150 3084 
Q 2853 3084 3261 2657 
Q 3669 2231 3669 1497 
Q 3669 778 3244 343 
Q 2819 -91 2113 -91 
Q 1303 -91 875 529 
Q 447 1150 447 2328 
Q 447 3434 972 4092 
Q 1497 4750 2381 4750 
Q 2619 4750 2861 4703 
Q 3103 4656 3366 4563 
z
" transform="scale(0.015625)"/>
       </defs>
       <use xlink:href="#DejaVuSans-31"/>
       <use xlink:href="#DejaVuSans-36" x="63.623047"/>
       <use xlink:href="#DejaVuSans-30" x="127.246094"/>
       <use xlink:href="#DejaVuSans-30" x="190.869141"/>
      </g>
     </g>
    </g>
    <g id="ytick_4">
     <g id="line2d_25">
      <path d="M 108 205.455663 
L 777.6 205.455663 
" clip-path="url(#p82370dc0e6)" style="fill: none; stroke-dasharray: 5.12,1.28,0.8,1.28; stroke-dashoffset: 0; stroke: #b0b0b0; stroke-width: 0.8"/>
     </g>
     <g id="line2d_26">
      <g>
       <use xlink:href="#mdb1f3003a7" x="108" y="205.455663" style="fill: #a9a9a9; stroke: #a9a9a9; stroke-width: 0.8"/>
      </g>
     </g>
     <g id="text_13">
      <!-- 2400 -->
      <g style="fill: #a9a9a9" transform="translate(75.55 209.254882) scale(0.1 -0.1)">
       <use xlink:href="#DejaVuSans-32"/>
       <use xlink:href="#DejaVuSans-34" x="63.623047"/>
       <use xlink:href="#DejaVuSans-30" x="127.246094"/>
       <use xlink:href="#DejaVuSans-30" x="190.869141"/>
      </g>
     </g>
    </g>
    <g id="ytick_5">
     <g id="line2d_27">
      <path d="M 108 171.326663 
L 777.6 171.326663 
" clip-path="url(#p82370dc0e6)" style="fill: none; stroke-dasharray: 5.12,1.28,0.8,1.28; stroke-dashoffset: 0; stroke: #b0b0b0; stroke-width: 0.8"/>
     </g>
     <g id="line2d_28">
      <g>
       <use xlink:href="#mdb1f3003a7" x="108" y="171.326663" style="fill: #a9a9a9; stroke: #a9a9a9; stroke-width: 0.8"/>
      </g>
     </g>
     <g id="text_14">
      <!-- 3200 -->
      <g style="fill: #a9a9a9" transform="translate(75.55 175.125882) scale(0.1 -0.1)">
       <use xlink:href="#DejaVuSans-33"/>
       <use xlink:href="#DejaVuSans-32" x="63.623047"/>
       <use xlink:href="#DejaVuSans-30" x="127.246094"/>
       <use xlink:href="#DejaVuSans-30" x="190.869141"/>
      </g>
     </g>
    </g>
    <g id="ytick_6">
     <g id="line2d_29">
      <path d="M 108 137.197664 
L 777.6 137.197664 
" clip-path="url(#p82370dc0e6)" style="fill: none; stroke-dasharray: 5.12,1.28,0.8,1.28; stroke-dashoffset: 0; stroke: #b0b0b0; stroke-width: 0.8"/>
     </g>
     <g id="line2d_30">
      <g>
       <use xlink:href="#mdb1f3003a7" x="108" y="137.197664" style="fill: #a9a9a9; stroke: #a9a9a9; stroke-width: 0.8"/>
      </g>
     </g>
     <g id="text_15">
      <!-- 4000 -->
      <g style="fill: #a9a9a9" transform="translate(75.55 140.996883) scale(0.1 -0.1)">
       <use xlink:href="#DejaVuSans-34"/>
       <use xlink:href="#DejaVuSans-30" x="63.623047"/>
       <use xlink:href="#DejaVuSans-30" x="127.246094"/>
       <use xlink:href="#DejaVuSans-30" x="190.869141"/>
      </g>
     </g>
    </g>
    <g id="ytick_7">
     <g id="line2d_31">
      <path d="M 108 103.068664 
L 777.6 103.068664 
" clip-path="url(#p82370dc0e6)" style="fill: none; stroke-dasharray: 5.12,1.28,0.8,1.28; stroke-dashoffset: 0; stroke: #b0b0b0; stroke-width: 0.8"/>
     </g>
     <g id="line2d_32">
      <g>
       <use xlink:href="#mdb1f3003a7" x="108" y="103.068664" style="fill: #a9a9a9; stroke: #a9a9a9; stroke-width: 0.8"/>
      </g>
     </g>
     <g id="text_16">
      <!-- 4800 -->
      <g style="fill: #a9a9a9" transform="translate(75.55 106.867883) scale(0.1 -0.1)">
       <use xlink:href="#DejaVuSans-34"/>
       <use xlink:href="#DejaVuSans-38" x="63.623047"/>
       <use xlink:href="#DejaVuSans-30" x="127.246094"/>
       <use xlink:href="#DejaVuSans-30" x="190.869141"/>
      </g>
     </g>
    </g>
    <g id="ytick_8">
     <g id="line2d_33">
      <path d="M 108 68.939665 
L 777.6 68.939665 
" clip-path="url(#p82370dc0e6)" style="fill: none; stroke-dasharray: 5.12,1.28,0.8,1.28; stroke-dashoffset: 0; stroke: #b0b0b0; stroke-width: 0.8"/>
     </g>
     <g id="line2d_34">
      <g>
       <use xlink:href="#mdb1f3003a7" x="108" y="68.939665" style="fill: #a9a9a9; stroke: #a9a9a9; stroke-width: 0.8"/>
      </g>
     </g>
     <g id="text_17">
      <!-- 5600 -->
      <g style="fill: #a9a9a9" transform="translate(75.55 72.738884) scale(0.1 -0.1)">
       <use xlink:href="#DejaVuSans-35"/>
       <use xlink:href="#DejaVuSans-36" x="63.623047"/>
       <use xlink:href="#DejaVuSans-30" x="127.246094"/>
       <use xlink:href="#DejaVuSans-30" x="190.869141"/>
      </g>
     </g>
    </g>
   </g>
   <g id="line2d_35">
    <path d="M 138.436364 307.714678 
L 142.103395 307.416049 
L 142.714567 307.160081 
L 144.548083 306.946775 
L 148.215115 306.221534 
L 151.882147 305.922905 
L 152.493319 305.624276 
L 153.104491 305.453631 
L 153.715663 304.685729 
L 154.326835 304.259116 
L 154.938007 302.936618 
L 155.549179 302.851295 
L 156.16035 302.382021 
L 157.382694 301.784764 
L 159.827382 299.907669 
L 161.049726 299.395734 
L 161.660898 298.969121 
L 164.105586 297.90259 
L 164.716758 296.964043 
L 165.939102 296.110818 
L 166.550274 295.812189 
L 172.661993 294.958964 
L 173.273165 294.660335 
L 177.551369 294.319045 
L 179.384885 293.849771 
L 184.885433 293.12453 
L 185.496605 292.78324 
L 186.107777 292.697918 
L 186.718949 292.44195 
L 187.941292 292.228644 
L 188.552464 292.185983 
L 189.774808 291.930015 
L 190.38598 291.887354 
L 192.830668 291.290096 
L 194.664184 291.119451 
L 195.886528 290.991468 
L 196.4977 290.820823 
L 197.108872 290.778162 
L 198.942388 290.223565 
L 200.164732 290.138243 
L 201.387076 289.967598 
L 202.609419 289.71163 
L 203.220591 289.540985 
L 203.831763 288.730422 
L 205.665279 288.047842 
L 207.498795 287.578568 
L 208.109967 287.279939 
L 208.721139 287.237278 
L 211.776999 286.384053 
L 212.999343 286.29873 
L 214.221687 286.042763 
L 216.666375 285.445505 
L 217.277547 285.402844 
L 218.49989 284.848248 
L 219.111062 284.762925 
L 219.722234 284.464297 
L 225.833954 283.56841 
L 228.889814 282.715185 
L 229.500986 282.331234 
L 231.945674 281.691315 
L 233.168018 280.966074 
L 233.779189 280.539462 
L 235.612705 280.198172 
L 239.279737 279.088979 
L 240.502081 278.705028 
L 241.113253 278.619705 
L 242.335597 278.278415 
L 243.557941 277.979787 
L 244.169113 277.894464 
L 245.391457 277.382529 
L 246.002629 277.254545 
L 246.613801 276.998578 
L 247.224973 276.913255 
L 247.836145 276.614627 
L 248.447317 276.443982 
L 249.66966 276.358659 
L 250.892004 275.932047 
L 252.114348 275.846724 
L 252.72552 275.548095 
L 253.947864 275.37745 
L 254.559036 275.164144 
L 255.78138 275.121483 
L 258.226068 274.822854 
L 259.448412 274.225597 
L 266.171303 271.367293 
L 266.782475 271.026003 
L 267.393647 270.386084 
L 268.615991 268.551651 
L 269.227163 268.381006 
L 269.838335 268.381006 
L 271.060679 267.485119 
L 271.671851 267.314474 
L 272.283023 267.015846 
L 272.894195 266.887862 
L 273.505367 266.333266 
L 274.116539 266.162621 
L 275.950055 265.266734 
L 277.172399 263.560284 
L 277.783571 263.176333 
L 278.394743 262.152463 
L 279.005915 261.512544 
L 279.617087 261.213916 
L 280.228258 261.043271 
L 282.672946 259.592788 
L 283.89529 258.611579 
L 284.506462 258.227628 
L 285.117634 257.331742 
L 285.728806 255.966582 
L 286.339978 255.070696 
L 286.95115 254.601422 
L 287.562322 254.345455 
L 290.00701 252.212392 
L 291.229354 251.231183 
L 291.840526 250.719248 
L 292.451698 249.908685 
L 293.674042 248.842153 
L 296.118729 247.263687 
L 296.729901 246.751752 
L 297.341073 246.623768 
L 297.952245 246.367801 
L 299.785761 245.343931 
L 301.008105 244.746673 
L 302.230449 243.59482 
L 302.841621 242.869578 
L 304.063965 242.016353 
L 304.675137 241.845708 
L 305.286309 241.54708 
L 306.508653 240.736516 
L 307.119825 240.395226 
L 307.730997 240.309904 
L 312.620372 237.366277 
L 313.231544 237.024987 
L 313.842716 236.811681 
L 315.676232 235.617166 
L 317.509748 235.06257 
L 318.12092 234.635957 
L 318.732092 234.507974 
L 319.954436 234.081361 
L 321.787952 233.35612 
L 323.621468 232.67354 
L 324.843812 232.460234 
L 326.066156 231.393702 
L 327.899671 230.540477 
L 329.122015 229.815236 
L 330.344359 229.473946 
L 330.955531 229.089995 
L 331.566703 228.91935 
L 333.400219 227.767496 
L 336.456079 227.042255 
L 338.289595 225.975724 
L 338.900767 225.890401 
L 339.511939 225.677095 
L 340.734283 225.421127 
L 342.567798 224.055967 
L 344.401314 223.629355 
L 345.012486 223.416049 
L 345.623658 222.946775 
L 349.29069 221.75226 
L 349.901862 221.709599 
L 350.513034 221.538954 
L 351.735378 221.027019 
L 356.013582 219.533875 
L 357.235926 219.36323 
L 357.847097 219.192585 
L 358.458269 218.893956 
L 359.069441 218.765973 
L 360.902957 217.912748 
L 362.736473 217.016861 
L 363.347645 216.590249 
L 363.958817 216.419604 
L 365.792333 215.438395 
L 367.014677 215.139766 
L 368.237021 214.499848 
L 369.459365 214.158558 
L 370.070537 214.073235 
L 371.292881 213.347994 
L 371.904053 213.22001 
L 373.126396 212.708075 
L 373.737568 212.580091 
L 374.34874 212.238801 
L 376.793428 211.85485 
L 378.015772 211.257593 
L 378.626944 210.745658 
L 379.238116 209.679126 
L 381.071632 209.337836 
L 383.51632 208.057999 
L 384.127492 207.930015 
L 388.405696 205.882275 
L 389.628039 205.540985 
L 390.850383 205.285018 
L 392.072727 204.68776 
L 392.683899 204.431793 
L 393.295071 204.34647 
L 395.739759 203.279939 
L 397.573275 202.128085 
L 398.184447 202.042763 
L 398.795619 201.829457 
L 399.406791 201.786795 
L 402.462651 201.018893 
L 403.073823 200.549619 
L 404.296166 200.123007 
L 406.129682 199.525749 
L 406.740854 199.141798 
L 407.352026 198.971153 
L 407.963198 198.54454 
L 408.57437 198.288573 
L 409.796714 197.648654 
L 412.241402 196.880752 
L 412.852574 196.582123 
L 414.68609 195.174302 
L 415.297262 195.046318 
L 416.519606 194.10777 
L 417.130778 193.979787 
L 417.74195 193.041239 
L 418.353122 192.785272 
L 418.964294 192.315998 
L 419.575465 192.230675 
L 420.797809 191.505434 
L 421.408981 191.37745 
L 422.020153 191.121483 
L 422.631325 190.652209 
L 423.242497 190.438903 
L 425.076013 189.201727 
L 427.520701 187.964551 
L 428.131873 187.879228 
L 429.354217 187.324632 
L 429.965389 186.983342 
L 430.576561 185.959472 
L 431.187733 185.404876 
L 431.798905 185.063586 
L 432.410077 184.935602 
L 433.632421 184.167699 
L 434.243593 184.039716 
L 435.465936 183.442458 
L 437.299452 182.674556 
L 438.521796 181.821331 
L 439.74414 180.541493 
L 442.8 178.323108 
L 444.022344 177.341899 
L 444.633516 177.085932 
L 445.244688 176.403352 
L 445.85586 175.934078 
L 447.078204 175.507466 
L 448.300548 174.696902 
L 448.91172 174.398273 
L 449.522892 174.227628 
L 450.134064 173.801016 
L 450.745235 173.673032 
L 452.578751 172.691823 
L 453.801095 171.966582 
L 459.912815 169.790858 
L 460.523987 169.236262 
L 462.357503 168.553682 
L 463.579847 168.169731 
L 464.191019 167.700457 
L 467.246878 166.121991 
L 468.469222 163.775622 
L 469.691566 162.32514 
L 470.91391 161.599898 
L 472.747426 160.874657 
L 473.358598 160.789335 
L 473.96977 160.448045 
L 475.803286 159.893448 
L 478.247974 158.784256 
L 478.859146 158.400305 
L 480.08149 157.973692 
L 483.748521 155.84063 
L 484.359693 155.200711 
L 485.582037 154.560792 
L 486.193209 154.219502 
L 486.804381 154.006196 
L 487.415553 153.579584 
L 488.637897 152.982326 
L 490.471413 152.001117 
L 491.082585 151.830472 
L 491.693757 151.361199 
L 494.749617 150.37999 
L 495.360789 150.209345 
L 495.971961 149.910716 
L 496.583133 149.484104 
L 497.805476 149.142814 
L 499.02782 148.67354 
L 499.638992 148.204266 
L 500.861336 147.820315 
L 501.472508 147.521686 
L 502.08368 147.351041 
L 503.306024 146.497816 
L 504.528368 145.985881 
L 505.750712 145.047334 
L 506.973056 144.620721 
L 507.584228 144.108786 
L 508.1954 144.023464 
L 509.417744 143.127577 
L 510.640088 142.53032 
L 511.25126 142.274352 
L 511.862432 141.677095 
L 515.529463 140.354596 
L 517.362979 139.544033 
L 519.196495 138.989436 
L 520.418839 138.818791 
L 521.030011 138.562824 
L 521.641183 138.477501 
L 522.863527 137.965566 
L 523.474699 137.922905 
L 525.919387 137.027019 
L 527.752903 135.789843 
L 528.364074 135.533875 
L 529.586418 134.893956 
L 530.19759 134.68065 
L 532.642278 133.230168 
L 533.25345 132.846216 
L 534.475794 132.547588 
L 536.30931 131.523718 
L 538.142826 130.92646 
L 538.753998 130.670493 
L 539.976342 130.371864 
L 543.032202 129.390655 
L 544.865717 129.092026 
L 547.310405 128.324124 
L 547.921577 128.068156 
L 548.532749 127.982834 
L 549.143921 127.684205 
L 550.366265 127.428238 
L 551.588609 127.001625 
L 552.199781 126.788319 
L 553.422125 126.660335 
L 554.644469 126.361706 
L 556.477985 126.063078 
L 557.089157 125.849771 
L 558.311501 125.721788 
L 561.36736 124.953885 
L 562.589704 124.655256 
L 563.200876 124.313966 
L 566.256736 123.546064 
L 566.867908 123.41808 
L 568.090252 122.991468 
L 569.923768 122.351549 
L 570.53494 122.266227 
L 572.368456 121.626308 
L 572.979628 121.626308 
L 574.201972 121.199695 
L 574.813143 120.602438 
L 575.424315 120.303809 
L 576.646659 119.919858 
L 579.091347 118.98131 
L 579.702519 118.853327 
L 580.313691 118.469375 
L 580.924863 118.341392 
L 581.536035 118.000102 
L 584.591895 117.104215 
L 585.203067 116.720264 
L 585.814239 116.59228 
L 586.425411 116.080345 
L 588.258927 115.739055 
L 589.481271 115.056475 
L 590.092442 114.373895 
L 591.314786 114.117928 
L 595.59299 113.136719 
L 596.204162 112.966074 
L 597.426506 112.923413 
L 598.037678 112.624784 
L 600.482366 112.198172 
L 601.093538 111.942204 
L 602.927054 111.686237 
L 605.371742 110.918334 
L 607.205257 110.491722 
L 609.038773 110.022448 
L 610.872289 109.467852 
L 613.928149 108.571965 
L 614.539321 108.230675 
L 616.372837 107.590757 
L 616.984009 107.121483 
L 618.206353 106.780193 
L 618.817525 106.524225 
L 620.039869 106.182936 
L 622.484556 105.073743 
L 624.318072 104.945759 
L 626.76276 104.263179 
L 627.373932 103.879228 
L 628.596276 103.537938 
L 630.429792 102.599391 
L 631.040964 102.471407 
L 631.652136 102.172778 
L 632.263308 102.130117 
L 638.986199 99.869071 
L 641.430887 99.271813 
L 642.042059 99.101168 
L 643.264403 98.546572 
L 643.875575 98.461249 
L 645.097919 98.119959 
L 645.709091 97.650686 
L 646.320263 97.352057 
L 646.931435 96.626816 
L 647.542607 96.200203 
L 648.764951 95.816252 
L 649.376123 95.346978 
L 656.099014 92.573997 
L 657.321358 92.275368 
L 659.154874 91.422143 
L 660.377218 90.696902 
L 660.98839 90.568918 
L 661.599562 90.099644 
L 662.821906 89.502387 
L 664.04425 88.734485 
L 665.877766 87.88126 
L 666.488938 87.454647 
L 667.711281 87.028035 
L 668.933625 86.302793 
L 669.544797 86.046826 
L 670.155969 85.620213 
L 671.378313 85.193601 
L 671.989485 85.065617 
L 674.434173 83.956425 
L 677.490033 82.889893 
L 678.101205 82.847232 
L 678.712377 82.676587 
L 679.323549 82.292636 
L 679.934721 82.207313 
L 680.545893 81.994007 
L 682.379409 81.652717 
L 686.04644 79.775622 
L 686.657612 79.434332 
L 687.268784 79.34901 
L 689.1023 78.367801 
L 690.935816 77.685221 
L 692.769332 76.874657 
L 695.21402 75.893448 
L 695.825192 75.722803 
L 696.436364 75.338852 
L 697.658708 75.168207 
L 698.26988 74.784256 
L 698.881051 74.741595 
L 700.103395 74.357643 
L 701.325739 73.760386 
L 701.936911 73.675063 
L 702.548083 73.419096 
L 703.159255 73.291112 
L 704.992771 72.480549 
L 705.603943 72.352565 
L 706.215115 72.096597 
L 709.270975 71.371356 
L 711.104491 70.688776 
L 713.549179 69.280955 
L 714.771522 68.811681 
L 715.382694 68.42773 
L 716.605038 68.171762 
L 717.21621 67.830472 
L 717.827382 67.702489 
L 719.049726 67.019909 
L 722.716758 65.313459 
L 724.550274 64.716201 
L 725.772618 64.289589 
L 726.38379 64.076282 
L 727.606134 63.436364 
L 728.828478 63.052412 
L 729.43965 62.924429 
L 731.884337 61.772575 
L 732.495509 61.687252 
L 733.106681 61.473946 
L 734.940197 60.450076 
L 742.885433 57.079837 
L 743.496605 56.653225 
L 745.941292 55.842661 
L 747.163636 55.8 
L 747.163636 55.8 
" clip-path="url(#p82370dc0e6)" style="fill: none; stroke: #1f77b4; stroke-width: 1.5; stroke-linecap: square"/>
   </g>
   <g id="line2d_36">
    <path d="M 139.047536 307.8 
L 140.881051 307.714678 
L 142.714567 307.672016 
L 146.381599 307.586694 
L 149.437459 307.45871 
L 151.882147 307.45871 
L 152.493319 307.288065 
L 154.938007 307.202743 
L 156.771522 306.989436 
L 158.605038 306.818791 
L 162.27207 306.648146 
L 162.883242 306.648146 
L 163.494414 306.520163 
L 165.939102 306.43484 
L 167.161446 306.349518 
L 172.050821 306.264195 
L 175.106681 306.136211 
L 182.440745 306.050889 
L 185.496605 305.922905 
L 189.163636 305.837583 
L 191.608324 305.75226 
L 197.108872 305.666938 
L 198.942388 305.624276 
L 200.775904 305.581615 
L 202.609419 305.368309 
L 206.276451 305.325648 
L 207.498795 305.240325 
L 211.776999 305.155003 
L 218.49989 304.771051 
L 222.778094 304.685729 
L 224.000438 304.600406 
L 225.833954 304.515084 
L 229.500986 304.344439 
L 231.945674 304.301778 
L 233.779189 304.131133 
L 243.557941 303.533875 
L 246.002629 303.448553 
L 250.280832 303.235246 
L 252.114348 303.149924 
L 258.226068 302.808634 
L 264.948959 302.723311 
L 267.393647 302.467344 
L 268.615991 302.382021 
L 276.561227 301.742103 
L 280.228258 301.272829 
L 282.672946 301.187506 
L 287.562322 300.547588 
L 291.229354 300.462265 
L 293.06287 300.29162 
L 294.285214 300.248959 
L 295.507558 300.120975 
L 297.341073 300.035653 
L 298.563417 299.865008 
L 301.619277 299.523718 
L 304.063965 299.438395 
L 305.286309 299.353073 
L 307.730997 299.26775 
L 308.953341 299.182428 
L 312.0092 298.883799 
L 312.620372 298.713154 
L 316.287404 298.542509 
L 319.343264 298.457186 
L 327.288499 297.987913 
L 329.122015 297.90259 
L 337.067251 297.433316 
L 341.345455 297.347994 
L 341.956627 297.22001 
L 346.846002 297.134688 
L 351.124206 296.921381 
L 357.847097 296.836059 
L 362.125301 296.622753 
L 367.014677 296.53743 
L 371.904053 296.281463 
L 376.182256 296.19614 
L 387.794524 295.470899 
L 392.683899 295.385576 
L 408.57437 294.361706 
L 412.241402 294.276384 
L 414.074918 294.233723 
L 415.908434 294.191061 
L 417.74195 294.020416 
L 422.631325 293.935094 
L 423.853669 293.721788 
L 425.076013 293.636465 
L 428.131873 293.508481 
L 429.354217 293.423159 
L 430.576561 293.337836 
L 436.077108 293.252514 
L 437.299452 293.12453 
L 439.74414 293.081869 
L 440.355312 292.953885 
L 441.577656 292.868563 
L 442.188828 292.740579 
L 444.022344 292.655256 
L 454.412267 292.015338 
L 456.245783 291.930015 
L 459.301643 291.802031 
L 467.85805 291.716709 
L 472.136254 291.503403 
L 477.02563 291.41808 
L 479.470318 291.332758 
L 481.915005 291.290096 
L 483.137349 291.162113 
L 485.582037 291.07679 
L 491.693757 290.7355 
L 495.360789 290.692839 
L 497.194304 290.522194 
L 499.02782 290.479533 
L 503.306024 290.39421 
L 505.750712 290.308888 
L 513.084775 290.223565 
L 516.140635 290.095582 
L 519.807667 290.010259 
L 521.641183 289.796953 
L 525.308215 289.754292 
L 527.141731 289.583647 
L 529.586418 289.498324 
L 536.920482 289.413002 
L 539.976342 289.285018 
L 550.366265 289.242357 
L 551.588609 289.157034 
L 553.422125 289.114373 
L 561.36736 289.02905 
L 562.589704 288.943728 
L 569.312596 288.858405 
L 571.757284 288.773083 
L 579.091347 288.730422 
L 580.313691 288.645099 
L 589.481271 288.602438 
L 591.314786 288.431793 
L 606.594085 288.34647 
L 608.427601 288.303809 
L 624.929244 288.218487 
L 627.373932 288.133164 
L 637.763855 288.047842 
L 638.986199 287.962519 
L 642.042059 287.877197 
L 643.875575 287.706552 
L 646.931435 287.621229 
L 649.376123 287.535907 
L 653.043154 287.450584 
L 654.87667 287.407923 
L 657.321358 287.3226 
L 659.154874 287.279939 
L 662.210734 287.194617 
L 663.433078 287.109294 
L 667.10011 287.023972 
L 670.155969 286.895988 
L 671.378313 286.853327 
L 672.600657 286.768004 
L 674.434173 286.725343 
L 676.878861 286.64002 
L 679.323549 286.554698 
L 687.268784 286.469375 
L 689.713472 286.384053 
L 694.602848 286.29873 
L 698.881051 286.085424 
L 704.381599 286.000102 
L 705.603943 285.914779 
L 716.605038 285.829457 
L 718.438554 285.786795 
L 721.494414 285.744134 
L 723.939102 285.488167 
L 725.772618 285.445505 
L 729.43965 285.360183 
L 736.162541 284.976232 
L 738.607229 284.890909 
L 741.051917 284.805587 
L 744.718949 284.720264 
L 745.941292 284.634942 
L 747.163636 284.634942 
L 747.163636 284.634942 
" clip-path="url(#p82370dc0e6)" style="fill: none; stroke: #ff7f0e; stroke-width: 1.5; stroke-linecap: square"/>
   </g>
   <g id="patch_3">
    <path d="M 108 320.4 
L 108 43.2 
" style="fill: none; stroke: #a9a9a9; stroke-width: 0.8; stroke-linejoin: miter; stroke-linecap: square"/>
   </g>
   <g id="patch_4">
    <path d="M 777.6 320.4 
L 777.6 43.2 
" style="fill: none"/>
   </g>
   <g id="patch_5">
    <path d="M 108 320.4 
L 777.6 320.4 
" style="fill: none; stroke: #a9a9a9; stroke-width: 0.8; stroke-linejoin: miter; stroke-linecap: square"/>
   </g>
   <g id="patch_6">
    <path d="M 108 43.2 
L 777.6 43.2 
" style="fill: none"/>
   </g>
   <g id="text_18">
    <!-- get_subscribe history -->
    <g style="fill: #a9a9a9" transform="translate(378.6075 37.2) scale(0.12 -0.12)">
     <defs>
      <path id="DejaVuSans-67" d="M 2906 1791 
Q 2906 2416 2648 2759 
Q 2391 3103 1925 3103 
Q 1463 3103 1205 2759 
Q 947 2416 947 1791 
Q 947 1169 1205 825 
Q 1463 481 1925 481 
Q 2391 481 2648 825 
Q 2906 1169 2906 1791 
z
M 3481 434 
Q 3481 -459 3084 -895 
Q 2688 -1331 1869 -1331 
Q 1566 -1331 1297 -1286 
Q 1028 -1241 775 -1147 
L 775 -588 
Q 1028 -725 1275 -790 
Q 1522 -856 1778 -856 
Q 2344 -856 2625 -561 
Q 2906 -266 2906 331 
L 2906 616 
Q 2728 306 2450 153 
Q 2172 0 1784 0 
Q 1141 0 747 490 
Q 353 981 353 1791 
Q 353 2603 747 3093 
Q 1141 3584 1784 3584 
Q 2172 3584 2450 3431 
Q 2728 3278 2906 2969 
L 2906 3500 
L 3481 3500 
L 3481 434 
z
" transform="scale(0.015625)"/>
      <path id="DejaVuSans-65" d="M 3597 1894 
L 3597 1613 
L 953 1613 
Q 991 1019 1311 708 
Q 1631 397 2203 397 
Q 2534 397 2845 478 
Q 3156 559 3463 722 
L 3463 178 
Q 3153 47 2828 -22 
Q 2503 -91 2169 -91 
Q 1331 -91 842 396 
Q 353 884 353 1716 
Q 353 2575 817 3079 
Q 1281 3584 2069 3584 
Q 2775 3584 3186 3129 
Q 3597 2675 3597 1894 
z
M 3022 2063 
Q 3016 2534 2758 2815 
Q 2500 3097 2075 3097 
Q 1594 3097 1305 2825 
Q 1016 2553 972 2059 
L 3022 2063 
z
" transform="scale(0.015625)"/>
      <path id="DejaVuSans-74" d="M 1172 4494 
L 1172 3500 
L 2356 3500 
L 2356 3053 
L 1172 3053 
L 1172 1153 
Q 1172 725 1289 603 
Q 1406 481 1766 481 
L 2356 481 
L 2356 0 
L 1766 0 
Q 1100 0 847 248 
Q 594 497 594 1153 
L 594 3053 
L 172 3053 
L 172 3500 
L 594 3500 
L 594 4494 
L 1172 4494 
z
" transform="scale(0.015625)"/>
      <path id="DejaVuSans-5f" d="M 3263 -1063 
L 3263 -1509 
L -63 -1509 
L -63 -1063 
L 3263 -1063 
z
" transform="scale(0.015625)"/>
      <path id="DejaVuSans-73" d="M 2834 3397 
L 2834 2853 
Q 2591 2978 2328 3040 
Q 2066 3103 1784 3103 
Q 1356 3103 1142 2972 
Q 928 2841 928 2578 
Q 928 2378 1081 2264 
Q 1234 2150 1697 2047 
L 1894 2003 
Q 2506 1872 2764 1633 
Q 3022 1394 3022 966 
Q 3022 478 2636 193 
Q 2250 -91 1575 -91 
Q 1294 -91 989 -36 
Q 684 19 347 128 
L 347 722 
Q 666 556 975 473 
Q 1284 391 1588 391 
Q 1994 391 2212 530 
Q 2431 669 2431 922 
Q 2431 1156 2273 1281 
Q 2116 1406 1581 1522 
L 1381 1569 
Q 847 1681 609 1914 
Q 372 2147 372 2553 
Q 372 3047 722 3315 
Q 1072 3584 1716 3584 
Q 2034 3584 2315 3537 
Q 2597 3491 2834 3397 
z
" transform="scale(0.015625)"/>
      <path id="DejaVuSans-75" d="M 544 1381 
L 544 3500 
L 1119 3500 
L 1119 1403 
Q 1119 906 1312 657 
Q 1506 409 1894 409 
Q 2359 409 2629 706 
Q 2900 1003 2900 1516 
L 2900 3500 
L 3475 3500 
L 3475 0 
L 2900 0 
L 2900 538 
Q 2691 219 2414 64 
Q 2138 -91 1772 -91 
Q 1169 -91 856 284 
Q 544 659 544 1381 
z
M 1991 3584 
L 1991 3584 
z
" transform="scale(0.015625)"/>
      <path id="DejaVuSans-62" d="M 3116 1747 
Q 3116 2381 2855 2742 
Q 2594 3103 2138 3103 
Q 1681 3103 1420 2742 
Q 1159 2381 1159 1747 
Q 1159 1113 1420 752 
Q 1681 391 2138 391 
Q 2594 391 2855 752 
Q 3116 1113 3116 1747 
z
M 1159 2969 
Q 1341 3281 1617 3432 
Q 1894 3584 2278 3584 
Q 2916 3584 3314 3078 
Q 3713 2572 3713 1747 
Q 3713 922 3314 415 
Q 2916 -91 2278 -91 
Q 1894 -91 1617 61 
Q 1341 213 1159 525 
L 1159 0 
L 581 0 
L 581 4863 
L 1159 4863 
L 1159 2969 
z
" transform="scale(0.015625)"/>
      <path id="DejaVuSans-63" d="M 3122 3366 
L 3122 2828 
Q 2878 2963 2633 3030 
Q 2388 3097 2138 3097 
Q 1578 3097 1268 2742 
Q 959 2388 959 1747 
Q 959 1106 1268 751 
Q 1578 397 2138 397 
Q 2388 397 2633 464 
Q 2878 531 3122 666 
L 3122 134 
Q 2881 22 2623 -34 
Q 2366 -91 2075 -91 
Q 1284 -91 818 406 
Q 353 903 353 1747 
Q 353 2603 823 3093 
Q 1294 3584 2113 3584 
Q 2378 3584 2631 3529 
Q 2884 3475 3122 3366 
z
" transform="scale(0.015625)"/>
      <path id="DejaVuSans-72" d="M 2631 2963 
Q 2534 3019 2420 3045 
Q 2306 3072 2169 3072 
Q 1681 3072 1420 2755 
Q 1159 2438 1159 1844 
L 1159 0 
L 581 0 
L 581 3500 
L 1159 3500 
L 1159 2956 
Q 1341 3275 1631 3429 
Q 1922 3584 2338 3584 
Q 2397 3584 2469 3576 
Q 2541 3569 2628 3553 
L 2631 2963 
z
" transform="scale(0.015625)"/>
      <path id="DejaVuSans-69" d="M 603 3500 
L 1178 3500 
L 1178 0 
L 603 0 
L 603 3500 
z
M 603 4863 
L 1178 4863 
L 1178 4134 
L 603 4134 
L 603 4863 
z
" transform="scale(0.015625)"/>
      <path id="DejaVuSans-20" transform="scale(0.015625)"/>
      <path id="DejaVuSans-68" d="M 3513 2113 
L 3513 0 
L 2938 0 
L 2938 2094 
Q 2938 2591 2744 2837 
Q 2550 3084 2163 3084 
Q 1697 3084 1428 2787 
Q 1159 2491 1159 1978 
L 1159 0 
L 581 0 
L 581 4863 
L 1159 4863 
L 1159 2956 
Q 1366 3272 1645 3428 
Q 1925 3584 2291 3584 
Q 2894 3584 3203 3211 
Q 3513 2838 3513 2113 
z
" transform="scale(0.015625)"/>
      <path id="DejaVuSans-6f" d="M 1959 3097 
Q 1497 3097 1228 2736 
Q 959 2375 959 1747 
Q 959 1119 1226 758 
Q 1494 397 1959 397 
Q 2419 397 2687 759 
Q 2956 1122 2956 1747 
Q 2956 2369 2687 2733 
Q 2419 3097 1959 3097 
z
M 1959 3584 
Q 2709 3584 3137 3096 
Q 3566 2609 3566 1747 
Q 3566 888 3137 398 
Q 2709 -91 1959 -91 
Q 1206 -91 779 398 
Q 353 888 353 1747 
Q 353 2609 779 3096 
Q 1206 3584 1959 3584 
z
" transform="scale(0.015625)"/>
      <path id="DejaVuSans-79" d="M 2059 -325 
Q 1816 -950 1584 -1140 
Q 1353 -1331 966 -1331 
L 506 -1331 
L 506 -850 
L 844 -850 
Q 1081 -850 1212 -737 
Q 1344 -625 1503 -206 
L 1606 56 
L 191 3500 
L 800 3500 
L 1894 763 
L 2988 3500 
L 3597 3500 
L 2059 -325 
z
" transform="scale(0.015625)"/>
     </defs>
     <use xlink:href="#DejaVuSans-67"/>
     <use xlink:href="#DejaVuSans-65" x="63.476562"/>
     <use xlink:href="#DejaVuSans-74" x="125"/>
     <use xlink:href="#DejaVuSans-5f" x="164.208984"/>
     <use xlink:href="#DejaVuSans-73" x="214.208984"/>
     <use xlink:href="#DejaVuSans-75" x="266.308594"/>
     <use xlink:href="#DejaVuSans-62" x="329.6875"/>
     <use xlink:href="#DejaVuSans-73" x="393.164062"/>
     <use xlink:href="#DejaVuSans-63" x="445.263672"/>
     <use xlink:href="#DejaVuSans-72" x="500.244141"/>
     <use xlink:href="#DejaVuSans-69" x="541.357422"/>
     <use xlink:href="#DejaVuSans-62" x="569.140625"/>
     <use xlink:href="#DejaVuSans-65" x="632.617188"/>
     <use xlink:href="#DejaVuSans-20" x="694.140625"/>
     <use xlink:href="#DejaVuSans-68" x="725.927734"/>
     <use xlink:href="#DejaVuSans-69" x="789.306641"/>
     <use xlink:href="#DejaVuSans-73" x="817.089844"/>
     <use xlink:href="#DejaVuSans-74" x="869.189453"/>
     <use xlink:href="#DejaVuSans-6f" x="908.398438"/>
     <use xlink:href="#DejaVuSans-72" x="969.580078"/>
     <use xlink:href="#DejaVuSans-79" x="1010.693359"/>
    </g>
   </g>
   <g id="legend_1">
    <g id="line2d_37">
     <path d="M 815.08 328.498438 
L 825.08 328.498438 
L 835.08 328.498438 
" style="fill: none; stroke: #1f77b4; stroke-width: 1.5; stroke-linecap: square"/>
    </g>
    <g id="text_19">
     <!-- star -->
     <g style="fill: #a9a9a9" transform="translate(843.08 331.998438) scale(0.1 -0.1)">
      <defs>
       <path id="DejaVuSans-61" d="M 2194 1759 
Q 1497 1759 1228 1600 
Q 959 1441 959 1056 
Q 959 750 1161 570 
Q 1363 391 1709 391 
Q 2188 391 2477 730 
Q 2766 1069 2766 1631 
L 2766 1759 
L 2194 1759 
z
M 3341 1997 
L 3341 0 
L 2766 0 
L 2766 531 
Q 2569 213 2275 61 
Q 1981 -91 1556 -91 
Q 1019 -91 701 211 
Q 384 513 384 1019 
Q 384 1609 779 1909 
Q 1175 2209 1959 2209 
L 2766 2209 
L 2766 2266 
Q 2766 2663 2505 2880 
Q 2244 3097 1772 3097 
Q 1472 3097 1187 3025 
Q 903 2953 641 2809 
L 641 3341 
Q 956 3463 1253 3523 
Q 1550 3584 1831 3584 
Q 2591 3584 2966 3190 
Q 3341 2797 3341 1997 
z
" transform="scale(0.015625)"/>
      </defs>
      <use xlink:href="#DejaVuSans-73"/>
      <use xlink:href="#DejaVuSans-74" x="52.099609"/>
      <use xlink:href="#DejaVuSans-61" x="91.308594"/>
      <use xlink:href="#DejaVuSans-72" x="152.587891"/>
     </g>
    </g>
    <g id="line2d_38">
     <path d="M 815.08 343.176562 
L 825.08 343.176562 
L 835.08 343.176562 
" style="fill: none; stroke: #ff7f0e; stroke-width: 1.5; stroke-linecap: square"/>
    </g>
    <g id="text_20">
     <!-- fork -->
     <g style="fill: #a9a9a9" transform="translate(843.08 346.676562) scale(0.1 -0.1)">
      <defs>
       <path id="DejaVuSans-66" d="M 2375 4863 
L 2375 4384 
L 1825 4384 
Q 1516 4384 1395 4259 
Q 1275 4134 1275 3809 
L 1275 3500 
L 2222 3500 
L 2222 3053 
L 1275 3053 
L 1275 0 
L 697 0 
L 697 3053 
L 147 3053 
L 147 3500 
L 697 3500 
L 697 3744 
Q 697 4328 969 4595 
Q 1241 4863 1831 4863 
L 2375 4863 
z
" transform="scale(0.015625)"/>
       <path id="DejaVuSans-6b" d="M 581 4863 
L 1159 4863 
L 1159 1991 
L 2875 3500 
L 3609 3500 
L 1753 1863 
L 3688 0 
L 2938 0 
L 1159 1709 
L 1159 0 
L 581 0 
L 581 4863 
z
" transform="scale(0.015625)"/>
      </defs>
      <use xlink:href="#DejaVuSans-66"/>
      <use xlink:href="#DejaVuSans-6f" x="35.205078"/>
      <use xlink:href="#DejaVuSans-72" x="96.386719"/>
      <use xlink:href="#DejaVuSans-6b" x="137.5"/>
     </g>
    </g>
   </g>
  </g>
 </g>
 <defs>
  <clipPath id="p82370dc0e6">
   <rect x="108" y="43.2" width="669.6" height="277.2"/>
  </clipPath>
 </defs>
</svg>
