<?xml version="1.0" encoding="utf-8" standalone="no"?>
<!DOCTYPE svg PUBLIC "-//W3C//DTD SVG 1.1//EN"
  "http://www.w3.org/Graphics/SVG/1.1/DTD/svg11.dtd">
<svg xmlns:xlink="http://www.w3.org/1999/xlink" width="864pt" height="360pt" viewBox="0 0 864 360" xmlns="http://www.w3.org/2000/svg" version="1.1">
 <metadata>
  <rdf:RDF xmlns:dc="http://purl.org/dc/elements/1.1/" xmlns:cc="http://creativecommons.org/ns#" xmlns:rdf="http://www.w3.org/1999/02/22-rdf-syntax-ns#">
   <cc:Work>
    <dc:type rdf:resource="http://purl.org/dc/dcmitype/StillImage"/>
    <dc:date>2024-04-18T08:11:38.553821</dc:date>
    <dc:format>image/svg+xml</dc:format>
    <dc:creator>
     <cc:Agent>
      <dc:title>Matplotlib v3.8.4, https://matplotlib.org/</dc:title>
     </cc:Agent>
    </dc:creator>
   </cc:Work>
  </rdf:RDF>
 </metadata>
 <defs>
  <style type="text/css">*{stroke-linejoin: round; stroke-linecap: butt}</style>
 </defs>
 <g id="figure_1">
  <g id="patch_1">
   <path d="M 0 360 
L 864 360 
L 864 0 
L 0 0 
L 0 360 
z
" style="fill: none; opacity: 0"/>
  </g>
  <g id="axes_1">
   <g id="patch_2">
    <path d="M 108 320.4 
L 777.6 320.4 
L 777.6 43.2 
L 108 43.2 
L 108 320.4 
z
" style="fill: none; opacity: 0"/>
   </g>
   <g id="matplotlib.axis_1">
    <g id="xtick_1">
     <g id="line2d_1">
      <path d="M 162.200491 320.4 
L 162.200491 43.2 
" clip-path="url(#p09239ba741)" style="fill: none; stroke-dasharray: 5.12,1.28,0.8,1.28; stroke-dashoffset: 0; stroke: #b0b0b0; stroke-width: 0.8"/>
     </g>
     <g id="line2d_2">
      <defs>
       <path id="m67ccfeb0b8" d="M 0 0 
L 0 3.5 
" style="stroke: #a9a9a9; stroke-width: 0.8"/>
      </defs>
      <g>
       <use xlink:href="#m67ccfeb0b8" x="162.200491" y="320.4" style="fill: #a9a9a9; stroke: #a9a9a9; stroke-width: 0.8"/>
      </g>
     </g>
     <g id="text_1">
      <!-- 2021-09 -->
      <g style="fill: #a9a9a9" transform="translate(141.309085 334.998438) scale(0.1 -0.1)">
       <defs>
        <path id="DejaVuSans-32" d="M 1228 531 
L 3431 531 
L 3431 0 
L 469 0 
L 469 531 
Q 828 903 1448 1529 
Q 2069 2156 2228 2338 
Q 2531 2678 2651 2914 
Q 2772 3150 2772 3378 
Q 2772 3750 2511 3984 
Q 2250 4219 1831 4219 
Q 1534 4219 1204 4116 
Q 875 4013 500 3803 
L 500 4441 
Q 881 4594 1212 4672 
Q 1544 4750 1819 4750 
Q 2544 4750 2975 4387 
Q 3406 4025 3406 3419 
Q 3406 3131 3298 2873 
Q 3191 2616 2906 2266 
Q 2828 2175 2409 1742 
Q 1991 1309 1228 531 
z
" transform="scale(0.015625)"/>
        <path id="DejaVuSans-30" d="M 2034 4250 
Q 1547 4250 1301 3770 
Q 1056 3291 1056 2328 
Q 1056 1369 1301 889 
Q 1547 409 2034 409 
Q 2525 409 2770 889 
Q 3016 1369 3016 2328 
Q 3016 3291 2770 3770 
Q 2525 4250 2034 4250 
z
M 2034 4750 
Q 2819 4750 3233 4129 
Q 3647 3509 3647 2328 
Q 3647 1150 3233 529 
Q 2819 -91 2034 -91 
Q 1250 -91 836 529 
Q 422 1150 422 2328 
Q 422 3509 836 4129 
Q 1250 4750 2034 4750 
z
" transform="scale(0.015625)"/>
        <path id="DejaVuSans-31" d="M 794 531 
L 1825 531 
L 1825 4091 
L 703 3866 
L 703 4441 
L 1819 4666 
L 2450 4666 
L 2450 531 
L 3481 531 
L 3481 0 
L 794 0 
L 794 531 
z
" transform="scale(0.015625)"/>
        <path id="DejaVuSans-2d" d="M 313 2009 
L 1997 2009 
L 1997 1497 
L 313 1497 
L 313 2009 
z
" transform="scale(0.015625)"/>
        <path id="DejaVuSans-39" d="M 703 97 
L 703 672 
Q 941 559 1184 500 
Q 1428 441 1663 441 
Q 2288 441 2617 861 
Q 2947 1281 2994 2138 
Q 2813 1869 2534 1725 
Q 2256 1581 1919 1581 
Q 1219 1581 811 2004 
Q 403 2428 403 3163 
Q 403 3881 828 4315 
Q 1253 4750 1959 4750 
Q 2769 4750 3195 4129 
Q 3622 3509 3622 2328 
Q 3622 1225 3098 567 
Q 2575 -91 1691 -91 
Q 1453 -91 1209 -44 
Q 966 3 703 97 
z
M 1959 2075 
Q 2384 2075 2632 2365 
Q 2881 2656 2881 3163 
Q 2881 3666 2632 3958 
Q 2384 4250 1959 4250 
Q 1534 4250 1286 3958 
Q 1038 3666 1038 3163 
Q 1038 2656 1286 2365 
Q 1534 2075 1959 2075 
z
" transform="scale(0.015625)"/>
       </defs>
       <use xlink:href="#DejaVuSans-32"/>
       <use xlink:href="#DejaVuSans-30" x="63.623047"/>
       <use xlink:href="#DejaVuSans-32" x="127.246094"/>
       <use xlink:href="#DejaVuSans-31" x="190.869141"/>
       <use xlink:href="#DejaVuSans-2d" x="254.492188"/>
       <use xlink:href="#DejaVuSans-30" x="290.576172"/>
       <use xlink:href="#DejaVuSans-39" x="354.199219"/>
      </g>
     </g>
    </g>
    <g id="xtick_2">
     <g id="line2d_3">
      <path d="M 236.539558 320.4 
L 236.539558 43.2 
" clip-path="url(#p09239ba741)" style="fill: none; stroke-dasharray: 5.12,1.28,0.8,1.28; stroke-dashoffset: 0; stroke: #b0b0b0; stroke-width: 0.8"/>
     </g>
     <g id="line2d_4">
      <g>
       <use xlink:href="#m67ccfeb0b8" x="236.539558" y="320.4" style="fill: #a9a9a9; stroke: #a9a9a9; stroke-width: 0.8"/>
      </g>
     </g>
     <g id="text_2">
      <!-- 2022-01 -->
      <g style="fill: #a9a9a9" transform="translate(215.648151 334.998438) scale(0.1 -0.1)">
       <use xlink:href="#DejaVuSans-32"/>
       <use xlink:href="#DejaVuSans-30" x="63.623047"/>
       <use xlink:href="#DejaVuSans-32" x="127.246094"/>
       <use xlink:href="#DejaVuSans-32" x="190.869141"/>
       <use xlink:href="#DejaVuSans-2d" x="254.492188"/>
       <use xlink:href="#DejaVuSans-30" x="290.576172"/>
       <use xlink:href="#DejaVuSans-31" x="354.199219"/>
      </g>
     </g>
    </g>
    <g id="xtick_3">
     <g id="line2d_5">
      <path d="M 309.659951 320.4 
L 309.659951 43.2 
" clip-path="url(#p09239ba741)" style="fill: none; stroke-dasharray: 5.12,1.28,0.8,1.28; stroke-dashoffset: 0; stroke: #b0b0b0; stroke-width: 0.8"/>
     </g>
     <g id="line2d_6">
      <g>
       <use xlink:href="#m67ccfeb0b8" x="309.659951" y="320.4" style="fill: #a9a9a9; stroke: #a9a9a9; stroke-width: 0.8"/>
      </g>
     </g>
     <g id="text_3">
      <!-- 2022-05 -->
      <g style="fill: #a9a9a9" transform="translate(288.768545 334.998438) scale(0.1 -0.1)">
       <defs>
        <path id="DejaVuSans-35" d="M 691 4666 
L 3169 4666 
L 3169 4134 
L 1269 4134 
L 1269 2991 
Q 1406 3038 1543 3061 
Q 1681 3084 1819 3084 
Q 2600 3084 3056 2656 
Q 3513 2228 3513 1497 
Q 3513 744 3044 326 
Q 2575 -91 1722 -91 
Q 1428 -91 1123 -41 
Q 819 9 494 109 
L 494 744 
Q 775 591 1075 516 
Q 1375 441 1709 441 
Q 2250 441 2565 725 
Q 2881 1009 2881 1497 
Q 2881 1984 2565 2268 
Q 2250 2553 1709 2553 
Q 1456 2553 1204 2497 
Q 953 2441 691 2322 
L 691 4666 
z
" transform="scale(0.015625)"/>
       </defs>
       <use xlink:href="#DejaVuSans-32"/>
       <use xlink:href="#DejaVuSans-30" x="63.623047"/>
       <use xlink:href="#DejaVuSans-32" x="127.246094"/>
       <use xlink:href="#DejaVuSans-32" x="190.869141"/>
       <use xlink:href="#DejaVuSans-2d" x="254.492188"/>
       <use xlink:href="#DejaVuSans-30" x="290.576172"/>
       <use xlink:href="#DejaVuSans-35" x="354.199219"/>
      </g>
     </g>
    </g>
    <g id="xtick_4">
     <g id="line2d_7">
      <path d="M 384.608354 320.4 
L 384.608354 43.2 
" clip-path="url(#p09239ba741)" style="fill: none; stroke-dasharray: 5.12,1.28,0.8,1.28; stroke-dashoffset: 0; stroke: #b0b0b0; stroke-width: 0.8"/>
     </g>
     <g id="line2d_8">
      <g>
       <use xlink:href="#m67ccfeb0b8" x="384.608354" y="320.4" style="fill: #a9a9a9; stroke: #a9a9a9; stroke-width: 0.8"/>
      </g>
     </g>
     <g id="text_4">
      <!-- 2022-09 -->
      <g style="fill: #a9a9a9" transform="translate(363.716948 334.998438) scale(0.1 -0.1)">
       <use xlink:href="#DejaVuSans-32"/>
       <use xlink:href="#DejaVuSans-30" x="63.623047"/>
       <use xlink:href="#DejaVuSans-32" x="127.246094"/>
       <use xlink:href="#DejaVuSans-32" x="190.869141"/>
       <use xlink:href="#DejaVuSans-2d" x="254.492188"/>
       <use xlink:href="#DejaVuSans-30" x="290.576172"/>
       <use xlink:href="#DejaVuSans-39" x="354.199219"/>
      </g>
     </g>
    </g>
    <g id="xtick_5">
     <g id="line2d_9">
      <path d="M 458.94742 320.4 
L 458.94742 43.2 
" clip-path="url(#p09239ba741)" style="fill: none; stroke-dasharray: 5.12,1.28,0.8,1.28; stroke-dashoffset: 0; stroke: #b0b0b0; stroke-width: 0.8"/>
     </g>
     <g id="line2d_10">
      <g>
       <use xlink:href="#m67ccfeb0b8" x="458.94742" y="320.4" style="fill: #a9a9a9; stroke: #a9a9a9; stroke-width: 0.8"/>
      </g>
     </g>
     <g id="text_5">
      <!-- 2023-01 -->
      <g style="fill: #a9a9a9" transform="translate(438.056014 334.998438) scale(0.1 -0.1)">
       <defs>
        <path id="DejaVuSans-33" d="M 2597 2516 
Q 3050 2419 3304 2112 
Q 3559 1806 3559 1356 
Q 3559 666 3084 287 
Q 2609 -91 1734 -91 
Q 1441 -91 1130 -33 
Q 819 25 488 141 
L 488 750 
Q 750 597 1062 519 
Q 1375 441 1716 441 
Q 2309 441 2620 675 
Q 2931 909 2931 1356 
Q 2931 1769 2642 2001 
Q 2353 2234 1838 2234 
L 1294 2234 
L 1294 2753 
L 1863 2753 
Q 2328 2753 2575 2939 
Q 2822 3125 2822 3475 
Q 2822 3834 2567 4026 
Q 2313 4219 1838 4219 
Q 1578 4219 1281 4162 
Q 984 4106 628 3988 
L 628 4550 
Q 988 4650 1302 4700 
Q 1616 4750 1894 4750 
Q 2613 4750 3031 4423 
Q 3450 4097 3450 3541 
Q 3450 3153 3228 2886 
Q 3006 2619 2597 2516 
z
" transform="scale(0.015625)"/>
       </defs>
       <use xlink:href="#DejaVuSans-32"/>
       <use xlink:href="#DejaVuSans-30" x="63.623047"/>
       <use xlink:href="#DejaVuSans-32" x="127.246094"/>
       <use xlink:href="#DejaVuSans-33" x="190.869141"/>
       <use xlink:href="#DejaVuSans-2d" x="254.492188"/>
       <use xlink:href="#DejaVuSans-30" x="290.576172"/>
       <use xlink:href="#DejaVuSans-31" x="354.199219"/>
      </g>
     </g>
    </g>
    <g id="xtick_6">
     <g id="line2d_11">
      <path d="M 532.067813 320.4 
L 532.067813 43.2 
" clip-path="url(#p09239ba741)" style="fill: none; stroke-dasharray: 5.12,1.28,0.8,1.28; stroke-dashoffset: 0; stroke: #b0b0b0; stroke-width: 0.8"/>
     </g>
     <g id="line2d_12">
      <g>
       <use xlink:href="#m67ccfeb0b8" x="532.067813" y="320.4" style="fill: #a9a9a9; stroke: #a9a9a9; stroke-width: 0.8"/>
      </g>
     </g>
     <g id="text_6">
      <!-- 2023-05 -->
      <g style="fill: #a9a9a9" transform="translate(511.176407 334.998438) scale(0.1 -0.1)">
       <use xlink:href="#DejaVuSans-32"/>
       <use xlink:href="#DejaVuSans-30" x="63.623047"/>
       <use xlink:href="#DejaVuSans-32" x="127.246094"/>
       <use xlink:href="#DejaVuSans-33" x="190.869141"/>
       <use xlink:href="#DejaVuSans-2d" x="254.492188"/>
       <use xlink:href="#DejaVuSans-30" x="290.576172"/>
       <use xlink:href="#DejaVuSans-35" x="354.199219"/>
      </g>
     </g>
    </g>
    <g id="xtick_7">
     <g id="line2d_13">
      <path d="M 607.016216 320.4 
L 607.016216 43.2 
" clip-path="url(#p09239ba741)" style="fill: none; stroke-dasharray: 5.12,1.28,0.8,1.28; stroke-dashoffset: 0; stroke: #b0b0b0; stroke-width: 0.8"/>
     </g>
     <g id="line2d_14">
      <g>
       <use xlink:href="#m67ccfeb0b8" x="607.016216" y="320.4" style="fill: #a9a9a9; stroke: #a9a9a9; stroke-width: 0.8"/>
      </g>
     </g>
     <g id="text_7">
      <!-- 2023-09 -->
      <g style="fill: #a9a9a9" transform="translate(586.12481 334.998438) scale(0.1 -0.1)">
       <use xlink:href="#DejaVuSans-32"/>
       <use xlink:href="#DejaVuSans-30" x="63.623047"/>
       <use xlink:href="#DejaVuSans-32" x="127.246094"/>
       <use xlink:href="#DejaVuSans-33" x="190.869141"/>
       <use xlink:href="#DejaVuSans-2d" x="254.492188"/>
       <use xlink:href="#DejaVuSans-30" x="290.576172"/>
       <use xlink:href="#DejaVuSans-39" x="354.199219"/>
      </g>
     </g>
    </g>
    <g id="xtick_8">
     <g id="line2d_15">
      <path d="M 681.355283 320.4 
L 681.355283 43.2 
" clip-path="url(#p09239ba741)" style="fill: none; stroke-dasharray: 5.12,1.28,0.8,1.28; stroke-dashoffset: 0; stroke: #b0b0b0; stroke-width: 0.8"/>
     </g>
     <g id="line2d_16">
      <g>
       <use xlink:href="#m67ccfeb0b8" x="681.355283" y="320.4" style="fill: #a9a9a9; stroke: #a9a9a9; stroke-width: 0.8"/>
      </g>
     </g>
     <g id="text_8">
      <!-- 2024-01 -->
      <g style="fill: #a9a9a9" transform="translate(660.463876 334.998438) scale(0.1 -0.1)">
       <defs>
        <path id="DejaVuSans-34" d="M 2419 4116 
L 825 1625 
L 2419 1625 
L 2419 4116 
z
M 2253 4666 
L 3047 4666 
L 3047 1625 
L 3713 1625 
L 3713 1100 
L 3047 1100 
L 3047 0 
L 2419 0 
L 2419 1100 
L 313 1100 
L 313 1709 
L 2253 4666 
z
" transform="scale(0.015625)"/>
       </defs>
       <use xlink:href="#DejaVuSans-32"/>
       <use xlink:href="#DejaVuSans-30" x="63.623047"/>
       <use xlink:href="#DejaVuSans-32" x="127.246094"/>
       <use xlink:href="#DejaVuSans-34" x="190.869141"/>
       <use xlink:href="#DejaVuSans-2d" x="254.492188"/>
       <use xlink:href="#DejaVuSans-30" x="290.576172"/>
       <use xlink:href="#DejaVuSans-31" x="354.199219"/>
      </g>
     </g>
    </g>
    <g id="xtick_9">
     <g id="line2d_17">
      <path d="M 755.085012 320.4 
L 755.085012 43.2 
" clip-path="url(#p09239ba741)" style="fill: none; stroke-dasharray: 5.12,1.28,0.8,1.28; stroke-dashoffset: 0; stroke: #b0b0b0; stroke-width: 0.8"/>
     </g>
     <g id="line2d_18">
      <g>
       <use xlink:href="#m67ccfeb0b8" x="755.085012" y="320.4" style="fill: #a9a9a9; stroke: #a9a9a9; stroke-width: 0.8"/>
      </g>
     </g>
     <g id="text_9">
      <!-- 2024-05 -->
      <g style="fill: #a9a9a9" transform="translate(734.193606 334.998438) scale(0.1 -0.1)">
       <use xlink:href="#DejaVuSans-32"/>
       <use xlink:href="#DejaVuSans-30" x="63.623047"/>
       <use xlink:href="#DejaVuSans-32" x="127.246094"/>
       <use xlink:href="#DejaVuSans-34" x="190.869141"/>
       <use xlink:href="#DejaVuSans-2d" x="254.492188"/>
       <use xlink:href="#DejaVuSans-30" x="290.576172"/>
       <use xlink:href="#DejaVuSans-35" x="354.199219"/>
      </g>
     </g>
    </g>
   </g>
   <g id="matplotlib.axis_2">
    <g id="ytick_1">
     <g id="line2d_19">
      <path d="M 108 307.842489 
L 777.6 307.842489 
" clip-path="url(#p09239ba741)" style="fill: none; stroke-dasharray: 5.12,1.28,0.8,1.28; stroke-dashoffset: 0; stroke: #b0b0b0; stroke-width: 0.8"/>
     </g>
     <g id="line2d_20">
      <defs>
       <path id="meb8eb0c09a" d="M 0 0 
L -3.5 0 
" style="stroke: #a9a9a9; stroke-width: 0.8"/>
      </defs>
      <g>
       <use xlink:href="#meb8eb0c09a" x="108" y="307.842489" style="fill: #a9a9a9; stroke: #a9a9a9; stroke-width: 0.8"/>
      </g>
     </g>
     <g id="text_10">
      <!-- 0 -->
      <g style="fill: #a9a9a9" transform="translate(94.6375 311.641707) scale(0.1 -0.1)">
       <use xlink:href="#DejaVuSans-30"/>
      </g>
     </g>
    </g>
    <g id="ytick_2">
     <g id="line2d_21">
      <path d="M 108 273.851593 
L 777.6 273.851593 
" clip-path="url(#p09239ba741)" style="fill: none; stroke-dasharray: 5.12,1.28,0.8,1.28; stroke-dashoffset: 0; stroke: #b0b0b0; stroke-width: 0.8"/>
     </g>
     <g id="line2d_22">
      <g>
       <use xlink:href="#meb8eb0c09a" x="108" y="273.851593" style="fill: #a9a9a9; stroke: #a9a9a9; stroke-width: 0.8"/>
      </g>
     </g>
     <g id="text_11">
      <!-- 800 -->
      <g style="fill: #a9a9a9" transform="translate(81.9125 277.650812) scale(0.1 -0.1)">
       <defs>
        <path id="DejaVuSans-38" d="M 2034 2216 
Q 1584 2216 1326 1975 
Q 1069 1734 1069 1313 
Q 1069 891 1326 650 
Q 1584 409 2034 409 
Q 2484 409 2743 651 
Q 3003 894 3003 1313 
Q 3003 1734 2745 1975 
Q 2488 2216 2034 2216 
z
M 1403 2484 
Q 997 2584 770 2862 
Q 544 3141 544 3541 
Q 544 4100 942 4425 
Q 1341 4750 2034 4750 
Q 2731 4750 3128 4425 
Q 3525 4100 3525 3541 
Q 3525 3141 3298 2862 
Q 3072 2584 2669 2484 
Q 3125 2378 3379 2068 
Q 3634 1759 3634 1313 
Q 3634 634 3220 271 
Q 2806 -91 2034 -91 
Q 1263 -91 848 271 
Q 434 634 434 1313 
Q 434 1759 690 2068 
Q 947 2378 1403 2484 
z
M 1172 3481 
Q 1172 3119 1398 2916 
Q 1625 2713 2034 2713 
Q 2441 2713 2670 2916 
Q 2900 3119 2900 3481 
Q 2900 3844 2670 4047 
Q 2441 4250 2034 4250 
Q 1625 4250 1398 4047 
Q 1172 3844 1172 3481 
z
" transform="scale(0.015625)"/>
       </defs>
       <use xlink:href="#DejaVuSans-38"/>
       <use xlink:href="#DejaVuSans-30" x="63.623047"/>
       <use xlink:href="#DejaVuSans-30" x="127.246094"/>
      </g>
     </g>
    </g>
    <g id="ytick_3">
     <g id="line2d_23">
      <path d="M 108 239.860698 
L 777.6 239.860698 
" clip-path="url(#p09239ba741)" style="fill: none; stroke-dasharray: 5.12,1.28,0.8,1.28; stroke-dashoffset: 0; stroke: #b0b0b0; stroke-width: 0.8"/>
     </g>
     <g id="line2d_24">
      <g>
       <use xlink:href="#meb8eb0c09a" x="108" y="239.860698" style="fill: #a9a9a9; stroke: #a9a9a9; stroke-width: 0.8"/>
      </g>
     </g>
     <g id="text_12">
      <!-- 1600 -->
      <g style="fill: #a9a9a9" transform="translate(75.55 243.659917) scale(0.1 -0.1)">
       <defs>
        <path id="DejaVuSans-36" d="M 2113 2584 
Q 1688 2584 1439 2293 
Q 1191 2003 1191 1497 
Q 1191 994 1439 701 
Q 1688 409 2113 409 
Q 2538 409 2786 701 
Q 3034 994 3034 1497 
Q 3034 2003 2786 2293 
Q 2538 2584 2113 2584 
z
M 3366 4563 
L 3366 3988 
Q 3128 4100 2886 4159 
Q 2644 4219 2406 4219 
Q 1781 4219 1451 3797 
Q 1122 3375 1075 2522 
Q 1259 2794 1537 2939 
Q 1816 3084 2150 3084 
Q 2853 3084 3261 2657 
Q 3669 2231 3669 1497 
Q 3669 778 3244 343 
Q 2819 -91 2113 -91 
Q 1303 -91 875 529 
Q 447 1150 447 2328 
Q 447 3434 972 4092 
Q 1497 4750 2381 4750 
Q 2619 4750 2861 4703 
Q 3103 4656 3366 4563 
z
" transform="scale(0.015625)"/>
       </defs>
       <use xlink:href="#DejaVuSans-31"/>
       <use xlink:href="#DejaVuSans-36" x="63.623047"/>
       <use xlink:href="#DejaVuSans-30" x="127.246094"/>
       <use xlink:href="#DejaVuSans-30" x="190.869141"/>
      </g>
     </g>
    </g>
    <g id="ytick_4">
     <g id="line2d_25">
      <path d="M 108 205.869803 
L 777.6 205.869803 
" clip-path="url(#p09239ba741)" style="fill: none; stroke-dasharray: 5.12,1.28,0.8,1.28; stroke-dashoffset: 0; stroke: #b0b0b0; stroke-width: 0.8"/>
     </g>
     <g id="line2d_26">
      <g>
       <use xlink:href="#meb8eb0c09a" x="108" y="205.869803" style="fill: #a9a9a9; stroke: #a9a9a9; stroke-width: 0.8"/>
      </g>
     </g>
     <g id="text_13">
      <!-- 2400 -->
      <g style="fill: #a9a9a9" transform="translate(75.55 209.669021) scale(0.1 -0.1)">
       <use xlink:href="#DejaVuSans-32"/>
       <use xlink:href="#DejaVuSans-34" x="63.623047"/>
       <use xlink:href="#DejaVuSans-30" x="127.246094"/>
       <use xlink:href="#DejaVuSans-30" x="190.869141"/>
      </g>
     </g>
    </g>
    <g id="ytick_5">
     <g id="line2d_27">
      <path d="M 108 171.878907 
L 777.6 171.878907 
" clip-path="url(#p09239ba741)" style="fill: none; stroke-dasharray: 5.12,1.28,0.8,1.28; stroke-dashoffset: 0; stroke: #b0b0b0; stroke-width: 0.8"/>
     </g>
     <g id="line2d_28">
      <g>
       <use xlink:href="#meb8eb0c09a" x="108" y="171.878907" style="fill: #a9a9a9; stroke: #a9a9a9; stroke-width: 0.8"/>
      </g>
     </g>
     <g id="text_14">
      <!-- 3200 -->
      <g style="fill: #a9a9a9" transform="translate(75.55 175.678126) scale(0.1 -0.1)">
       <use xlink:href="#DejaVuSans-33"/>
       <use xlink:href="#DejaVuSans-32" x="63.623047"/>
       <use xlink:href="#DejaVuSans-30" x="127.246094"/>
       <use xlink:href="#DejaVuSans-30" x="190.869141"/>
      </g>
     </g>
    </g>
    <g id="ytick_6">
     <g id="line2d_29">
      <path d="M 108 137.888012 
L 777.6 137.888012 
" clip-path="url(#p09239ba741)" style="fill: none; stroke-dasharray: 5.12,1.28,0.8,1.28; stroke-dashoffset: 0; stroke: #b0b0b0; stroke-width: 0.8"/>
     </g>
     <g id="line2d_30">
      <g>
       <use xlink:href="#meb8eb0c09a" x="108" y="137.888012" style="fill: #a9a9a9; stroke: #a9a9a9; stroke-width: 0.8"/>
      </g>
     </g>
     <g id="text_15">
      <!-- 4000 -->
      <g style="fill: #a9a9a9" transform="translate(75.55 141.687231) scale(0.1 -0.1)">
       <use xlink:href="#DejaVuSans-34"/>
       <use xlink:href="#DejaVuSans-30" x="63.623047"/>
       <use xlink:href="#DejaVuSans-30" x="127.246094"/>
       <use xlink:href="#DejaVuSans-30" x="190.869141"/>
      </g>
     </g>
    </g>
    <g id="ytick_7">
     <g id="line2d_31">
      <path d="M 108 103.897117 
L 777.6 103.897117 
" clip-path="url(#p09239ba741)" style="fill: none; stroke-dasharray: 5.12,1.28,0.8,1.28; stroke-dashoffset: 0; stroke: #b0b0b0; stroke-width: 0.8"/>
     </g>
     <g id="line2d_32">
      <g>
       <use xlink:href="#meb8eb0c09a" x="108" y="103.897117" style="fill: #a9a9a9; stroke: #a9a9a9; stroke-width: 0.8"/>
      </g>
     </g>
     <g id="text_16">
      <!-- 4800 -->
      <g style="fill: #a9a9a9" transform="translate(75.55 107.696336) scale(0.1 -0.1)">
       <use xlink:href="#DejaVuSans-34"/>
       <use xlink:href="#DejaVuSans-38" x="63.623047"/>
       <use xlink:href="#DejaVuSans-30" x="127.246094"/>
       <use xlink:href="#DejaVuSans-30" x="190.869141"/>
      </g>
     </g>
    </g>
    <g id="ytick_8">
     <g id="line2d_33">
      <path d="M 108 69.906222 
L 777.6 69.906222 
" clip-path="url(#p09239ba741)" style="fill: none; stroke-dasharray: 5.12,1.28,0.8,1.28; stroke-dashoffset: 0; stroke: #b0b0b0; stroke-width: 0.8"/>
     </g>
     <g id="line2d_34">
      <g>
       <use xlink:href="#meb8eb0c09a" x="108" y="69.906222" style="fill: #a9a9a9; stroke: #a9a9a9; stroke-width: 0.8"/>
      </g>
     </g>
     <g id="text_17">
      <!-- 5600 -->
      <g style="fill: #a9a9a9" transform="translate(75.55 73.70544) scale(0.1 -0.1)">
       <use xlink:href="#DejaVuSans-35"/>
       <use xlink:href="#DejaVuSans-36" x="63.623047"/>
       <use xlink:href="#DejaVuSans-30" x="127.246094"/>
       <use xlink:href="#DejaVuSans-30" x="190.869141"/>
      </g>
     </g>
    </g>
   </g>
   <g id="line2d_35">
    <path d="M 138.436364 307.715023 
L 142.092383 307.417602 
L 142.70172 307.162671 
L 144.52973 306.950228 
L 148.185749 306.227921 
L 151.841769 305.930501 
L 152.451106 305.63308 
L 153.060442 305.463126 
L 153.669779 304.698331 
L 154.279115 304.273445 
L 154.888452 302.956297 
L 155.497789 302.87132 
L 156.107125 302.403945 
L 157.325799 301.809105 
L 159.763145 299.939605 
L 160.981818 299.429742 
L 161.591155 299.004856 
L 164.028501 297.94264 
L 164.637838 297.007891 
L 165.856511 296.158118 
L 166.465848 295.860698 
L 172.559214 295.010926 
L 173.16855 294.713505 
L 177.433907 294.373596 
L 179.261916 293.906222 
L 184.745946 293.183915 
L 185.355283 292.844006 
L 185.964619 292.759029 
L 186.573956 292.504097 
L 187.792629 292.291654 
L 188.401966 292.249165 
L 189.620639 291.994234 
L 190.229975 291.951745 
L 192.667322 291.356904 
L 194.495332 291.18695 
L 195.714005 291.059484 
L 196.323342 290.88953 
L 196.932678 290.847041 
L 198.760688 290.294689 
L 199.979361 290.209712 
L 201.198034 290.039757 
L 202.416708 289.784825 
L 203.026044 289.614871 
L 203.635381 288.807587 
L 205.463391 288.127769 
L 207.2914 287.660395 
L 207.900737 287.362974 
L 208.510074 287.320486 
L 211.556757 286.470713 
L 212.77543 286.385736 
L 213.994103 286.130804 
L 216.43145 285.535964 
L 217.040786 285.493475 
L 218.259459 284.941123 
L 218.868796 284.856146 
L 219.478133 284.558725 
L 225.571499 283.666464 
L 228.618182 282.816692 
L 229.227518 282.434294 
L 231.664865 281.796965 
L 232.883538 281.074659 
L 233.492875 280.649772 
L 235.320885 280.309863 
L 238.976904 279.205159 
L 240.195577 278.822762 
L 240.804914 278.737785 
L 242.023587 278.397876 
L 243.24226 278.100455 
L 243.851597 278.015478 
L 245.07027 277.505615 
L 245.679607 277.378149 
L 246.288943 277.123217 
L 246.89828 277.03824 
L 247.507617 276.740819 
L 248.116953 276.570865 
L 249.335627 276.485888 
L 250.5543 276.061002 
L 251.772973 275.976024 
L 252.38231 275.678604 
L 253.600983 275.508649 
L 254.210319 275.296206 
L 255.428993 275.253718 
L 257.866339 274.956297 
L 259.085012 274.361457 
L 265.787715 271.514719 
L 266.397052 271.17481 
L 267.006388 270.537481 
L 268.225061 268.71047 
L 268.834398 268.540516 
L 269.443735 268.540516 
L 270.662408 267.648255 
L 271.271744 267.4783 
L 271.881081 267.18088 
L 272.490418 267.053414 
L 273.099754 266.501062 
L 273.709091 266.331108 
L 275.537101 265.438847 
L 276.755774 263.739302 
L 277.365111 263.356904 
L 277.974447 262.337178 
L 278.583784 261.699848 
L 279.19312 261.402428 
L 279.802457 261.232473 
L 282.239803 259.78786 
L 283.458477 258.810622 
L 284.067813 258.428225 
L 284.67715 257.535964 
L 285.286486 256.176328 
L 285.895823 255.284067 
L 286.50516 254.816692 
L 287.114496 254.56176 
L 289.551843 252.437329 
L 290.770516 251.460091 
L 291.379853 250.950228 
L 291.989189 250.142944 
L 293.207862 249.080728 
L 295.645209 247.508649 
L 296.254545 246.998786 
L 296.863882 246.87132 
L 297.473219 246.616388 
L 299.301229 245.596662 
L 300.519902 245.001821 
L 301.738575 243.854628 
L 302.347912 243.132322 
L 303.566585 242.282549 
L 304.175921 242.112595 
L 304.785258 241.815175 
L 306.003931 241.007891 
L 306.613268 240.667982 
L 307.222604 240.583005 
L 312.097297 237.65129 
L 312.706634 237.311381 
L 313.315971 237.098938 
L 315.14398 235.909256 
L 316.97199 235.356904 
L 317.581327 234.932018 
L 318.190663 234.804552 
L 319.409337 234.379666 
L 321.237346 233.65736 
L 323.065356 232.977542 
L 324.284029 232.765099 
L 325.502703 231.702883 
L 327.330713 230.853111 
L 328.549386 230.130804 
L 329.768059 229.790895 
L 330.377396 229.408498 
L 330.986732 229.238543 
L 332.814742 228.091351 
L 335.861425 227.369044 
L 337.689435 226.306829 
L 338.298771 226.221851 
L 338.908108 226.009408 
L 340.126781 225.754476 
L 341.954791 224.394841 
L 343.782801 223.969954 
L 344.392138 223.757511 
L 345.001474 223.290137 
L 348.657494 222.100455 
L 349.26683 222.057967 
L 349.876167 221.888012 
L 351.09484 221.378149 
L 355.360197 219.891047 
L 356.57887 219.721093 
L 357.188206 219.551138 
L 357.797543 219.253718 
L 358.40688 219.126252 
L 360.234889 218.27648 
L 362.062899 217.384219 
L 362.672236 216.959332 
L 363.281572 216.789378 
L 365.109582 215.81214 
L 366.328256 215.514719 
L 367.546929 214.87739 
L 368.765602 214.537481 
L 369.374939 214.452504 
L 370.593612 213.730197 
L 371.202948 213.602731 
L 372.421622 213.092868 
L 373.030958 212.965402 
L 373.640295 212.625493 
L 376.077641 212.243096 
L 377.296314 211.648255 
L 377.905651 211.138392 
L 378.514988 210.076176 
L 380.342998 209.736267 
L 382.780344 208.461608 
L 383.389681 208.334143 
L 387.655037 206.294689 
L 388.87371 205.95478 
L 390.092383 205.699848 
L 391.311057 205.105008 
L 391.920393 204.850076 
L 392.52973 204.765099 
L 394.967076 203.702883 
L 396.795086 202.55569 
L 397.404423 202.470713 
L 398.013759 202.25827 
L 398.623096 202.215781 
L 401.669779 201.450986 
L 402.279115 200.983612 
L 403.497789 200.558725 
L 405.325799 199.963885 
L 405.935135 199.581487 
L 406.544472 199.411533 
L 407.153808 198.986646 
L 407.763145 198.731715 
L 408.981818 198.094385 
L 411.419165 197.32959 
L 412.028501 197.03217 
L 413.856511 195.630046 
L 414.465848 195.50258 
L 415.684521 194.56783 
L 416.293857 194.440364 
L 416.903194 193.505615 
L 417.512531 193.250683 
L 418.121867 192.783308 
L 418.731204 192.698331 
L 419.949877 191.976024 
L 420.559214 191.848558 
L 421.16855 191.593627 
L 421.777887 191.126252 
L 422.387224 190.913809 
L 424.215233 189.681639 
L 426.65258 188.449469 
L 427.261916 188.364492 
L 428.48059 187.81214 
L 429.089926 187.472231 
L 429.699263 186.452504 
L 430.3086 185.900152 
L 430.917936 185.560243 
L 431.527273 185.432777 
L 432.745946 184.667982 
L 433.355283 184.540516 
L 434.573956 183.945675 
L 436.401966 183.18088 
L 437.620639 182.331108 
L 438.839312 181.056449 
L 441.885995 178.847041 
L 443.104668 177.869803 
L 443.714005 177.614871 
L 444.323342 176.935053 
L 444.932678 176.467678 
L 446.151351 176.042792 
L 447.370025 175.235508 
L 447.979361 174.938088 
L 448.588698 174.768134 
L 449.198034 174.343247 
L 449.807371 174.215781 
L 451.635381 173.238543 
L 452.854054 172.516237 
L 458.94742 170.349317 
L 459.556757 169.796965 
L 461.384767 169.117147 
L 462.60344 168.73475 
L 463.212776 168.267375 
L 466.259459 166.695296 
L 467.478133 164.358422 
L 468.696806 162.913809 
L 469.915479 162.191502 
L 471.743489 161.469196 
L 472.352826 161.384219 
L 472.962162 161.04431 
L 474.790172 160.491958 
L 477.227518 159.387253 
L 477.836855 159.004856 
L 479.055528 158.57997 
L 482.711548 156.455539 
L 483.320885 155.818209 
L 484.539558 155.18088 
L 485.148894 154.840971 
L 485.758231 154.628528 
L 486.367568 154.203642 
L 487.586241 153.608801 
L 489.414251 152.631563 
L 490.023587 152.461608 
L 490.632924 151.994234 
L 493.679607 151.016995 
L 494.288943 150.847041 
L 494.89828 150.549621 
L 495.507617 150.124734 
L 496.72629 149.784825 
L 497.944963 149.317451 
L 498.5543 148.850076 
L 499.772973 148.467678 
L 500.38231 148.170258 
L 500.991646 148.000303 
L 502.210319 147.150531 
L 503.428993 146.640668 
L 504.647666 145.705918 
L 505.866339 145.281032 
L 506.475676 144.771168 
L 507.085012 144.686191 
L 508.303686 143.79393 
L 509.522359 143.19909 
L 510.131695 142.944158 
L 510.741032 142.349317 
L 514.397052 141.03217 
L 516.225061 140.224886 
L 518.053071 139.672534 
L 519.271744 139.50258 
L 519.881081 139.247648 
L 520.490418 139.162671 
L 521.709091 138.652807 
L 522.318428 138.610319 
L 524.755774 137.718058 
L 526.583784 136.485888 
L 527.19312 136.230956 
L 528.411794 135.593627 
L 529.02113 135.381184 
L 531.458477 133.936571 
L 532.067813 133.554173 
L 533.286486 133.256753 
L 535.114496 132.237026 
L 536.942506 131.642185 
L 537.551843 131.387253 
L 538.770516 131.089833 
L 541.817199 130.112595 
L 543.645209 129.815175 
L 546.082555 129.050379 
L 546.691892 128.795448 
L 547.301229 128.71047 
L 547.910565 128.41305 
L 549.129238 128.158118 
L 550.347912 127.733232 
L 550.957248 127.520789 
L 552.175921 127.393323 
L 553.394595 127.095903 
L 555.222604 126.798483 
L 555.831941 126.586039 
L 557.050614 126.458574 
L 560.097297 125.693778 
L 561.315971 125.396358 
L 561.925307 125.056449 
L 564.97199 124.291654 
L 565.581327 124.164188 
L 566.8 123.739302 
L 568.62801 123.101973 
L 569.237346 123.016995 
L 571.065356 122.379666 
L 571.674693 122.379666 
L 572.893366 121.95478 
L 573.502703 121.359939 
L 574.112039 121.062519 
L 575.330713 120.680121 
L 577.768059 119.745372 
L 578.377396 119.617906 
L 578.986732 119.235508 
L 579.596069 119.108042 
L 580.205405 118.768134 
L 583.252088 117.875873 
L 583.861425 117.493475 
L 584.470762 117.366009 
L 585.080098 116.856146 
L 586.908108 116.516237 
L 588.126781 115.836419 
L 588.736118 115.156601 
L 589.954791 114.901669 
L 594.220147 113.924431 
L 594.829484 113.754476 
L 596.048157 113.711988 
L 596.657494 113.414568 
L 599.09484 112.989681 
L 599.704177 112.73475 
L 601.532187 112.479818 
L 603.969533 111.715023 
L 605.797543 111.290137 
L 607.625553 110.822762 
L 609.453563 110.27041 
L 612.500246 109.378149 
L 613.109582 109.03824 
L 614.937592 108.40091 
L 615.546929 107.933536 
L 616.765602 107.593627 
L 617.374939 107.338695 
L 618.593612 106.998786 
L 621.030958 105.894082 
L 622.858968 105.766616 
L 625.296314 105.086798 
L 625.905651 104.704401 
L 627.124324 104.364492 
L 628.952334 103.429742 
L 629.561671 103.302276 
L 630.171007 103.004856 
L 630.780344 102.962367 
L 637.483047 100.71047 
L 639.920393 100.11563 
L 640.52973 99.945675 
L 641.748403 99.393323 
L 642.35774 99.308346 
L 643.576413 98.968437 
L 644.185749 98.501062 
L 644.795086 98.203642 
L 645.404423 97.481335 
L 646.013759 97.056449 
L 647.232432 96.674052 
L 647.841769 96.206677 
L 654.544472 93.444917 
L 655.763145 93.147496 
L 657.591155 92.297724 
L 658.809828 91.575417 
L 659.419165 91.447951 
L 660.028501 90.980577 
L 661.247174 90.385736 
L 662.465848 89.620941 
L 664.293857 88.771168 
L 664.903194 88.346282 
L 666.121867 87.921396 
L 667.340541 87.19909 
L 667.949877 86.944158 
L 668.559214 86.519272 
L 669.777887 86.094385 
L 670.387224 85.96692 
L 672.82457 84.862215 
L 675.871253 83.8 
L 676.48059 83.757511 
L 677.089926 83.587557 
L 677.699263 83.205159 
L 678.3086 83.120182 
L 678.917936 82.907739 
L 680.745946 82.56783 
L 684.401966 80.698331 
L 685.011302 80.358422 
L 685.620639 80.273445 
L 687.448649 79.296206 
L 689.276658 78.616388 
L 691.104668 77.809105 
L 693.542015 76.831866 
L 694.151351 76.661912 
L 694.760688 76.279514 
L 695.979361 76.10956 
L 696.588698 75.727162 
L 697.198034 75.684674 
L 698.416708 75.302276 
L 699.635381 74.707436 
L 700.244717 74.622458 
L 700.854054 74.367527 
L 701.463391 74.240061 
L 703.2914 73.432777 
L 703.900737 73.305311 
L 704.510074 73.050379 
L 707.556757 72.328073 
L 709.384767 71.648255 
L 711.822113 70.246131 
L 713.040786 69.778756 
L 713.650123 69.396358 
L 714.868796 69.141426 
L 715.478133 68.801517 
L 716.087469 68.674052 
L 717.306143 67.994234 
L 720.962162 66.294689 
L 722.790172 65.699848 
L 724.008845 65.274962 
L 724.618182 65.062519 
L 725.836855 64.42519 
L 727.055528 64.042792 
L 727.664865 63.915326 
L 730.102211 62.768134 
L 730.711548 62.683156 
L 731.320885 62.470713 
L 733.148894 61.450986 
L 741.07027 58.136874 
L 741.679607 57.711988 
L 744.116953 56.904704 
L 744.72629 56.904704 
L 745.944963 56.352352 
L 746.5543 55.8 
L 747.163636 55.8 
L 747.163636 55.8 
" clip-path="url(#p09239ba741)" style="fill: none; stroke: #1f77b4; stroke-width: 1.5; stroke-linecap: square"/>
   </g>
   <g id="line2d_36">
    <path d="M 139.0457 307.8 
L 140.87371 307.715023 
L 142.70172 307.672534 
L 146.35774 307.587557 
L 149.404423 307.460091 
L 151.841769 307.460091 
L 152.451106 307.290137 
L 154.888452 307.205159 
L 156.716462 306.992716 
L 158.544472 306.822762 
L 162.200491 306.652807 
L 162.809828 306.652807 
L 163.419165 306.525341 
L 165.856511 306.440364 
L 167.075184 306.355387 
L 171.949877 306.27041 
L 174.99656 306.142944 
L 182.3086 306.057967 
L 185.355283 305.930501 
L 189.011302 305.845524 
L 191.448649 305.760546 
L 196.932678 305.675569 
L 198.760688 305.63308 
L 200.588698 305.590592 
L 202.416708 305.378149 
L 206.072727 305.33566 
L 207.2914 305.250683 
L 211.556757 305.165706 
L 218.259459 304.783308 
L 222.524816 304.698331 
L 223.743489 304.613354 
L 225.571499 304.528376 
L 229.227518 304.358422 
L 231.664865 304.315933 
L 233.492875 304.145979 
L 243.24226 303.551138 
L 245.679607 303.466161 
L 249.944963 303.253718 
L 251.772973 303.168741 
L 257.866339 302.828832 
L 264.569042 302.743854 
L 267.006388 302.488923 
L 268.225061 302.403945 
L 276.146437 301.766616 
L 279.802457 301.299241 
L 282.239803 301.214264 
L 287.114496 300.576935 
L 290.770516 300.491958 
L 292.598526 300.322003 
L 293.817199 300.279514 
L 295.035872 300.152049 
L 296.863882 300.067071 
L 298.082555 299.897117 
L 301.129238 299.557208 
L 303.566585 299.472231 
L 304.785258 299.387253 
L 307.222604 299.302276 
L 308.441278 299.217299 
L 311.487961 298.919879 
L 312.097297 298.749924 
L 315.753317 298.57997 
L 318.8 298.494992 
L 326.721376 298.027618 
L 328.549386 297.94264 
L 336.470762 297.475266 
L 340.736118 297.390288 
L 341.345455 297.262822 
L 346.220147 297.177845 
L 350.485504 296.965402 
L 357.188206 296.880425 
L 361.453563 296.667982 
L 366.328256 296.583005 
L 371.202948 296.328073 
L 375.468305 296.243096 
L 387.0457 295.520789 
L 391.920393 295.435812 
L 407.763145 294.416085 
L 411.419165 294.331108 
L 413.247174 294.288619 
L 415.075184 294.246131 
L 416.903194 294.076176 
L 421.777887 293.991199 
L 422.99656 293.778756 
L 424.215233 293.693778 
L 427.261916 293.566313 
L 428.48059 293.481335 
L 429.699263 293.396358 
L 435.183292 293.311381 
L 436.401966 293.183915 
L 438.839312 293.141426 
L 439.448649 293.013961 
L 440.667322 292.928983 
L 441.276658 292.801517 
L 443.104668 292.71654 
L 453.463391 292.079211 
L 455.2914 291.994234 
L 458.338084 291.866768 
L 466.868796 291.781791 
L 471.134152 291.569347 
L 476.008845 291.48437 
L 478.446192 291.399393 
L 480.883538 291.356904 
L 482.102211 291.229439 
L 484.539558 291.144461 
L 490.632924 290.804552 
L 494.288943 290.762064 
L 496.116953 290.592109 
L 497.944963 290.549621 
L 502.210319 290.464643 
L 504.647666 290.379666 
L 511.959705 290.294689 
L 515.006388 290.167223 
L 518.662408 290.082246 
L 520.490418 289.869803 
L 524.146437 289.827314 
L 525.974447 289.65736 
L 528.411794 289.572382 
L 535.723833 289.487405 
L 538.770516 289.359939 
L 549.129238 289.317451 
L 550.347912 289.232473 
L 552.175921 289.189985 
L 560.097297 289.105008 
L 561.315971 289.02003 
L 568.018673 288.935053 
L 570.45602 288.850076 
L 577.768059 288.807587 
L 578.986732 288.72261 
L 588.126781 288.680121 
L 589.954791 288.510167 
L 605.188206 288.42519 
L 607.016216 288.382701 
L 623.468305 288.297724 
L 625.905651 288.212747 
L 636.264373 288.127769 
L 637.483047 288.042792 
L 640.52973 287.957815 
L 642.35774 287.78786 
L 645.404423 287.702883 
L 647.841769 287.617906 
L 651.497789 287.532929 
L 653.325799 287.49044 
L 655.763145 287.405463 
L 657.591155 287.362974 
L 660.637838 287.277997 
L 661.856511 287.19302 
L 665.512531 287.108042 
L 668.559214 286.980577 
L 669.777887 286.938088 
L 670.99656 286.853111 
L 672.82457 286.810622 
L 675.261916 286.725645 
L 677.699263 286.640668 
L 685.620639 286.55569 
L 688.057985 286.470713 
L 692.932678 286.385736 
L 697.198034 286.173293 
L 702.682064 286.088316 
L 703.900737 286.003338 
L 714.868796 285.918361 
L 716.696806 285.875873 
L 719.743489 285.833384 
L 722.180835 285.578452 
L 724.008845 285.535964 
L 727.664865 285.450986 
L 734.367568 285.068589 
L 736.804914 284.983612 
L 739.24226 284.898634 
L 742.89828 284.813657 
L 744.116953 284.72868 
L 747.163636 284.643703 
L 747.163636 284.643703 
" clip-path="url(#p09239ba741)" style="fill: none; stroke: #ff7f0e; stroke-width: 1.5; stroke-linecap: square"/>
   </g>
   <g id="patch_3">
    <path d="M 108 320.4 
L 108 43.2 
" style="fill: none; stroke: #a9a9a9; stroke-width: 0.8; stroke-linejoin: miter; stroke-linecap: square"/>
   </g>
   <g id="patch_4">
    <path d="M 777.6 320.4 
L 777.6 43.2 
" style="fill: none"/>
   </g>
   <g id="patch_5">
    <path d="M 108 320.4 
L 777.6 320.4 
" style="fill: none; stroke: #a9a9a9; stroke-width: 0.8; stroke-linejoin: miter; stroke-linecap: square"/>
   </g>
   <g id="patch_6">
    <path d="M 108 43.2 
L 777.6 43.2 
" style="fill: none"/>
   </g>
   <g id="text_18">
    <!-- get_subscribe history -->
    <g style="fill: #a9a9a9" transform="translate(378.6075 37.2) scale(0.12 -0.12)">
     <defs>
      <path id="DejaVuSans-67" d="M 2906 1791 
Q 2906 2416 2648 2759 
Q 2391 3103 1925 3103 
Q 1463 3103 1205 2759 
Q 947 2416 947 1791 
Q 947 1169 1205 825 
Q 1463 481 1925 481 
Q 2391 481 2648 825 
Q 2906 1169 2906 1791 
z
M 3481 434 
Q 3481 -459 3084 -895 
Q 2688 -1331 1869 -1331 
Q 1566 -1331 1297 -1286 
Q 1028 -1241 775 -1147 
L 775 -588 
Q 1028 -725 1275 -790 
Q 1522 -856 1778 -856 
Q 2344 -856 2625 -561 
Q 2906 -266 2906 331 
L 2906 616 
Q 2728 306 2450 153 
Q 2172 0 1784 0 
Q 1141 0 747 490 
Q 353 981 353 1791 
Q 353 2603 747 3093 
Q 1141 3584 1784 3584 
Q 2172 3584 2450 3431 
Q 2728 3278 2906 2969 
L 2906 3500 
L 3481 3500 
L 3481 434 
z
" transform="scale(0.015625)"/>
      <path id="DejaVuSans-65" d="M 3597 1894 
L 3597 1613 
L 953 1613 
Q 991 1019 1311 708 
Q 1631 397 2203 397 
Q 2534 397 2845 478 
Q 3156 559 3463 722 
L 3463 178 
Q 3153 47 2828 -22 
Q 2503 -91 2169 -91 
Q 1331 -91 842 396 
Q 353 884 353 1716 
Q 353 2575 817 3079 
Q 1281 3584 2069 3584 
Q 2775 3584 3186 3129 
Q 3597 2675 3597 1894 
z
M 3022 2063 
Q 3016 2534 2758 2815 
Q 2500 3097 2075 3097 
Q 1594 3097 1305 2825 
Q 1016 2553 972 2059 
L 3022 2063 
z
" transform="scale(0.015625)"/>
      <path id="DejaVuSans-74" d="M 1172 4494 
L 1172 3500 
L 2356 3500 
L 2356 3053 
L 1172 3053 
L 1172 1153 
Q 1172 725 1289 603 
Q 1406 481 1766 481 
L 2356 481 
L 2356 0 
L 1766 0 
Q 1100 0 847 248 
Q 594 497 594 1153 
L 594 3053 
L 172 3053 
L 172 3500 
L 594 3500 
L 594 4494 
L 1172 4494 
z
" transform="scale(0.015625)"/>
      <path id="DejaVuSans-5f" d="M 3263 -1063 
L 3263 -1509 
L -63 -1509 
L -63 -1063 
L 3263 -1063 
z
" transform="scale(0.015625)"/>
      <path id="DejaVuSans-73" d="M 2834 3397 
L 2834 2853 
Q 2591 2978 2328 3040 
Q 2066 3103 1784 3103 
Q 1356 3103 1142 2972 
Q 928 2841 928 2578 
Q 928 2378 1081 2264 
Q 1234 2150 1697 2047 
L 1894 2003 
Q 2506 1872 2764 1633 
Q 3022 1394 3022 966 
Q 3022 478 2636 193 
Q 2250 -91 1575 -91 
Q 1294 -91 989 -36 
Q 684 19 347 128 
L 347 722 
Q 666 556 975 473 
Q 1284 391 1588 391 
Q 1994 391 2212 530 
Q 2431 669 2431 922 
Q 2431 1156 2273 1281 
Q 2116 1406 1581 1522 
L 1381 1569 
Q 847 1681 609 1914 
Q 372 2147 372 2553 
Q 372 3047 722 3315 
Q 1072 3584 1716 3584 
Q 2034 3584 2315 3537 
Q 2597 3491 2834 3397 
z
" transform="scale(0.015625)"/>
      <path id="DejaVuSans-75" d="M 544 1381 
L 544 3500 
L 1119 3500 
L 1119 1403 
Q 1119 906 1312 657 
Q 1506 409 1894 409 
Q 2359 409 2629 706 
Q 2900 1003 2900 1516 
L 2900 3500 
L 3475 3500 
L 3475 0 
L 2900 0 
L 2900 538 
Q 2691 219 2414 64 
Q 2138 -91 1772 -91 
Q 1169 -91 856 284 
Q 544 659 544 1381 
z
M 1991 3584 
L 1991 3584 
z
" transform="scale(0.015625)"/>
      <path id="DejaVuSans-62" d="M 3116 1747 
Q 3116 2381 2855 2742 
Q 2594 3103 2138 3103 
Q 1681 3103 1420 2742 
Q 1159 2381 1159 1747 
Q 1159 1113 1420 752 
Q 1681 391 2138 391 
Q 2594 391 2855 752 
Q 3116 1113 3116 1747 
z
M 1159 2969 
Q 1341 3281 1617 3432 
Q 1894 3584 2278 3584 
Q 2916 3584 3314 3078 
Q 3713 2572 3713 1747 
Q 3713 922 3314 415 
Q 2916 -91 2278 -91 
Q 1894 -91 1617 61 
Q 1341 213 1159 525 
L 1159 0 
L 581 0 
L 581 4863 
L 1159 4863 
L 1159 2969 
z
" transform="scale(0.015625)"/>
      <path id="DejaVuSans-63" d="M 3122 3366 
L 3122 2828 
Q 2878 2963 2633 3030 
Q 2388 3097 2138 3097 
Q 1578 3097 1268 2742 
Q 959 2388 959 1747 
Q 959 1106 1268 751 
Q 1578 397 2138 397 
Q 2388 397 2633 464 
Q 2878 531 3122 666 
L 3122 134 
Q 2881 22 2623 -34 
Q 2366 -91 2075 -91 
Q 1284 -91 818 406 
Q 353 903 353 1747 
Q 353 2603 823 3093 
Q 1294 3584 2113 3584 
Q 2378 3584 2631 3529 
Q 2884 3475 3122 3366 
z
" transform="scale(0.015625)"/>
      <path id="DejaVuSans-72" d="M 2631 2963 
Q 2534 3019 2420 3045 
Q 2306 3072 2169 3072 
Q 1681 3072 1420 2755 
Q 1159 2438 1159 1844 
L 1159 0 
L 581 0 
L 581 3500 
L 1159 3500 
L 1159 2956 
Q 1341 3275 1631 3429 
Q 1922 3584 2338 3584 
Q 2397 3584 2469 3576 
Q 2541 3569 2628 3553 
L 2631 2963 
z
" transform="scale(0.015625)"/>
      <path id="DejaVuSans-69" d="M 603 3500 
L 1178 3500 
L 1178 0 
L 603 0 
L 603 3500 
z
M 603 4863 
L 1178 4863 
L 1178 4134 
L 603 4134 
L 603 4863 
z
" transform="scale(0.015625)"/>
      <path id="DejaVuSans-20" transform="scale(0.015625)"/>
      <path id="DejaVuSans-68" d="M 3513 2113 
L 3513 0 
L 2938 0 
L 2938 2094 
Q 2938 2591 2744 2837 
Q 2550 3084 2163 3084 
Q 1697 3084 1428 2787 
Q 1159 2491 1159 1978 
L 1159 0 
L 581 0 
L 581 4863 
L 1159 4863 
L 1159 2956 
Q 1366 3272 1645 3428 
Q 1925 3584 2291 3584 
Q 2894 3584 3203 3211 
Q 3513 2838 3513 2113 
z
" transform="scale(0.015625)"/>
      <path id="DejaVuSans-6f" d="M 1959 3097 
Q 1497 3097 1228 2736 
Q 959 2375 959 1747 
Q 959 1119 1226 758 
Q 1494 397 1959 397 
Q 2419 397 2687 759 
Q 2956 1122 2956 1747 
Q 2956 2369 2687 2733 
Q 2419 3097 1959 3097 
z
M 1959 3584 
Q 2709 3584 3137 3096 
Q 3566 2609 3566 1747 
Q 3566 888 3137 398 
Q 2709 -91 1959 -91 
Q 1206 -91 779 398 
Q 353 888 353 1747 
Q 353 2609 779 3096 
Q 1206 3584 1959 3584 
z
" transform="scale(0.015625)"/>
      <path id="DejaVuSans-79" d="M 2059 -325 
Q 1816 -950 1584 -1140 
Q 1353 -1331 966 -1331 
L 506 -1331 
L 506 -850 
L 844 -850 
Q 1081 -850 1212 -737 
Q 1344 -625 1503 -206 
L 1606 56 
L 191 3500 
L 800 3500 
L 1894 763 
L 2988 3500 
L 3597 3500 
L 2059 -325 
z
" transform="scale(0.015625)"/>
     </defs>
     <use xlink:href="#DejaVuSans-67"/>
     <use xlink:href="#DejaVuSans-65" x="63.476562"/>
     <use xlink:href="#DejaVuSans-74" x="125"/>
     <use xlink:href="#DejaVuSans-5f" x="164.208984"/>
     <use xlink:href="#DejaVuSans-73" x="214.208984"/>
     <use xlink:href="#DejaVuSans-75" x="266.308594"/>
     <use xlink:href="#DejaVuSans-62" x="329.6875"/>
     <use xlink:href="#DejaVuSans-73" x="393.164062"/>
     <use xlink:href="#DejaVuSans-63" x="445.263672"/>
     <use xlink:href="#DejaVuSans-72" x="500.244141"/>
     <use xlink:href="#DejaVuSans-69" x="541.357422"/>
     <use xlink:href="#DejaVuSans-62" x="569.140625"/>
     <use xlink:href="#DejaVuSans-65" x="632.617188"/>
     <use xlink:href="#DejaVuSans-20" x="694.140625"/>
     <use xlink:href="#DejaVuSans-68" x="725.927734"/>
     <use xlink:href="#DejaVuSans-69" x="789.306641"/>
     <use xlink:href="#DejaVuSans-73" x="817.089844"/>
     <use xlink:href="#DejaVuSans-74" x="869.189453"/>
     <use xlink:href="#DejaVuSans-6f" x="908.398438"/>
     <use xlink:href="#DejaVuSans-72" x="969.580078"/>
     <use xlink:href="#DejaVuSans-79" x="1010.693359"/>
    </g>
   </g>
   <g id="legend_1">
    <g id="line2d_37">
     <path d="M 815.08 328.498438 
L 825.08 328.498438 
L 835.08 328.498438 
" style="fill: none; stroke: #1f77b4; stroke-width: 1.5; stroke-linecap: square"/>
    </g>
    <g id="text_19">
     <!-- star -->
     <g style="fill: #a9a9a9" transform="translate(843.08 331.998438) scale(0.1 -0.1)">
      <defs>
       <path id="DejaVuSans-61" d="M 2194 1759 
Q 1497 1759 1228 1600 
Q 959 1441 959 1056 
Q 959 750 1161 570 
Q 1363 391 1709 391 
Q 2188 391 2477 730 
Q 2766 1069 2766 1631 
L 2766 1759 
L 2194 1759 
z
M 3341 1997 
L 3341 0 
L 2766 0 
L 2766 531 
Q 2569 213 2275 61 
Q 1981 -91 1556 -91 
Q 1019 -91 701 211 
Q 384 513 384 1019 
Q 384 1609 779 1909 
Q 1175 2209 1959 2209 
L 2766 2209 
L 2766 2266 
Q 2766 2663 2505 2880 
Q 2244 3097 1772 3097 
Q 1472 3097 1187 3025 
Q 903 2953 641 2809 
L 641 3341 
Q 956 3463 1253 3523 
Q 1550 3584 1831 3584 
Q 2591 3584 2966 3190 
Q 3341 2797 3341 1997 
z
" transform="scale(0.015625)"/>
      </defs>
      <use xlink:href="#DejaVuSans-73"/>
      <use xlink:href="#DejaVuSans-74" x="52.099609"/>
      <use xlink:href="#DejaVuSans-61" x="91.308594"/>
      <use xlink:href="#DejaVuSans-72" x="152.587891"/>
     </g>
    </g>
    <g id="line2d_38">
     <path d="M 815.08 343.176562 
L 825.08 343.176562 
L 835.08 343.176562 
" style="fill: none; stroke: #ff7f0e; stroke-width: 1.5; stroke-linecap: square"/>
    </g>
    <g id="text_20">
     <!-- fork -->
     <g style="fill: #a9a9a9" transform="translate(843.08 346.676562) scale(0.1 -0.1)">
      <defs>
       <path id="DejaVuSans-66" d="M 2375 4863 
L 2375 4384 
L 1825 4384 
Q 1516 4384 1395 4259 
Q 1275 4134 1275 3809 
L 1275 3500 
L 2222 3500 
L 2222 3053 
L 1275 3053 
L 1275 0 
L 697 0 
L 697 3053 
L 147 3053 
L 147 3500 
L 697 3500 
L 697 3744 
Q 697 4328 969 4595 
Q 1241 4863 1831 4863 
L 2375 4863 
z
" transform="scale(0.015625)"/>
       <path id="DejaVuSans-6b" d="M 581 4863 
L 1159 4863 
L 1159 1991 
L 2875 3500 
L 3609 3500 
L 1753 1863 
L 3688 0 
L 2938 0 
L 1159 1709 
L 1159 0 
L 581 0 
L 581 4863 
z
" transform="scale(0.015625)"/>
      </defs>
      <use xlink:href="#DejaVuSans-66"/>
      <use xlink:href="#DejaVuSans-6f" x="35.205078"/>
      <use xlink:href="#DejaVuSans-72" x="96.386719"/>
      <use xlink:href="#DejaVuSans-6b" x="137.5"/>
     </g>
    </g>
   </g>
  </g>
 </g>
 <defs>
  <clipPath id="p09239ba741">
   <rect x="108" y="43.2" width="669.6" height="277.2"/>
  </clipPath>
 </defs>
</svg>
