<?xml version="1.0" encoding="utf-8" standalone="no"?>
<!DOCTYPE svg PUBLIC "-//W3C//DTD SVG 1.1//EN"
  "http://www.w3.org/Graphics/SVG/1.1/DTD/svg11.dtd">
<svg xmlns:xlink="http://www.w3.org/1999/xlink" width="864pt" height="360pt" viewBox="0 0 864 360" xmlns="http://www.w3.org/2000/svg" version="1.1">
 <metadata>
  <rdf:RDF xmlns:dc="http://purl.org/dc/elements/1.1/" xmlns:cc="http://creativecommons.org/ns#" xmlns:rdf="http://www.w3.org/1999/02/22-rdf-syntax-ns#">
   <cc:Work>
    <dc:type rdf:resource="http://purl.org/dc/dcmitype/StillImage"/>
    <dc:date>2024-04-18T20:04:35.791478</dc:date>
    <dc:format>image/svg+xml</dc:format>
    <dc:creator>
     <cc:Agent>
      <dc:title>Matplotlib v3.8.4, https://matplotlib.org/</dc:title>
     </cc:Agent>
    </dc:creator>
   </cc:Work>
  </rdf:RDF>
 </metadata>
 <defs>
  <style type="text/css">*{stroke-linejoin: round; stroke-linecap: butt}</style>
 </defs>
 <g id="figure_1">
  <g id="patch_1">
   <path d="M 0 360 
L 864 360 
L 864 0 
L 0 0 
L 0 360 
z
" style="fill: none; opacity: 0"/>
  </g>
  <g id="axes_1">
   <g id="patch_2">
    <path d="M 108 320.4 
L 777.6 320.4 
L 777.6 43.2 
L 108 43.2 
L 108 320.4 
z
" style="fill: none; opacity: 0"/>
   </g>
   <g id="matplotlib.axis_1">
    <g id="xtick_1">
     <g id="line2d_1">
      <path d="M 162.200491 320.4 
L 162.200491 43.2 
" clip-path="url(#p12f942913e)" style="fill: none; stroke-dasharray: 5.12,1.28,0.8,1.28; stroke-dashoffset: 0; stroke: #b0b0b0; stroke-width: 0.8"/>
     </g>
     <g id="line2d_2">
      <defs>
       <path id="m9b682ef2d0" d="M 0 0 
L 0 3.5 
" style="stroke: #a9a9a9; stroke-width: 0.8"/>
      </defs>
      <g>
       <use xlink:href="#m9b682ef2d0" x="162.200491" y="320.4" style="fill: #a9a9a9; stroke: #a9a9a9; stroke-width: 0.8"/>
      </g>
     </g>
     <g id="text_1">
      <!-- 2021-09 -->
      <g style="fill: #a9a9a9" transform="translate(141.309085 334.998438) scale(0.1 -0.1)">
       <defs>
        <path id="DejaVuSans-32" d="M 1228 531 
L 3431 531 
L 3431 0 
L 469 0 
L 469 531 
Q 828 903 1448 1529 
Q 2069 2156 2228 2338 
Q 2531 2678 2651 2914 
Q 2772 3150 2772 3378 
Q 2772 3750 2511 3984 
Q 2250 4219 1831 4219 
Q 1534 4219 1204 4116 
Q 875 4013 500 3803 
L 500 4441 
Q 881 4594 1212 4672 
Q 1544 4750 1819 4750 
Q 2544 4750 2975 4387 
Q 3406 4025 3406 3419 
Q 3406 3131 3298 2873 
Q 3191 2616 2906 2266 
Q 2828 2175 2409 1742 
Q 1991 1309 1228 531 
z
" transform="scale(0.015625)"/>
        <path id="DejaVuSans-30" d="M 2034 4250 
Q 1547 4250 1301 3770 
Q 1056 3291 1056 2328 
Q 1056 1369 1301 889 
Q 1547 409 2034 409 
Q 2525 409 2770 889 
Q 3016 1369 3016 2328 
Q 3016 3291 2770 3770 
Q 2525 4250 2034 4250 
z
M 2034 4750 
Q 2819 4750 3233 4129 
Q 3647 3509 3647 2328 
Q 3647 1150 3233 529 
Q 2819 -91 2034 -91 
Q 1250 -91 836 529 
Q 422 1150 422 2328 
Q 422 3509 836 4129 
Q 1250 4750 2034 4750 
z
" transform="scale(0.015625)"/>
        <path id="DejaVuSans-31" d="M 794 531 
L 1825 531 
L 1825 4091 
L 703 3866 
L 703 4441 
L 1819 4666 
L 2450 4666 
L 2450 531 
L 3481 531 
L 3481 0 
L 794 0 
L 794 531 
z
" transform="scale(0.015625)"/>
        <path id="DejaVuSans-2d" d="M 313 2009 
L 1997 2009 
L 1997 1497 
L 313 1497 
L 313 2009 
z
" transform="scale(0.015625)"/>
        <path id="DejaVuSans-39" d="M 703 97 
L 703 672 
Q 941 559 1184 500 
Q 1428 441 1663 441 
Q 2288 441 2617 861 
Q 2947 1281 2994 2138 
Q 2813 1869 2534 1725 
Q 2256 1581 1919 1581 
Q 1219 1581 811 2004 
Q 403 2428 403 3163 
Q 403 3881 828 4315 
Q 1253 4750 1959 4750 
Q 2769 4750 3195 4129 
Q 3622 3509 3622 2328 
Q 3622 1225 3098 567 
Q 2575 -91 1691 -91 
Q 1453 -91 1209 -44 
Q 966 3 703 97 
z
M 1959 2075 
Q 2384 2075 2632 2365 
Q 2881 2656 2881 3163 
Q 2881 3666 2632 3958 
Q 2384 4250 1959 4250 
Q 1534 4250 1286 3958 
Q 1038 3666 1038 3163 
Q 1038 2656 1286 2365 
Q 1534 2075 1959 2075 
z
" transform="scale(0.015625)"/>
       </defs>
       <use xlink:href="#DejaVuSans-32"/>
       <use xlink:href="#DejaVuSans-30" x="63.623047"/>
       <use xlink:href="#DejaVuSans-32" x="127.246094"/>
       <use xlink:href="#DejaVuSans-31" x="190.869141"/>
       <use xlink:href="#DejaVuSans-2d" x="254.492188"/>
       <use xlink:href="#DejaVuSans-30" x="290.576172"/>
       <use xlink:href="#DejaVuSans-39" x="354.199219"/>
      </g>
     </g>
    </g>
    <g id="xtick_2">
     <g id="line2d_3">
      <path d="M 236.539558 320.4 
L 236.539558 43.2 
" clip-path="url(#p12f942913e)" style="fill: none; stroke-dasharray: 5.12,1.28,0.8,1.28; stroke-dashoffset: 0; stroke: #b0b0b0; stroke-width: 0.8"/>
     </g>
     <g id="line2d_4">
      <g>
       <use xlink:href="#m9b682ef2d0" x="236.539558" y="320.4" style="fill: #a9a9a9; stroke: #a9a9a9; stroke-width: 0.8"/>
      </g>
     </g>
     <g id="text_2">
      <!-- 2022-01 -->
      <g style="fill: #a9a9a9" transform="translate(215.648151 334.998438) scale(0.1 -0.1)">
       <use xlink:href="#DejaVuSans-32"/>
       <use xlink:href="#DejaVuSans-30" x="63.623047"/>
       <use xlink:href="#DejaVuSans-32" x="127.246094"/>
       <use xlink:href="#DejaVuSans-32" x="190.869141"/>
       <use xlink:href="#DejaVuSans-2d" x="254.492188"/>
       <use xlink:href="#DejaVuSans-30" x="290.576172"/>
       <use xlink:href="#DejaVuSans-31" x="354.199219"/>
      </g>
     </g>
    </g>
    <g id="xtick_3">
     <g id="line2d_5">
      <path d="M 309.659951 320.4 
L 309.659951 43.2 
" clip-path="url(#p12f942913e)" style="fill: none; stroke-dasharray: 5.12,1.28,0.8,1.28; stroke-dashoffset: 0; stroke: #b0b0b0; stroke-width: 0.8"/>
     </g>
     <g id="line2d_6">
      <g>
       <use xlink:href="#m9b682ef2d0" x="309.659951" y="320.4" style="fill: #a9a9a9; stroke: #a9a9a9; stroke-width: 0.8"/>
      </g>
     </g>
     <g id="text_3">
      <!-- 2022-05 -->
      <g style="fill: #a9a9a9" transform="translate(288.768545 334.998438) scale(0.1 -0.1)">
       <defs>
        <path id="DejaVuSans-35" d="M 691 4666 
L 3169 4666 
L 3169 4134 
L 1269 4134 
L 1269 2991 
Q 1406 3038 1543 3061 
Q 1681 3084 1819 3084 
Q 2600 3084 3056 2656 
Q 3513 2228 3513 1497 
Q 3513 744 3044 326 
Q 2575 -91 1722 -91 
Q 1428 -91 1123 -41 
Q 819 9 494 109 
L 494 744 
Q 775 591 1075 516 
Q 1375 441 1709 441 
Q 2250 441 2565 725 
Q 2881 1009 2881 1497 
Q 2881 1984 2565 2268 
Q 2250 2553 1709 2553 
Q 1456 2553 1204 2497 
Q 953 2441 691 2322 
L 691 4666 
z
" transform="scale(0.015625)"/>
       </defs>
       <use xlink:href="#DejaVuSans-32"/>
       <use xlink:href="#DejaVuSans-30" x="63.623047"/>
       <use xlink:href="#DejaVuSans-32" x="127.246094"/>
       <use xlink:href="#DejaVuSans-32" x="190.869141"/>
       <use xlink:href="#DejaVuSans-2d" x="254.492188"/>
       <use xlink:href="#DejaVuSans-30" x="290.576172"/>
       <use xlink:href="#DejaVuSans-35" x="354.199219"/>
      </g>
     </g>
    </g>
    <g id="xtick_4">
     <g id="line2d_7">
      <path d="M 384.608354 320.4 
L 384.608354 43.2 
" clip-path="url(#p12f942913e)" style="fill: none; stroke-dasharray: 5.12,1.28,0.8,1.28; stroke-dashoffset: 0; stroke: #b0b0b0; stroke-width: 0.8"/>
     </g>
     <g id="line2d_8">
      <g>
       <use xlink:href="#m9b682ef2d0" x="384.608354" y="320.4" style="fill: #a9a9a9; stroke: #a9a9a9; stroke-width: 0.8"/>
      </g>
     </g>
     <g id="text_4">
      <!-- 2022-09 -->
      <g style="fill: #a9a9a9" transform="translate(363.716948 334.998438) scale(0.1 -0.1)">
       <use xlink:href="#DejaVuSans-32"/>
       <use xlink:href="#DejaVuSans-30" x="63.623047"/>
       <use xlink:href="#DejaVuSans-32" x="127.246094"/>
       <use xlink:href="#DejaVuSans-32" x="190.869141"/>
       <use xlink:href="#DejaVuSans-2d" x="254.492188"/>
       <use xlink:href="#DejaVuSans-30" x="290.576172"/>
       <use xlink:href="#DejaVuSans-39" x="354.199219"/>
      </g>
     </g>
    </g>
    <g id="xtick_5">
     <g id="line2d_9">
      <path d="M 458.94742 320.4 
L 458.94742 43.2 
" clip-path="url(#p12f942913e)" style="fill: none; stroke-dasharray: 5.12,1.28,0.8,1.28; stroke-dashoffset: 0; stroke: #b0b0b0; stroke-width: 0.8"/>
     </g>
     <g id="line2d_10">
      <g>
       <use xlink:href="#m9b682ef2d0" x="458.94742" y="320.4" style="fill: #a9a9a9; stroke: #a9a9a9; stroke-width: 0.8"/>
      </g>
     </g>
     <g id="text_5">
      <!-- 2023-01 -->
      <g style="fill: #a9a9a9" transform="translate(438.056014 334.998438) scale(0.1 -0.1)">
       <defs>
        <path id="DejaVuSans-33" d="M 2597 2516 
Q 3050 2419 3304 2112 
Q 3559 1806 3559 1356 
Q 3559 666 3084 287 
Q 2609 -91 1734 -91 
Q 1441 -91 1130 -33 
Q 819 25 488 141 
L 488 750 
Q 750 597 1062 519 
Q 1375 441 1716 441 
Q 2309 441 2620 675 
Q 2931 909 2931 1356 
Q 2931 1769 2642 2001 
Q 2353 2234 1838 2234 
L 1294 2234 
L 1294 2753 
L 1863 2753 
Q 2328 2753 2575 2939 
Q 2822 3125 2822 3475 
Q 2822 3834 2567 4026 
Q 2313 4219 1838 4219 
Q 1578 4219 1281 4162 
Q 984 4106 628 3988 
L 628 4550 
Q 988 4650 1302 4700 
Q 1616 4750 1894 4750 
Q 2613 4750 3031 4423 
Q 3450 4097 3450 3541 
Q 3450 3153 3228 2886 
Q 3006 2619 2597 2516 
z
" transform="scale(0.015625)"/>
       </defs>
       <use xlink:href="#DejaVuSans-32"/>
       <use xlink:href="#DejaVuSans-30" x="63.623047"/>
       <use xlink:href="#DejaVuSans-32" x="127.246094"/>
       <use xlink:href="#DejaVuSans-33" x="190.869141"/>
       <use xlink:href="#DejaVuSans-2d" x="254.492188"/>
       <use xlink:href="#DejaVuSans-30" x="290.576172"/>
       <use xlink:href="#DejaVuSans-31" x="354.199219"/>
      </g>
     </g>
    </g>
    <g id="xtick_6">
     <g id="line2d_11">
      <path d="M 532.067813 320.4 
L 532.067813 43.2 
" clip-path="url(#p12f942913e)" style="fill: none; stroke-dasharray: 5.12,1.28,0.8,1.28; stroke-dashoffset: 0; stroke: #b0b0b0; stroke-width: 0.8"/>
     </g>
     <g id="line2d_12">
      <g>
       <use xlink:href="#m9b682ef2d0" x="532.067813" y="320.4" style="fill: #a9a9a9; stroke: #a9a9a9; stroke-width: 0.8"/>
      </g>
     </g>
     <g id="text_6">
      <!-- 2023-05 -->
      <g style="fill: #a9a9a9" transform="translate(511.176407 334.998438) scale(0.1 -0.1)">
       <use xlink:href="#DejaVuSans-32"/>
       <use xlink:href="#DejaVuSans-30" x="63.623047"/>
       <use xlink:href="#DejaVuSans-32" x="127.246094"/>
       <use xlink:href="#DejaVuSans-33" x="190.869141"/>
       <use xlink:href="#DejaVuSans-2d" x="254.492188"/>
       <use xlink:href="#DejaVuSans-30" x="290.576172"/>
       <use xlink:href="#DejaVuSans-35" x="354.199219"/>
      </g>
     </g>
    </g>
    <g id="xtick_7">
     <g id="line2d_13">
      <path d="M 607.016216 320.4 
L 607.016216 43.2 
" clip-path="url(#p12f942913e)" style="fill: none; stroke-dasharray: 5.12,1.28,0.8,1.28; stroke-dashoffset: 0; stroke: #b0b0b0; stroke-width: 0.8"/>
     </g>
     <g id="line2d_14">
      <g>
       <use xlink:href="#m9b682ef2d0" x="607.016216" y="320.4" style="fill: #a9a9a9; stroke: #a9a9a9; stroke-width: 0.8"/>
      </g>
     </g>
     <g id="text_7">
      <!-- 2023-09 -->
      <g style="fill: #a9a9a9" transform="translate(586.12481 334.998438) scale(0.1 -0.1)">
       <use xlink:href="#DejaVuSans-32"/>
       <use xlink:href="#DejaVuSans-30" x="63.623047"/>
       <use xlink:href="#DejaVuSans-32" x="127.246094"/>
       <use xlink:href="#DejaVuSans-33" x="190.869141"/>
       <use xlink:href="#DejaVuSans-2d" x="254.492188"/>
       <use xlink:href="#DejaVuSans-30" x="290.576172"/>
       <use xlink:href="#DejaVuSans-39" x="354.199219"/>
      </g>
     </g>
    </g>
    <g id="xtick_8">
     <g id="line2d_15">
      <path d="M 681.355283 320.4 
L 681.355283 43.2 
" clip-path="url(#p12f942913e)" style="fill: none; stroke-dasharray: 5.12,1.28,0.8,1.28; stroke-dashoffset: 0; stroke: #b0b0b0; stroke-width: 0.8"/>
     </g>
     <g id="line2d_16">
      <g>
       <use xlink:href="#m9b682ef2d0" x="681.355283" y="320.4" style="fill: #a9a9a9; stroke: #a9a9a9; stroke-width: 0.8"/>
      </g>
     </g>
     <g id="text_8">
      <!-- 2024-01 -->
      <g style="fill: #a9a9a9" transform="translate(660.463876 334.998438) scale(0.1 -0.1)">
       <defs>
        <path id="DejaVuSans-34" d="M 2419 4116 
L 825 1625 
L 2419 1625 
L 2419 4116 
z
M 2253 4666 
L 3047 4666 
L 3047 1625 
L 3713 1625 
L 3713 1100 
L 3047 1100 
L 3047 0 
L 2419 0 
L 2419 1100 
L 313 1100 
L 313 1709 
L 2253 4666 
z
" transform="scale(0.015625)"/>
       </defs>
       <use xlink:href="#DejaVuSans-32"/>
       <use xlink:href="#DejaVuSans-30" x="63.623047"/>
       <use xlink:href="#DejaVuSans-32" x="127.246094"/>
       <use xlink:href="#DejaVuSans-34" x="190.869141"/>
       <use xlink:href="#DejaVuSans-2d" x="254.492188"/>
       <use xlink:href="#DejaVuSans-30" x="290.576172"/>
       <use xlink:href="#DejaVuSans-31" x="354.199219"/>
      </g>
     </g>
    </g>
    <g id="xtick_9">
     <g id="line2d_17">
      <path d="M 755.085012 320.4 
L 755.085012 43.2 
" clip-path="url(#p12f942913e)" style="fill: none; stroke-dasharray: 5.12,1.28,0.8,1.28; stroke-dashoffset: 0; stroke: #b0b0b0; stroke-width: 0.8"/>
     </g>
     <g id="line2d_18">
      <g>
       <use xlink:href="#m9b682ef2d0" x="755.085012" y="320.4" style="fill: #a9a9a9; stroke: #a9a9a9; stroke-width: 0.8"/>
      </g>
     </g>
     <g id="text_9">
      <!-- 2024-05 -->
      <g style="fill: #a9a9a9" transform="translate(734.193606 334.998438) scale(0.1 -0.1)">
       <use xlink:href="#DejaVuSans-32"/>
       <use xlink:href="#DejaVuSans-30" x="63.623047"/>
       <use xlink:href="#DejaVuSans-32" x="127.246094"/>
       <use xlink:href="#DejaVuSans-34" x="190.869141"/>
       <use xlink:href="#DejaVuSans-2d" x="254.492188"/>
       <use xlink:href="#DejaVuSans-30" x="290.576172"/>
       <use xlink:href="#DejaVuSans-35" x="354.199219"/>
      </g>
     </g>
    </g>
   </g>
   <g id="matplotlib.axis_2">
    <g id="ytick_1">
     <g id="line2d_19">
      <path d="M 108 307.842389 
L 777.6 307.842389 
" clip-path="url(#p12f942913e)" style="fill: none; stroke-dasharray: 5.12,1.28,0.8,1.28; stroke-dashoffset: 0; stroke: #b0b0b0; stroke-width: 0.8"/>
     </g>
     <g id="line2d_20">
      <defs>
       <path id="md3bfb1c0df" d="M 0 0 
L -3.5 0 
" style="stroke: #a9a9a9; stroke-width: 0.8"/>
      </defs>
      <g>
       <use xlink:href="#md3bfb1c0df" x="108" y="307.842389" style="fill: #a9a9a9; stroke: #a9a9a9; stroke-width: 0.8"/>
      </g>
     </g>
     <g id="text_10">
      <!-- 0 -->
      <g style="fill: #a9a9a9" transform="translate(94.6375 311.641607) scale(0.1 -0.1)">
       <use xlink:href="#DejaVuSans-30"/>
      </g>
     </g>
    </g>
    <g id="ytick_2">
     <g id="line2d_21">
      <path d="M 108 273.931539 
L 777.6 273.931539 
" clip-path="url(#p12f942913e)" style="fill: none; stroke-dasharray: 5.12,1.28,0.8,1.28; stroke-dashoffset: 0; stroke: #b0b0b0; stroke-width: 0.8"/>
     </g>
     <g id="line2d_22">
      <g>
       <use xlink:href="#md3bfb1c0df" x="108" y="273.931539" style="fill: #a9a9a9; stroke: #a9a9a9; stroke-width: 0.8"/>
      </g>
     </g>
     <g id="text_11">
      <!-- 800 -->
      <g style="fill: #a9a9a9" transform="translate(81.9125 277.730758) scale(0.1 -0.1)">
       <defs>
        <path id="DejaVuSans-38" d="M 2034 2216 
Q 1584 2216 1326 1975 
Q 1069 1734 1069 1313 
Q 1069 891 1326 650 
Q 1584 409 2034 409 
Q 2484 409 2743 651 
Q 3003 894 3003 1313 
Q 3003 1734 2745 1975 
Q 2488 2216 2034 2216 
z
M 1403 2484 
Q 997 2584 770 2862 
Q 544 3141 544 3541 
Q 544 4100 942 4425 
Q 1341 4750 2034 4750 
Q 2731 4750 3128 4425 
Q 3525 4100 3525 3541 
Q 3525 3141 3298 2862 
Q 3072 2584 2669 2484 
Q 3125 2378 3379 2068 
Q 3634 1759 3634 1313 
Q 3634 634 3220 271 
Q 2806 -91 2034 -91 
Q 1263 -91 848 271 
Q 434 634 434 1313 
Q 434 1759 690 2068 
Q 947 2378 1403 2484 
z
M 1172 3481 
Q 1172 3119 1398 2916 
Q 1625 2713 2034 2713 
Q 2441 2713 2670 2916 
Q 2900 3119 2900 3481 
Q 2900 3844 2670 4047 
Q 2441 4250 2034 4250 
Q 1625 4250 1398 4047 
Q 1172 3844 1172 3481 
z
" transform="scale(0.015625)"/>
       </defs>
       <use xlink:href="#DejaVuSans-38"/>
       <use xlink:href="#DejaVuSans-30" x="63.623047"/>
       <use xlink:href="#DejaVuSans-30" x="127.246094"/>
      </g>
     </g>
    </g>
    <g id="ytick_3">
     <g id="line2d_23">
      <path d="M 108 240.02069 
L 777.6 240.02069 
" clip-path="url(#p12f942913e)" style="fill: none; stroke-dasharray: 5.12,1.28,0.8,1.28; stroke-dashoffset: 0; stroke: #b0b0b0; stroke-width: 0.8"/>
     </g>
     <g id="line2d_24">
      <g>
       <use xlink:href="#md3bfb1c0df" x="108" y="240.02069" style="fill: #a9a9a9; stroke: #a9a9a9; stroke-width: 0.8"/>
      </g>
     </g>
     <g id="text_12">
      <!-- 1600 -->
      <g style="fill: #a9a9a9" transform="translate(75.55 243.819908) scale(0.1 -0.1)">
       <defs>
        <path id="DejaVuSans-36" d="M 2113 2584 
Q 1688 2584 1439 2293 
Q 1191 2003 1191 1497 
Q 1191 994 1439 701 
Q 1688 409 2113 409 
Q 2538 409 2786 701 
Q 3034 994 3034 1497 
Q 3034 2003 2786 2293 
Q 2538 2584 2113 2584 
z
M 3366 4563 
L 3366 3988 
Q 3128 4100 2886 4159 
Q 2644 4219 2406 4219 
Q 1781 4219 1451 3797 
Q 1122 3375 1075 2522 
Q 1259 2794 1537 2939 
Q 1816 3084 2150 3084 
Q 2853 3084 3261 2657 
Q 3669 2231 3669 1497 
Q 3669 778 3244 343 
Q 2819 -91 2113 -91 
Q 1303 -91 875 529 
Q 447 1150 447 2328 
Q 447 3434 972 4092 
Q 1497 4750 2381 4750 
Q 2619 4750 2861 4703 
Q 3103 4656 3366 4563 
z
" transform="scale(0.015625)"/>
       </defs>
       <use xlink:href="#DejaVuSans-31"/>
       <use xlink:href="#DejaVuSans-36" x="63.623047"/>
       <use xlink:href="#DejaVuSans-30" x="127.246094"/>
       <use xlink:href="#DejaVuSans-30" x="190.869141"/>
      </g>
     </g>
    </g>
    <g id="ytick_4">
     <g id="line2d_25">
      <path d="M 108 206.10984 
L 777.6 206.10984 
" clip-path="url(#p12f942913e)" style="fill: none; stroke-dasharray: 5.12,1.28,0.8,1.28; stroke-dashoffset: 0; stroke: #b0b0b0; stroke-width: 0.8"/>
     </g>
     <g id="line2d_26">
      <g>
       <use xlink:href="#md3bfb1c0df" x="108" y="206.10984" style="fill: #a9a9a9; stroke: #a9a9a9; stroke-width: 0.8"/>
      </g>
     </g>
     <g id="text_13">
      <!-- 2400 -->
      <g style="fill: #a9a9a9" transform="translate(75.55 209.909059) scale(0.1 -0.1)">
       <use xlink:href="#DejaVuSans-32"/>
       <use xlink:href="#DejaVuSans-34" x="63.623047"/>
       <use xlink:href="#DejaVuSans-30" x="127.246094"/>
       <use xlink:href="#DejaVuSans-30" x="190.869141"/>
      </g>
     </g>
    </g>
    <g id="ytick_5">
     <g id="line2d_27">
      <path d="M 108 172.198991 
L 777.6 172.198991 
" clip-path="url(#p12f942913e)" style="fill: none; stroke-dasharray: 5.12,1.28,0.8,1.28; stroke-dashoffset: 0; stroke: #b0b0b0; stroke-width: 0.8"/>
     </g>
     <g id="line2d_28">
      <g>
       <use xlink:href="#md3bfb1c0df" x="108" y="172.198991" style="fill: #a9a9a9; stroke: #a9a9a9; stroke-width: 0.8"/>
      </g>
     </g>
     <g id="text_14">
      <!-- 3200 -->
      <g style="fill: #a9a9a9" transform="translate(75.55 175.998209) scale(0.1 -0.1)">
       <use xlink:href="#DejaVuSans-33"/>
       <use xlink:href="#DejaVuSans-32" x="63.623047"/>
       <use xlink:href="#DejaVuSans-30" x="127.246094"/>
       <use xlink:href="#DejaVuSans-30" x="190.869141"/>
      </g>
     </g>
    </g>
    <g id="ytick_6">
     <g id="line2d_29">
      <path d="M 108 138.288141 
L 777.6 138.288141 
" clip-path="url(#p12f942913e)" style="fill: none; stroke-dasharray: 5.12,1.28,0.8,1.28; stroke-dashoffset: 0; stroke: #b0b0b0; stroke-width: 0.8"/>
     </g>
     <g id="line2d_30">
      <g>
       <use xlink:href="#md3bfb1c0df" x="108" y="138.288141" style="fill: #a9a9a9; stroke: #a9a9a9; stroke-width: 0.8"/>
      </g>
     </g>
     <g id="text_15">
      <!-- 4000 -->
      <g style="fill: #a9a9a9" transform="translate(75.55 142.08736) scale(0.1 -0.1)">
       <use xlink:href="#DejaVuSans-34"/>
       <use xlink:href="#DejaVuSans-30" x="63.623047"/>
       <use xlink:href="#DejaVuSans-30" x="127.246094"/>
       <use xlink:href="#DejaVuSans-30" x="190.869141"/>
      </g>
     </g>
    </g>
    <g id="ytick_7">
     <g id="line2d_31">
      <path d="M 108 104.377292 
L 777.6 104.377292 
" clip-path="url(#p12f942913e)" style="fill: none; stroke-dasharray: 5.12,1.28,0.8,1.28; stroke-dashoffset: 0; stroke: #b0b0b0; stroke-width: 0.8"/>
     </g>
     <g id="line2d_32">
      <g>
       <use xlink:href="#md3bfb1c0df" x="108" y="104.377292" style="fill: #a9a9a9; stroke: #a9a9a9; stroke-width: 0.8"/>
      </g>
     </g>
     <g id="text_16">
      <!-- 4800 -->
      <g style="fill: #a9a9a9" transform="translate(75.55 108.176511) scale(0.1 -0.1)">
       <use xlink:href="#DejaVuSans-34"/>
       <use xlink:href="#DejaVuSans-38" x="63.623047"/>
       <use xlink:href="#DejaVuSans-30" x="127.246094"/>
       <use xlink:href="#DejaVuSans-30" x="190.869141"/>
      </g>
     </g>
    </g>
    <g id="ytick_8">
     <g id="line2d_33">
      <path d="M 108 70.466442 
L 777.6 70.466442 
" clip-path="url(#p12f942913e)" style="fill: none; stroke-dasharray: 5.12,1.28,0.8,1.28; stroke-dashoffset: 0; stroke: #b0b0b0; stroke-width: 0.8"/>
     </g>
     <g id="line2d_34">
      <g>
       <use xlink:href="#md3bfb1c0df" x="108" y="70.466442" style="fill: #a9a9a9; stroke: #a9a9a9; stroke-width: 0.8"/>
      </g>
     </g>
     <g id="text_17">
      <!-- 5600 -->
      <g style="fill: #a9a9a9" transform="translate(75.55 74.265661) scale(0.1 -0.1)">
       <use xlink:href="#DejaVuSans-35"/>
       <use xlink:href="#DejaVuSans-36" x="63.623047"/>
       <use xlink:href="#DejaVuSans-30" x="127.246094"/>
       <use xlink:href="#DejaVuSans-30" x="190.869141"/>
      </g>
     </g>
    </g>
   </g>
   <g id="line2d_35">
    <path d="M 138.436364 307.715223 
L 142.092383 307.418503 
L 142.70172 307.164172 
L 144.52973 306.952229 
L 148.185749 306.231623 
L 151.841769 305.934903 
L 152.451106 305.638183 
L 153.060442 305.468629 
L 153.669779 304.705635 
L 154.279115 304.281749 
L 154.888452 302.967704 
L 155.497789 302.882927 
L 156.107125 302.416653 
L 157.325799 301.823213 
L 159.763145 299.958116 
L 160.981818 299.449453 
L 161.591155 299.025568 
L 164.028501 297.965854 
L 164.637838 297.033305 
L 165.856511 296.185534 
L 166.465848 295.888814 
L 172.559214 295.041043 
L 173.16855 294.744323 
L 177.433907 294.405214 
L 179.261916 293.93894 
L 184.745946 293.218335 
L 185.355283 292.879226 
L 185.964619 292.794449 
L 186.573956 292.540118 
L 187.792629 292.328175 
L 188.401966 292.285786 
L 189.620639 292.031455 
L 190.229975 291.989066 
L 192.667322 291.395627 
L 194.495332 291.226072 
L 195.714005 291.098907 
L 196.323342 290.929352 
L 196.932678 290.886964 
L 198.760688 290.335913 
L 199.979361 290.251135 
L 201.198034 290.081581 
L 202.416708 289.82725 
L 203.026044 289.657696 
L 203.635381 288.852313 
L 205.463391 288.174096 
L 207.2914 287.707822 
L 207.900737 287.411102 
L 208.510074 287.368713 
L 211.556757 286.520942 
L 212.77543 286.436165 
L 213.994103 286.181833 
L 216.43145 285.588394 
L 217.040786 285.546005 
L 218.259459 284.994954 
L 218.868796 284.910177 
L 219.478133 284.613457 
L 225.571499 283.723297 
L 228.618182 282.875526 
L 229.227518 282.494029 
L 231.664865 281.8582 
L 232.883538 281.137595 
L 233.492875 280.713709 
L 235.320885 280.374601 
L 238.976904 279.272498 
L 240.195577 278.891001 
L 240.804914 278.806224 
L 242.023587 278.467115 
L 243.24226 278.170395 
L 243.851597 278.085618 
L 245.07027 277.576955 
L 245.679607 277.44979 
L 246.288943 277.195458 
L 246.89828 277.110681 
L 247.507617 276.813961 
L 248.116953 276.644407 
L 249.335627 276.55963 
L 250.5543 276.135744 
L 251.772973 276.050967 
L 252.38231 275.754247 
L 253.600983 275.584693 
L 254.210319 275.37275 
L 255.428993 275.330362 
L 257.866339 275.033642 
L 259.085012 274.440202 
L 265.787715 271.600168 
L 266.397052 271.26106 
L 267.006388 270.625231 
L 268.225061 268.802523 
L 268.834398 268.632969 
L 269.443735 268.632969 
L 270.662408 267.742809 
L 271.271744 267.573255 
L 271.881081 267.276535 
L 272.490418 267.149369 
L 273.099754 266.598318 
L 273.709091 266.428764 
L 275.537101 265.538604 
L 276.755774 263.843061 
L 277.365111 263.461564 
L 277.974447 262.444239 
L 278.583784 261.80841 
L 279.19312 261.51169 
L 279.802457 261.342136 
L 282.239803 259.900925 
L 283.458477 258.925988 
L 284.067813 258.544491 
L 284.67715 257.654331 
L 285.286486 256.297897 
L 285.895823 255.407738 
L 286.50516 254.941463 
L 287.114496 254.687132 
L 289.551843 252.567704 
L 290.770516 251.592767 
L 291.379853 251.084104 
L 291.989189 250.278722 
L 293.207862 249.219008 
L 295.645209 247.650631 
L 296.254545 247.141968 
L 296.863882 247.014802 
L 297.473219 246.760471 
L 299.301229 245.743146 
L 300.519902 245.149706 
L 301.738575 244.005214 
L 302.347912 243.284609 
L 303.566585 242.436838 
L 304.175921 242.267283 
L 304.785258 241.970563 
L 306.003931 241.165181 
L 306.613268 240.826072 
L 307.222604 240.741295 
L 312.097297 237.816484 
L 312.706634 237.477376 
L 313.315971 237.265433 
L 315.14398 236.078553 
L 316.97199 235.527502 
L 317.581327 235.103616 
L 318.190663 234.976451 
L 319.409337 234.552565 
L 321.237346 233.83196 
L 323.065356 233.153743 
L 324.284029 232.9418 
L 325.502703 231.882086 
L 327.330713 231.034315 
L 328.549386 230.313709 
L 329.768059 229.974601 
L 330.377396 229.593103 
L 330.986732 229.423549 
L 332.814742 228.279058 
L 335.861425 227.558452 
L 337.689435 226.498738 
L 338.298771 226.413961 
L 338.908108 226.202019 
L 340.126781 225.947687 
L 341.954791 224.591253 
L 343.782801 224.167368 
L 344.392138 223.955425 
L 345.001474 223.489151 
L 348.657494 222.302271 
L 349.26683 222.259882 
L 349.876167 222.090328 
L 351.09484 221.581665 
L 355.360197 220.098066 
L 356.57887 219.928511 
L 357.188206 219.758957 
L 357.797543 219.462237 
L 358.40688 219.335071 
L 360.234889 218.4873 
L 362.062899 217.59714 
L 362.672236 217.173255 
L 363.281572 217.003701 
L 365.109582 216.028764 
L 366.328256 215.732044 
L 367.546929 215.096215 
L 368.765602 214.757107 
L 369.374939 214.67233 
L 370.593612 213.951724 
L 371.202948 213.824558 
L 372.421622 213.315896 
L 373.030958 213.18873 
L 373.640295 212.849622 
L 376.077641 212.468124 
L 377.296314 211.874685 
L 377.905651 211.366022 
L 378.514988 210.306308 
L 380.342998 209.967199 
L 382.780344 208.695542 
L 383.389681 208.568377 
L 387.655037 206.533726 
L 388.87371 206.194617 
L 390.092383 205.940286 
L 391.311057 205.346846 
L 391.920393 205.092515 
L 392.52973 205.007738 
L 394.967076 203.948024 
L 396.795086 202.803532 
L 397.404423 202.718755 
L 398.013759 202.506812 
L 398.623096 202.464424 
L 401.669779 201.70143 
L 402.279115 201.235156 
L 403.497789 200.81127 
L 405.325799 200.21783 
L 405.935135 199.836333 
L 406.544472 199.666779 
L 407.153808 199.242893 
L 407.763145 198.988562 
L 408.981818 198.352733 
L 411.419165 197.589739 
L 412.028501 197.293019 
L 413.856511 195.894197 
L 414.465848 195.767031 
L 415.684521 194.834483 
L 416.293857 194.707317 
L 416.903194 193.774769 
L 417.512531 193.520437 
L 418.121867 193.054163 
L 418.731204 192.969386 
L 419.949877 192.24878 
L 420.559214 192.121615 
L 421.16855 191.867283 
L 421.777887 191.401009 
L 422.387224 191.189066 
L 424.215233 189.959798 
L 426.65258 188.73053 
L 427.261916 188.645753 
L 428.48059 188.094701 
L 429.089926 187.755593 
L 429.699263 186.738267 
L 430.3086 186.187216 
L 430.917936 185.848108 
L 431.527273 185.720942 
L 432.745946 184.957948 
L 433.355283 184.830782 
L 434.573956 184.237342 
L 436.401966 183.474348 
L 437.620639 182.626577 
L 438.839312 181.35492 
L 441.885995 179.150715 
L 443.104668 178.175778 
L 443.714005 177.921447 
L 444.323342 177.24323 
L 444.932678 176.776955 
L 446.151351 176.35307 
L 447.370025 175.547687 
L 447.979361 175.250967 
L 448.588698 175.081413 
L 449.198034 174.657527 
L 449.807371 174.530362 
L 451.635381 173.555425 
L 452.854054 172.834819 
L 458.94742 170.673003 
L 459.556757 170.121951 
L 461.384767 169.443734 
L 462.60344 169.062237 
L 463.212776 168.595963 
L 466.259459 167.027586 
L 467.478133 164.696215 
L 468.696806 163.255004 
L 469.915479 162.534399 
L 471.743489 161.813793 
L 472.352826 161.729016 
L 472.962162 161.389907 
L 474.790172 160.838856 
L 477.227518 159.736754 
L 477.836855 159.355257 
L 479.055528 158.931371 
L 482.711548 156.811943 
L 483.320885 156.176114 
L 484.539558 155.540286 
L 485.148894 155.201177 
L 485.758231 154.989235 
L 486.367568 154.565349 
L 487.586241 153.971909 
L 489.414251 152.996972 
L 490.023587 152.827418 
L 490.632924 152.361144 
L 493.679607 151.386207 
L 494.288943 151.216653 
L 494.89828 150.919933 
L 495.507617 150.496047 
L 496.72629 150.156939 
L 497.944963 149.690664 
L 498.5543 149.22439 
L 499.772973 148.842893 
L 500.38231 148.546173 
L 500.991646 148.376619 
L 502.210319 147.528848 
L 503.428993 147.020185 
L 504.647666 146.087637 
L 505.866339 145.663751 
L 506.475676 145.155088 
L 507.085012 145.070311 
L 508.303686 144.180151 
L 509.522359 143.586712 
L 510.131695 143.33238 
L 510.741032 142.73894 
L 514.397052 141.424895 
L 516.225061 140.619512 
L 518.053071 140.068461 
L 519.271744 139.898907 
L 519.881081 139.644575 
L 520.490418 139.559798 
L 521.709091 139.051135 
L 522.318428 139.008747 
L 524.755774 138.118587 
L 526.583784 136.889319 
L 527.19312 136.634987 
L 528.411794 135.999159 
L 529.02113 135.787216 
L 531.458477 134.346005 
L 532.067813 133.964508 
L 533.286486 133.667788 
L 535.114496 132.650463 
L 536.942506 132.057023 
L 537.551843 131.802691 
L 538.770516 131.505971 
L 541.817199 130.531034 
L 543.645209 130.234315 
L 546.082555 129.47132 
L 546.691892 129.216989 
L 547.301229 129.132212 
L 547.910565 128.835492 
L 549.129238 128.581161 
L 550.347912 128.157275 
L 550.957248 127.945332 
L 552.175921 127.818167 
L 553.394595 127.521447 
L 555.222604 127.224727 
L 555.831941 127.012784 
L 557.050614 126.885618 
L 560.097297 126.122624 
L 561.315971 125.825904 
L 561.925307 125.486796 
L 564.97199 124.723802 
L 565.581327 124.596636 
L 566.8 124.17275 
L 568.62801 123.536922 
L 569.237346 123.452145 
L 571.065356 122.816316 
L 571.674693 122.816316 
L 572.893366 122.392431 
L 573.502703 121.798991 
L 574.112039 121.502271 
L 575.330713 121.120774 
L 577.768059 120.188225 
L 578.377396 120.06106 
L 578.986732 119.679563 
L 579.596069 119.552397 
L 580.205405 119.213288 
L 583.252088 118.323129 
L 583.861425 117.941632 
L 584.470762 117.814466 
L 585.080098 117.305803 
L 586.908108 116.966695 
L 588.126781 116.288478 
L 588.736118 115.610261 
L 589.954791 115.355929 
L 594.220147 114.380992 
L 594.829484 114.211438 
L 596.048157 114.16905 
L 596.657494 113.87233 
L 599.09484 113.448444 
L 599.704177 113.194113 
L 601.532187 112.939781 
L 603.969533 112.176787 
L 605.797543 111.752902 
L 607.625553 111.286627 
L 609.453563 110.735576 
L 612.500246 109.845416 
L 613.109582 109.506308 
L 614.937592 108.870479 
L 615.546929 108.404205 
L 616.765602 108.065097 
L 617.374939 107.810765 
L 618.593612 107.471657 
L 621.030958 106.369554 
L 622.858968 106.242389 
L 625.296314 105.564172 
L 625.905651 105.182675 
L 627.124324 104.843566 
L 628.952334 103.911018 
L 629.561671 103.783852 
L 630.171007 103.487132 
L 630.780344 103.444743 
L 637.483047 101.19815 
L 639.920393 100.60471 
L 640.52973 100.435156 
L 641.748403 99.884104 
L 642.35774 99.799327 
L 643.576413 99.460219 
L 644.185749 98.993944 
L 644.795086 98.697225 
L 645.404423 97.976619 
L 646.013759 97.552733 
L 647.232432 97.171236 
L 647.841769 96.704962 
L 654.544472 93.949706 
L 655.763145 93.652986 
L 657.591155 92.805214 
L 658.809828 92.084609 
L 659.419165 91.957443 
L 660.028501 91.491169 
L 661.247174 90.897729 
L 662.465848 90.134735 
L 664.293857 89.286964 
L 664.903194 88.863078 
L 666.121867 88.439193 
L 667.340541 87.718587 
L 667.949877 87.464256 
L 668.559214 87.04037 
L 669.777887 86.616484 
L 670.387224 86.489319 
L 672.82457 85.387216 
L 675.871253 84.327502 
L 676.48059 84.285114 
L 677.089926 84.115559 
L 677.699263 83.734062 
L 678.3086 83.649285 
L 678.917936 83.437342 
L 680.745946 83.098234 
L 684.401966 81.233137 
L 685.011302 80.894029 
L 685.620639 80.809251 
L 687.448649 79.834315 
L 689.276658 79.156098 
L 691.104668 78.350715 
L 693.542015 77.375778 
L 694.151351 77.206224 
L 694.760688 76.824727 
L 695.979361 76.655172 
L 696.588698 76.273675 
L 697.198034 76.231287 
L 698.416708 75.84979 
L 699.635381 75.25635 
L 700.244717 75.171573 
L 700.854054 74.917241 
L 701.463391 74.790076 
L 703.2914 73.984693 
L 703.900737 73.857527 
L 704.510074 73.603196 
L 707.556757 72.88259 
L 709.384767 72.204373 
L 711.822113 70.805551 
L 713.040786 70.339277 
L 713.650123 69.95778 
L 714.868796 69.703448 
L 715.478133 69.36434 
L 716.087469 69.237174 
L 717.306143 68.558957 
L 720.962162 66.863415 
L 722.790172 66.269975 
L 724.008845 65.846089 
L 724.618182 65.634146 
L 725.836855 64.998318 
L 727.055528 64.616821 
L 727.664865 64.489655 
L 730.102211 63.345164 
L 730.711548 63.260387 
L 731.320885 63.048444 
L 732.539558 62.370227 
L 734.976904 61.268124 
L 736.195577 60.844239 
L 737.414251 60.20841 
L 738.023587 60.123633 
L 741.07027 58.767199 
L 741.679607 58.343314 
L 744.116953 57.537931 
L 744.72629 57.537931 
L 745.944963 56.98688 
L 747.163636 55.8 
L 747.163636 55.8 
" clip-path="url(#p12f942913e)" style="fill: none; stroke: #1f77b4; stroke-width: 1.5; stroke-linecap: square"/>
   </g>
   <g id="line2d_36">
    <path d="M 139.0457 307.8 
L 140.87371 307.715223 
L 142.70172 307.672834 
L 146.35774 307.588057 
L 149.404423 307.460892 
L 151.841769 307.460892 
L 152.451106 307.291337 
L 154.888452 307.20656 
L 156.716462 306.994617 
L 158.544472 306.825063 
L 162.200491 306.655509 
L 162.809828 306.655509 
L 163.419165 306.528343 
L 165.856511 306.443566 
L 167.075184 306.358789 
L 171.949877 306.274012 
L 174.99656 306.146846 
L 182.3086 306.062069 
L 185.355283 305.934903 
L 189.011302 305.850126 
L 191.448649 305.765349 
L 196.932678 305.680572 
L 198.760688 305.638183 
L 200.588698 305.595795 
L 202.416708 305.383852 
L 206.072727 305.341463 
L 207.2914 305.256686 
L 211.556757 305.171909 
L 218.259459 304.790412 
L 222.524816 304.705635 
L 223.743489 304.620858 
L 225.571499 304.536081 
L 229.227518 304.366526 
L 231.664865 304.324138 
L 233.492875 304.154584 
L 243.24226 303.561144 
L 245.679607 303.476367 
L 249.944963 303.264424 
L 251.772973 303.179647 
L 257.866339 302.840538 
L 264.569042 302.755761 
L 267.006388 302.50143 
L 268.225061 302.416653 
L 276.146437 301.780824 
L 279.802457 301.31455 
L 282.239803 301.229773 
L 287.114496 300.593944 
L 290.770516 300.509167 
L 292.598526 300.339613 
L 293.817199 300.297225 
L 295.035872 300.170059 
L 296.863882 300.085282 
L 298.082555 299.915728 
L 301.129238 299.576619 
L 303.566585 299.491842 
L 304.785258 299.407065 
L 307.222604 299.322288 
L 308.441278 299.237511 
L 311.487961 298.940791 
L 312.097297 298.771236 
L 315.753317 298.601682 
L 318.8 298.516905 
L 326.721376 298.050631 
L 328.549386 297.965854 
L 336.470762 297.499579 
L 340.736118 297.414802 
L 341.345455 297.287637 
L 346.220147 297.20286 
L 350.485504 296.990917 
L 357.188206 296.90614 
L 361.453563 296.694197 
L 366.328256 296.60942 
L 371.202948 296.355088 
L 375.468305 296.270311 
L 387.0457 295.549706 
L 391.920393 295.464929 
L 407.763145 294.447603 
L 411.419165 294.362826 
L 413.247174 294.320437 
L 415.075184 294.278049 
L 416.903194 294.108495 
L 421.777887 294.023717 
L 422.99656 293.811775 
L 424.215233 293.726997 
L 427.261916 293.599832 
L 428.48059 293.515055 
L 429.699263 293.430278 
L 435.183292 293.3455 
L 436.401966 293.218335 
L 438.839312 293.175946 
L 439.448649 293.04878 
L 440.667322 292.964003 
L 441.276658 292.836838 
L 443.104668 292.752061 
L 453.463391 292.116232 
L 455.2914 292.031455 
L 458.338084 291.904289 
L 466.868796 291.819512 
L 471.134152 291.607569 
L 476.008845 291.522792 
L 478.446192 291.438015 
L 480.883538 291.395627 
L 482.102211 291.268461 
L 484.539558 291.183684 
L 490.632924 290.844575 
L 494.288943 290.802187 
L 496.116953 290.632632 
L 497.944963 290.590244 
L 502.210319 290.505467 
L 504.647666 290.42069 
L 511.959705 290.335913 
L 515.006388 290.208747 
L 518.662408 290.12397 
L 520.490418 289.912027 
L 524.146437 289.869638 
L 525.974447 289.700084 
L 528.411794 289.615307 
L 535.723833 289.53053 
L 538.770516 289.403364 
L 549.129238 289.360976 
L 550.347912 289.276198 
L 552.175921 289.23381 
L 560.097297 289.149033 
L 561.315971 289.064256 
L 568.018673 288.979479 
L 570.45602 288.894701 
L 577.768059 288.852313 
L 578.986732 288.767536 
L 588.126781 288.725147 
L 589.954791 288.555593 
L 605.188206 288.470816 
L 607.016216 288.428427 
L 623.468305 288.34365 
L 625.905651 288.258873 
L 636.264373 288.174096 
L 637.483047 288.089319 
L 640.52973 288.004542 
L 642.35774 287.834987 
L 645.404423 287.75021 
L 647.841769 287.665433 
L 651.497789 287.580656 
L 653.325799 287.538267 
L 655.763145 287.45349 
L 657.591155 287.411102 
L 660.637838 287.326325 
L 661.856511 287.241548 
L 665.512531 287.15677 
L 668.559214 287.029605 
L 669.777887 286.987216 
L 670.99656 286.902439 
L 672.82457 286.86005 
L 675.261916 286.775273 
L 677.699263 286.690496 
L 685.620639 286.605719 
L 688.057985 286.520942 
L 692.932678 286.436165 
L 697.198034 286.224222 
L 702.682064 286.139445 
L 703.900737 286.054668 
L 714.868796 285.969891 
L 716.696806 285.927502 
L 719.743489 285.885114 
L 722.180835 285.630782 
L 724.008845 285.588394 
L 727.664865 285.503616 
L 734.367568 285.122119 
L 736.804914 285.037342 
L 739.24226 284.952565 
L 742.89828 284.867788 
L 744.116953 284.783011 
L 746.5543 284.698234 
L 747.163636 284.613457 
L 747.163636 284.613457 
" clip-path="url(#p12f942913e)" style="fill: none; stroke: #ff7f0e; stroke-width: 1.5; stroke-linecap: square"/>
   </g>
   <g id="patch_3">
    <path d="M 108 320.4 
L 108 43.2 
" style="fill: none; stroke: #a9a9a9; stroke-width: 0.8; stroke-linejoin: miter; stroke-linecap: square"/>
   </g>
   <g id="patch_4">
    <path d="M 777.6 320.4 
L 777.6 43.2 
" style="fill: none"/>
   </g>
   <g id="patch_5">
    <path d="M 108 320.4 
L 777.6 320.4 
" style="fill: none; stroke: #a9a9a9; stroke-width: 0.8; stroke-linejoin: miter; stroke-linecap: square"/>
   </g>
   <g id="patch_6">
    <path d="M 108 43.2 
L 777.6 43.2 
" style="fill: none"/>
   </g>
   <g id="text_18">
    <!-- get_subscribe history -->
    <g style="fill: #a9a9a9" transform="translate(378.6075 37.2) scale(0.12 -0.12)">
     <defs>
      <path id="DejaVuSans-67" d="M 2906 1791 
Q 2906 2416 2648 2759 
Q 2391 3103 1925 3103 
Q 1463 3103 1205 2759 
Q 947 2416 947 1791 
Q 947 1169 1205 825 
Q 1463 481 1925 481 
Q 2391 481 2648 825 
Q 2906 1169 2906 1791 
z
M 3481 434 
Q 3481 -459 3084 -895 
Q 2688 -1331 1869 -1331 
Q 1566 -1331 1297 -1286 
Q 1028 -1241 775 -1147 
L 775 -588 
Q 1028 -725 1275 -790 
Q 1522 -856 1778 -856 
Q 2344 -856 2625 -561 
Q 2906 -266 2906 331 
L 2906 616 
Q 2728 306 2450 153 
Q 2172 0 1784 0 
Q 1141 0 747 490 
Q 353 981 353 1791 
Q 353 2603 747 3093 
Q 1141 3584 1784 3584 
Q 2172 3584 2450 3431 
Q 2728 3278 2906 2969 
L 2906 3500 
L 3481 3500 
L 3481 434 
z
" transform="scale(0.015625)"/>
      <path id="DejaVuSans-65" d="M 3597 1894 
L 3597 1613 
L 953 1613 
Q 991 1019 1311 708 
Q 1631 397 2203 397 
Q 2534 397 2845 478 
Q 3156 559 3463 722 
L 3463 178 
Q 3153 47 2828 -22 
Q 2503 -91 2169 -91 
Q 1331 -91 842 396 
Q 353 884 353 1716 
Q 353 2575 817 3079 
Q 1281 3584 2069 3584 
Q 2775 3584 3186 3129 
Q 3597 2675 3597 1894 
z
M 3022 2063 
Q 3016 2534 2758 2815 
Q 2500 3097 2075 3097 
Q 1594 3097 1305 2825 
Q 1016 2553 972 2059 
L 3022 2063 
z
" transform="scale(0.015625)"/>
      <path id="DejaVuSans-74" d="M 1172 4494 
L 1172 3500 
L 2356 3500 
L 2356 3053 
L 1172 3053 
L 1172 1153 
Q 1172 725 1289 603 
Q 1406 481 1766 481 
L 2356 481 
L 2356 0 
L 1766 0 
Q 1100 0 847 248 
Q 594 497 594 1153 
L 594 3053 
L 172 3053 
L 172 3500 
L 594 3500 
L 594 4494 
L 1172 4494 
z
" transform="scale(0.015625)"/>
      <path id="DejaVuSans-5f" d="M 3263 -1063 
L 3263 -1509 
L -63 -1509 
L -63 -1063 
L 3263 -1063 
z
" transform="scale(0.015625)"/>
      <path id="DejaVuSans-73" d="M 2834 3397 
L 2834 2853 
Q 2591 2978 2328 3040 
Q 2066 3103 1784 3103 
Q 1356 3103 1142 2972 
Q 928 2841 928 2578 
Q 928 2378 1081 2264 
Q 1234 2150 1697 2047 
L 1894 2003 
Q 2506 1872 2764 1633 
Q 3022 1394 3022 966 
Q 3022 478 2636 193 
Q 2250 -91 1575 -91 
Q 1294 -91 989 -36 
Q 684 19 347 128 
L 347 722 
Q 666 556 975 473 
Q 1284 391 1588 391 
Q 1994 391 2212 530 
Q 2431 669 2431 922 
Q 2431 1156 2273 1281 
Q 2116 1406 1581 1522 
L 1381 1569 
Q 847 1681 609 1914 
Q 372 2147 372 2553 
Q 372 3047 722 3315 
Q 1072 3584 1716 3584 
Q 2034 3584 2315 3537 
Q 2597 3491 2834 3397 
z
" transform="scale(0.015625)"/>
      <path id="DejaVuSans-75" d="M 544 1381 
L 544 3500 
L 1119 3500 
L 1119 1403 
Q 1119 906 1312 657 
Q 1506 409 1894 409 
Q 2359 409 2629 706 
Q 2900 1003 2900 1516 
L 2900 3500 
L 3475 3500 
L 3475 0 
L 2900 0 
L 2900 538 
Q 2691 219 2414 64 
Q 2138 -91 1772 -91 
Q 1169 -91 856 284 
Q 544 659 544 1381 
z
M 1991 3584 
L 1991 3584 
z
" transform="scale(0.015625)"/>
      <path id="DejaVuSans-62" d="M 3116 1747 
Q 3116 2381 2855 2742 
Q 2594 3103 2138 3103 
Q 1681 3103 1420 2742 
Q 1159 2381 1159 1747 
Q 1159 1113 1420 752 
Q 1681 391 2138 391 
Q 2594 391 2855 752 
Q 3116 1113 3116 1747 
z
M 1159 2969 
Q 1341 3281 1617 3432 
Q 1894 3584 2278 3584 
Q 2916 3584 3314 3078 
Q 3713 2572 3713 1747 
Q 3713 922 3314 415 
Q 2916 -91 2278 -91 
Q 1894 -91 1617 61 
Q 1341 213 1159 525 
L 1159 0 
L 581 0 
L 581 4863 
L 1159 4863 
L 1159 2969 
z
" transform="scale(0.015625)"/>
      <path id="DejaVuSans-63" d="M 3122 3366 
L 3122 2828 
Q 2878 2963 2633 3030 
Q 2388 3097 2138 3097 
Q 1578 3097 1268 2742 
Q 959 2388 959 1747 
Q 959 1106 1268 751 
Q 1578 397 2138 397 
Q 2388 397 2633 464 
Q 2878 531 3122 666 
L 3122 134 
Q 2881 22 2623 -34 
Q 2366 -91 2075 -91 
Q 1284 -91 818 406 
Q 353 903 353 1747 
Q 353 2603 823 3093 
Q 1294 3584 2113 3584 
Q 2378 3584 2631 3529 
Q 2884 3475 3122 3366 
z
" transform="scale(0.015625)"/>
      <path id="DejaVuSans-72" d="M 2631 2963 
Q 2534 3019 2420 3045 
Q 2306 3072 2169 3072 
Q 1681 3072 1420 2755 
Q 1159 2438 1159 1844 
L 1159 0 
L 581 0 
L 581 3500 
L 1159 3500 
L 1159 2956 
Q 1341 3275 1631 3429 
Q 1922 3584 2338 3584 
Q 2397 3584 2469 3576 
Q 2541 3569 2628 3553 
L 2631 2963 
z
" transform="scale(0.015625)"/>
      <path id="DejaVuSans-69" d="M 603 3500 
L 1178 3500 
L 1178 0 
L 603 0 
L 603 3500 
z
M 603 4863 
L 1178 4863 
L 1178 4134 
L 603 4134 
L 603 4863 
z
" transform="scale(0.015625)"/>
      <path id="DejaVuSans-20" transform="scale(0.015625)"/>
      <path id="DejaVuSans-68" d="M 3513 2113 
L 3513 0 
L 2938 0 
L 2938 2094 
Q 2938 2591 2744 2837 
Q 2550 3084 2163 3084 
Q 1697 3084 1428 2787 
Q 1159 2491 1159 1978 
L 1159 0 
L 581 0 
L 581 4863 
L 1159 4863 
L 1159 2956 
Q 1366 3272 1645 3428 
Q 1925 3584 2291 3584 
Q 2894 3584 3203 3211 
Q 3513 2838 3513 2113 
z
" transform="scale(0.015625)"/>
      <path id="DejaVuSans-6f" d="M 1959 3097 
Q 1497 3097 1228 2736 
Q 959 2375 959 1747 
Q 959 1119 1226 758 
Q 1494 397 1959 397 
Q 2419 397 2687 759 
Q 2956 1122 2956 1747 
Q 2956 2369 2687 2733 
Q 2419 3097 1959 3097 
z
M 1959 3584 
Q 2709 3584 3137 3096 
Q 3566 2609 3566 1747 
Q 3566 888 3137 398 
Q 2709 -91 1959 -91 
Q 1206 -91 779 398 
Q 353 888 353 1747 
Q 353 2609 779 3096 
Q 1206 3584 1959 3584 
z
" transform="scale(0.015625)"/>
      <path id="DejaVuSans-79" d="M 2059 -325 
Q 1816 -950 1584 -1140 
Q 1353 -1331 966 -1331 
L 506 -1331 
L 506 -850 
L 844 -850 
Q 1081 -850 1212 -737 
Q 1344 -625 1503 -206 
L 1606 56 
L 191 3500 
L 800 3500 
L 1894 763 
L 2988 3500 
L 3597 3500 
L 2059 -325 
z
" transform="scale(0.015625)"/>
     </defs>
     <use xlink:href="#DejaVuSans-67"/>
     <use xlink:href="#DejaVuSans-65" x="63.476562"/>
     <use xlink:href="#DejaVuSans-74" x="125"/>
     <use xlink:href="#DejaVuSans-5f" x="164.208984"/>
     <use xlink:href="#DejaVuSans-73" x="214.208984"/>
     <use xlink:href="#DejaVuSans-75" x="266.308594"/>
     <use xlink:href="#DejaVuSans-62" x="329.6875"/>
     <use xlink:href="#DejaVuSans-73" x="393.164062"/>
     <use xlink:href="#DejaVuSans-63" x="445.263672"/>
     <use xlink:href="#DejaVuSans-72" x="500.244141"/>
     <use xlink:href="#DejaVuSans-69" x="541.357422"/>
     <use xlink:href="#DejaVuSans-62" x="569.140625"/>
     <use xlink:href="#DejaVuSans-65" x="632.617188"/>
     <use xlink:href="#DejaVuSans-20" x="694.140625"/>
     <use xlink:href="#DejaVuSans-68" x="725.927734"/>
     <use xlink:href="#DejaVuSans-69" x="789.306641"/>
     <use xlink:href="#DejaVuSans-73" x="817.089844"/>
     <use xlink:href="#DejaVuSans-74" x="869.189453"/>
     <use xlink:href="#DejaVuSans-6f" x="908.398438"/>
     <use xlink:href="#DejaVuSans-72" x="969.580078"/>
     <use xlink:href="#DejaVuSans-79" x="1010.693359"/>
    </g>
   </g>
   <g id="legend_1">
    <g id="line2d_37">
     <path d="M 815.08 328.498438 
L 825.08 328.498438 
L 835.08 328.498438 
" style="fill: none; stroke: #1f77b4; stroke-width: 1.5; stroke-linecap: square"/>
    </g>
    <g id="text_19">
     <!-- star -->
     <g style="fill: #a9a9a9" transform="translate(843.08 331.998438) scale(0.1 -0.1)">
      <defs>
       <path id="DejaVuSans-61" d="M 2194 1759 
Q 1497 1759 1228 1600 
Q 959 1441 959 1056 
Q 959 750 1161 570 
Q 1363 391 1709 391 
Q 2188 391 2477 730 
Q 2766 1069 2766 1631 
L 2766 1759 
L 2194 1759 
z
M 3341 1997 
L 3341 0 
L 2766 0 
L 2766 531 
Q 2569 213 2275 61 
Q 1981 -91 1556 -91 
Q 1019 -91 701 211 
Q 384 513 384 1019 
Q 384 1609 779 1909 
Q 1175 2209 1959 2209 
L 2766 2209 
L 2766 2266 
Q 2766 2663 2505 2880 
Q 2244 3097 1772 3097 
Q 1472 3097 1187 3025 
Q 903 2953 641 2809 
L 641 3341 
Q 956 3463 1253 3523 
Q 1550 3584 1831 3584 
Q 2591 3584 2966 3190 
Q 3341 2797 3341 1997 
z
" transform="scale(0.015625)"/>
      </defs>
      <use xlink:href="#DejaVuSans-73"/>
      <use xlink:href="#DejaVuSans-74" x="52.099609"/>
      <use xlink:href="#DejaVuSans-61" x="91.308594"/>
      <use xlink:href="#DejaVuSans-72" x="152.587891"/>
     </g>
    </g>
    <g id="line2d_38">
     <path d="M 815.08 343.176562 
L 825.08 343.176562 
L 835.08 343.176562 
" style="fill: none; stroke: #ff7f0e; stroke-width: 1.5; stroke-linecap: square"/>
    </g>
    <g id="text_20">
     <!-- fork -->
     <g style="fill: #a9a9a9" transform="translate(843.08 346.676562) scale(0.1 -0.1)">
      <defs>
       <path id="DejaVuSans-66" d="M 2375 4863 
L 2375 4384 
L 1825 4384 
Q 1516 4384 1395 4259 
Q 1275 4134 1275 3809 
L 1275 3500 
L 2222 3500 
L 2222 3053 
L 1275 3053 
L 1275 0 
L 697 0 
L 697 3053 
L 147 3053 
L 147 3500 
L 697 3500 
L 697 3744 
Q 697 4328 969 4595 
Q 1241 4863 1831 4863 
L 2375 4863 
z
" transform="scale(0.015625)"/>
       <path id="DejaVuSans-6b" d="M 581 4863 
L 1159 4863 
L 1159 1991 
L 2875 3500 
L 3609 3500 
L 1753 1863 
L 3688 0 
L 2938 0 
L 1159 1709 
L 1159 0 
L 581 0 
L 581 4863 
z
" transform="scale(0.015625)"/>
      </defs>
      <use xlink:href="#DejaVuSans-66"/>
      <use xlink:href="#DejaVuSans-6f" x="35.205078"/>
      <use xlink:href="#DejaVuSans-72" x="96.386719"/>
      <use xlink:href="#DejaVuSans-6b" x="137.5"/>
     </g>
    </g>
   </g>
  </g>
 </g>
 <defs>
  <clipPath id="p12f942913e">
   <rect x="108" y="43.2" width="669.6" height="277.2"/>
  </clipPath>
 </defs>
</svg>
